<?xml version="1.0" standalone="no"?>
<!DOCTYPE svg PUBLIC "-//W3C//DTD SVG 1.1//EN" "http://www.w3.org/Graphics/SVG/1.1/DTD/svg11.dtd" >
<svg xmlns="http://www.w3.org/2000/svg" width="100%" height="100%">
<metadata>
Created by FontXChange 20110222 at Mon Jan 14 18:46:59 2019
 By Suzi Rubino
Copyright (c) 2011 by Emily Lime Design. All rights reserved.
</metadata>
<defs>
<font id="CarolynaProBlack" horiz-adv-x="0" >
  <font-face 
    font-family="CarolynaProBlack"
    font-weight="700"
    font-stretch="normal"
    units-per-em="1000"
    panose-1="3 5 5 2 4 0 0 0 0 4"
    ascent="800"
    descent="-200"
    x-height="316"
    cap-height="790"
    bbox="-3486 -873 3212.18 1387.29"
    underline-thickness="50"
    underline-position="-50"
    unicode-range="U+0020-25CA"
  />
<missing-glyph horiz-adv-x="320" 
 />
    <glyph glyph-name="s_s" unicode="ss" horiz-adv-x="708" 
d="M120 108c-30 -16 -138 -57 -96 -89c19 -14 54 -9 70 -2c43 18 27 50 26 91zM160 517c-23 -13 -3 -65 -3 -83c7 18 27 43 24 67c-3 20 -10 21 -21 16zM444 108c-30 -16 -138 -57 -96 -89c19 -14 54 -9 70 -2c43 18 27 50 26 91zM484 517c-23 -13 -3 -65 -3 -83
c7 18 27 43 24 67c-3 20 -10 21 -21 16zM342 7c-64 49 67 95 99 113c-3 36 -23 162 -31 208c-48 -54 -115 -151 -194 -188c5 -44 6 -114 -48 -136c-22 -9 -132 -11 -150 3c-64 49 67 95 99 113c-3 36 -23 162 -31 208c-20 -30 -41 -59 -86 -111v21c40 47 74 91 82 107l-6 44
c-14 123 107 182 118 118c5 -31 -18 -65 -31 -87c2 -41 48 -238 51 -268c78 36 140 135 192 193l-6 44c-14 123 107 182 118 118c5 -31 -18 -65 -31 -87c2 -41 52 -248 55 -278c46 24 129 46 166 96v-21c-31 -39 -138 -73 -164 -87c5 -44 2 -104 -52 -126
c-22 -9 -132 -11 -150 3z" />
    <glyph glyph-name="swsh0" unicode="&#x2a;&#x31;" horiz-adv-x="707" 
d="M111 179l13 -1c-2 -16 -6 -32 -8 -48c78 0 257 -45 344 -45c124 0 172 56 247 153v-21c-66 -89 -126 -145 -244 -145c-92 0 -273 45 -349 46c-8 -29 -20 -50 -42 -65c-16 -11 -37 -19 -66 -9l-6 8c7 52 46 76 102 78c4 19 7 35 9 49zM14 54c20 -4 39 -1 52 9
c16 12 26 31 34 55c-47 -4 -79 -24 -86 -64z" />
    <glyph glyph-name="swsh1" unicode="&#x2a;&#x32;" horiz-adv-x="707" 
d="M596 275l-13 2c3 15 6 31 8 47c-77 1 -257 46 -344 46c-124 0 -172 -56 -247 -153v21c66 88 126 144 244 144c92 0 273 -44 350 -45c7 29 20 49 41 65c16 11 37 18 67 8l5 -8c-7 -52 -46 -76 -102 -78c-4 -18 -7 -34 -9 -49zM693 400c-20 5 -39 2 -51 -9
c-16 -12 -27 -30 -35 -54c47 4 79 23 86 63z" />
    <glyph glyph-name="swsh2" unicode="&#x2a;&#x33;" horiz-adv-x="952" 
d="M687 226c-36 16 -77 42 -117 68c-108 71 -232 152 -346 104c5 -28 -3 -43 -21 -51c-15 -7 -35 -8 -41 5c-7 11 -4 26 29 45l18 9c-11 30 -51 27 -73 21c-56 -13 -124 -58 -122 -100h-13c-3 48 71 100 133 113c47 10 79 -2 88 -29c116 49 243 -32 355 -105
c41 -27 81 -52 116 -68c115 -56 189 -87 259 0v-21c-78 -87 -178 -33 -265 9zM212 392c-2 0 -7 -3 -13 -6c-26 -16 -28 -24 -25 -28c1 -4 13 -4 25 2c10 5 16 13 13 32z" />
    <glyph glyph-name="swsh3" unicode="&#x2a;&#x34;" horiz-adv-x="952" 
d="M264 229c37 -17 78 -43 118 -69c108 -70 232 -152 346 -103c-5 27 3 42 20 50c15 7 35 8 42 -5c7 -11 3 -26 -30 -44c-6 -4 -13 -8 -17 -9c11 -31 51 -27 72 -22c57 13 124 59 123 100h13c3 -48 -72 -100 -133 -113c-47 -9 -79 3 -88 29c-116 -49 -243 32 -355 106
c-41 26 -81 51 -116 68c-115 56 -189 86 -259 0v21c78 87 178 32 264 -9zM740 62c2 0 7 4 13 7c26 15 28 24 25 28c-2 3 -13 4 -25 -3c-10 -4 -16 -12 -13 -32z" />
    <glyph glyph-name="swsh4" unicode="&#x2a;&#x35;" horiz-adv-x="619" 
d="M14 231h-13c-3 48 71 100 133 113c47 10 79 -2 88 -29c164 80 165 -139 304 -131c33 2 64 17 93 54v-21c-29 -32 -61 -45 -93 -46c-148 -6 -154 215 -302 131c2 -32 -5 -47 -21 -54c-15 -6 -35 -5 -41 8c-10 17 16 40 48 53c-11 29 -52 29 -74 23
c-56 -14 -124 -59 -122 -101zM213 296c-23 -9 -44 -28 -39 -34c1 -4 13 -8 25 -1c10 5 17 16 14 35z" />
    <glyph glyph-name="swsh5" unicode="&#x2a;&#x36;" horiz-adv-x="619" 
d="M605 223h13c3 -48 -72 -100 -133 -113c-47 -9 -79 3 -87 29c-164 -80 -166 139 -305 131c-34 -1 -63 -16 -93 -53v21c29 32 60 44 93 45c148 7 154 -214 302 -130c-3 31 5 46 20 53s35 5 43 -8c8 -16 -17 -40 -49 -52c11 -30 52 -29 73 -24c57 14 124 60 123 101z
M406 158c23 9 44 28 40 35c-3 3 -14 7 -26 1c-10 -6 -17 -16 -14 -36z" />
    <glyph glyph-name="swsh6" unicode="&#x2a;&#x37;" horiz-adv-x="627" 
d="M325 -124c-7 1 -29 9 -33 24c-9 34 55 56 74 60c26 6 57 1 86 -6c82 72 187 201 210 304c16 72 -12 130 -96 154c-204 59 -446 -31 -566 -195v21c125 160 365 246 570 187c91 -27 142 -91 125 -171c-33 -125 -127 -228 -221 -304c20 -6 38 -12 52 -20l-6 -12
c-16 8 -37 16 -58 20c-28 -22 -96 -71 -137 -62zM371 -53c-20 -4 -72 -24 -65 -45c0 -7 18 -13 23 -14c34 -5 91 41 109 56c-24 3 -46 8 -67 3z" />
    <glyph glyph-name="swsh7" unicode="&#x2a;&#x38;" horiz-adv-x="56" 
d="M0 217v21c-16 1 -34 13 -42 37c-20 59 82 58 59 -29c11 -2 23 4 33 12l3 -9c-7 -8 -19 -17 -39 -14c-4 -5 -7 -10 -14 -18zM5 249c16 65 -50 67 -34 29c7 -17 19 -24 34 -29z" />
    <glyph glyph-name="swsh8" unicode="&#x2a;&#x39;" horiz-adv-x="707" 
d="M124 277l-13 -2c-2 15 -5 31 -9 49c-56 2 -95 26 -102 78l6 8c29 10 50 3 66 -8c22 -16 34 -36 42 -65c76 1 257 45 349 45c118 0 178 -56 244 -144v-21c-75 97 -123 153 -247 153c-87 0 -266 -45 -344 -46c2 -16 6 -32 8 -47zM14 400c7 -40 39 -59 86 -63
c-8 24 -18 42 -34 54c-13 11 -32 14 -52 9z" />
    <glyph glyph-name="swsh9" unicode="&#x2a;&#x30;" horiz-adv-x="949" 
d="M764 -208l-2 14c75 -6 193 79 160 203c-18 65 -65 105 -136 132c-52 -184 -458 -332 -464 -105c0 60 67 132 182 147c94 12 172 7 259 -22c26 92 8 218 -125 277c-220 97 -502 -40 -638 -221v21c141 179 424 309 645 212c139 -61 167 -201 145 -297
c69 -27 128 -78 145 -139c31 -118 -65 -216 -171 -222zM760 149c-78 29 -170 33 -255 21c-104 -14 -171 -82 -169 -133c5 -203 375 -66 424 112z" />
    <glyph glyph-name="swshA" unicode="&#x3d;A" horiz-adv-x="1146" 
d="M542 143c212 0 427 55 593 129c92 39 229 133 307 62c8 -6 19 -19 12 -30c-5 -9 -21 -14 -32 -9c-8 4 -10 20 -11 32h-13c-1 -11 3 -37 19 -44c17 -7 40 -1 49 14c4 6 11 25 -15 47c-85 77 -224 -18 -321 -60c-315 -138 -797 -212 -1122 34l-8 -12
c157 -117 349 -163 542 -163z" />
    <glyph glyph-name="swshB" unicode="&#x3d;B" horiz-adv-x="2254" 
d="M2155 -86l-4 -12c-104 36 -189 117 -271 195c-101 96 -205 193 -339 205c-173 16 -333 -78 -488 -169c-83 -48 -168 -99 -254 -131c-273 -103 -627 -63 -799 261l11 6c168 -317 515 -357 784 -255c84 32 170 81 251 129c157 92 320 188 496 172
c139 -13 244 -112 346 -209c82 -77 166 -157 267 -192z" />
    <glyph glyph-name="swshC" unicode="&#x3d;C" horiz-adv-x="823" 
d="M142 162l-6 -10c-111 66 -154 183 -119 326c50 211 242 404 411 415c22 1 47 -3 73 -10c22 32 47 59 65 76c148 141 349 230 535 239c177 9 456 -61 518 -244c47 -137 -3 -247 -145 -328l-10 9c138 79 189 185 145 314c-60 179 -334 246 -507 238
c-184 -9 -381 -97 -529 -235c-17 -17 -39 -42 -60 -74c40 -13 80 -38 113 -70c43 -45 65 -95 60 -144c-2 -46 -28 -90 -65 -115c-34 -21 -72 -26 -107 -14c-52 19 -84 51 -95 96c-15 75 27 169 76 242c-23 7 -45 10 -67 9c-164 -12 -350 -200 -400 -404
c-20 -82 -31 -230 114 -316zM506 869c-47 -71 -91 -163 -76 -235c10 -43 39 -72 87 -88c33 -12 67 -7 98 13c34 23 58 63 61 105c4 46 -18 94 -60 136c-30 30 -70 56 -110 69z" />
    <glyph glyph-name="swshD" unicode="&#x3d;D" horiz-adv-x="1566" 
d="M1582 -88l-4 -10c-252 20 -410 252 -564 455c-88 112 -176 228 -280 316c-140 117 -320 158 -467 110c-128 -42 -218 -149 -256 -302l-11 3c37 158 131 267 264 310c150 50 334 7 477 -112c105 -88 195 -206 281 -319c154 -201 329 -441 560 -451z" />
    <glyph glyph-name="swshE" unicode="&#x3d;E" horiz-adv-x="1483" 
d="M437 2c-106 0 -227 30 -327 131c-107 106 -139 264 -81 390c49 112 156 172 292 166v-12c-131 6 -233 -51 -282 -159c-55 -123 -25 -273 78 -377c136 -136 309 -139 432 -117c148 26 303 106 414 211c73 70 139 162 210 259c161 221 329 451 588 464
c89 6 189 -22 252 -72c34 -28 81 -71 79 -120c-1 -32 -23 -62 -62 -89l-10 9c37 25 59 52 61 80c1 44 -43 84 -76 109c-60 49 -156 77 -244 72c-252 -14 -419 -241 -578 -459c-71 -99 -139 -191 -211 -260c-114 -109 -271 -188 -422 -215c-33 -7 -72 -11 -113 -11z" />
    <glyph glyph-name="swshF" unicode="&#x3d;F" horiz-adv-x="1922" 
d="M-6 542l9 6c385 -246 971 -113 1414 -8c133 31 269 64 406 88c12 2 279 63 329 -44c18 -40 2 -93 -22 -127c-25 -35 -58 -54 -89 -51v13c27 -1 57 14 79 45c26 38 35 84 22 114c-38 80 -224 60 -316 38c-137 -23 -274 -56 -407 -87c-449 -105 -1037 -241 -1425 13z" />
    <glyph glyph-name="swshG" unicode="&#x3d;G" horiz-adv-x="2238" 
d="M2778 542l14 -4c-30 -98 -189 -100 -252 -100c-108 0 -215 54 -318 80c-136 33 -275 63 -418 36c-206 -38 -370 -156 -536 -272l-83 -60c-121 -82 -234 -111 -344 -111c-131 0 -265 45 -415 124c-129 67 -265 114 -417 156l1 14c152 -42 292 -90 421 -157
c259 -135 495 -185 741 -16l83 58c167 118 339 240 547 278c145 28 286 -2 422 -35c102 -26 210 -79 316 -79c60 0 211 12 238 88z" />
    <glyph glyph-name="swshI" unicode="&#x3d;I" horiz-adv-x="2995" 
d="M2064 202c-109 0 -251 113 -339 182l-44 34c-135 99 -310 200 -476 105c-8 -5 -38 -38 -65 -77c22 -30 39 -75 31 -105c-5 -16 -16 -35 -49 -36c-32 -3 -42 10 -45 21c-8 28 17 76 47 120c-6 10 -14 16 -20 20c-143 96 -364 3 -510 -59l-13 -5
c-195 -83 -388 -152 -583 -87l4 13c191 -64 373 0 574 86l14 4c148 64 372 158 521 60c7 -5 14 -12 20 -20c28 39 58 70 67 76c173 98 352 -4 490 -105l45 -35c97 -76 259 -204 365 -174c25 7 47 25 63 51c-24 9 -45 22 -59 39c-12 16 -17 35 -14 56c6 39 21 52 34 56
c15 5 33 0 47 -15c19 -21 36 -60 19 -106c-2 -8 -6 -15 -9 -22c24 -8 51 -12 70 -14c124 -14 246 15 365 42c60 15 123 29 184 38c30 4 388 31 413 -30c7 -18 -19 -38 -27 -44l-5 13c10 6 23 18 20 27c-17 44 -335 30 -399 21c-61 -9 -123 -23 -182 -37
c-120 -28 -245 -57 -371 -43c-20 2 -47 6 -74 15c-18 -31 -42 -51 -72 -60c-12 -3 -24 -5 -37 -5zM2133 411c-3 0 -5 0 -7 -1c-13 -4 -22 -20 -25 -46c-3 -18 1 -33 11 -46c12 -16 33 -28 55 -35c3 7 7 14 9 22c14 38 2 74 -16 93c-9 9 -18 13 -27 13zM1132 435
c-26 -40 -50 -83 -42 -105c0 -4 4 -15 31 -12c21 0 33 10 37 26c7 25 -8 63 -26 91z" />
    <glyph glyph-name="swshJ" unicode="&#x3d;J" horiz-adv-x="2387" 
d="M2613 498l-10 -8c-49 46 -208 88 -625 76h-30c-327 12 -1118 4 -1590 -1c-164 -2 -299 -3 -358 -3v12c59 0 194 0 358 3c472 5 1262 13 1589 1h30c355 10 569 -16 636 -80z" />
    <glyph glyph-name="swshL" unicode="&#x3d;L" 
d="M-274 571c-41 0 -80 3 -119 9c-152 25 -261 97 -318 210l12 6c69 -138 205 -186 308 -202c243 -40 529 55 642 168l9 -9c-98 -98 -319 -182 -534 -182z" />
    <glyph glyph-name="swshM" unicode="&#x3d;M" horiz-adv-x="2438" 
d="M2627 335l-5 13c18 6 36 18 47 30c27 27 39 62 29 91c-12 34 -39 59 -80 76c-101 40 -271 13 -348 -25c-74 -38 -140 -86 -204 -132c-132 -94 -256 -182 -440 -206c-87 -10 -232 -8 -346 44c-30 -32 -68 -57 -113 -75c-60 -25 -128 -34 -200 -34
c-229 0 -494 101 -629 170c-83 43 -280 162 -340 347l10 4c58 -182 254 -299 335 -340c177 -91 574 -236 820 -136c42 16 77 40 106 70c-54 26 -99 65 -125 120c-23 47 -32 130 -4 193c14 33 38 54 69 64c43 12 79 4 106 -25c53 -55 56 -177 35 -240
c-14 -42 -35 -78 -61 -108c105 -47 240 -54 335 -42c182 22 304 110 434 204c65 45 132 93 207 133c77 37 249 67 357 24c44 -17 73 -45 87 -83c11 -33 0 -74 -32 -106c-15 -13 -32 -24 -50 -31zM1246 603c-11 0 -22 -2 -35 -6c-27 -7 -48 -27 -61 -58
c-25 -56 -18 -137 4 -182c25 -51 70 -90 124 -116c26 30 47 66 61 108c20 59 19 175 -32 228c-17 17 -37 26 -61 26z" />
    <glyph glyph-name="swshO" unicode="&#x3d;O" horiz-adv-x="1841" 
d="M2093 566l-6 12c-30 -85 3 -111 19 -117c36 -15 89 10 105 48c8 19 17 69 -83 113c-141 56 -348 -19 -500 -73l-69 -24c-665 -229 -1186 -213 -1551 47l-7 -9c196 -141 437 -211 721 -211c248 0 528 54 841 162c20 6 44 16 69 24c150 53 355 127 491 72
c63 -27 91 -63 77 -97c-14 -31 -61 -53 -90 -41c-25 10 -32 45 -17 94z" />
    <glyph glyph-name="swshU" unicode="&#x3d;U" horiz-adv-x="1446" 
d="M1463 834l7 8c-108 26 -241 -51 -333 -104l-30 -18c-338 -195 -769 -254 -1097 -153l-4 -9c108 -33 225 -50 348 -50c254 0 528 70 758 204l30 16c89 54 217 128 321 106z" />
    <glyph glyph-name="swshV" unicode="&#x3d;V" horiz-adv-x="1757" 
d="M741 226c-245 0 -505 40 -742 158l7 12c433 -217 944 -170 1298 -94c107 24 212 52 312 85c20 7 42 15 64 24c66 27 142 58 206 45c31 -6 77 -33 80 -62c2 -12 -3 -28 -33 -43l-5 13c19 9 26 18 26 28c-3 22 -45 46 -72 51c-60 13 -132 -17 -197 -43
c-23 -10 -45 -18 -65 -24c-100 -34 -205 -63 -313 -86c-163 -36 -359 -64 -566 -64z" />
    <glyph glyph-name="swshX" unicode="&#x3d;X" horiz-adv-x="1880" 
d="M498 424c-170 0 -301 38 -397 116c-42 34 -109 104 -95 155c6 27 33 43 78 51l2 -12c-40 -6 -64 -20 -68 -41c-12 -40 39 -103 90 -144c137 -110 347 -139 642 -90c201 34 418 107 662 225c204 99 563 165 661 42l-10 -8c-93 116 -450 51 -646 -44
c-245 -118 -463 -192 -666 -226c-93 -15 -177 -24 -253 -24z" />
    <glyph glyph-name="swshY" unicode="&#x3d;Y" horiz-adv-x="1653" 
d="M1670 821c25 -3 44 -13 60 -32l-10 -7c-14 17 -29 26 -51 28c-126 12 -381 -214 -550 -364c-65 -58 -116 -103 -145 -124c-170 -120 -353 -166 -540 -166c-144 0 -289 27 -434 66c2 4 2 8 2 10c332 -91 669 -113 967 99c28 20 79 65 144 123c169 151 426 380 557 367z
" />
    <glyph glyph-name="swshZ" unicode="&#x3d;Z" horiz-adv-x="1735" 
d="M901 437c-144 0 -285 23 -413 68c-34 12 -66 26 -94 47c-52 -41 -116 -55 -184 -42c-128 33 -180 167 -208 264l10 3c30 -103 79 -225 200 -257c64 -13 125 2 174 38c-34 28 -59 67 -68 124c-3 27 -20 163 51 208c28 17 52 12 67 5c30 -13 52 -49 56 -88
c10 -93 -22 -185 -85 -243c-1 -2 -3 -3 -5 -6c27 -19 57 -32 89 -44c269 -94 593 -88 889 17c62 22 122 54 180 84c74 39 150 79 230 100c44 11 123 -12 137 -47c4 -12 4 -37 -29 -49l-2 13c19 4 26 20 21 32c-11 29 -83 51 -123 42c-80 -22 -156 -61 -228 -100
c-60 -31 -120 -63 -182 -85c-158 -55 -323 -84 -483 -84zM408 891c-11 0 -22 -3 -34 -10c-50 -32 -56 -127 -45 -198c9 -54 32 -91 65 -117c2 2 4 4 6 5c60 55 91 146 82 235c-4 34 -25 68 -51 80c-7 4 -15 5 -23 5z" />
    <glyph glyph-name="swsha" unicode="&#x3d;a" horiz-adv-x="1862" 
d="M1192 122c-118 0 -246 8 -381 32c-83 15 -233 50 -345 45c0 -6 0 -12 -3 -19c-6 -22 -49 -51 -73 -46c-7 1 -19 7 -16 28c1 12 7 22 17 29c14 10 35 16 61 19c-7 28 -40 53 -68 64c-45 16 -103 15 -152 -5c-1 -1 -4 -1 -5 -2c1 -9 1 -17 0 -25c-2 -16 -20 -45 -37 -48
c-5 0 -15 0 -20 13c-5 9 -5 19 -2 28c6 17 26 29 44 39c-5 10 -10 17 -17 22c-21 19 -54 29 -81 20c-45 -14 -92 -60 -114 -99v21c24 34 62 74 107 88c31 11 71 1 96 -20c10 -9 16 -17 19 -27c3 1 4 1 5 1c52 21 114 22 162 6c30 -12 68 -41 75 -75c114 5 261 -29 350 -45
c400 -64 732 -32 1012 97l4 -11c-187 -87 -399 -130 -638 -130zM454 198c-24 -2 -43 -8 -55 -16c-8 -7 -12 -12 -13 -21c-1 -14 4 -15 6 -15c17 -4 54 23 60 38c2 4 2 10 2 14zM216 262c-19 -10 -32 -20 -36 -31c-3 -5 -3 -12 1 -18c3 -7 6 -7 7 -7c10 1 25 24 27 37
c1 7 1 13 1 19z" />
    <glyph glyph-name="swshb" unicode="&#x3d;b" horiz-adv-x="2441" 
d="M1481 45c-110 0 -223 11 -340 33c-87 16 -196 69 -314 125c-298 143 -637 304 -827 14v21c2 4 15 21 26 32c201 236 535 75 808 -56c115 -54 224 -107 310 -122c518 -101 963 25 1290 363l9 -10c-256 -264 -584 -400 -962 -400z" />
    <glyph glyph-name="swshc" unicode="&#x3d;c" horiz-adv-x="339" 
d="M-757 -776c-92 0 -189 22 -269 66c-124 68 -178 171 -153 290l9 -2c-31 -156 79 -241 148 -278c175 -95 424 -85 535 24c14 13 27 31 37 50c-82 13 -175 44 -216 102c-27 35 -29 78 -8 126c14 32 40 56 77 64c41 12 87 2 122 -24c36 -29 57 -77 61 -135
c2 -42 -7 -85 -23 -124c35 -4 68 -4 91 -2c188 15 374 97 497 219c91 90 191 254 177 417c-6 74 -45 151 -99 198c-32 28 -93 51 -151 44c-34 -5 -60 -18 -78 -42v21c18 19 46 27 76 32c61 7 126 -18 159 -46c58 -51 98 -130 105 -207c14 -166 -89 -332 -182 -424
c-124 -124 -313 -207 -504 -223c-24 -2 -58 -1 -94 4c-10 -23 -25 -43 -40 -58c-62 -61 -166 -92 -277 -92zM-563 -339c-10 0 -21 -2 -31 -5c-34 -8 -57 -29 -72 -58c-18 -44 -15 -84 8 -116c40 -56 132 -86 212 -98c16 38 24 81 21 123c-2 55 -22 100 -57 127
c-23 16 -51 27 -81 27z" />
    <glyph glyph-name="swshd" unicode="&#x3d;d" horiz-adv-x="1918" 
d="M0 217v21c35 45 71 107 110 171c141 239 317 536 589 445c132 -44 343 -310 509 -524c86 -108 158 -200 204 -244c52 -48 129 -68 213 -52c117 19 220 100 282 220l11 -4c-64 -124 -171 -207 -292 -228c-18 -4 -36 -5 -53 -5c-67 0 -127 21 -169 61
c-47 44 -119 136 -206 244c-166 213 -374 478 -502 520c-263 88 -437 -204 -576 -439c-42 -71 -82 -138 -120 -186z" />
    <glyph glyph-name="swshe" unicode="&#x3d;e" horiz-adv-x="2058" 
d="M0 217v21l27 24c127 103 330 72 496 48c38 -6 72 -11 105 -14l68 -8c222 -24 452 -48 678 -36c380 22 602 102 660 234l11 -5c-89 -208 -527 -233 -671 -242c-227 -13 -456 12 -679 36l-69 7l-105 14c-163 26 -363 54 -487 -45c-12 -9 -23 -21 -34 -34z" />
    <glyph glyph-name="swshf" unicode="&#x3d;f" horiz-adv-x="2318" 
d="M0 217v21c53 89 183 160 294 162c31 38 68 69 95 83c140 77 381 55 557 22c92 -12 182 -28 268 -43c354 -61 779 -129 1100 28l5 -9c-322 -157 -754 -92 -1106 -30c-87 15 -177 31 -268 43c-176 32 -415 55 -551 -20c-25 -12 -57 -40 -86 -74c11 0 23 -1 34 -2
c85 -17 102 -68 104 -96c6 -57 -36 -122 -89 -144c-11 -3 -23 -6 -34 -6c-27 0 -53 15 -73 42c-20 24 -25 54 -18 89s28 74 54 106c-113 -7 -244 -82 -286 -172zM299 390c-27 -33 -49 -72 -57 -109c-7 -31 0 -59 17 -80c25 -34 58 -45 94 -32c49 18 88 81 84 132
c-5 43 -39 74 -97 85c-13 3 -27 4 -41 4z" />
    <glyph glyph-name="swshg" unicode="&#x3d;g" horiz-adv-x="2126" 
d="M2124 676l-1 -13c-118 -1 -236 -38 -365 -127l-92 -64c-183 -130 -372 -262 -600 -306c-160 -29 -316 8 -466 46c-186 46 -442 209 -600 5v21c169 190 414 33 603 -13c148 -38 303 -76 459 -46c228 43 415 175 597 303c31 22 61 44 92 64c132 92 253 130 373 130z" />
    <glyph glyph-name="swshh" unicode="&#x3d;h" horiz-adv-x="2826" 
d="M374 -190c-88 79 107 203 181 260c-122 210 -413 329 -555 147v21c170 185 467 24 566 -160c616 428 1448 521 2259 556v-13c-809 -35 -1639 -127 -2253 -556c22 -47 26 -99 9 -152c-26 -74 -128 -174 -207 -103zM561 57c-70 -52 -250 -171 -179 -238
c72 -66 163 35 185 96c17 46 15 95 -6 142z" />
    <glyph glyph-name="swshi" unicode="&#x3d;i" horiz-adv-x="2743" 
d="M0 217v21c53 58 165 109 247 109c3 12 7 24 17 32c76 73 358 -41 452 -77c12 -6 20 -9 25 -10c145 -52 289 -70 402 -50c75 13 131 41 171 84c2 2 3 5 5 8c-34 20 -75 57 -73 87c0 19 16 31 45 38c35 7 50 -4 56 -17c15 -26 6 -73 -11 -104c8 -5 17 -9 22 -12
c124 -44 246 5 364 52c11 3 21 8 33 13c83 32 289 113 383 31c60 26 149 21 243 16c139 -8 282 -16 352 72l10 -8c-74 -92 -221 -84 -364 -76c-89 4 -175 9 -233 -12c7 -8 13 -19 19 -28c28 -55 6 -79 -5 -86c-22 -17 -59 -12 -79 9c-10 9 -28 33 0 70c11 15 26 29 43 38
c-90 69 -292 -9 -364 -38l-34 -14c-120 -47 -243 -95 -371 -50c-7 3 -15 7 -25 13c-3 -4 -4 -7 -7 -10c-41 -44 -101 -75 -177 -88c-156 -27 -324 20 -410 50c-5 2 -12 6 -24 10c-246 99 -394 126 -440 82c-5 -7 -10 -14 -12 -24c14 0 28 -2 40 -7c41 -13 60 -41 54 -81
c-4 -28 -20 -34 -28 -34c-27 -3 -60 27 -70 51c-8 23 -11 42 -10 59c-88 -1 -192 -53 -246 -119zM2134 408c-18 -9 -33 -20 -43 -36c-15 -22 -16 -40 -3 -54c17 -16 49 -20 66 -8c16 12 16 37 0 69c-6 13 -12 21 -20 29zM1311 450c-5 0 -10 -1 -16 -3
c-24 -6 -36 -14 -37 -27c-2 -23 36 -57 68 -76c15 27 24 70 12 93c-6 9 -15 13 -27 13zM258 336c-1 -15 3 -34 9 -54c8 -20 38 -46 58 -44c9 1 15 8 16 24c6 34 -10 56 -44 68c-12 4 -25 4 -39 6z" />
    <glyph glyph-name="swshj" unicode="&#x3d;j" 
d="M-2725 -388l-8 11c475 347 995 279 1546 206c358 -47 729 -96 1085 -19c304 64 459 243 462 376c2 70 -28 120 -102 139c-56 14 -160 18 -258 -108v21c8 9 15 18 24 26c131 132 371 98 368 -78c-3 -139 -180 -323 -491 -388c-359 -78 -731 -29 -1090 17
c-548 73 -1065 141 -1536 -203z" />
    <glyph glyph-name="swshk" unicode="&#x3d;k" 
d="M-2045 -449l-9 9c124 130 280 207 468 230c268 32 539 -10 801 -54c239 -38 508 -99 747 -45c183 42 344 187 308 377c-13 74 -64 190 -136 212c-56 17 -98 -18 -134 -63v21c33 42 85 69 138 53c78 -24 148 -142 164 -221c36 -196 -150 -348 -338 -392
c-248 -56 -506 7 -750 47c-262 43 -532 86 -799 53c-184 -22 -339 -98 -460 -227z" />
    <glyph glyph-name="swshl" unicode="&#x3d;l" 
d="M-1751 -442c-4 0 -7 0 -11 1c-96 23 -21 156 22 196c329 306 1949 -213 2062 259c31 128 16 229 -59 272c-75 42 -178 16 -263 -69v21c62 60 176 112 268 60c82 -46 118 -153 86 -287c-119 -497 -1757 43 -2086 -266c-42 -40 -106 -156 -27 -173c40 -8 105 42 131 98
l12 -4c-26 -58 -90 -108 -135 -108z" />
    <glyph glyph-name="swshm" unicode="&#x3d;m" horiz-adv-x="2721" 
d="M1930 102h-15c-102 0 -208 40 -269 104c0 0 0 1 -1 1c-133 -122 -322 -119 -519 10c-44 29 -87 65 -132 104c-103 87 -208 181 -340 180c-83 0 -192 -42 -256 -114c67 -5 192 -47 212 -114c9 -34 -10 -67 -55 -100c-49 -37 -113 -44 -161 -21c-38 19 -60 54 -60 98
c0 49 16 92 43 128c-158 8 -257 -32 -377 -161v21c118 121 226 163 386 152c65 78 180 124 268 124h3c134 0 241 -95 345 -183c44 -38 86 -76 129 -105c93 -60 323 -180 506 -10c-42 49 -63 109 -58 175c3 41 28 110 69 125c21 8 42 1 65 -21c20 -20 29 -47 30 -81
c0 -75 -51 -160 -87 -196c-2 -1 -2 -2 -3 -3c64 -66 173 -106 277 -102c180 7 363 84 489 206c27 26 55 58 85 92c62 71 134 153 207 187l4 -9c-70 -35 -141 -115 -203 -185c-30 -34 -58 -66 -85 -93c-129 -124 -315 -202 -497 -209zM390 377c-28 -36 -45 -78 -45 -127
c0 -39 19 -71 53 -88c45 -23 104 -15 150 20c42 30 58 60 51 88c-16 57 -130 101 -201 106c-3 0 -6 0 -8 1zM1665 508c-5 0 -9 -1 -14 -2c-34 -13 -57 -76 -60 -116c-5 -63 14 -120 55 -167c0 1 1 3 2 3c34 33 85 118 84 188c0 31 -10 56 -28 74c-13 13 -26 20 -39 20z" />
    <glyph glyph-name="swshn" unicode="&#x3d;n" horiz-adv-x="1830" 
d="M718 216c-16 0 -29 6 -34 16c-7 17 9 38 48 62c2 2 4 2 5 3c-34 33 -95 65 -125 73c-219 66 -486 12 -612 -153v21c9 10 20 22 37 38c141 129 381 166 578 106c27 -7 94 -40 132 -80c203 119 382 137 608 127c310 -15 391 -29 669 104l6 -12
c-279 -133 -363 -119 -675 -105c-224 11 -400 -7 -599 -123c9 -12 16 -23 17 -37c1 -18 -14 -34 -39 -38c-4 -2 -10 -2 -16 -2zM745 286c-11 -4 -55 -33 -50 -48c3 -8 20 -12 36 -8c7 0 29 8 29 25c-1 9 -6 20 -15 31z" />
    <glyph glyph-name="swsho" unicode="&#x3d;o" horiz-adv-x="2308" 
d="M2118 114c-554 0 -1003 185 -1544 224c-73 6 -168 11 -260 3c-128 -11 -243 -39 -314 -124v21c70 79 203 106 312 116c94 8 189 3 263 -2c550 -39 981 -225 1545 -226c46 0 170 4 170 68h13c0 -14 -8 -33 -25 -47c-30 -25 -88 -33 -160 -33z" />
    <glyph glyph-name="swshp" unicode="&#x3d;p" horiz-adv-x="2190" 
d="M628 43c-12 0 -25 1 -36 5c-40 10 -64 30 -68 57c-15 75 114 177 174 224l10 8c21 17 44 34 68 50c-64 41 -144 71 -223 77c-212 17 -418 -75 -553 -247v21l36 39c136 141 326 214 518 199c83 -6 178 -28 244 -73c387 258 896 253 1386 225v-12
c-487 29 -992 33 -1376 -221c24 -16 42 -37 54 -61c28 -54 13 -120 -38 -183c-46 -57 -125 -108 -196 -108zM786 380c-24 -17 -48 -35 -71 -53l-9 -8c-54 -42 -185 -145 -171 -212c5 -22 25 -38 59 -48c131 -35 361 211 192 321z" />
    <glyph glyph-name="swshq" unicode="&#x3d;q" horiz-adv-x="717" 
d="M437 -65c-29 0 -53 5 -71 15s-28 26 -25 45l13 -1c-2 -15 4 -25 19 -34c49 -27 154 -10 234 50c50 40 103 108 73 222c-26 105 -93 177 -208 198c-169 34 -354 -51 -472 -213v21c6 8 22 28 30 36c120 134 289 200 444 169c120 -22 211 -99 238 -208
c31 -121 -32 -193 -83 -234c-59 -44 -133 -66 -192 -66z" />
    <glyph glyph-name="swshr" unicode="&#x3d;r" horiz-adv-x="2005" 
d="M1572 -8c-50 0 -102 11 -153 34c-246 112 -285 276 -239 396c59 148 265 262 497 184l-4 -12c-225 75 -425 -34 -481 -177c-44 -113 -6 -271 233 -379c189 -88 390 12 490 156c84 120 120 302 -29 453c-180 186 -392 278 -636 274c-461 -7 -949 -369 -1250 -704v21
c304 333 790 688 1250 696c246 4 463 -90 644 -280c156 -154 118 -342 32 -467c-78 -109 -211 -195 -354 -195z" />
    <glyph glyph-name="swshs" unicode="&#x3d;s" 
d="M0 217v21c22 29 40 67 51 105c79 273 -85 440 -327 435c-210 -4 -420 -39 -618 -54c-525 -41 -909 -69 -1280 -26c-117 14 -292 47 -349 151l11 5c54 -98 226 -110 340 -124c429 -48 852 -13 1278 24c175 15 562 69 736 30c189 -43 285 -212 221 -442
c-13 -47 -36 -91 -63 -125z" />
    <glyph glyph-name="swsht" unicode="&#x3d;t" 
d="M-2014 -753l-12 -3c-17 81 -1 156 49 226c126 174 433 282 665 309c88 15 184 24 294 27c168 6 340 -1 504 -9c182 -10 368 -18 552 -7c110 4 226 19 300 88c36 34 52 82 48 125c-8 41 -27 73 -67 93c-12 6 -20 10 -33 14c-3 -51 -53 -97 -97 -112c-21 -9 -43 -4 -63 8
c-24 16 -33 35 -31 56c6 28 35 52 71 61c28 6 60 6 90 0c0 39 -17 79 -46 111c-64 67 -167 56 -210 -17v21c58 70 178 68 238 4c32 -35 48 -78 48 -120c16 -5 32 -8 44 -16c44 -21 78 -56 85 -100c7 -49 -19 -100 -57 -136c-76 -71 -208 -86 -318 -92
c-186 -10 -372 -1 -554 7c-164 9 -336 15 -504 9c-108 -2 -204 -12 -292 -26c-232 -26 -535 -132 -656 -304c-50 -67 -66 -141 -48 -217zM211 116c-14 0 -28 -2 -42 -5c-33 -7 -58 -28 -61 -50c-4 -17 6 -32 25 -45c16 -11 35 -14 51 -8c40 14 70 64 70 103
c-13 3 -28 5 -43 5z" />
    <glyph glyph-name="swshu" unicode="&#x3d;u" 
d="M1148 -8c-161 0 -311 111 -443 203c-135 95 -275 194 -413 195c-110 2 -194 -40 -228 -132c40 -4 69 -44 75 -85c3 -26 -6 -47 -27 -58c-17 -9 -32 -11 -43 -5c-21 12 -26 46 -27 72c0 24 1 45 6 65c-18 -1 -34 -12 -48 -30v21c16 16 34 22 51 22c31 96 126 146 241 144
c142 -2 283 -101 420 -198c139 -99 316 -230 492 -197c109 21 170 78 174 162c5 95 -61 191 -120 209c-29 9 -53 -2 -71 -31l-11 5c21 35 51 49 86 39c64 -19 135 -120 129 -222c-3 -53 -30 -145 -185 -174c-20 -4 -39 -5 -58 -5zM61 246c-5 -18 -7 -40 -6 -63
c1 -33 7 -55 20 -61c7 -5 18 -4 31 4c20 12 21 33 20 45c-3 29 -33 74 -65 75z" />
    <glyph glyph-name="swshv" unicode="&#x3d;v" horiz-adv-x="3003" 
d="M0 217v21c181 219 658 340 1030 348c668 17 1315 11 1973 11v-13c-658 0 -1305 6 -1972 -11c-378 -8 -861 -136 -1031 -356z" />
    <glyph glyph-name="swshw" unicode="&#x3d;w" horiz-adv-x="968" 
d="M526 46c-209 0 -424 77 -526 171v21c114 -114 398 -209 642 -169c102 16 240 65 308 202l12 -5c-56 -114 -167 -186 -318 -211c-38 -5 -78 -9 -118 -9z" />
    <glyph glyph-name="swshx" unicode="&#x3d;x" 
d="M-3474 -545l-12 2c37 399 1150 347 2132 289c578 -32 1124 -77 1340 -4c165 56 180 216 179 282c-1 107 -47 210 -99 227c-23 7 -45 -5 -66 -34v21c26 29 53 31 70 25c58 -18 106 -125 108 -239c1 -68 -15 -234 -188 -294c-219 -74 -765 -49 -1345 -16
c-976 58 -2083 128 -2119 -259z" />
    <glyph glyph-name="t_b" unicode="tb" horiz-adv-x="790" 
d="M193 30c-66 -60 -277 -68 -222 152c25 108 83 264 128 364c-212 60 -362 120 -475 -27l-11 11c121 151 277 88 491 28c13 30 104 66 115 86l12 -6c-5 -20 -22 -83 -35 -112c47 -13 161 -36 182 -32c53 105 134 137 203 143c16 1 26 -11 30 -23c11 -39 -6 -67 -31 -88
c-24 -20 -62 -34 -103 -44c-60 -128 -119 -296 -95 -436c15 71 55 200 111 252c14 12 28 20 42 23c16 3 31 0 47 -8c47 -23 80 -79 70 -148c-7 -41 -41 -101 -71 -138c36 19 132 112 209 211v-21c-77 -95 -166 -183 -206 -203c-71 -34 -107 -16 -144 41c-5 7 -6 9 -6 9l11 8
c17 -29 41 -61 76 -63c23 -2 79 306 21 300c-9 -1 -19 -5 -28 -11c-72 -48 -116 -232 -124 -284v-15h-83v15c-11 30 -21 63 -25 101c-52 -58 -66 -69 -89 -85zM371 479c-14 -2 -144 26 -180 36c-39 -86 -99 -233 -118 -337c-4 -23 -24 -136 36 -163c12 -5 39 -4 76 25
c20 17 48 41 95 92c-3 103 46 259 91 347zM581 624c-28 0 -78 -82 -98 -127c39 10 70 23 90 40s33 39 27 66c-3 12 -9 21 -19 21z" />
    <glyph glyph-name="t_h" unicode="th" horiz-adv-x="769" 
d="M331 2l-89 3c6 30 10 54 15 77c-30 -32 -40 -38 -58 -52c-110 -88 -246 35 -222 152c11 58 47 147 70 208c-44 11 -70 25 -101 41c1 1 8 11 7 11c31 -16 57 -29 99 -39c54 140 124 138 170 205l11 -6c-26 -68 -61 -135 -94 -224c73 -15 132 -23 198 3c9 29 36 117 62 178
c59 136 257 146 252 33c-5 -100 -156 -192 -212 -214l-36 -116c35 45 78 84 120 89c94 10 155 -64 123 -164c-39 -121 -112 -279 -80 -369c23 -58 53 -76 107 -47l6 -13c-65 -28 -173 -8 -195 53c-62 178 175 555 35 527c-46 -10 -91 -63 -127 -115
c-20 -69 -38 -146 -61 -221zM287 213c0 2 3 14 45 152c-71 -24 -127 -15 -197 1c-24 -64 -47 -134 -56 -188c-4 -23 -24 -136 36 -163c12 -5 39 -4 76 25c17 14 37 31 71 67c18 84 25 106 25 106zM444 395c71 32 182 109 194 196c8 60 -75 96 -136 -33
c-26 -54 -51 -141 -58 -163z" />
    <glyph glyph-name="t_k" unicode="tk" horiz-adv-x="776" 
d="M423 540c72 151 250 352 426 302c60 -17 87 -95 76 -151c-21 -105 -113 -177 -288 -221c-35 -8 -101 -16 -149 -15c-72 -159 -117 -280 -152 -453l-82 2l9 84c-33 -36 -42 -42 -63 -58c-64 -48 -267 -59 -222 152c23 110 80 228 129 332l6 12l5 8c-98 35 -199 76 -334 60
l-4 13c142 16 247 -26 349 -63c31 28 95 62 107 83l12 -8c-12 -25 -31 -70 -44 -97c71 -21 127 -40 187 -48c9 21 22 44 32 66zM279 184l107 278c-61 9 -119 27 -187 48c-50 -106 -98 -220 -119 -332c-3 -22 -21 -131 36 -160c13 -5 39 -5 76 24c18 15 39 32 74 69
c3 24 7 47 13 73zM524 533l-32 -65c46 1 96 4 139 14c167 41 261 111 281 211c9 41 -9 120 -67 137c-121 36 -273 -191 -321 -297zM511 -2c-83 4 -97 119 -112 212l10 6c78 -40 196 87 183 140l15 -4c8 -49 -95 -178 -190 -154c270 -111 62 -245 202 -132
c25 21 127 131 157 172v-21c-28 -39 -123 -139 -148 -161c-42 -37 -74 -60 -117 -58z" />
    <glyph glyph-name="t_t" unicode="tt" horiz-adv-x="674" 
d="M71 456l5 13c1 4 3 7 5 11c4 9 11 18 20 27l9 9c36 32 89 60 108 92l12 -6l-60 -141c80 16 159 41 241 56c36 32 88 59 107 91l12 -6l-31 -72c17 2 35 3 53 3c24 0 96 -4 89 -39c-3 -16 -25 -21 -43 -25l-2 12c15 3 32 7 33 16c5 23 -62 24 -77 24c-18 0 -38 -2 -58 -4
l-25 -58l-6 -14c-46 -112 -108 -251 -92 -367c9 -54 35 -80 92 -51c37 19 132 112 211 211v-21c-77 -95 -168 -183 -208 -203c-48 -24 -186 -15 -197 64c-1 6 -2 13 -2 20c-42 -42 -79 -73 -101 -84c-48 -24 -186 -15 -197 64c-15 104 46 253 92 357c-10 -1 -20 -1 -29 -1
c-39 0 -98 5 -106 48c-10 44 58 58 86 43l-5 -11c-26 12 -77 1 -68 -32c8 -33 56 -36 93 -36c11 0 23 0 35 1c1 3 2 6 4 9zM371 456l5 13c1 4 3 7 5 11c3 6 7 13 12 19c-75 -15 -155 -36 -229 -50l-1 -4c-46 -112 -108 -251 -92 -367c9 -54 35 -80 92 -51
c20 10 59 44 103 89c2 108 63 247 105 340z" />
    <glyph glyph-name=".notdef" horiz-adv-x="320" 
 />
    <glyph glyph-name=".null" 
 />
    <glyph glyph-name="A" unicode="A" horiz-adv-x="1273" 
d="M774 325l-27 -71c-63 -165 -126 -330 -249 -437c-61 -55 -186 -126 -301 -139c-57 -5 -114 4 -157 39s-42 69 -38 93c9 60 96 116 151 128c93 22 240 13 326 -43l-7 -12c-86 55 -229 64 -317 42c-57 -14 -129 -66 -141 -119c-5 -28 7 -56 36 -79c41 -31 92 -40 146 -35
c255 25 376 404 450 599l37 94c-92 57 -174 93 -268 53c5 -28 -3 -43 -20 -51c-15 -7 -35 -8 -42 5c-7 11 -3 26 30 45l17 9c-10 30 -50 27 -72 21c-57 -13 -124 -58 -122 -100h-14c-2 48 72 100 134 113c46 10 78 -2 87 -29c96 40 179 5 275 -54c82 201 255 325 482 373
l13 3c19 -36 -47 -410 -88 -593c78 -33 123 -11 178 58v-21c-57 -64 -113 -79 -181 -51c-24 -118 -74 -216 -40 -260c10 -13 26 -20 42 -20l-2 -13c-143 22 -126 232 -108 331c-60 29 -110 55 -210 121zM987 218c63 261 125 418 175 536c-212 -51 -303 -216 -383 -416
c106 -68 153 -96 208 -120zM403 432l-13 -6c-26 -16 -28 -24 -25 -28c2 -4 13 -4 25 2c10 5 16 13 13 32z" />
    <glyph glyph-name="A.alt1" horiz-adv-x="1202" 
d="M178 362c-10 27 8 62 60 99l10 -9c-48 -33 -66 -63 -57 -87c34 -84 237 -109 331 -108c40 0 80 3 119 7c90 234 273 450 530 506l12 1l-4 -11l-18 -55c-30 -91 -83 -252 -124 -421c59 -2 113 -29 165 -46v-21c-45 28 -112 50 -168 55v-1c-36 -149 -63 -292 -21 -346
c9 -13 25 -19 41 -19l-1 -14c-23 2 -71 10 -83 27c-41 59 -82 201 -44 354h-2c-84 5 -97 -12 -178 -22c-63 -164 -126 -328 -247 -435c-62 -54 -187 -126 -301 -138c-58 -6 -114 4 -157 39c-44 35 -43 69 -39 93c9 59 97 116 152 128c92 22 239 12 325 -44l-6 -11
c-87 55 -230 63 -318 42c-57 -15 -129 -67 -141 -119c-4 -28 7 -57 36 -80c41 -31 92 -40 146 -35c276 27 355 346 440 559c-38 -4 -75 -5 -111 -6c-79 -1 -311 19 -347 118zM928 285c48 193 150 420 235 469c-237 -58 -323 -256 -411 -488c86 8 96 25 176 19z" />
    <glyph glyph-name="A.alt1_acute" horiz-adv-x="1202" 
d="M178 362c-10 27 8 62 60 99l10 -9c-48 -33 -66 -63 -57 -87c34 -84 237 -109 331 -108c40 0 80 3 119 7c90 234 273 450 530 506l12 1l-4 -11l-18 -55c-30 -91 -83 -252 -124 -421c59 -2 113 -29 165 -46v-21c-45 28 -112 50 -168 55v-1c-36 -149 -63 -292 -21 -346
c9 -13 25 -19 41 -19l-1 -14c-23 2 -71 10 -83 27c-41 59 -82 201 -44 354h-2c-84 5 -97 -12 -178 -22c-63 -164 -126 -328 -247 -435c-62 -54 -187 -126 -301 -138c-58 -6 -114 4 -157 39c-44 35 -43 69 -39 93c9 59 97 116 152 128c92 22 239 12 325 -44l-6 -11
c-87 55 -230 63 -318 42c-57 -15 -129 -67 -141 -119c-4 -28 7 -57 36 -80c41 -31 92 -40 146 -35c276 27 355 346 440 559c-38 -4 -75 -5 -111 -6c-79 -1 -311 19 -347 118zM928 285c48 193 150 420 235 469c-237 -58 -323 -256 -411 -488c86 8 96 25 176 19zM1113 849
c-1 6 65 98 71 104c0 1 12 -2 12 -1c-6 -10 -25 -97 -28 -104c-5 0 -52 1 -55 1z" />
    <glyph glyph-name="A.alt1_breve" horiz-adv-x="1202" 
d="M178 362c-10 27 8 62 60 99l10 -9c-48 -33 -66 -63 -57 -87c34 -84 237 -109 331 -108c40 0 80 3 119 7c90 234 273 450 530 506l12 1l-4 -11l-18 -55c-30 -91 -83 -252 -124 -421c59 -2 113 -29 165 -46v-21c-45 28 -112 50 -168 55v-1c-36 -149 -63 -292 -21 -346
c9 -13 25 -19 41 -19l-1 -14c-23 2 -71 10 -83 27c-41 59 -82 201 -44 354h-2c-84 5 -97 -12 -178 -22c-63 -164 -126 -328 -247 -435c-62 -54 -187 -126 -301 -138c-58 -6 -114 4 -157 39c-44 35 -43 69 -39 93c9 59 97 116 152 128c92 22 239 12 325 -44l-6 -11
c-87 55 -230 63 -318 42c-57 -15 -129 -67 -141 -119c-4 -28 7 -57 36 -80c41 -31 92 -40 146 -35c276 27 355 346 440 559c-38 -4 -75 -5 -111 -6c-79 -1 -311 19 -347 118zM928 285c48 193 150 420 235 469c-237 -58 -323 -256 -411 -488c86 8 96 25 176 19zM1051 903
l22 14c54 -56 80 -88 124 -14l20 -14c-56 -106 -164 -72 -166 14z" />
    <glyph glyph-name="A.alt1_circumflex" horiz-adv-x="1202" 
d="M178 362c-10 27 8 62 60 99l10 -9c-48 -33 -66 -63 -57 -87c34 -84 237 -109 331 -108c40 0 80 3 119 7c90 234 273 450 530 506l12 1l-4 -11l-18 -55c-30 -91 -83 -252 -124 -421c59 -2 113 -29 165 -46v-21c-45 28 -112 50 -168 55v-1c-36 -149 -63 -292 -21 -346
c9 -13 25 -19 41 -19l-1 -14c-23 2 -71 10 -83 27c-41 59 -82 201 -44 354h-2c-84 5 -97 -12 -178 -22c-63 -164 -126 -328 -247 -435c-62 -54 -187 -126 -301 -138c-58 -6 -114 4 -157 39c-44 35 -43 69 -39 93c9 59 97 116 152 128c92 22 239 12 325 -44l-6 -11
c-87 55 -230 63 -318 42c-57 -15 -129 -67 -141 -119c-4 -28 7 -57 36 -80c41 -31 92 -40 146 -35c276 27 355 346 440 559c-38 -4 -75 -5 -111 -6c-79 -1 -311 19 -347 118zM928 285c48 193 150 420 235 469c-237 -58 -323 -256 -411 -488c86 8 96 25 176 19zM1211 833
l-8 -17c-24 9 -55 53 -52 93c-24 -26 -43 -53 -67 -77l-11 12c27 33 54 63 78 96l15 -8c3 -3 45 -93 45 -99z" />
    <glyph glyph-name="A.alt1_dieresis" horiz-adv-x="1202" 
d="M178 362c36 -99 268 -119 347 -118c36 1 73 2 111 6c-85 -213 -164 -532 -440 -559c-54 -5 -105 4 -146 35c-29 23 -40 52 -36 80c12 52 84 104 141 119c88 21 231 13 318 -42l6 11c-86 56 -233 66 -325 44c-55 -12 -143 -69 -152 -128c-4 -24 -5 -58 39 -93
c43 -35 99 -45 157 -39c114 12 239 84 301 138c121 107 184 271 247 435c81 10 94 27 178 22h2c-38 -153 3 -295 44 -354c12 -17 60 -25 83 -27l1 14c-16 0 -32 6 -41 19c-42 54 -15 197 21 346v1c56 -5 123 -27 168 -55v21c-52 17 -106 44 -165 46c41 169 94 330 124 421
l18 55l4 11l-12 -1c-257 -56 -440 -272 -530 -506c-39 -4 -79 -7 -119 -7c-94 -1 -297 24 -331 108c-9 24 9 54 57 87l-10 9c-52 -37 -70 -72 -60 -99zM928 285c-80 6 -90 -11 -176 -19c88 232 174 430 411 488c-85 -49 -187 -276 -235 -469zM1042 888c0 16 9 29 25 29
c15 0 26 -13 26 -29c0 -15 -11 -30 -26 -30c-16 0 -25 15 -25 30zM1207 877c0 16 11 29 26 29c14 0 26 -13 26 -29c0 -17 -12 -30 -26 -30c-15 0 -26 13 -26 30z" />
    <glyph glyph-name="A.alt1_grave" horiz-adv-x="1202" 
d="M178 362c-10 27 8 62 60 99l10 -9c-48 -33 -66 -63 -57 -87c34 -84 237 -109 331 -108c40 0 80 3 119 7c90 234 273 450 530 506l12 1l-4 -11l-18 -55c-30 -91 -83 -252 -124 -421c59 -2 113 -29 165 -46v-21c-45 28 -112 50 -168 55v-1c-36 -149 -63 -292 -21 -346
c9 -13 25 -19 41 -19l-1 -14c-23 2 -71 10 -83 27c-41 59 -82 201 -44 354h-2c-84 5 -97 -12 -178 -22c-63 -164 -126 -328 -247 -435c-62 -54 -187 -126 -301 -138c-58 -6 -114 4 -157 39c-44 35 -43 69 -39 93c9 59 97 116 152 128c92 22 239 12 325 -44l-6 -11
c-87 55 -230 63 -318 42c-57 -15 -129 -67 -141 -119c-4 -28 7 -57 36 -80c41 -31 92 -40 146 -35c276 27 355 346 440 559c-38 -4 -75 -5 -111 -6c-79 -1 -311 19 -347 118zM928 285c48 193 150 420 235 469c-237 -58 -323 -256 -411 -488c86 8 96 25 176 19zM1181 840
c-3 0 -50 -1 -55 -1c-3 7 -22 94 -28 104l12 1c6 -6 72 -98 71 -104z" />
    <glyph glyph-name="A.alt1_macron" horiz-adv-x="1202" 
d="M178 362c-10 27 8 62 60 99l10 -9c-48 -33 -66 -63 -57 -87c34 -84 237 -109 331 -108c40 0 80 3 119 7c90 234 273 450 530 506l12 1l-4 -11l-18 -55c-30 -91 -83 -252 -124 -421c59 -2 113 -29 165 -46v-21c-45 28 -112 50 -168 55v-1c-36 -149 -63 -292 -21 -346
c9 -13 25 -19 41 -19l-1 -14c-23 2 -71 10 -83 27c-41 59 -82 201 -44 354h-2c-84 5 -97 -12 -178 -22c-63 -164 -126 -328 -247 -435c-62 -54 -187 -126 -301 -138c-58 -6 -114 4 -157 39c-44 35 -43 69 -39 93c9 59 97 116 152 128c92 22 239 12 325 -44l-6 -11
c-87 55 -230 63 -318 42c-57 -15 -129 -67 -141 -119c-4 -28 7 -57 36 -80c41 -31 92 -40 146 -35c276 27 355 346 440 559c-38 -4 -75 -5 -111 -6c-79 -1 -311 19 -347 118zM928 285c48 193 150 420 235 469c-237 -58 -323 -256 -411 -488c86 8 96 25 176 19zM1186 875
l-1 -22l-153 15v23z" />
    <glyph glyph-name="A.alt1_ogonek" horiz-adv-x="1202" 
d="M928 285c48 193 150 420 235 469c-237 -58 -323 -256 -411 -488c86 8 96 25 176 19zM991 -129c3 13 11 22 22 28c-18 4 -37 11 -43 20c-41 59 -82 201 -44 354h-2c-84 5 -97 -12 -178 -22c-63 -164 -126 -328 -247 -435c-62 -54 -187 -126 -301 -138
c-58 -6 -114 4 -157 39c-44 35 -43 69 -39 93c9 59 97 116 152 128c92 22 239 12 325 -44l-6 -11c-87 55 -230 63 -318 42c-57 -15 -129 -67 -141 -119c-4 -28 7 -57 36 -80c41 -31 92 -40 146 -35c276 27 355 346 440 559c-38 -4 -75 -5 -111 -6c-79 -1 -311 19 -347 118
c-10 27 8 62 60 99l10 -9c-48 -33 -66 -63 -57 -87c34 -84 237 -109 331 -108c40 0 80 3 119 7c90 234 273 450 530 506l12 1l-4 -11l-18 -55c-30 -91 -83 -252 -124 -421c59 -2 113 -29 165 -46v-21c-45 28 -112 50 -168 55v-1c-36 -149 -63 -292 -21 -346
c9 -13 25 -19 41 -19l-1 -14l-14 2c-12 -3 -17 -18 -19 -26c-11 -51 6 -109 71 -74l1 -6c-73 -44 -120 11 -101 83z" />
    <glyph glyph-name="A.alt1_ring" horiz-adv-x="1202" 
d="M178 362c-10 27 8 62 60 99l10 -9c-48 -33 -66 -63 -57 -87c34 -84 237 -109 331 -108c40 0 80 3 119 7c90 234 273 450 530 506l12 1l-4 -11l-18 -55c-30 -91 -83 -252 -124 -421c59 -2 113 -29 165 -46v-21c-45 28 -112 50 -168 55v-1c-36 -149 -63 -292 -21 -346
c9 -13 25 -19 41 -19l-1 -14c-23 2 -71 10 -83 27c-41 59 -82 201 -44 354h-2c-84 5 -97 -12 -178 -22c-63 -164 -126 -328 -247 -435c-62 -54 -187 -126 -301 -138c-58 -6 -114 4 -157 39c-44 35 -43 69 -39 93c9 59 97 116 152 128c92 22 239 12 325 -44l-6 -11
c-87 55 -230 63 -318 42c-57 -15 -129 -67 -141 -119c-4 -28 7 -57 36 -80c41 -31 92 -40 146 -35c276 27 355 346 440 559c-38 -4 -75 -5 -111 -6c-79 -1 -311 19 -347 118zM928 285c48 193 150 420 235 469c-237 -58 -323 -256 -411 -488c86 8 96 25 176 19zM1101 907
c34 60 132 42 118 -42c-14 -92 -176 -66 -118 42zM1119 887c-28 -60 72 -76 76 -12c4 50 -60 50 -76 12z" />
    <glyph glyph-name="A.alt1_tilde" horiz-adv-x="1202" 
d="M178 362c-10 27 8 62 60 99l10 -9c-48 -33 -66 -63 -57 -87c34 -84 237 -109 331 -108c40 0 80 3 119 7c90 234 273 450 530 506l12 1l-4 -11l-18 -55c-30 -91 -83 -252 -124 -421c59 -2 113 -29 165 -46v-21c-45 28 -112 50 -168 55v-1c-36 -149 -63 -292 -21 -346
c9 -13 25 -19 41 -19l-1 -14c-23 2 -71 10 -83 27c-41 59 -82 201 -44 354h-2c-84 5 -97 -12 -178 -22c-63 -164 -126 -328 -247 -435c-62 -54 -187 -126 -301 -138c-58 -6 -114 4 -157 39c-44 35 -43 69 -39 93c9 59 97 116 152 128c92 22 239 12 325 -44l-6 -11
c-87 55 -230 63 -318 42c-57 -15 -129 -67 -141 -119c-4 -28 7 -57 36 -80c41 -31 92 -40 146 -35c276 27 355 346 440 559c-38 -4 -75 -5 -111 -6c-79 -1 -311 19 -347 118zM928 285c48 193 150 420 235 469c-237 -58 -323 -256 -411 -488c86 8 96 25 176 19zM1210 850
c-44 -12 -84 8 -102 26c-26 20 -38 46 -70 40c-20 -4 -42 -20 -66 -50l-16 8c24 32 56 52 84 56c28 8 80 0 106 -22c42 -32 70 -64 116 -12l12 -14c-14 -16 -50 -32 -64 -32z" />
    <glyph glyph-name="A.alt2" horiz-adv-x="1563" 
d="M871 444l3 13c46 -4 92 -24 140 -51c89 195 266 318 482 365c27 59 51 112 80 150c-259 -9 -511 -56 -587 -347l-13 4c79 301 342 349 609 356c39 52 80 97 124 136c170 148 314 189 441 136c88 -36 127 -78 119 -123c-13 -83 -173 -141 -288 -153
c-76 -7 -160 -9 -248 -8c-47 0 -89 -1 -135 -1c-115 -173 -205 -484 -244 -649l-13 -52c16 -8 31 -15 44 -20c78 -33 123 -31 178 38v-21c-57 -64 -113 -59 -181 -31c-14 6 -28 12 -44 20c-28 -127 -51 -260 -43 -380c9 -159 39 -260 121 -284c96 -27 189 38 234 112
c41 65 38 131 -3 180c-27 32 -71 41 -113 27c-50 -16 -89 -58 -96 -106h-13c7 55 51 102 104 119c50 16 96 4 128 -32c47 -53 47 -128 3 -196c-52 -84 -155 -137 -247 -116c-296 69 -205 555 -178 731c-38 25 -22 14 -132 84l-3 -7l-34 -87c-82 -205 -284 -399 -502 -422
c-75 -7 -147 7 -201 41c-17 10 -45 36 -54 50c-96 -30 -174 -24 -228 19c-83 65 -87 133 -77 175c22 98 152 192 296 220c36 112 90 196 159 234c81 46 187 54 261 16c55 -28 92 -77 97 -138c10 -154 -206 -384 -399 -480c-33 -17 -66 -31 -96 -41c14 -18 30 -33 48 -45
c51 -32 120 -40 193 -29c229 36 324 233 403 439c14 36 28 71 43 105c-47 27 -92 46 -138 49zM312 322c-15 -49 -26 -106 -34 -168c-12 -92 0 -165 36 -218c29 10 65 25 97 42c214 107 329 336 317 468c-6 71 -28 108 -64 126c-63 33 -130 26 -198 -15
c-65 -38 -115 -111 -151 -221c122 20 230 -14 288 -94l-13 -7c-53 75 -158 108 -278 87zM1606 934h126c91 1 170 2 248 9c121 12 269 75 277 141c4 43 -35 78 -112 110c-124 52 -263 8 -426 -133c-47 -42 -73 -76 -113 -127zM1483 754c-202 -50 -295 -200 -376 -397h1
c25 -16 54 -30 132 -81c40 176 169 391 243 478zM297 320c-100 -22 -255 -93 -280 -210c-13 -57 12 -114 72 -160c51 -40 126 -45 212 -19c-31 45 -50 119 -36 225c8 59 18 115 32 164z" />
    <glyph glyph-name="A.alt2_acute" horiz-adv-x="1563" 
d="M871 444l3 13c46 -4 92 -24 140 -51c89 195 266 318 482 365c27 59 51 112 80 150c-259 -9 -511 -56 -587 -347l-13 4c79 301 342 349 609 356c39 52 80 97 124 136c170 148 314 189 441 136c88 -36 127 -78 119 -123c-13 -83 -173 -141 -288 -153
c-76 -7 -160 -9 -248 -8c-47 0 -89 -1 -135 -1c-115 -173 -205 -484 -244 -649l-13 -52c16 -8 31 -15 44 -20c78 -33 123 -31 178 38v-21c-57 -64 -113 -59 -181 -31c-14 6 -28 12 -44 20c-28 -127 -51 -260 -43 -380c9 -159 39 -260 121 -284c96 -27 189 38 234 112
c41 65 38 131 -3 180c-27 32 -71 41 -113 27c-50 -16 -89 -58 -96 -106h-13c7 55 51 102 104 119c50 16 96 4 128 -32c47 -53 47 -128 3 -196c-52 -84 -155 -137 -247 -116c-296 69 -205 555 -178 731c-38 25 -22 14 -132 84l-3 -7l-34 -87c-82 -205 -284 -399 -502 -422
c-75 -7 -147 7 -201 41c-17 10 -45 36 -54 50c-96 -30 -174 -24 -228 19c-83 65 -87 133 -77 175c22 98 152 192 296 220c36 112 90 196 159 234c81 46 187 54 261 16c55 -28 92 -77 97 -138c10 -154 -206 -384 -399 -480c-33 -17 -66 -31 -96 -41c14 -18 30 -33 48 -45
c51 -32 120 -40 193 -29c229 36 324 233 403 439c14 36 28 71 43 105c-47 27 -92 46 -138 49zM312 322c-15 -49 -26 -106 -34 -168c-12 -92 0 -165 36 -218c29 10 65 25 97 42c214 107 329 336 317 468c-6 71 -28 108 -64 126c-63 33 -130 26 -198 -15
c-65 -38 -115 -111 -151 -221c122 20 230 -14 288 -94l-13 -7c-53 75 -158 108 -278 87zM1606 934h126c91 1 170 2 248 9c121 12 269 75 277 141c4 43 -35 78 -112 110c-124 52 -263 8 -426 -133c-47 -42 -73 -76 -113 -127zM1483 754c-202 -50 -295 -200 -376 -397h1
c25 -16 54 -30 132 -81c40 176 169 391 243 478zM297 320c-100 -22 -255 -93 -280 -210c-13 -57 12 -114 72 -160c51 -40 126 -45 212 -19c-31 45 -50 119 -36 225c8 59 18 115 32 164zM1439 973c-1 6 65 98 71 104c0 1 12 -2 12 -1c-6 -10 -25 -97 -28 -104
c-5 0 -52 1 -55 1z" />
    <glyph glyph-name="A.alt2_breve" horiz-adv-x="1563" 
d="M871 444l3 13c46 -4 92 -24 140 -51c89 195 266 318 482 365c27 59 51 112 80 150c-259 -9 -511 -56 -587 -347l-13 4c79 301 342 349 609 356c39 52 80 97 124 136c170 148 314 189 441 136c88 -36 127 -78 119 -123c-13 -83 -173 -141 -288 -153
c-76 -7 -160 -9 -248 -8c-47 0 -89 -1 -135 -1c-115 -173 -205 -484 -244 -649l-13 -52c16 -8 31 -15 44 -20c78 -33 123 -31 178 38v-21c-57 -64 -113 -59 -181 -31c-14 6 -28 12 -44 20c-28 -127 -51 -260 -43 -380c9 -159 39 -260 121 -284c96 -27 189 38 234 112
c41 65 38 131 -3 180c-27 32 -71 41 -113 27c-50 -16 -89 -58 -96 -106h-13c7 55 51 102 104 119c50 16 96 4 128 -32c47 -53 47 -128 3 -196c-52 -84 -155 -137 -247 -116c-296 69 -205 555 -178 731c-38 25 -22 14 -132 84l-3 -7l-34 -87c-82 -205 -284 -399 -502 -422
c-75 -7 -147 7 -201 41c-17 10 -45 36 -54 50c-96 -30 -174 -24 -228 19c-83 65 -87 133 -77 175c22 98 152 192 296 220c36 112 90 196 159 234c81 46 187 54 261 16c55 -28 92 -77 97 -138c10 -154 -206 -384 -399 -480c-33 -17 -66 -31 -96 -41c14 -18 30 -33 48 -45
c51 -32 120 -40 193 -29c229 36 324 233 403 439c14 36 28 71 43 105c-47 27 -92 46 -138 49zM312 322c-15 -49 -26 -106 -34 -168c-12 -92 0 -165 36 -218c29 10 65 25 97 42c214 107 329 336 317 468c-6 71 -28 108 -64 126c-63 33 -130 26 -198 -15
c-65 -38 -115 -111 -151 -221c122 20 230 -14 288 -94l-13 -7c-53 75 -158 108 -278 87zM1606 934h126c91 1 170 2 248 9c121 12 269 75 277 141c4 43 -35 78 -112 110c-124 52 -263 8 -426 -133c-47 -42 -73 -76 -113 -127zM1483 754c-202 -50 -295 -200 -376 -397h1
c25 -16 54 -30 132 -81c40 176 169 391 243 478zM297 320c-100 -22 -255 -93 -280 -210c-13 -57 12 -114 72 -160c51 -40 126 -45 212 -19c-31 45 -50 119 -36 225c8 59 18 115 32 164zM1376 1060l22 14c54 -56 80 -88 124 -14l20 -14c-56 -106 -164 -72 -166 14z" />
    <glyph glyph-name="A.alt2_circumflex" horiz-adv-x="1563" 
d="M871 444l3 13c46 -4 92 -24 140 -51c89 195 266 318 482 365c27 59 51 112 80 150c-259 -9 -511 -56 -587 -347l-13 4c79 301 342 349 609 356c39 52 80 97 124 136c170 148 314 189 441 136c88 -36 127 -78 119 -123c-13 -83 -173 -141 -288 -153
c-76 -7 -160 -9 -248 -8c-47 0 -89 -1 -135 -1c-115 -173 -205 -484 -244 -649l-13 -52c16 -8 31 -15 44 -20c78 -33 123 -31 178 38v-21c-57 -64 -113 -59 -181 -31c-14 6 -28 12 -44 20c-28 -127 -51 -260 -43 -380c9 -159 39 -260 121 -284c96 -27 189 38 234 112
c41 65 38 131 -3 180c-27 32 -71 41 -113 27c-50 -16 -89 -58 -96 -106h-13c7 55 51 102 104 119c50 16 96 4 128 -32c47 -53 47 -128 3 -196c-52 -84 -155 -137 -247 -116c-296 69 -205 555 -178 731c-38 25 -22 14 -132 84l-3 -7l-34 -87c-82 -205 -284 -399 -502 -422
c-75 -7 -147 7 -201 41c-17 10 -45 36 -54 50c-96 -30 -174 -24 -228 19c-83 65 -87 133 -77 175c22 98 152 192 296 220c36 112 90 196 159 234c81 46 187 54 261 16c55 -28 92 -77 97 -138c10 -154 -206 -384 -399 -480c-33 -17 -66 -31 -96 -41c14 -18 30 -33 48 -45
c51 -32 120 -40 193 -29c229 36 324 233 403 439c14 36 28 71 43 105c-47 27 -92 46 -138 49zM312 322c-15 -49 -26 -106 -34 -168c-12 -92 0 -165 36 -218c29 10 65 25 97 42c214 107 329 336 317 468c-6 71 -28 108 -64 126c-63 33 -130 26 -198 -15
c-65 -38 -115 -111 -151 -221c122 20 230 -14 288 -94l-13 -7c-53 75 -158 108 -278 87zM1606 934h126c91 1 170 2 248 9c121 12 269 75 277 141c4 43 -35 78 -112 110c-124 52 -263 8 -426 -133c-47 -42 -73 -76 -113 -127zM1483 754c-202 -50 -295 -200 -376 -397h1
c25 -16 54 -30 132 -81c40 176 169 391 243 478zM297 320c-100 -22 -255 -93 -280 -210c-13 -57 12 -114 72 -160c51 -40 126 -45 212 -19c-31 45 -50 119 -36 225c8 59 18 115 32 164zM1555 1022l-8 -17c-24 9 -55 53 -52 93c-24 -26 -43 -53 -67 -77l-11 12
c27 33 54 63 78 96l15 -8c3 -3 45 -93 45 -99z" />
    <glyph glyph-name="A.alt2_dieresis" horiz-adv-x="1563" 
d="M871 444l3 13c46 -4 92 -24 140 -51c89 195 266 318 482 365c27 59 51 112 80 150c-259 -9 -511 -56 -587 -347l-13 4c79 301 342 349 609 356c39 52 80 97 124 136c170 148 314 189 441 136c88 -36 127 -78 119 -123c-13 -83 -173 -141 -288 -153
c-76 -7 -160 -9 -248 -8c-47 0 -89 -1 -135 -1c-115 -173 -205 -484 -244 -649l-13 -52c16 -8 31 -15 44 -20c78 -33 123 -31 178 38v-21c-57 -64 -113 -59 -181 -31c-14 6 -28 12 -44 20c-28 -127 -51 -260 -43 -380c9 -159 39 -260 121 -284c96 -27 189 38 234 112
c41 65 38 131 -3 180c-27 32 -71 41 -113 27c-50 -16 -89 -58 -96 -106h-13c7 55 51 102 104 119c50 16 96 4 128 -32c47 -53 47 -128 3 -196c-52 -84 -155 -137 -247 -116c-296 69 -205 555 -178 731c-38 25 -22 14 -132 84l-3 -7l-34 -87c-82 -205 -284 -399 -502 -422
c-75 -7 -147 7 -201 41c-17 10 -45 36 -54 50c-96 -30 -174 -24 -228 19c-83 65 -87 133 -77 175c22 98 152 192 296 220c36 112 90 196 159 234c81 46 187 54 261 16c55 -28 92 -77 97 -138c10 -154 -206 -384 -399 -480c-33 -17 -66 -31 -96 -41c14 -18 30 -33 48 -45
c51 -32 120 -40 193 -29c229 36 324 233 403 439c14 36 28 71 43 105c-47 27 -92 46 -138 49zM312 322c-15 -49 -26 -106 -34 -168c-12 -92 0 -165 36 -218c29 10 65 25 97 42c214 107 329 336 317 468c-6 71 -28 108 -64 126c-63 33 -130 26 -198 -15
c-65 -38 -115 -111 -151 -221c122 20 230 -14 288 -94l-13 -7c-53 75 -158 108 -278 87zM1606 934h126c91 1 170 2 248 9c121 12 269 75 277 141c4 43 -35 78 -112 110c-124 52 -263 8 -426 -133c-47 -42 -73 -76 -113 -127zM1483 754c-202 -50 -295 -200 -376 -397h1
c25 -16 54 -30 132 -81c40 176 169 391 243 478zM297 320c-100 -22 -255 -93 -280 -210c-13 -57 12 -114 72 -160c51 -40 126 -45 212 -19c-31 45 -50 119 -36 225c8 59 18 115 32 164zM1332 1023c0 16 9 29 25 29c15 0 26 -13 26 -29c0 -15 -11 -30 -26 -30
c-16 0 -25 15 -25 30zM1497 1012c0 16 11 29 26 29c14 0 26 -13 26 -29c0 -17 -12 -30 -26 -30c-15 0 -26 13 -26 30z" />
    <glyph glyph-name="A.alt2_grave" horiz-adv-x="1563" 
d="M871 444l3 13c46 -4 92 -24 140 -51c89 195 266 318 482 365c27 59 51 112 80 150c-259 -9 -511 -56 -587 -347l-13 4c79 301 342 349 609 356c39 52 80 97 124 136c170 148 314 189 441 136c88 -36 127 -78 119 -123c-13 -83 -173 -141 -288 -153
c-76 -7 -160 -9 -248 -8c-47 0 -89 -1 -135 -1c-115 -173 -205 -484 -244 -649l-13 -52c16 -8 31 -15 44 -20c78 -33 123 -31 178 38v-21c-57 -64 -113 -59 -181 -31c-14 6 -28 12 -44 20c-28 -127 -51 -260 -43 -380c9 -159 39 -260 121 -284c96 -27 189 38 234 112
c41 65 38 131 -3 180c-27 32 -71 41 -113 27c-50 -16 -89 -58 -96 -106h-13c7 55 51 102 104 119c50 16 96 4 128 -32c47 -53 47 -128 3 -196c-52 -84 -155 -137 -247 -116c-296 69 -205 555 -178 731c-38 25 -22 14 -132 84l-3 -7l-34 -87c-82 -205 -284 -399 -502 -422
c-75 -7 -147 7 -201 41c-17 10 -45 36 -54 50c-96 -30 -174 -24 -228 19c-83 65 -87 133 -77 175c22 98 152 192 296 220c36 112 90 196 159 234c81 46 187 54 261 16c55 -28 92 -77 97 -138c10 -154 -206 -384 -399 -480c-33 -17 -66 -31 -96 -41c14 -18 30 -33 48 -45
c51 -32 120 -40 193 -29c229 36 324 233 403 439c14 36 28 71 43 105c-47 27 -92 46 -138 49zM312 322c-15 -49 -26 -106 -34 -168c-12 -92 0 -165 36 -218c29 10 65 25 97 42c214 107 329 336 317 468c-6 71 -28 108 -64 126c-63 33 -130 26 -198 -15
c-65 -38 -115 -111 -151 -221c122 20 230 -14 288 -94l-13 -7c-53 75 -158 108 -278 87zM1606 934h126c91 1 170 2 248 9c121 12 269 75 277 141c4 43 -35 78 -112 110c-124 52 -263 8 -426 -133c-47 -42 -73 -76 -113 -127zM1483 754c-202 -50 -295 -200 -376 -397h1
c25 -16 54 -30 132 -81c40 176 169 391 243 478zM297 320c-100 -22 -255 -93 -280 -210c-13 -57 12 -114 72 -160c51 -40 126 -45 212 -19c-31 45 -50 119 -36 225c8 59 18 115 32 164zM1527 973c-3 0 -50 -1 -55 -1c-3 7 -22 94 -28 104l12 1c6 -6 72 -98 71 -104z" />
    <glyph glyph-name="A.alt2_macron" horiz-adv-x="1563" 
d="M871 444l3 13c46 -4 92 -24 140 -51c89 195 266 318 482 365c27 59 51 112 80 150c-259 -9 -511 -56 -587 -347l-13 4c79 301 342 349 609 356c39 52 80 97 124 136c170 148 314 189 441 136c88 -36 127 -78 119 -123c-13 -83 -173 -141 -288 -153
c-76 -7 -160 -9 -248 -8c-47 0 -89 -1 -135 -1c-115 -173 -205 -484 -244 -649l-13 -52c16 -8 31 -15 44 -20c78 -33 123 -31 178 38v-21c-57 -64 -113 -59 -181 -31c-14 6 -28 12 -44 20c-28 -127 -51 -260 -43 -380c9 -159 39 -260 121 -284c96 -27 189 38 234 112
c41 65 38 131 -3 180c-27 32 -71 41 -113 27c-50 -16 -89 -58 -96 -106h-13c7 55 51 102 104 119c50 16 96 4 128 -32c47 -53 47 -128 3 -196c-52 -84 -155 -137 -247 -116c-296 69 -205 555 -178 731c-38 25 -22 14 -132 84l-3 -7l-34 -87c-82 -205 -284 -399 -502 -422
c-75 -7 -147 7 -201 41c-17 10 -45 36 -54 50c-96 -30 -174 -24 -228 19c-83 65 -87 133 -77 175c22 98 152 192 296 220c36 112 90 196 159 234c81 46 187 54 261 16c55 -28 92 -77 97 -138c10 -154 -206 -384 -399 -480c-33 -17 -66 -31 -96 -41c14 -18 30 -33 48 -45
c51 -32 120 -40 193 -29c229 36 324 233 403 439c14 36 28 71 43 105c-47 27 -92 46 -138 49zM312 322c-15 -49 -26 -106 -34 -168c-12 -92 0 -165 36 -218c29 10 65 25 97 42c214 107 329 336 317 468c-6 71 -28 108 -64 126c-63 33 -130 26 -198 -15
c-65 -38 -115 -111 -151 -221c122 20 230 -14 288 -94l-13 -7c-53 75 -158 108 -278 87zM1606 934h126c91 1 170 2 248 9c121 12 269 75 277 141c4 43 -35 78 -112 110c-124 52 -263 8 -426 -133c-47 -42 -73 -76 -113 -127zM1483 754c-202 -50 -295 -200 -376 -397h1
c25 -16 54 -30 132 -81c40 176 169 391 243 478zM297 320c-100 -22 -255 -93 -280 -210c-13 -57 12 -114 72 -160c51 -40 126 -45 212 -19c-31 45 -50 119 -36 225c8 59 18 115 32 164zM1550 1025l-1 -22l-153 15v23z" />
    <glyph glyph-name="A.alt2_ogonek" horiz-adv-x="1563" 
d="M312 322c-15 -49 -26 -106 -34 -168c-12 -92 0 -165 36 -218c29 10 65 25 97 42c214 107 329 336 317 468c-6 71 -28 108 -64 126c-63 33 -130 26 -198 -15c-65 -38 -115 -111 -151 -221c122 20 230 -14 288 -94l-13 -7c-53 75 -158 108 -278 87zM1606 934h126
c91 1 170 2 248 9c121 12 269 75 277 141c4 43 -35 78 -112 110c-124 52 -263 8 -426 -133c-47 -42 -73 -76 -113 -127zM1483 754c-202 -50 -295 -200 -376 -397h1c25 -16 54 -30 132 -81c40 176 169 391 243 478zM297 320c-100 -22 -255 -93 -280 -210
c-13 -57 12 -114 72 -160c51 -40 126 -45 212 -19c-31 45 -50 119 -36 225c8 59 18 115 32 164zM1404 -504c3 14 16 25 31 31l-22 3c-296 69 -205 555 -178 731c-38 25 -22 14 -132 84l-3 -7l-34 -87c-82 -205 -284 -399 -502 -422c-75 -7 -147 7 -201 41
c-17 10 -45 36 -54 50c-96 -30 -174 -24 -228 19c-83 65 -87 133 -77 175c22 98 152 192 296 220c36 112 90 196 159 234c81 46 187 54 261 16c55 -28 92 -77 97 -138c10 -154 -206 -384 -399 -480c-33 -17 -66 -31 -96 -41c14 -18 30 -33 48 -45c51 -32 120 -40 193 -29
c229 36 324 233 403 439c14 36 28 71 43 105c-47 27 -92 46 -138 49l3 13c46 -4 92 -24 140 -51c89 195 266 318 482 365c27 59 51 112 80 150c-259 -9 -511 -56 -587 -347l-13 4c79 301 342 349 609 356c39 52 80 97 124 136c170 148 314 189 441 136
c88 -36 127 -78 119 -123c-13 -83 -173 -141 -288 -153c-76 -7 -160 -9 -248 -8c-47 0 -89 -1 -135 -1c-115 -173 -205 -484 -244 -649l-13 -52c16 -8 31 -15 44 -20c78 -33 123 -31 178 38v-21c-57 -64 -113 -59 -181 -31c-14 6 -28 12 -44 20c-28 -127 -51 -260 -43 -380
c9 -159 39 -260 121 -284c96 -27 189 38 234 112c41 65 38 131 -3 180c-27 32 -71 41 -113 27c-50 -16 -89 -58 -96 -106h-13c7 55 51 102 104 119c50 16 96 4 128 -32c47 -53 47 -128 3 -196c-43 -69 -120 -117 -197 -120c-16 -4 -22 -25 -23 -33c-13 -54 7 -115 85 -78
l2 -6c-89 -47 -145 11 -123 87z" />
    <glyph glyph-name="A.alt2_ring" horiz-adv-x="1563" 
d="M871 444l3 13c46 -4 92 -24 140 -51c89 195 266 318 482 365c27 59 51 112 80 150c-259 -9 -511 -56 -587 -347l-13 4c79 301 342 349 609 356c39 52 80 97 124 136c170 148 314 189 441 136c88 -36 127 -78 119 -123c-13 -83 -173 -141 -288 -153
c-76 -7 -160 -9 -248 -8c-47 0 -89 -1 -135 -1c-115 -173 -205 -484 -244 -649l-13 -52c16 -8 31 -15 44 -20c78 -33 123 -31 178 38v-21c-57 -64 -113 -59 -181 -31c-14 6 -28 12 -44 20c-28 -127 -51 -260 -43 -380c9 -159 39 -260 121 -284c96 -27 189 38 234 112
c41 65 38 131 -3 180c-27 32 -71 41 -113 27c-50 -16 -89 -58 -96 -106h-13c7 55 51 102 104 119c50 16 96 4 128 -32c47 -53 47 -128 3 -196c-52 -84 -155 -137 -247 -116c-296 69 -205 555 -178 731c-38 25 -22 14 -132 84l-3 -7l-34 -87c-82 -205 -284 -399 -502 -422
c-75 -7 -147 7 -201 41c-17 10 -45 36 -54 50c-96 -30 -174 -24 -228 19c-83 65 -87 133 -77 175c22 98 152 192 296 220c36 112 90 196 159 234c81 46 187 54 261 16c55 -28 92 -77 97 -138c10 -154 -206 -384 -399 -480c-33 -17 -66 -31 -96 -41c14 -18 30 -33 48 -45
c51 -32 120 -40 193 -29c229 36 324 233 403 439c14 36 28 71 43 105c-47 27 -92 46 -138 49zM312 322c-15 -49 -26 -106 -34 -168c-12 -92 0 -165 36 -218c29 10 65 25 97 42c214 107 329 336 317 468c-6 71 -28 108 -64 126c-63 33 -130 26 -198 -15
c-65 -38 -115 -111 -151 -221c122 20 230 -14 288 -94l-13 -7c-53 75 -158 108 -278 87zM1606 934h126c91 1 170 2 248 9c121 12 269 75 277 141c4 43 -35 78 -112 110c-124 52 -263 8 -426 -133c-47 -42 -73 -76 -113 -127zM1483 754c-202 -50 -295 -200 -376 -397h1
c25 -16 54 -30 132 -81c40 176 169 391 243 478zM297 320c-100 -22 -255 -93 -280 -210c-13 -57 12 -114 72 -160c51 -40 126 -45 212 -19c-31 45 -50 119 -36 225c8 59 18 115 32 164zM1442 1073c34 60 132 42 118 -42c-14 -92 -176 -66 -118 42zM1460 1053
c-28 -60 72 -76 76 -12c4 50 -60 50 -76 12z" />
    <glyph glyph-name="A.alt2_tilde" horiz-adv-x="1563" 
d="M871 444l3 13c46 -4 92 -24 140 -51c89 195 266 318 482 365c27 59 51 112 80 150c-259 -9 -511 -56 -587 -347l-13 4c79 301 342 349 609 356c39 52 80 97 124 136c170 148 314 189 441 136c88 -36 127 -78 119 -123c-13 -83 -173 -141 -288 -153
c-76 -7 -160 -9 -248 -8c-47 0 -89 -1 -135 -1c-115 -173 -205 -484 -244 -649l-13 -52c16 -8 31 -15 44 -20c78 -33 123 -31 178 38v-21c-57 -64 -113 -59 -181 -31c-14 6 -28 12 -44 20c-28 -127 -51 -260 -43 -380c9 -159 39 -260 121 -284c96 -27 189 38 234 112
c41 65 38 131 -3 180c-27 32 -71 41 -113 27c-50 -16 -89 -58 -96 -106h-13c7 55 51 102 104 119c50 16 96 4 128 -32c47 -53 47 -128 3 -196c-52 -84 -155 -137 -247 -116c-296 69 -205 555 -178 731c-38 25 -22 14 -132 84l-3 -7l-34 -87c-82 -205 -284 -399 -502 -422
c-75 -7 -147 7 -201 41c-17 10 -45 36 -54 50c-96 -30 -174 -24 -228 19c-83 65 -87 133 -77 175c22 98 152 192 296 220c36 112 90 196 159 234c81 46 187 54 261 16c55 -28 92 -77 97 -138c10 -154 -206 -384 -399 -480c-33 -17 -66 -31 -96 -41c14 -18 30 -33 48 -45
c51 -32 120 -40 193 -29c229 36 324 233 403 439c14 36 28 71 43 105c-47 27 -92 46 -138 49zM312 322c-15 -49 -26 -106 -34 -168c-12 -92 0 -165 36 -218c29 10 65 25 97 42c214 107 329 336 317 468c-6 71 -28 108 -64 126c-63 33 -130 26 -198 -15
c-65 -38 -115 -111 -151 -221c122 20 230 -14 288 -94l-13 -7c-53 75 -158 108 -278 87zM1606 934h126c91 1 170 2 248 9c121 12 269 75 277 141c4 43 -35 78 -112 110c-124 52 -263 8 -426 -133c-47 -42 -73 -76 -113 -127zM1483 754c-202 -50 -295 -200 -376 -397h1
c25 -16 54 -30 132 -81c40 176 169 391 243 478zM297 320c-100 -22 -255 -93 -280 -210c-13 -57 12 -114 72 -160c51 -40 126 -45 212 -19c-31 45 -50 119 -36 225c8 59 18 115 32 164zM1535 983c-44 -12 -84 8 -102 26c-26 20 -38 46 -70 40c-20 -4 -42 -20 -66 -50l-16 8
c24 32 56 52 84 56c28 8 80 0 106 -22c42 -32 70 -64 116 -12l12 -14c-14 -16 -50 -32 -64 -32z" />
    <glyph glyph-name="A.alt3" horiz-adv-x="1512" 
d="M1354 272c-36 -150 -63 -293 -21 -347c9 -13 25 -19 41 -19l-1 -14c-154 10 -171 205 -127 381l10 41c-26 2 -49 3 -162 10c-9 -24 -19 -48 -28 -73c-78 -206 -284 -399 -502 -422c-75 -7 -147 7 -201 41c-17 10 -45 36 -54 50c-96 -30 -174 -24 -228 19
c-83 65 -87 133 -77 175c22 98 152 192 296 220c36 112 90 196 159 234c81 46 187 54 261 16c55 -28 92 -77 97 -138c10 -154 -206 -384 -399 -480c-33 -17 -66 -31 -96 -41c14 -18 30 -33 48 -45c51 -32 120 -40 193 -29c229 36 304 203 383 409c95 248 293 455 550 511
c27 59 51 112 80 150c-301 -11 -591 -71 -609 -507h-14c18 448 322 512 632 520c39 52 80 97 124 136c170 148 314 189 441 136c88 -36 127 -78 119 -123c-13 -83 -173 -141 -288 -153c-76 -7 -160 -9 -248 -8c-47 0 -89 -1 -135 -1c-115 -173 -205 -484 -244 -649zM312 322
c-15 -49 -26 -106 -34 -168c-12 -92 0 -165 36 -218c29 10 65 25 97 42c214 107 309 336 297 468c-13 153 -131 177 -242 111c-65 -38 -115 -111 -151 -221c122 20 230 -14 288 -94l-13 -7c-53 75 -158 108 -278 87zM1606 934h126c91 1 170 2 248 9c121 12 269 75 277 141
c4 43 -35 78 -112 110c-124 52 -263 8 -426 -133c-47 -42 -73 -76 -113 -127zM297 320c-100 -22 -255 -93 -280 -210c-13 -57 12 -114 72 -160c51 -40 126 -45 212 -19c-31 45 -50 119 -36 225c8 59 18 115 32 164zM1483 754c-208 -51 -300 -210 -383 -416
c112 -7 134 -8 160 -10c42 155 145 339 223 426z" />
    <glyph glyph-name="A.alt3_acute" horiz-adv-x="1512" 
d="M1354 272c-36 -150 -63 -293 -21 -347c9 -13 25 -19 41 -19l-1 -14c-154 10 -171 205 -127 381l10 41c-26 2 -49 3 -162 10c-9 -24 -19 -48 -28 -73c-78 -206 -284 -399 -502 -422c-75 -7 -147 7 -201 41c-17 10 -45 36 -54 50c-96 -30 -174 -24 -228 19
c-83 65 -87 133 -77 175c22 98 152 192 296 220c36 112 90 196 159 234c81 46 187 54 261 16c55 -28 92 -77 97 -138c10 -154 -206 -384 -399 -480c-33 -17 -66 -31 -96 -41c14 -18 30 -33 48 -45c51 -32 120 -40 193 -29c229 36 304 203 383 409c95 248 293 455 550 511
c27 59 51 112 80 150c-301 -11 -591 -71 -609 -507h-14c18 448 322 512 632 520c39 52 80 97 124 136c170 148 314 189 441 136c88 -36 127 -78 119 -123c-13 -83 -173 -141 -288 -153c-76 -7 -160 -9 -248 -8c-47 0 -89 -1 -135 -1c-115 -173 -205 -484 -244 -649zM312 322
c-15 -49 -26 -106 -34 -168c-12 -92 0 -165 36 -218c29 10 65 25 97 42c214 107 309 336 297 468c-13 153 -131 177 -242 111c-65 -38 -115 -111 -151 -221c122 20 230 -14 288 -94l-13 -7c-53 75 -158 108 -278 87zM1606 934h126c91 1 170 2 248 9c121 12 269 75 277 141
c4 43 -35 78 -112 110c-124 52 -263 8 -426 -133c-47 -42 -73 -76 -113 -127zM297 320c-100 -22 -255 -93 -280 -210c-13 -57 12 -114 72 -160c51 -40 126 -45 212 -19c-31 45 -50 119 -36 225c8 59 18 115 32 164zM1483 754c-208 -51 -300 -210 -383 -416
c112 -7 134 -8 160 -10c42 155 145 339 223 426zM1451 1001c-1 6 65 98 71 104c0 1 12 -2 12 -1c-6 -10 -25 -97 -28 -104c-5 0 -52 1 -55 1z" />
    <glyph glyph-name="A.alt3_breve" horiz-adv-x="1512" 
d="M1354 272c-36 -150 -63 -293 -21 -347c9 -13 25 -19 41 -19l-1 -14c-154 10 -171 205 -127 381l10 41c-26 2 -49 3 -162 10c-9 -24 -19 -48 -28 -73c-78 -206 -284 -399 -502 -422c-75 -7 -147 7 -201 41c-17 10 -45 36 -54 50c-96 -30 -174 -24 -228 19
c-83 65 -87 133 -77 175c22 98 152 192 296 220c36 112 90 196 159 234c81 46 187 54 261 16c55 -28 92 -77 97 -138c10 -154 -206 -384 -399 -480c-33 -17 -66 -31 -96 -41c14 -18 30 -33 48 -45c51 -32 120 -40 193 -29c229 36 304 203 383 409c95 248 293 455 550 511
c27 59 51 112 80 150c-301 -11 -591 -71 -609 -507h-14c18 448 322 512 632 520c39 52 80 97 124 136c170 148 314 189 441 136c88 -36 127 -78 119 -123c-13 -83 -173 -141 -288 -153c-76 -7 -160 -9 -248 -8c-47 0 -89 -1 -135 -1c-115 -173 -205 -484 -244 -649zM312 322
c-15 -49 -26 -106 -34 -168c-12 -92 0 -165 36 -218c29 10 65 25 97 42c214 107 309 336 297 468c-13 153 -131 177 -242 111c-65 -38 -115 -111 -151 -221c122 20 230 -14 288 -94l-13 -7c-53 75 -158 108 -278 87zM1606 934h126c91 1 170 2 248 9c121 12 269 75 277 141
c4 43 -35 78 -112 110c-124 52 -263 8 -426 -133c-47 -42 -73 -76 -113 -127zM297 320c-100 -22 -255 -93 -280 -210c-13 -57 12 -114 72 -160c51 -40 126 -45 212 -19c-31 45 -50 119 -36 225c8 59 18 115 32 164zM1483 754c-208 -51 -300 -210 -383 -416
c112 -7 134 -8 160 -10c42 155 145 339 223 426zM1377 1065l22 14c54 -56 80 -88 124 -14l20 -14c-56 -106 -164 -72 -166 14z" />
    <glyph glyph-name="A.alt3_circumflex" horiz-adv-x="1512" 
d="M1354 272c-36 -150 -63 -293 -21 -347c9 -13 25 -19 41 -19l-1 -14c-154 10 -171 205 -127 381l10 41c-26 2 -49 3 -162 10c-9 -24 -19 -48 -28 -73c-78 -206 -284 -399 -502 -422c-75 -7 -147 7 -201 41c-17 10 -45 36 -54 50c-96 -30 -174 -24 -228 19
c-83 65 -87 133 -77 175c22 98 152 192 296 220c36 112 90 196 159 234c81 46 187 54 261 16c55 -28 92 -77 97 -138c10 -154 -206 -384 -399 -480c-33 -17 -66 -31 -96 -41c14 -18 30 -33 48 -45c51 -32 120 -40 193 -29c229 36 304 203 383 409c95 248 293 455 550 511
c27 59 51 112 80 150c-301 -11 -591 -71 -609 -507h-14c18 448 322 512 632 520c39 52 80 97 124 136c170 148 314 189 441 136c88 -36 127 -78 119 -123c-13 -83 -173 -141 -288 -153c-76 -7 -160 -9 -248 -8c-47 0 -89 -1 -135 -1c-115 -173 -205 -484 -244 -649zM312 322
c-15 -49 -26 -106 -34 -168c-12 -92 0 -165 36 -218c29 10 65 25 97 42c214 107 309 336 297 468c-13 153 -131 177 -242 111c-65 -38 -115 -111 -151 -221c122 20 230 -14 288 -94l-13 -7c-53 75 -158 108 -278 87zM1606 934h126c91 1 170 2 248 9c121 12 269 75 277 141
c4 43 -35 78 -112 110c-124 52 -263 8 -426 -133c-47 -42 -73 -76 -113 -127zM297 320c-100 -22 -255 -93 -280 -210c-13 -57 12 -114 72 -160c51 -40 126 -45 212 -19c-31 45 -50 119 -36 225c8 59 18 115 32 164zM1483 754c-208 -51 -300 -210 -383 -416
c112 -7 134 -8 160 -10c42 155 145 339 223 426zM1545 981l-8 -17c-24 9 -55 53 -52 93c-24 -26 -43 -53 -67 -77l-11 12c27 33 54 63 78 96l15 -8c3 -3 45 -93 45 -99z" />
    <glyph glyph-name="A.alt3_dieresis" horiz-adv-x="1512" 
d="M1354 272c-36 -150 -63 -293 -21 -347c9 -13 25 -19 41 -19l-1 -14c-154 10 -171 205 -127 381l10 41c-26 2 -49 3 -162 10c-9 -24 -19 -48 -28 -73c-78 -206 -284 -399 -502 -422c-75 -7 -147 7 -201 41c-17 10 -45 36 -54 50c-96 -30 -174 -24 -228 19
c-83 65 -87 133 -77 175c22 98 152 192 296 220c36 112 90 196 159 234c81 46 187 54 261 16c55 -28 92 -77 97 -138c10 -154 -206 -384 -399 -480c-33 -17 -66 -31 -96 -41c14 -18 30 -33 48 -45c51 -32 120 -40 193 -29c229 36 304 203 383 409c95 248 293 455 550 511
c27 59 51 112 80 150c-301 -11 -591 -71 -609 -507h-14c18 448 322 512 632 520c39 52 80 97 124 136c170 148 314 189 441 136c88 -36 127 -78 119 -123c-13 -83 -173 -141 -288 -153c-76 -7 -160 -9 -248 -8c-47 0 -89 -1 -135 -1c-115 -173 -205 -484 -244 -649zM312 322
c-15 -49 -26 -106 -34 -168c-12 -92 0 -165 36 -218c29 10 65 25 97 42c214 107 309 336 297 468c-13 153 -131 177 -242 111c-65 -38 -115 -111 -151 -221c122 20 230 -14 288 -94l-13 -7c-53 75 -158 108 -278 87zM1606 934h126c91 1 170 2 248 9c121 12 269 75 277 141
c4 43 -35 78 -112 110c-124 52 -263 8 -426 -133c-47 -42 -73 -76 -113 -127zM297 320c-100 -22 -255 -93 -280 -210c-13 -57 12 -114 72 -160c51 -40 126 -45 212 -19c-31 45 -50 119 -36 225c8 59 18 115 32 164zM1483 754c-208 -51 -300 -210 -383 -416
c112 -7 134 -8 160 -10c42 155 145 339 223 426zM1333 1034c0 16 9 29 25 29c15 0 26 -13 26 -29c0 -15 -11 -30 -26 -30c-16 0 -25 15 -25 30zM1498 1023c0 16 11 29 26 29c14 0 26 -13 26 -29c0 -17 -12 -30 -26 -30c-15 0 -26 13 -26 30z" />
    <glyph glyph-name="A.alt3_grave" horiz-adv-x="1512" 
d="M1354 272c-36 -150 -63 -293 -21 -347c9 -13 25 -19 41 -19l-1 -14c-154 10 -171 205 -127 381l10 41c-26 2 -49 3 -162 10c-9 -24 -19 -48 -28 -73c-78 -206 -284 -399 -502 -422c-75 -7 -147 7 -201 41c-17 10 -45 36 -54 50c-96 -30 -174 -24 -228 19
c-83 65 -87 133 -77 175c22 98 152 192 296 220c36 112 90 196 159 234c81 46 187 54 261 16c55 -28 92 -77 97 -138c10 -154 -206 -384 -399 -480c-33 -17 -66 -31 -96 -41c14 -18 30 -33 48 -45c51 -32 120 -40 193 -29c229 36 304 203 383 409c95 248 293 455 550 511
c27 59 51 112 80 150c-301 -11 -591 -71 -609 -507h-14c18 448 322 512 632 520c39 52 80 97 124 136c170 148 314 189 441 136c88 -36 127 -78 119 -123c-13 -83 -173 -141 -288 -153c-76 -7 -160 -9 -248 -8c-47 0 -89 -1 -135 -1c-115 -173 -205 -484 -244 -649zM312 322
c-15 -49 -26 -106 -34 -168c-12 -92 0 -165 36 -218c29 10 65 25 97 42c214 107 309 336 297 468c-13 153 -131 177 -242 111c-65 -38 -115 -111 -151 -221c122 20 230 -14 288 -94l-13 -7c-53 75 -158 108 -278 87zM1606 934h126c91 1 170 2 248 9c121 12 269 75 277 141
c4 43 -35 78 -112 110c-124 52 -263 8 -426 -133c-47 -42 -73 -76 -113 -127zM297 320c-100 -22 -255 -93 -280 -210c-13 -57 12 -114 72 -160c51 -40 126 -45 212 -19c-31 45 -50 119 -36 225c8 59 18 115 32 164zM1483 754c-208 -51 -300 -210 -383 -416
c112 -7 134 -8 160 -10c42 155 145 339 223 426zM1500 1001c-3 0 -50 -1 -55 -1c-3 7 -22 94 -28 104l12 1c6 -6 72 -98 71 -104z" />
    <glyph glyph-name="A.alt3_macron" horiz-adv-x="1512" 
d="M1354 272c-36 -150 -63 -293 -21 -347c9 -13 25 -19 41 -19l-1 -14c-154 10 -171 205 -127 381l10 41c-26 2 -49 3 -162 10c-9 -24 -19 -48 -28 -73c-78 -206 -284 -399 -502 -422c-75 -7 -147 7 -201 41c-17 10 -45 36 -54 50c-96 -30 -174 -24 -228 19
c-83 65 -87 133 -77 175c22 98 152 192 296 220c36 112 90 196 159 234c81 46 187 54 261 16c55 -28 92 -77 97 -138c10 -154 -206 -384 -399 -480c-33 -17 -66 -31 -96 -41c14 -18 30 -33 48 -45c51 -32 120 -40 193 -29c229 36 304 203 383 409c95 248 293 455 550 511
c27 59 51 112 80 150c-301 -11 -591 -71 -609 -507h-14c18 448 322 512 632 520c39 52 80 97 124 136c170 148 314 189 441 136c88 -36 127 -78 119 -123c-13 -83 -173 -141 -288 -153c-76 -7 -160 -9 -248 -8c-47 0 -89 -1 -135 -1c-115 -173 -205 -484 -244 -649zM312 322
c-15 -49 -26 -106 -34 -168c-12 -92 0 -165 36 -218c29 10 65 25 97 42c214 107 309 336 297 468c-13 153 -131 177 -242 111c-65 -38 -115 -111 -151 -221c122 20 230 -14 288 -94l-13 -7c-53 75 -158 108 -278 87zM1606 934h126c91 1 170 2 248 9c121 12 269 75 277 141
c4 43 -35 78 -112 110c-124 52 -263 8 -426 -133c-47 -42 -73 -76 -113 -127zM297 320c-100 -22 -255 -93 -280 -210c-13 -57 12 -114 72 -160c51 -40 126 -45 212 -19c-31 45 -50 119 -36 225c8 59 18 115 32 164zM1483 754c-208 -51 -300 -210 -383 -416
c112 -7 134 -8 160 -10c42 155 145 339 223 426zM1559 1026l-1 -22l-153 15v23z" />
    <glyph glyph-name="A.alt3_ogonek" horiz-adv-x="1512" 
d="M312 322c-15 -49 -26 -106 -34 -168c-12 -92 0 -165 36 -218c29 10 65 25 97 42c214 107 309 336 297 468c-13 153 -131 177 -242 111c-65 -38 -115 -111 -151 -221c122 20 230 -14 288 -94l-13 -7c-53 75 -158 108 -278 87zM1606 934h126c91 1 170 2 248 9
c121 12 269 75 277 141c4 43 -35 78 -112 110c-124 52 -263 8 -426 -133c-47 -42 -73 -76 -113 -127zM297 320c-100 -22 -255 -93 -280 -210c-13 -57 12 -114 72 -160c51 -40 126 -45 212 -19c-31 45 -50 119 -36 225c8 59 18 115 32 164zM1483 754
c-208 -51 -300 -210 -383 -416c112 -7 134 -8 160 -10c42 155 145 339 223 426zM1321 -129c2 12 10 21 20 27c-124 33 -136 212 -95 375l10 41l-162 10c-9 -24 -19 -48 -28 -73c-78 -206 -284 -399 -502 -422c-75 -7 -147 7 -201 41c-17 10 -45 36 -54 50
c-96 -30 -174 -24 -228 19c-83 65 -87 133 -77 175c22 98 152 192 296 220c36 112 90 196 159 234c81 46 187 54 261 16c55 -28 92 -77 97 -138c10 -154 -206 -384 -399 -480c-33 -17 -66 -31 -96 -41c14 -18 30 -33 48 -45c51 -32 120 -40 193 -29c229 36 304 203 383 409
c95 248 293 455 550 511c27 59 51 112 80 150c-301 -11 -591 -71 -609 -507h-14c18 448 322 512 632 520c39 52 80 97 124 136c170 148 314 189 441 136c88 -36 127 -78 119 -123c-13 -83 -173 -141 -288 -153c-76 -7 -160 -9 -248 -8c-47 0 -89 -1 -135 -1
c-115 -173 -205 -484 -244 -649c-36 -150 -63 -293 -21 -347c8 -11 21 -18 35 -19h1h5l-1 -12v-2c-2 0 -5 1 -7 1c-10 -5 -15 -18 -16 -25c-11 -51 6 -109 71 -74l1 -6c-73 -44 -120 11 -101 83z" />
    <glyph glyph-name="A.alt3_ring" horiz-adv-x="1512" 
d="M1354 272c-36 -150 -63 -293 -21 -347c9 -13 25 -19 41 -19l-1 -14c-154 10 -171 205 -127 381l10 41c-26 2 -49 3 -162 10c-9 -24 -19 -48 -28 -73c-78 -206 -284 -399 -502 -422c-75 -7 -147 7 -201 41c-17 10 -45 36 -54 50c-96 -30 -174 -24 -228 19
c-83 65 -87 133 -77 175c22 98 152 192 296 220c36 112 90 196 159 234c81 46 187 54 261 16c55 -28 92 -77 97 -138c10 -154 -206 -384 -399 -480c-33 -17 -66 -31 -96 -41c14 -18 30 -33 48 -45c51 -32 120 -40 193 -29c229 36 304 203 383 409c95 248 293 455 550 511
c27 59 51 112 80 150c-301 -11 -591 -71 -609 -507h-14c18 448 322 512 632 520c39 52 80 97 124 136c170 148 314 189 441 136c88 -36 127 -78 119 -123c-13 -83 -173 -141 -288 -153c-76 -7 -160 -9 -248 -8c-47 0 -89 -1 -135 -1c-115 -173 -205 -484 -244 -649zM312 322
c-15 -49 -26 -106 -34 -168c-12 -92 0 -165 36 -218c29 10 65 25 97 42c214 107 309 336 297 468c-13 153 -131 177 -242 111c-65 -38 -115 -111 -151 -221c122 20 230 -14 288 -94l-13 -7c-53 75 -158 108 -278 87zM1606 934h126c91 1 170 2 248 9c121 12 269 75 277 141
c4 43 -35 78 -112 110c-124 52 -263 8 -426 -133c-47 -42 -73 -76 -113 -127zM297 320c-100 -22 -255 -93 -280 -210c-13 -57 12 -114 72 -160c51 -40 126 -45 212 -19c-31 45 -50 119 -36 225c8 59 18 115 32 164zM1483 754c-208 -51 -300 -210 -383 -416
c112 -7 134 -8 160 -10c42 155 145 339 223 426zM1449 1085c34 60 132 42 118 -42c-14 -92 -176 -66 -118 42zM1467 1065c-28 -60 72 -76 76 -12c4 50 -60 50 -76 12z" />
    <glyph glyph-name="A.alt3_tilde" horiz-adv-x="1512" 
d="M1354 272c-36 -150 -63 -293 -21 -347c9 -13 25 -19 41 -19l-1 -14c-154 10 -171 205 -127 381l10 41c-26 2 -49 3 -162 10c-9 -24 -19 -48 -28 -73c-78 -206 -284 -399 -502 -422c-75 -7 -147 7 -201 41c-17 10 -45 36 -54 50c-96 -30 -174 -24 -228 19
c-83 65 -87 133 -77 175c22 98 152 192 296 220c36 112 90 196 159 234c81 46 187 54 261 16c55 -28 92 -77 97 -138c10 -154 -206 -384 -399 -480c-33 -17 -66 -31 -96 -41c14 -18 30 -33 48 -45c51 -32 120 -40 193 -29c229 36 304 203 383 409c95 248 293 455 550 511
c27 59 51 112 80 150c-301 -11 -591 -71 -609 -507h-14c18 448 322 512 632 520c39 52 80 97 124 136c170 148 314 189 441 136c88 -36 127 -78 119 -123c-13 -83 -173 -141 -288 -153c-76 -7 -160 -9 -248 -8c-47 0 -89 -1 -135 -1c-115 -173 -205 -484 -244 -649zM312 322
c-15 -49 -26 -106 -34 -168c-12 -92 0 -165 36 -218c29 10 65 25 97 42c214 107 309 336 297 468c-13 153 -131 177 -242 111c-65 -38 -115 -111 -151 -221c122 20 230 -14 288 -94l-13 -7c-53 75 -158 108 -278 87zM1606 934h126c91 1 170 2 248 9c121 12 269 75 277 141
c4 43 -35 78 -112 110c-124 52 -263 8 -426 -133c-47 -42 -73 -76 -113 -127zM297 320c-100 -22 -255 -93 -280 -210c-13 -57 12 -114 72 -160c51 -40 126 -45 212 -19c-31 45 -50 119 -36 225c8 59 18 115 32 164zM1483 754c-208 -51 -300 -210 -383 -416
c112 -7 134 -8 160 -10c42 155 145 339 223 426zM1519 999c-44 -12 -84 8 -102 26c-26 20 -38 46 -70 40c-20 -4 -42 -20 -66 -50l-16 8c24 32 56 52 84 56c28 8 80 0 106 -22c42 -32 70 -64 116 -12l12 -14c-14 -16 -50 -32 -64 -32z" />
    <glyph glyph-name="A.alt4" horiz-adv-x="951" 
d="M675 248c63 261 185 448 235 506c-212 -51 -303 -216 -383 -416c106 -68 93 -66 148 -90zM211 392l-13 -6c-26 -16 -28 -24 -25 -28c2 -4 13 -4 25 2c10 5 16 13 13 32zM522 325c-91 -240 -211 -466 -349 -423l4 12c130 -41 145 199 248 461c-66 41 -134 52 -202 23
c5 -28 -3 -43 -20 -51c-15 -7 -35 -8 -42 5c-7 11 -3 26 30 45l17 9c-10 30 -50 27 -72 21c-57 -13 -124 -58 -122 -100h-14c-2 48 72 100 134 113c46 10 78 -2 87 -29c70 29 139 19 209 -24c82 201 261 335 488 383l13 3l-4 -13c-67 -183 -113 -377 -154 -560
c78 -33 123 -31 178 38v-21c-57 -64 -113 -59 -181 -31c-24 -118 -44 -216 -10 -260c10 -13 26 -20 42 -20l-2 -13c-157 12 -168 192 -128 341c-60 29 -50 25 -150 91z" />
    <glyph glyph-name="A.alt4_acute" horiz-adv-x="951" 
d="M675 248c63 261 185 448 235 506c-212 -51 -303 -216 -383 -416c106 -68 93 -66 148 -90zM211 392l-13 -6c-26 -16 -28 -24 -25 -28c2 -4 13 -4 25 2c10 5 16 13 13 32zM522 325c-91 -240 -211 -466 -349 -423l4 12c130 -41 145 199 248 461c-66 41 -134 52 -202 23
c5 -28 -3 -43 -20 -51c-15 -7 -35 -8 -42 5c-7 11 -3 26 30 45l17 9c-10 30 -50 27 -72 21c-57 -13 -124 -58 -122 -100h-14c-2 48 72 100 134 113c46 10 78 -2 87 -29c70 29 139 19 209 -24c82 201 261 335 488 383l13 3l-4 -13c-67 -183 -113 -377 -154 -560
c78 -33 123 -31 178 38v-21c-57 -64 -113 -59 -181 -31c-24 -118 -44 -216 -10 -260c10 -13 26 -20 42 -20l-2 -13c-157 12 -168 192 -128 341c-60 29 -50 25 -150 91zM888 823c-1 6 65 98 71 104c0 1 12 -2 12 -1c-6 -10 -25 -97 -28 -104c-5 0 -52 1 -55 1z" />
    <glyph glyph-name="A.alt4_breve" horiz-adv-x="951" 
d="M675 248c63 261 185 448 235 506c-212 -51 -303 -216 -383 -416c106 -68 93 -66 148 -90zM211 392l-13 -6c-26 -16 -28 -24 -25 -28c2 -4 13 -4 25 2c10 5 16 13 13 32zM522 325c-91 -240 -211 -466 -349 -423l4 12c130 -41 145 199 248 461c-66 41 -134 52 -202 23
c5 -28 -3 -43 -20 -51c-15 -7 -35 -8 -42 5c-7 11 -3 26 30 45l17 9c-10 30 -50 27 -72 21c-57 -13 -124 -58 -122 -100h-14c-2 48 72 100 134 113c46 10 78 -2 87 -29c70 29 139 19 209 -24c82 201 261 335 488 383l13 3l-4 -13c-67 -183 -113 -377 -154 -560
c78 -33 123 -31 178 38v-21c-57 -64 -113 -59 -181 -31c-24 -118 -44 -216 -10 -260c10 -13 26 -20 42 -20l-2 -13c-157 12 -168 192 -128 341c-60 29 -50 25 -150 91zM820 901l22 14c54 -56 80 -88 124 -14l20 -14c-56 -106 -164 -72 -166 14z" />
    <glyph glyph-name="A.alt4_circumflex" horiz-adv-x="951" 
d="M675 248c63 261 185 448 235 506c-212 -51 -303 -216 -383 -416c106 -68 93 -66 148 -90zM211 392l-13 -6c-26 -16 -28 -24 -25 -28c2 -4 13 -4 25 2c10 5 16 13 13 32zM522 325c-91 -240 -211 -466 -349 -423l4 12c130 -41 145 199 248 461c-66 41 -134 52 -202 23
c5 -28 -3 -43 -20 -51c-15 -7 -35 -8 -42 5c-7 11 -3 26 30 45l17 9c-10 30 -50 27 -72 21c-57 -13 -124 -58 -122 -100h-14c-2 48 72 100 134 113c46 10 78 -2 87 -29c70 29 139 19 209 -24c82 201 261 335 488 383l13 3l-4 -13c-67 -183 -113 -377 -154 -560
c78 -33 123 -31 178 38v-21c-57 -64 -113 -59 -181 -31c-24 -118 -44 -216 -10 -260c10 -13 26 -20 42 -20l-2 -13c-157 12 -168 192 -128 341c-60 29 -50 25 -150 91zM969 813l-8 -17c-24 9 -55 53 -52 93c-24 -26 -43 -53 -67 -77l-11 12c27 33 54 63 78 96l15 -8
c3 -3 45 -93 45 -99z" />
    <glyph glyph-name="A.alt4_dieresis" horiz-adv-x="951" 
d="M675 248c-55 24 -42 22 -148 90c80 200 171 365 383 416c-50 -58 -172 -245 -235 -506zM211 392c3 -19 -3 -27 -13 -32c-12 -6 -23 -6 -25 -2c-3 4 -1 12 25 28zM522 325c100 -66 90 -62 150 -91c-40 -149 -29 -329 128 -341l2 13c-16 0 -32 7 -42 20
c-34 44 -14 142 10 260c68 -28 124 -33 181 31v21c-55 -69 -100 -71 -178 -38c41 183 87 377 154 560l4 13l-13 -3c-227 -48 -406 -182 -488 -383c-70 43 -139 53 -209 24c-9 27 -41 39 -87 29c-62 -13 -136 -65 -134 -113h14c-2 42 65 87 122 100c22 6 62 9 72 -21l-17 -9
c-33 -19 -37 -34 -30 -45c7 -13 27 -12 42 -5c17 8 25 23 20 51c68 29 136 18 202 -23c-103 -262 -118 -502 -248 -461l-4 -12c138 -43 258 183 349 423zM776 852c0 16 9 29 25 29c15 0 26 -13 26 -29c0 -15 -11 -30 -26 -30c-16 0 -25 15 -25 30zM941 841c0 16 11 29 26 29
c14 0 26 -13 26 -29c0 -17 -12 -30 -26 -30c-15 0 -26 13 -26 30z" />
    <glyph glyph-name="A.alt4_grave" horiz-adv-x="951" 
d="M675 248c63 261 185 448 235 506c-212 -51 -303 -216 -383 -416c106 -68 93 -66 148 -90zM211 392l-13 -6c-26 -16 -28 -24 -25 -28c2 -4 13 -4 25 2c10 5 16 13 13 32zM522 325c-91 -240 -211 -466 -349 -423l4 12c130 -41 145 199 248 461c-66 41 -134 52 -202 23
c5 -28 -3 -43 -20 -51c-15 -7 -35 -8 -42 5c-7 11 -3 26 30 45l17 9c-10 30 -50 27 -72 21c-57 -13 -124 -58 -122 -100h-14c-2 48 72 100 134 113c46 10 78 -2 87 -29c70 29 139 19 209 -24c82 201 261 335 488 383l13 3l-4 -13c-67 -183 -113 -377 -154 -560
c78 -33 123 -31 178 38v-21c-57 -64 -113 -59 -181 -31c-24 -118 -44 -216 -10 -260c10 -13 26 -20 42 -20l-2 -13c-157 12 -168 192 -128 341c-60 29 -50 25 -150 91zM944 814c-3 0 -50 -1 -55 -1c-3 7 -22 94 -28 104l12 1c6 -6 72 -98 71 -104z" />
    <glyph glyph-name="A.alt4_macron" horiz-adv-x="951" 
d="M675 248c63 261 185 448 235 506c-212 -51 -303 -216 -383 -416c106 -68 93 -66 148 -90zM211 392l-13 -6c-26 -16 -28 -24 -25 -28c2 -4 13 -4 25 2c10 5 16 13 13 32zM522 325c-91 -240 -211 -466 -349 -423l4 12c130 -41 145 199 248 461c-66 41 -134 52 -202 23
c5 -28 -3 -43 -20 -51c-15 -7 -35 -8 -42 5c-7 11 -3 26 30 45l17 9c-10 30 -50 27 -72 21c-57 -13 -124 -58 -122 -100h-14c-2 48 72 100 134 113c46 10 78 -2 87 -29c70 29 139 19 209 -24c82 201 261 335 488 383l13 3l-4 -13c-67 -183 -113 -377 -154 -560
c78 -33 123 -31 178 38v-21c-57 -64 -113 -59 -181 -31c-24 -118 -44 -216 -10 -260c10 -13 26 -20 42 -20l-2 -13c-157 12 -168 192 -128 341c-60 29 -50 25 -150 91zM963 889l-1 -22l-153 15v23z" />
    <glyph glyph-name="A.alt4_ogonek" horiz-adv-x="951" 
d="M675 248c63 261 185 448 235 506c-212 -51 -303 -216 -383 -416c106 -68 93 -66 148 -90zM211 392l-13 -6c-26 -16 -28 -24 -25 -28c2 -4 13 -4 25 2c10 5 16 13 13 32zM522 325c-91 -240 -211 -466 -349 -423l4 12c130 -41 145 199 248 461c-66 41 -134 52 -202 23
c5 -28 -3 -43 -20 -51c-15 -7 -35 -8 -42 5c-7 11 -3 26 30 45l17 9c-10 30 -50 27 -72 21c-57 -13 -124 -58 -122 -100h-14c-2 48 72 100 134 113c46 10 78 -2 87 -29c70 29 139 19 209 -24c82 201 261 335 488 383l13 3l-4 -13c-67 -183 -113 -377 -154 -560
c78 -33 123 -31 178 38v-21c-57 -64 -113 -59 -181 -31c-24 -118 -44 -216 -10 -260c10 -13 26 -20 42 -20l-2 -13c-157 12 -168 192 -128 341c-60 29 -50 25 -150 91zM735 -120c5 22 29 34 51 35l1 -12c-15 -1 -21 -18 -23 -26c-11 -51 6 -109 71 -74l1 -6
c-73 -44 -120 11 -101 83z" />
    <glyph glyph-name="A.alt4_ring" horiz-adv-x="951" 
d="M675 248c63 261 185 448 235 506c-212 -51 -303 -216 -383 -416c106 -68 93 -66 148 -90zM211 392l-13 -6c-26 -16 -28 -24 -25 -28c2 -4 13 -4 25 2c10 5 16 13 13 32zM522 325c-91 -240 -211 -466 -349 -423l4 12c130 -41 145 199 248 461c-66 41 -134 52 -202 23
c5 -28 -3 -43 -20 -51c-15 -7 -35 -8 -42 5c-7 11 -3 26 30 45l17 9c-10 30 -50 27 -72 21c-57 -13 -124 -58 -122 -100h-14c-2 48 72 100 134 113c46 10 78 -2 87 -29c70 29 139 19 209 -24c82 201 261 335 488 383l13 3l-4 -13c-67 -183 -113 -377 -154 -560
c78 -33 123 -31 178 38v-21c-57 -64 -113 -59 -181 -31c-24 -118 -44 -216 -10 -260c10 -13 26 -20 42 -20l-2 -13c-157 12 -168 192 -128 341c-60 29 -50 25 -150 91zM853 921c34 60 132 42 118 -42c-14 -92 -176 -66 -118 42zM871 901c-28 -60 72 -76 76 -12
c4 50 -60 50 -76 12z" />
    <glyph glyph-name="A.alt4_tilde" horiz-adv-x="951" 
d="M675 248c63 261 185 448 235 506c-212 -51 -303 -216 -383 -416c106 -68 93 -66 148 -90zM211 392l-13 -6c-26 -16 -28 -24 -25 -28c2 -4 13 -4 25 2c10 5 16 13 13 32zM522 325c-91 -240 -211 -466 -349 -423l4 12c130 -41 145 199 248 461c-66 41 -134 52 -202 23
c5 -28 -3 -43 -20 -51c-15 -7 -35 -8 -42 5c-7 11 -3 26 30 45l17 9c-10 30 -50 27 -72 21c-57 -13 -124 -58 -122 -100h-14c-2 48 72 100 134 113c46 10 78 -2 87 -29c70 29 139 19 209 -24c82 201 261 335 488 383l13 3l-4 -13c-67 -183 -113 -377 -154 -560
c78 -33 123 -31 178 38v-21c-57 -64 -113 -59 -181 -31c-24 -118 -44 -216 -10 -260c10 -13 26 -20 42 -20l-2 -13c-157 12 -168 192 -128 341c-60 29 -50 25 -150 91zM960 846c-44 -12 -84 8 -102 26c-26 20 -38 46 -70 40c-20 -4 -42 -20 -66 -50l-16 8c24 32 56 52 84 56
c28 8 80 0 106 -22c42 -32 70 -64 116 -12l12 -14c-14 -16 -50 -32 -64 -32z" />
    <glyph glyph-name="A.alt5" horiz-adv-x="732" 
d="M4 398l-2 13c96 40 113 35 209 -24c82 201 261 335 488 383l13 3l-4 -13c-67 -183 -113 -377 -154 -560c78 -33 123 -31 178 38v-21c-57 -64 -113 -59 -181 -31c-24 -118 -44 -216 -10 -260c10 -13 26 -20 42 -20l-2 -13c-161 34 -155 232 -128 341
c-60 29 -50 25 -150 91c-44 -115 -103 -225 -159 -306c-63 -89 -205 -9 -112 108l9 -9c-45 -54 -24 -105 12 -119c67 -26 90 262 153 376c-92 57 -108 63 -202 23zM456 248c63 261 185 428 235 506c-212 -51 -303 -216 -383 -416c106 -68 93 -66 148 -90z" />
    <glyph glyph-name="A.alt5_acute" horiz-adv-x="732" 
d="M4 398l-2 13c96 40 113 35 209 -24c82 201 261 335 488 383l13 3l-4 -13c-67 -183 -113 -377 -154 -560c78 -33 123 -31 178 38v-21c-57 -64 -113 -59 -181 -31c-24 -118 -44 -216 -10 -260c10 -13 26 -20 42 -20l-2 -13c-161 34 -155 232 -128 341
c-60 29 -50 25 -150 91c-44 -115 -103 -225 -159 -306c-63 -89 -205 -9 -112 108l9 -9c-45 -54 -24 -105 12 -119c67 -26 90 262 153 376c-92 57 -108 63 -202 23zM456 248c63 261 185 428 235 506c-212 -51 -303 -216 -383 -416c106 -68 93 -66 148 -90zM669 837
c-1 6 65 98 71 104c0 1 12 -2 12 -1c-6 -10 -25 -97 -28 -104c-5 0 -52 1 -55 1z" />
    <glyph glyph-name="A.alt5_breve" horiz-adv-x="732" 
d="M4 398l-2 13c96 40 113 35 209 -24c82 201 261 335 488 383l13 3l-4 -13c-67 -183 -113 -377 -154 -560c78 -33 123 -31 178 38v-21c-57 -64 -113 -59 -181 -31c-24 -118 -44 -216 -10 -260c10 -13 26 -20 42 -20l-2 -13c-161 34 -155 232 -128 341
c-60 29 -50 25 -150 91c-44 -115 -103 -225 -159 -306c-63 -89 -205 -9 -112 108l9 -9c-45 -54 -24 -105 12 -119c67 -26 90 262 153 376c-92 57 -108 63 -202 23zM456 248c63 261 185 428 235 506c-212 -51 -303 -216 -383 -416c106 -68 93 -66 148 -90zM551 918l22 14
c54 -56 80 -88 124 -14l20 -14c-56 -106 -164 -72 -166 14z" />
    <glyph glyph-name="A.alt5_circumflex" horiz-adv-x="732" 
d="M4 398l-2 13c96 40 113 35 209 -24c82 201 261 335 488 383l13 3l-4 -13c-67 -183 -113 -377 -154 -560c78 -33 123 -31 178 38v-21c-57 -64 -113 -59 -181 -31c-24 -118 -44 -216 -10 -260c10 -13 26 -20 42 -20l-2 -13c-161 34 -155 232 -128 341
c-60 29 -50 25 -150 91c-44 -115 -103 -225 -159 -306c-63 -89 -205 -9 -112 108l9 -9c-45 -54 -24 -105 12 -119c67 -26 90 262 153 376c-92 57 -108 63 -202 23zM456 248c63 261 185 428 235 506c-212 -51 -303 -216 -383 -416c106 -68 93 -66 148 -90zM748 804l-8 -17
c-24 9 -55 53 -52 93c-24 -26 -43 -53 -67 -77l-11 12c27 33 54 63 78 96l15 -8c3 -3 45 -93 45 -99z" />
    <glyph glyph-name="A.alt5_dieresis" horiz-adv-x="732" 
d="M2 411l2 -13c94 40 110 34 202 -23c-63 -114 -86 -402 -153 -376c-36 14 -57 65 -12 119l-9 9c-93 -117 49 -197 112 -108c56 81 115 191 159 306c100 -66 90 -62 150 -91c-27 -109 -33 -307 128 -341l2 13c-16 0 -32 7 -42 20c-34 44 -14 142 10 260
c68 -28 124 -33 181 31v21c-55 -69 -100 -71 -178 -38c41 183 87 377 154 560l4 13l-13 -3c-227 -48 -406 -182 -488 -383c-96 59 -113 64 -209 24zM456 248c-55 24 -42 22 -148 90c80 200 171 365 383 416c-50 -78 -172 -245 -235 -506zM560 865c0 16 9 29 25 29
c15 0 26 -13 26 -29c0 -15 -11 -30 -26 -30c-16 0 -25 15 -25 30zM725 854c0 16 11 29 26 29c14 0 26 -13 26 -29c0 -17 -12 -30 -26 -30c-15 0 -26 13 -26 30z" />
    <glyph glyph-name="A.alt5_grave" horiz-adv-x="732" 
d="M4 398l-2 13c96 40 113 35 209 -24c82 201 261 335 488 383l13 3l-4 -13c-67 -183 -113 -377 -154 -560c78 -33 123 -31 178 38v-21c-57 -64 -113 -59 -181 -31c-24 -118 -44 -216 -10 -260c10 -13 26 -20 42 -20l-2 -13c-161 34 -155 232 -128 341
c-60 29 -50 25 -150 91c-44 -115 -103 -225 -159 -306c-63 -89 -205 -9 -112 108l9 -9c-45 -54 -24 -105 12 -119c67 -26 90 262 153 376c-92 57 -108 63 -202 23zM456 248c63 261 185 428 235 506c-212 -51 -303 -216 -383 -416c106 -68 93 -66 148 -90zM734 819
c-3 0 -50 -1 -55 -1c-3 7 -22 94 -28 104l12 1c6 -6 72 -98 71 -104z" />
    <glyph glyph-name="A.alt5_macron" horiz-adv-x="732" 
d="M4 398l-2 13c96 40 113 35 209 -24c82 201 261 335 488 383l13 3l-4 -13c-67 -183 -113 -377 -154 -560c78 -33 123 -31 178 38v-21c-57 -64 -113 -59 -181 -31c-24 -118 -44 -216 -10 -260c10 -13 26 -20 42 -20l-2 -13c-161 34 -155 232 -128 341
c-60 29 -50 25 -150 91c-44 -115 -103 -225 -159 -306c-63 -89 -205 -9 -112 108l9 -9c-45 -54 -24 -105 12 -119c67 -26 90 262 153 376c-92 57 -108 63 -202 23zM456 248c63 261 185 428 235 506c-212 -51 -303 -216 -383 -416c106 -68 93 -66 148 -90zM728 882l-1 -22
l-153 15v23z" />
    <glyph glyph-name="A.alt5_ogonek" horiz-adv-x="732" 
d="M4 398l-2 13c96 40 113 35 209 -24c82 201 261 335 488 383l13 3l-4 -13c-67 -183 -113 -377 -154 -560c78 -33 123 -31 178 38v-21c-57 -64 -113 -59 -181 -31c-24 -118 -44 -216 -10 -260c10 -13 26 -20 42 -20l-2 -13c-161 34 -155 232 -128 341
c-60 29 -50 25 -150 91c-44 -115 -103 -225 -159 -306c-63 -89 -205 -9 -112 108l9 -9c-45 -54 -24 -105 12 -119c67 -26 90 262 153 376c-92 57 -108 63 -202 23zM456 248c63 261 185 428 235 506c-212 -51 -303 -216 -383 -416c106 -68 93 -66 148 -90zM517 -119
c5 22 29 34 51 35l1 -12c-15 -1 -21 -18 -23 -26c-11 -51 6 -109 71 -74l1 -6c-73 -44 -120 11 -101 83z" />
    <glyph glyph-name="A.alt5_ring" horiz-adv-x="732" 
d="M4 398l-2 13c96 40 113 35 209 -24c82 201 261 335 488 383l13 3l-4 -13c-67 -183 -113 -377 -154 -560c78 -33 123 -31 178 38v-21c-57 -64 -113 -59 -181 -31c-24 -118 -44 -216 -10 -260c10 -13 26 -20 42 -20l-2 -13c-161 34 -155 232 -128 341
c-60 29 -50 25 -150 91c-44 -115 -103 -225 -159 -306c-63 -89 -205 -9 -112 108l9 -9c-45 -54 -24 -105 12 -119c67 -26 90 262 153 376c-92 57 -108 63 -202 23zM456 248c63 261 185 428 235 506c-212 -51 -303 -216 -383 -416c106 -68 93 -66 148 -90zM634 935
c34 60 132 42 118 -42c-14 -92 -176 -66 -118 42zM652 915c-28 -60 72 -76 76 -12c4 50 -60 50 -76 12z" />
    <glyph glyph-name="A.alt5_tilde" horiz-adv-x="732" 
d="M4 398l-2 13c96 40 113 35 209 -24c82 201 261 335 488 383l13 3l-4 -13c-67 -183 -113 -377 -154 -560c78 -33 123 -31 178 38v-21c-57 -64 -113 -59 -181 -31c-24 -118 -44 -216 -10 -260c10 -13 26 -20 42 -20l-2 -13c-161 34 -155 232 -128 341
c-60 29 -50 25 -150 91c-44 -115 -103 -225 -159 -306c-63 -89 -205 -9 -112 108l9 -9c-45 -54 -24 -105 12 -119c67 -26 90 262 153 376c-92 57 -108 63 -202 23zM456 248c63 261 185 428 235 506c-212 -51 -303 -216 -383 -416c106 -68 93 -66 148 -90zM747 873
c-44 -12 -84 8 -102 26c-26 20 -38 46 -70 40c-20 -4 -42 -20 -66 -50l-16 8c24 32 56 52 84 56c28 8 80 0 106 -22c42 -32 70 -64 116 -12l12 -14c-14 -16 -50 -32 -64 -32z" />
    <glyph glyph-name="AE" unicode="&#xc6;" horiz-adv-x="1636" 
d="M1036 79c-15 34 -22 69 -22 104c-24 -114 -34 -215 -1 -258c9 -13 25 -19 41 -19l-1 -14c-164 2 -151 286 -121 381h-2c2 0 -100 -13 -184 -22c-63 -164 -126 -328 -247 -435c-62 -54 -187 -126 -301 -138c-58 -6 -114 4 -157 39c-44 35 -43 69 -39 93
c9 59 97 116 152 128c92 22 239 12 325 -44l-6 -11c-87 55 -230 63 -318 42c-57 -15 -129 -67 -141 -119c-4 -28 7 -57 36 -80c41 -31 92 -40 146 -35c264 25 349 359 440 559c-84 -7 -411 -14 -458 112c-10 27 8 62 60 99l10 -9c-48 -33 -66 -63 -57 -87
c44 -111 354 -111 450 -101c90 234 273 450 530 506l12 1l-4 -11l-18 -55l-11 -34c31 34 75 61 124 75c60 17 118 11 159 -15c13 15 29 29 46 40l7 -12c-16 -9 -30 -21 -42 -37c33 -21 56 -81 35 -125c-15 -30 -57 -32 -77 -7c-31 38 3 98 24 130c-39 25 -91 30 -148 14
c-109 -31 -131 -256 -73 -300c17 8 37 12 55 16c17 3 111 12 138 -17c7 -8 10 -19 7 -30c-9 -33 -40 -48 -87 -40c-36 7 -78 26 -116 55c-100 -59 -122 -445 64 -445h3c144 4 265 140 367 265v-21c-72 -85 -202 -252 -367 -257c-14 0 -29 0 -43 2c-76 9 -158 46 -190 117z
M752 266l183 19c48 193 189 408 228 469c-237 -58 -323 -256 -411 -488zM1038 290l6 10c30 57 90 102 147 128c-37 32 -71 72 -81 117c-24 -77 -49 -165 -72 -255zM1216 425c34 -24 72 -43 104 -49c22 -4 63 -4 72 30c2 8 2 12 -3 18c-20 24 -107 16 -126 13
c-16 -3 -32 -7 -47 -12zM1435 712c-17 -29 -46 -82 -22 -114c13 -17 45 -16 54 4c19 41 -4 92 -32 110z" />
    <glyph glyph-name="Aacute" unicode="&#xc1;" horiz-adv-x="1273" 
d="M774 325l-27 -71c-63 -165 -126 -330 -249 -437c-61 -55 -186 -126 -301 -139c-57 -5 -114 4 -157 39s-42 69 -38 93c9 60 96 116 151 128c93 22 240 13 326 -43l-7 -12c-86 55 -229 64 -317 42c-57 -14 -129 -66 -141 -119c-5 -28 7 -56 36 -79c41 -31 92 -40 146 -35
c255 25 376 404 450 599l37 94c-92 57 -174 93 -268 53c5 -28 -3 -43 -20 -51c-15 -7 -35 -8 -42 5c-7 11 -3 26 30 45l17 9c-10 30 -50 27 -72 21c-57 -13 -124 -58 -122 -100h-14c-2 48 72 100 134 113c46 10 78 -2 87 -29c96 40 179 5 275 -54c82 201 255 325 482 373
l13 3c19 -36 -47 -410 -88 -593c78 -33 123 -11 178 58v-21c-57 -64 -113 -79 -181 -51c-24 -118 -74 -216 -40 -260c10 -13 26 -20 42 -20l-2 -13c-143 22 -126 232 -108 331c-60 29 -110 55 -210 121zM987 218c63 261 125 418 175 536c-212 -51 -303 -216 -383 -416
c106 -68 153 -96 208 -120zM403 432l-13 -6c-26 -16 -28 -24 -25 -28c2 -4 13 -4 25 2c10 5 16 13 13 32zM1117 847c-1 6 65 98 71 104c0 1 12 -2 12 -1c-6 -10 -25 -97 -28 -104c-5 0 -52 1 -55 1z" />
    <glyph glyph-name="Abreve" unicode="&#x102;" horiz-adv-x="1273" 
d="M774 325l-27 -71c-63 -165 -126 -330 -249 -437c-61 -55 -186 -126 -301 -139c-57 -5 -114 4 -157 39s-42 69 -38 93c9 60 96 116 151 128c93 22 240 13 326 -43l-7 -12c-86 55 -229 64 -317 42c-57 -14 -129 -66 -141 -119c-5 -28 7 -56 36 -79c41 -31 92 -40 146 -35
c255 25 376 404 450 599l37 94c-92 57 -174 93 -268 53c5 -28 -3 -43 -20 -51c-15 -7 -35 -8 -42 5c-7 11 -3 26 30 45l17 9c-10 30 -50 27 -72 21c-57 -13 -124 -58 -122 -100h-14c-2 48 72 100 134 113c46 10 78 -2 87 -29c96 40 179 5 275 -54c82 201 255 325 482 373
l13 3c19 -36 -47 -410 -88 -593c78 -33 123 -11 178 58v-21c-57 -64 -113 -79 -181 -51c-24 -118 -74 -216 -40 -260c10 -13 26 -20 42 -20l-2 -13c-143 22 -126 232 -108 331c-60 29 -110 55 -210 121zM987 218c63 261 125 418 175 536c-212 -51 -303 -216 -383 -416
c106 -68 153 -96 208 -120zM403 432l-13 -6c-26 -16 -28 -24 -25 -28c2 -4 13 -4 25 2c10 5 16 13 13 32zM1067 940l22 14c54 -56 80 -88 124 -14l20 -14c-56 -106 -164 -72 -166 14z" />
    <glyph glyph-name="Acircumflex" unicode="&#xc2;" horiz-adv-x="1273" 
d="M774 325l-27 -71c-63 -165 -126 -330 -249 -437c-61 -55 -186 -126 -301 -139c-57 -5 -114 4 -157 39s-42 69 -38 93c9 60 96 116 151 128c93 22 240 13 326 -43l-7 -12c-86 55 -229 64 -317 42c-57 -14 -129 -66 -141 -119c-5 -28 7 -56 36 -79c41 -31 92 -40 146 -35
c255 25 376 404 450 599l37 94c-92 57 -174 93 -268 53c5 -28 -3 -43 -20 -51c-15 -7 -35 -8 -42 5c-7 11 -3 26 30 45l17 9c-10 30 -50 27 -72 21c-57 -13 -124 -58 -122 -100h-14c-2 48 72 100 134 113c46 10 78 -2 87 -29c96 40 179 5 275 -54c82 201 255 325 482 373
l13 3c19 -36 -47 -410 -88 -593c78 -33 123 -11 178 58v-21c-57 -64 -113 -79 -181 -51c-24 -118 -74 -216 -40 -260c10 -13 26 -20 42 -20l-2 -13c-143 22 -126 232 -108 331c-60 29 -110 55 -210 121zM987 218c63 261 125 418 175 536c-212 -51 -303 -216 -383 -416
c106 -68 153 -96 208 -120zM403 432l-13 -6c-26 -16 -28 -24 -25 -28c2 -4 13 -4 25 2c10 5 16 13 13 32zM1213 856l-8 -17c-24 9 -55 53 -52 93c-24 -26 -43 -53 -67 -77l-11 12c27 33 54 63 78 96l15 -8c3 -3 45 -93 45 -99z" />
    <glyph glyph-name="Adieresis" unicode="&#xc4;" horiz-adv-x="1273" 
d="M774 325c100 -66 150 -92 210 -121c-18 -99 -35 -309 108 -331l2 13c-16 0 -32 7 -42 20c-34 44 16 142 40 260c68 -28 124 -13 181 51v21c-55 -69 -100 -91 -178 -58c41 183 107 557 88 593l-13 -3c-227 -48 -400 -172 -482 -373c-96 59 -179 94 -275 54
c-9 27 -41 39 -87 29c-62 -13 -136 -65 -134 -113h14c-2 42 65 87 122 100c22 6 62 9 72 -21l-17 -9c-33 -19 -37 -34 -30 -45c7 -13 27 -12 42 -5c17 8 25 23 20 51c94 40 176 4 268 -53l-37 -94c-74 -195 -195 -574 -450 -599c-54 -5 -105 4 -146 35c-29 23 -41 51 -36 79
c12 53 84 105 141 119c88 22 231 13 317 -42l7 12c-86 56 -233 65 -326 43c-55 -12 -142 -68 -151 -128c-4 -24 -5 -58 38 -93s100 -44 157 -39c115 13 240 84 301 139c123 107 186 272 249 437zM987 218c-55 24 -102 52 -208 120c80 200 171 365 383 416
c-50 -118 -112 -275 -175 -536zM403 432c3 -19 -3 -27 -13 -32c-12 -6 -23 -6 -25 -2c-3 4 -1 12 25 28zM1007 880c0 16 9 29 25 29c15 0 26 -13 26 -29c0 -15 -11 -30 -26 -30c-16 0 -25 15 -25 30zM1172 869c0 16 11 29 26 29c14 0 26 -13 26 -29c0 -17 -12 -30 -26 -30
c-15 0 -26 13 -26 30z" />
    <glyph glyph-name="Agrave" unicode="&#xc0;" horiz-adv-x="1273" 
d="M774 325l-27 -71c-63 -165 -126 -330 -249 -437c-61 -55 -186 -126 -301 -139c-57 -5 -114 4 -157 39s-42 69 -38 93c9 60 96 116 151 128c93 22 240 13 326 -43l-7 -12c-86 55 -229 64 -317 42c-57 -14 -129 -66 -141 -119c-5 -28 7 -56 36 -79c41 -31 92 -40 146 -35
c255 25 376 404 450 599l37 94c-92 57 -174 93 -268 53c5 -28 -3 -43 -20 -51c-15 -7 -35 -8 -42 5c-7 11 -3 26 30 45l17 9c-10 30 -50 27 -72 21c-57 -13 -124 -58 -122 -100h-14c-2 48 72 100 134 113c46 10 78 -2 87 -29c96 40 179 5 275 -54c82 201 255 325 482 373
l13 3c19 -36 -47 -410 -88 -593c78 -33 123 -11 178 58v-21c-57 -64 -113 -79 -181 -51c-24 -118 -74 -216 -40 -260c10 -13 26 -20 42 -20l-2 -13c-143 22 -126 232 -108 331c-60 29 -110 55 -210 121zM987 218c63 261 125 418 175 536c-212 -51 -303 -216 -383 -416
c106 -68 153 -96 208 -120zM403 432l-13 -6c-26 -16 -28 -24 -25 -28c2 -4 13 -4 25 2c10 5 16 13 13 32zM1199 867c-3 0 -50 -1 -55 -1c-3 7 -22 94 -28 104l12 1c6 -6 72 -98 71 -104z" />
    <glyph glyph-name="Amacron" unicode="&#x100;" horiz-adv-x="1273" 
d="M774 325l-27 -71c-63 -165 -126 -330 -249 -437c-61 -55 -186 -126 -301 -139c-57 -5 -114 4 -157 39s-42 69 -38 93c9 60 96 116 151 128c93 22 240 13 326 -43l-7 -12c-86 55 -229 64 -317 42c-57 -14 -129 -66 -141 -119c-5 -28 7 -56 36 -79c41 -31 92 -40 146 -35
c255 25 376 404 450 599l37 94c-92 57 -174 93 -268 53c5 -28 -3 -43 -20 -51c-15 -7 -35 -8 -42 5c-7 11 -3 26 30 45l17 9c-10 30 -50 27 -72 21c-57 -13 -124 -58 -122 -100h-14c-2 48 72 100 134 113c46 10 78 -2 87 -29c96 40 179 5 275 -54c82 201 255 325 482 373
l13 3c19 -36 -47 -410 -88 -593c78 -33 123 -11 178 58v-21c-57 -64 -113 -79 -181 -51c-24 -118 -74 -216 -40 -260c10 -13 26 -20 42 -20l-2 -13c-143 22 -126 232 -108 331c-60 29 -110 55 -210 121zM987 218c63 261 125 418 175 536c-212 -51 -303 -216 -383 -416
c106 -68 153 -96 208 -120zM403 432l-13 -6c-26 -16 -28 -24 -25 -28c2 -4 13 -4 25 2c10 5 16 13 13 32zM1176 879l-1 -22l-153 15v23z" />
    <glyph glyph-name="Aogonek" unicode="&#x104;" horiz-adv-x="1273" 
d="M987 218c63 261 125 418 175 536c-212 -51 -303 -216 -383 -416c106 -68 153 -96 208 -120zM403 432l-13 -6c-26 -16 -28 -24 -25 -28c2 -4 13 -4 25 2c10 5 16 13 13 32zM774 325l-27 -71c-63 -165 -126 -330 -249 -437c-61 -55 -186 -126 -301 -139
c-57 -5 -114 4 -157 39s-42 69 -38 93c9 60 96 116 151 128c90 22 231 14 318 -38c81 127 135 286 175 391l37 94c-92 57 -174 93 -268 53c5 -28 -3 -43 -20 -51c-15 -7 -35 -8 -42 5c-7 11 -3 26 30 45l17 9c-10 30 -50 27 -72 21c-57 -13 -124 -58 -122 -100h-14
c-2 48 72 100 134 113c46 10 78 -2 87 -29c96 40 179 5 275 -54c82 201 255 325 482 373l13 3c19 -36 -47 -410 -88 -593c78 -33 123 -11 178 58v-21c-57 -64 -113 -79 -181 -51c-24 -118 -74 -216 -40 -260c10 -13 26 -20 42 -20l-2 -13c-32 -5 -16 -104 24 -76l7 -11
c-73 -52 -118 45 -56 92l2 1c-118 40 -102 231 -85 325c-60 29 -110 55 -210 121zM155 -75c-57 -14 -129 -66 -141 -119c-5 -28 7 -56 36 -79c41 -31 92 -40 146 -35c113 11 200 93 268 196c-87 51 -224 59 -309 37z" />
    <glyph glyph-name="Aring" unicode="&#xc5;" horiz-adv-x="1273" 
d="M774 325l-27 -71c-63 -165 -126 -330 -249 -437c-61 -55 -186 -126 -301 -139c-57 -5 -114 4 -157 39s-42 69 -38 93c9 60 96 116 151 128c93 22 240 13 326 -43l-7 -12c-86 55 -229 64 -317 42c-57 -14 -129 -66 -141 -119c-5 -28 7 -56 36 -79c41 -31 92 -40 146 -35
c255 25 376 404 450 599l37 94c-92 57 -174 93 -268 53c5 -28 -3 -43 -20 -51c-15 -7 -35 -8 -42 5c-7 11 -3 26 30 45l17 9c-10 30 -50 27 -72 21c-57 -13 -124 -58 -122 -100h-14c-2 48 72 100 134 113c46 10 78 -2 87 -29c96 40 179 5 275 -54c82 201 255 325 482 373
l13 3c19 -36 -47 -410 -88 -593c78 -33 123 -11 178 58v-21c-57 -64 -113 -79 -181 -51c-24 -118 -74 -216 -40 -260c10 -13 26 -20 42 -20l-2 -13c-143 22 -126 232 -108 331c-60 29 -110 55 -210 121zM987 218c63 261 125 418 175 536c-212 -51 -303 -216 -383 -416
c106 -68 153 -96 208 -120zM403 432l-13 -6c-26 -16 -28 -24 -25 -28c2 -4 13 -4 25 2c10 5 16 13 13 32zM1094 919c34 60 132 42 118 -42c-14 -92 -176 -66 -118 42zM1112 899c-28 -60 72 -76 76 -12c4 50 -60 50 -76 12z" />
    <glyph glyph-name="Atilde" unicode="&#xc3;" horiz-adv-x="1273" 
d="M774 325l-27 -71c-63 -165 -126 -330 -249 -437c-61 -55 -186 -126 -301 -139c-57 -5 -114 4 -157 39s-42 69 -38 93c9 60 96 116 151 128c93 22 240 13 326 -43l-7 -12c-86 55 -229 64 -317 42c-57 -14 -129 -66 -141 -119c-5 -28 7 -56 36 -79c41 -31 92 -40 146 -35
c255 25 376 404 450 599l37 94c-92 57 -174 93 -268 53c5 -28 -3 -43 -20 -51c-15 -7 -35 -8 -42 5c-7 11 -3 26 30 45l17 9c-10 30 -50 27 -72 21c-57 -13 -124 -58 -122 -100h-14c-2 48 72 100 134 113c46 10 78 -2 87 -29c96 40 179 5 275 -54c82 201 255 325 482 373
l13 3c19 -36 -47 -410 -88 -593c78 -33 123 -11 178 58v-21c-57 -64 -113 -79 -181 -51c-24 -118 -74 -216 -40 -260c10 -13 26 -20 42 -20l-2 -13c-143 22 -126 232 -108 331c-60 29 -110 55 -210 121zM987 218c63 261 125 418 175 536c-212 -51 -303 -216 -383 -416
c106 -68 153 -96 208 -120zM403 432l-13 -6c-26 -16 -28 -24 -25 -28c2 -4 13 -4 25 2c10 5 16 13 13 32zM1180 863c-44 -12 -84 8 -102 26c-26 20 -38 46 -70 40c-20 -4 -42 -20 -66 -50l-16 8c24 32 56 52 84 56c28 8 80 0 106 -22c42 -32 70 -64 116 -12l12 -14
c-14 -16 -50 -32 -64 -32z" />
    <glyph glyph-name="B" unicode="B" horiz-adv-x="791" 
d="M671 497c-24 -27 -75 -49 -108 -67c166 -79 152 -336 -47 -435c-61 -29 -129 -24 -174 8c-39 28 -60 77 -43 142c16 58 60 111 113 126l5 -12c-49 -15 -90 -63 -105 -117c-14 -54 0 -96 28 -122c141 -126 344 275 207 404c-50 -26 -165 -52 -163 7c1 69 127 25 162 7
c52 23 121 220 72 278c-51 56 -134 28 -188 -47c-71 -105 -86 -255 -122 -362c-54 -170 -258 -464 -414 -415l4 12c152 -48 241 240 297 416c38 116 69 256 142 350c85 113 287 103 347 44c75 -73 21 -178 -13 -217zM532 430c-41 18 -134 46 -136 2c-1 -41 90 -20 136 -2z
" />
    <glyph glyph-name="B.alt1" horiz-adv-x="726" 
d="M462 430c-41 18 -134 46 -136 2c-1 -41 90 -20 136 -2zM128 9c-71 -101 -245 -21 -142 108l9 -9c-51 -61 -16 -132 27 -123c90 18 119 540 245 685c54 71 135 104 209 97c43 -4 85 -22 118 -53c74 -74 21 -178 -13 -217c-24 -27 -55 -49 -88 -67
c167 -80 152 -337 -47 -435c-33 -16 -68 -21 -101 -18c-80 8 -142 69 -116 168c16 58 60 111 113 126l5 -12c-49 -15 -90 -63 -105 -117c-23 -91 28 -137 95 -152c184 -42 217 391 140 434c-50 -26 -165 -52 -163 7c1 69 127 25 162 7c66 20 110 269 4 308
c-45 3 -93 -32 -120 -77c-97 -161 -126 -514 -232 -660z" />
    <glyph glyph-name="B.alt2" horiz-adv-x="1626" 
d="M1502 867l16 -11c-43 -9 -74 -17 -116 -42c59 -41 109 -94 113 -155c7 -99 -64 -163 -142 -203c230 -110 140 -379 -47 -472c-115 -55 -253 4 -217 144c16 57 60 104 113 119l5 -12c-49 -15 -90 -57 -104 -111c-23 -85 23 -134 87 -145c185 -28 236 327 147 469
c-50 -24 -165 -51 -163 8c2 69 127 24 163 8c87 41 103 252 33 342c-162 -114 -209 -309 -258 -459c-55 -170 -129 -335 -248 -447c-65 -59 -189 -131 -301 -146c-75 -7 -154 5 -208 39c-17 10 -45 36 -54 50c-96 -30 -174 -24 -228 19c-83 65 -87 133 -77 175
c22 98 152 192 296 220c36 112 90 196 159 234c49 28 108 42 163 40c-3 36 6 80 36 136c112 200 354 232 483 232c72 0 162 -26 235 -74c35 18 84 44 114 42zM309 243c-100 -22 -184 -93 -209 -210c-21 -91 84 -230 213 -179c-31 45 -50 119 -36 225c8 59 18 115 32 164z
M1342 456c-41 17 -134 46 -135 1c-2 -41 90 -20 135 -1zM1019 360c8 26 17 53 28 80c-36 -35 -81 -58 -130 -64c-29 -4 -59 -5 -88 -3v-4c10 -154 -206 -384 -399 -480c-33 -17 -66 -31 -96 -41c14 -18 30 -33 48 -45c51 -32 126 -54 198 -37c286 68 355 318 439 594z
M1065 480c8 19 18 37 28 55c16 47 19 99 6 145c-20 68 -68 84 -98 87c-50 4 -102 -20 -120 -56c-9 -18 -17 -46 11 -80l-10 -10c-25 31 -29 64 -13 95c22 44 80 69 135 64c30 -4 85 -20 108 -96c9 -35 11 -71 6 -106c64 101 150 189 258 239c-70 45 -155 69 -223 69
c-124 0 -292 -31 -402 -227c-26 -48 -37 -91 -34 -129c0 0 0 -6 1 -13v-4l14 -6c50 -26 85 -68 95 -122c28 -2 58 -1 89 4c59 9 113 41 149 91zM718 392l-2 9c-22 13 -41 31 -57 55c-10 15 -20 36 -24 62c-53 3 -110 -10 -157 -38c-65 -38 -115 -111 -151 -221
c122 20 230 -14 288 -94l-13 -7c-53 75 -158 108 -278 87c-15 -49 -26 -106 -34 -168c-12 -92 0 -165 36 -218c29 10 65 25 97 42c214 107 309 336 297 468c0 10 -2 23 -2 23z" />
    <glyph glyph-name="B.alt3" horiz-adv-x="1248" 
d="M632 360c8 26 18 53 29 80c-36 -35 -82 -57 -131 -64c-94 -12 -204 1 -258 80c-26 38 -47 106 11 211c112 200 354 232 483 232c72 0 165 -29 238 -77c38 23 82 42 131 55l9 -10c-48 -12 -90 -30 -128 -53c58 -41 108 -94 112 -155c7 -99 -64 -163 -142 -203
c230 -110 140 -379 -47 -472c-115 -55 -253 4 -217 144c16 57 60 104 113 119l5 -12c-49 -15 -90 -57 -104 -111c-25 -96 34 -145 111 -146c147 0 221 340 123 470c-50 -24 -165 -51 -163 8c2 69 127 24 163 8c63 42 95 292 33 342c-160 -106 -208 -306 -258 -459
c-55 -170 -129 -335 -248 -447c-98 -89 -331 -208 -453 -116c-44 33 -47 69 -42 93c14 63 92 119 144 135c92 27 240 20 329 -32l-5 -10c79 104 114 243 162 390zM707 539c15 46 17 96 5 141c-20 68 -68 84 -98 87c-50 4 -102 -20 -120 -56c-9 -18 -17 -46 11 -80l-10 -10
c-25 31 -29 64 -13 95c22 44 80 69 135 64c30 -4 85 -20 108 -96c9 -34 12 -69 7 -104c61 98 145 184 260 234c-70 45 -158 72 -226 72c-124 0 -292 -31 -402 -227c-80 -144 -10 -296 165 -270c59 9 113 41 149 91c9 20 19 40 29 59zM151 0c-55 -16 -126 -74 -137 -127
c-5 -29 9 -57 39 -78c127 -91 283 41 365 116c19 18 36 37 51 57c-94 53 -227 57 -318 32zM955 456c-41 17 -134 46 -135 1c-2 -41 90 -20 135 -1z" />
    <glyph glyph-name="B.alt4" horiz-adv-x="1601" 
d="M1308 456c-41 17 -134 46 -135 1c-2 -41 90 -20 135 -1zM295 320c-100 -22 -255 -93 -280 -210c-13 -57 12 -114 72 -160c51 -40 126 -45 212 -19c-31 45 -50 119 -36 225c8 59 18 115 32 164zM310 322c-15 -49 -26 -106 -34 -168c-12 -92 0 -165 36 -218
c29 10 65 25 97 42c214 107 309 336 297 468c-9 109 -1 150 -101 150c-48 0 -99 -14 -141 -39c-65 -38 -115 -111 -151 -221c122 20 230 -14 288 -94l-13 -7c-53 75 -158 108 -278 87zM562 -171c-75 -7 -147 7 -201 41c-17 10 -45 36 -54 50c-96 -30 -174 -24 -228 19
c-83 65 -87 133 -77 175c22 98 152 192 296 220c36 112 90 196 159 234c81 46 187 54 261 16c55 -28 92 -77 97 -138c10 -154 -206 -384 -399 -480c-33 -17 -66 -31 -96 -41c14 -18 30 -33 48 -45c51 -32 120 -40 193 -29c229 36 325 198 424 509c56 177 186 374 335 474
c-70 45 -203 52 -271 52c-124 0 -292 -31 -402 -227l-11 8c112 200 284 232 413 232c72 0 210 -9 283 -57c38 23 100 39 156 35l9 -10c-48 -12 -90 -30 -128 -53c58 -41 108 -94 112 -155c7 -99 -64 -163 -142 -203c230 -110 140 -379 -47 -472c-115 -55 -253 4 -217 144
c16 57 60 104 113 119l5 -12c-49 -15 -90 -57 -104 -111c-26 -99 40 -150 120 -147c134 6 216 347 114 471c-50 -24 -165 -51 -163 8c2 69 127 24 163 8c97 46 92 299 33 342c-160 -106 -208 -306 -258 -459c-80 -239 -263 -495 -536 -518z" />
    <glyph glyph-name="C" unicode="C" horiz-adv-x="644" 
d="M259 -7c148 -8 243 69 385 245v-21c-137 -167 -232 -244 -387 -237c-138 6 -238 130 -253 246c-14 110 19 240 88 350c63 100 194 203 330 174c82 -16 144 -73 145 -151c24 14 49 25 76 36l9 -9c-29 -13 -59 -26 -85 -42c-1 -15 -4 -31 -10 -47c-10 -30 -32 -64 -55 -52
c-29 13 -5 52 13 72c11 13 25 24 39 33c1 74 -57 132 -138 148c-241 51 -468 -712 -157 -745zM522 546c-12 -14 -31 -42 -14 -50c13 -6 31 29 38 46c4 11 6 22 7 32c-11 -8 -22 -17 -31 -28z" />
    <glyph glyph-name="C.alt1" horiz-adv-x="643" 
d="M501 485l6 11c13 -6 33 29 39 46c28 96 -36 176 -131 196c-229 49 -412 -729 -157 -745c148 -8 243 69 385 245v-21c-137 -167 -232 -244 -387 -237c-138 6 -238 130 -253 246c-14 110 19 240 88 350c63 100 194 203 330 174c109 -22 170 -112 138 -213
c-10 -30 -35 -64 -58 -52z" />
    <glyph glyph-name="C.alt1_acute" horiz-adv-x="643" 
d="M501 485l6 11c13 -6 33 29 39 46c28 96 -36 176 -131 196c-229 49 -412 -729 -157 -745c148 -8 243 69 385 245v-21c-137 -167 -232 -244 -387 -237c-138 6 -238 130 -253 246c-14 110 19 240 88 350c63 100 194 203 330 174c109 -22 170 -112 138 -213
c-10 -30 -35 -64 -58 -52zM353 821c-1 6 65 98 71 104c0 1 12 -2 12 -1c-6 -10 -25 -97 -28 -104c-5 0 -52 1 -55 1z" />
    <glyph glyph-name="C.alt1_caron" horiz-adv-x="643" 
d="M501 485l6 11c13 -6 33 29 39 46c28 96 -36 176 -131 196c-229 49 -412 -729 -157 -745c148 -8 243 69 385 245v-21c-137 -167 -232 -244 -387 -237c-138 6 -238 130 -253 246c-14 110 19 240 88 350c63 100 194 203 330 174c109 -22 170 -112 138 -213
c-10 -30 -35 -64 -58 -52zM304 950l8 17c24 -9 55 -53 52 -93c24 26 43 53 67 77l11 -12c-27 -33 -54 -63 -78 -96l-15 8c-3 3 -45 93 -45 99z" />
    <glyph glyph-name="C.alt1_cedilla" horiz-adv-x="643" 
d="M229 -182l6 12c67 -42 139 87 53 88l15 63c-15 -1 -31 -1 -47 -1c-138 6 -238 130 -253 246c-14 110 19 240 88 350c63 100 194 203 330 174c109 -22 170 -112 138 -213c-10 -30 -35 -64 -58 -52l6 11c13 -6 33 29 39 46c28 96 -36 176 -131 196
c-229 49 -412 -729 -157 -745c148 -8 243 69 385 245v-21c-117 -142 -203 -219 -321 -234l-13 -45c129 -34 10 -168 -80 -120z" />
    <glyph glyph-name="C.alt1_circumflex" horiz-adv-x="643" 
d="M501 485l6 11c13 -6 33 29 39 46c28 96 -36 176 -131 196c-229 49 -412 -729 -157 -745c148 -8 243 69 385 245v-21c-137 -167 -232 -244 -387 -237c-138 6 -238 130 -253 246c-14 110 19 240 88 350c63 100 194 203 330 174c109 -22 170 -112 138 -213
c-10 -30 -35 -64 -58 -52zM457 831l-8 -17c-24 9 -55 53 -52 93c-24 -26 -43 -53 -67 -77l-11 12c27 33 54 63 78 96l15 -8c3 -3 45 -93 45 -99z" />
    <glyph glyph-name="C.alt1_dotaccent" horiz-adv-x="643" 
d="M507 496l-6 -11c23 -12 48 22 58 52c32 101 -29 191 -138 213c-136 29 -267 -74 -330 -174c-69 -110 -102 -240 -88 -350c15 -116 115 -240 253 -246c155 -7 250 70 387 237v21c-142 -176 -237 -253 -385 -245c-255 16 -72 794 157 745c95 -20 159 -100 131 -196
c-6 -17 -26 -52 -39 -46zM346 865c0 16 11 29 26 29c14 0 26 -13 26 -29c0 -17 -12 -30 -26 -30c-15 0 -26 13 -26 30z" />
    <glyph glyph-name="C.alt2" horiz-adv-x="901" 
d="M547 -1c101 -6 177 35 260 111l6 -12c-83 -76 -160 -117 -267 -112c-132 6 -210 65 -251 149c-39 79 -45 180 -31 279c-175 15 -330 129 -219 282c72 97 262 142 408 98c83 73 209 116 315 84c103 -32 174 -120 118 -214c-72 -122 -349 -220 -506 -244
c-43 -200 -10 -411 167 -421zM523 774l-10 -11c57 -34 101 -88 108 -152l-14 -1c-7 59 -48 109 -101 142c-40 -56 -92 -183 -123 -317c148 20 414 110 491 239c54 89 -24 164 -114 192c-72 23 -171 -28 -237 -92zM55 687c-104 -151 54 -248 212 -260c19 131 79 270 175 358
c-139 41 -317 -1 -387 -98z" />
    <glyph glyph-name="C.alt2_acute" horiz-adv-x="901" 
d="M547 -1c101 -6 177 35 260 111l6 -12c-83 -76 -160 -117 -267 -112c-132 6 -210 65 -251 149c-39 79 -45 180 -31 279c-175 15 -330 129 -219 282c72 97 262 142 408 98c83 73 209 116 315 84c103 -32 174 -120 118 -214c-72 -122 -349 -220 -506 -244
c-43 -200 -10 -411 167 -421zM523 774l-10 -11c57 -34 101 -88 108 -152l-14 -1c-7 59 -48 109 -101 142c-40 -56 -92 -183 -123 -317c148 20 414 110 491 239c54 89 -24 164 -114 192c-72 23 -171 -28 -237 -92zM55 687c-104 -151 54 -248 212 -260c19 131 79 270 175 358
c-139 41 -317 -1 -387 -98zM668 957c-1 6 65 98 71 104c0 1 12 -2 12 -1c-6 -10 -25 -97 -28 -104c-5 0 -52 1 -55 1z" />
    <glyph glyph-name="C.alt2_caron" horiz-adv-x="901" 
d="M547 -1c101 -6 177 35 260 111l6 -12c-83 -76 -160 -117 -267 -112c-132 6 -210 65 -251 149c-39 79 -45 180 -31 279c-175 15 -330 129 -219 282c72 97 262 142 408 98c83 73 209 116 315 84c103 -32 174 -120 118 -214c-72 -122 -349 -220 -506 -244
c-43 -200 -10 -411 167 -421zM523 774l-10 -11c57 -34 101 -88 108 -152l-14 -1c-7 59 -48 109 -101 142c-40 -56 -92 -183 -123 -317c148 20 414 110 491 239c54 89 -24 164 -114 192c-72 23 -171 -28 -237 -92zM55 687c-104 -151 54 -248 212 -260c19 131 79 270 175 358
c-139 41 -317 -1 -387 -98zM646 1056l8 17c24 -9 55 -53 52 -93c24 26 43 53 67 77l11 -12c-27 -33 -54 -63 -78 -96l-15 8c-3 3 -45 93 -45 99z" />
    <glyph glyph-name="C.alt2_cedilla" horiz-adv-x="901" 
d="M470 -181l6 12c67 -42 139 87 53 88l16 67c-132 6 -209 65 -250 149c-39 79 -45 180 -31 279c-175 15 -330 129 -219 282c72 97 262 142 408 98c83 73 209 116 315 84c103 -32 174 -120 118 -214c-72 -122 -349 -220 -506 -244c-43 -200 -10 -411 167 -421
c101 -6 177 35 260 111l6 -12c-78 -72 -152 -112 -249 -112l-14 -47c129 -34 10 -168 -80 -120zM523 774l-10 -11c57 -34 101 -88 108 -152l-14 -1c-7 59 -48 109 -101 142c-40 -56 -92 -183 -123 -317c148 20 414 110 491 239c54 89 -24 164 -114 192
c-72 23 -171 -28 -237 -92zM55 687c-104 -151 54 -248 212 -260c19 131 79 270 175 358c-139 41 -317 -1 -387 -98z" />
    <glyph glyph-name="C.alt2_circumflex" horiz-adv-x="901" 
d="M547 -1c101 -6 177 35 260 111l6 -12c-83 -76 -160 -117 -267 -112c-132 6 -210 65 -251 149c-39 79 -45 180 -31 279c-175 15 -330 129 -219 282c72 97 262 142 408 98c83 73 209 116 315 84c103 -32 174 -120 118 -214c-72 -122 -349 -220 -506 -244
c-43 -200 -10 -411 167 -421zM523 774l-10 -11c57 -34 101 -88 108 -152l-14 -1c-7 59 -48 109 -101 142c-40 -56 -92 -183 -123 -317c148 20 414 110 491 239c54 89 -24 164 -114 192c-72 23 -171 -28 -237 -92zM55 687c-104 -151 54 -248 212 -260c19 131 79 270 175 358
c-139 41 -317 -1 -387 -98zM754 956l-8 -17c-24 9 -55 53 -52 93c-24 -26 -43 -53 -67 -77l-11 12c27 33 54 63 78 96l15 -8c3 -3 45 -93 45 -99z" />
    <glyph glyph-name="C.alt2_dotaccent" horiz-adv-x="901" 
d="M547 -1c-177 10 -210 221 -167 421c157 24 434 122 506 244c56 94 -15 182 -118 214c-106 32 -232 -11 -315 -84c-146 44 -336 -1 -408 -98c-111 -153 44 -267 219 -282c-14 -99 -8 -200 31 -279c41 -84 119 -143 251 -149c107 -5 184 36 267 112l-6 12
c-83 -76 -159 -117 -260 -111zM513 763l10 11c66 64 165 115 237 92c90 -28 168 -103 114 -192c-77 -129 -343 -219 -491 -239c31 134 83 261 123 317c53 -33 94 -83 101 -142l14 1c-7 64 -51 118 -108 152zM55 687c70 97 248 139 387 98c-96 -88 -156 -227 -175 -358
c-158 12 -316 109 -212 260zM673 989c0 16 11 29 26 29c14 0 26 -13 26 -29c0 -17 -12 -30 -26 -30c-15 0 -26 13 -26 30z" />
    <glyph glyph-name="C.caron" unicode="&#x10c;" horiz-adv-x="644" 
d="M259 -7c148 -8 243 69 385 245v-21c-137 -167 -232 -244 -387 -237c-138 6 -238 130 -253 246c-14 110 19 240 88 350c63 100 194 203 330 174c82 -16 144 -73 145 -151c24 14 49 25 76 36l9 -9c-29 -13 -59 -26 -85 -42c-1 -15 -4 -31 -10 -47c-10 -30 -32 -64 -55 -52
c-29 13 -5 52 13 72c11 13 25 24 39 33c1 74 -57 132 -138 148c-241 51 -468 -712 -157 -745zM522 546c-12 -14 -31 -42 -14 -50c13 -6 31 29 38 46c4 11 6 22 7 32c-11 -8 -22 -17 -31 -28zM305 946l8 17c24 -9 55 -53 52 -93c24 26 43 53 67 77l11 -12
c-27 -33 -54 -63 -78 -96l-15 8c-3 3 -45 93 -45 99z" />
    <glyph glyph-name="C.dot" unicode="&#x10a;" horiz-adv-x="644" 
d="M259 -7c-311 33 -84 796 157 745c81 -16 139 -74 138 -148c-14 -9 -28 -20 -39 -33c-18 -20 -42 -59 -13 -72c23 -12 45 22 55 52c6 16 9 32 10 47c26 16 56 29 85 42l-9 9c-27 -11 -52 -22 -76 -36c-1 78 -63 135 -145 151c-136 29 -267 -74 -330 -174
c-69 -110 -102 -240 -88 -350c15 -116 115 -240 253 -246c155 -7 250 70 387 237v21c-142 -176 -237 -253 -385 -245zM522 546c9 11 20 20 31 28c-1 -10 -3 -21 -7 -32c-7 -17 -25 -52 -38 -46c-17 8 2 36 14 50zM332 879c0 16 11 29 26 29c14 0 26 -13 26 -29
c0 -17 -12 -30 -26 -30c-15 0 -26 13 -26 30z" />
    <glyph glyph-name="CR" horiz-adv-x="320" 
 />
    <glyph glyph-name="Cacute" unicode="&#x106;" horiz-adv-x="644" 
d="M259 -7c148 -8 243 69 385 245v-21c-137 -167 -232 -244 -387 -237c-138 6 -238 130 -253 246c-14 110 19 240 88 350c63 100 194 203 330 174c82 -16 144 -73 145 -151c24 14 49 25 76 36l9 -9c-29 -13 -59 -26 -85 -42c-1 -15 -4 -31 -10 -47c-10 -30 -32 -64 -55 -52
c-29 13 -5 52 13 72c11 13 25 24 39 33c1 74 -57 132 -138 148c-241 51 -468 -712 -157 -745zM522 546c-12 -14 -31 -42 -14 -50c13 -6 31 29 38 46c4 11 6 22 7 32c-11 -8 -22 -17 -31 -28zM327 847c-1 6 65 98 71 104c0 1 12 -2 12 -1c-6 -10 -25 -97 -28 -104
c-5 0 -52 1 -55 1z" />
    <glyph glyph-name="Ccedilla" unicode="&#xc7;" horiz-adv-x="644" 
d="M522 546c-12 -14 -31 -42 -14 -50c13 -6 31 29 38 46c4 11 6 22 7 32c-11 -8 -22 -17 -31 -28zM259 -7c148 -8 243 69 385 245v-21c-132 -160 -225 -238 -368 -238l1 -48c136 -36 10 -188 -86 -136l8 16c68 -48 146 98 56 100l2 69c-138 6 -238 130 -253 246
c-14 110 19 240 88 350c63 100 194 203 330 174c82 -16 144 -73 145 -151c24 14 49 25 76 36l9 -9c-29 -13 -59 -26 -85 -42c-1 -15 -4 -31 -10 -47c-10 -30 -32 -64 -55 -52c-29 13 -5 52 13 72c11 13 25 24 39 33c1 74 -57 132 -138 148c-253 54 -441 -728 -157 -745z" />
    <glyph glyph-name="Ccircumflex" unicode="&#x108;" horiz-adv-x="644" 
d="M259 -7c148 -8 243 69 385 245v-21c-137 -167 -232 -244 -387 -237c-138 6 -238 130 -253 246c-14 110 19 240 88 350c63 100 194 203 330 174c82 -16 144 -73 145 -151c24 14 49 25 76 36l9 -9c-29 -13 -59 -26 -85 -42c-1 -15 -4 -31 -10 -47c-10 -30 -32 -64 -55 -52
c-29 13 -5 52 13 72c11 13 25 24 39 33c1 74 -57 132 -138 148c-241 51 -468 -712 -157 -745zM522 546c-12 -14 -31 -42 -14 -50c13 -6 31 29 38 46c4 11 6 22 7 32c-11 -8 -22 -17 -31 -28zM443 836l-8 -17c-24 9 -55 53 -52 93c-24 -26 -43 -53 -67 -77l-11 12
c27 33 54 63 78 96l15 -8c3 -3 45 -93 45 -99z" />
    <glyph glyph-name="D" unicode="D" horiz-adv-x="889" 
d="M452 306l1 -11c-45 -20 -84 -32 -119 -37c-62 -185 -211 -345 -334 -356l4 10c100 7 163 160 220 341c-175 -7 -215 160 -193 270c14 67 58 127 123 167c50 32 112 55 183 63c26 5 52 7 77 6c55 77 139 109 186 111l3 -11c-25 -5 -77 -67 -97 -101
c188 -18 311 -196 289 -401c-14 -136 -100 -283 -241 -339c-73 -30 -169 -40 -266 10l10 9c210 -109 364 145 386 321c28 221 -5 376 -184 389c-57 -105 -103 -301 -163 -479c35 6 74 18 115 38zM406 747c-23 0 -46 -1 -70 -5c-128 -20 -248 -97 -274 -225
c-32 -155 42 -251 166 -252c54 175 105 373 178 482z" />
    <glyph glyph-name="D.alt1" horiz-adv-x="881" 
d="M439 306l2 -11c-45 -20 -84 -32 -120 -37c-31 -91 -64 -175 -106 -239c-82 -111 -293 -30 -184 108l10 -9c-77 -92 32 -174 86 -84c31 60 58 137 84 219c-173 -2 -215 160 -192 270c12 67 57 127 122 167c50 32 112 55 182 63c27 5 53 7 78 6c38 52 108 71 156 71l3 -11
c-25 -5 -47 -27 -67 -61c188 -18 311 -196 289 -401c-15 -140 -102 -291 -252 -344c-71 -25 -163 -32 -256 14l8 12c49 -27 107 -35 159 -31c285 18 347 734 46 739c-57 -105 -102 -301 -162 -479c36 6 74 18 114 38zM393 747c-22 0 -46 -1 -70 -5
c-128 -20 -248 -97 -274 -225c-33 -155 42 -252 166 -252c55 175 104 373 178 482z" />
    <glyph glyph-name="D.alt1_caron" horiz-adv-x="881" 
d="M439 306l2 -11c-45 -20 -84 -32 -120 -37c-31 -91 -64 -175 -106 -239c-82 -111 -293 -30 -184 108l10 -9c-77 -92 32 -174 86 -84c31 60 58 137 84 219c-173 -2 -215 160 -192 270c12 67 57 127 122 167c50 32 112 55 182 63c27 5 53 7 78 6c38 52 108 71 156 71l3 -11
c-25 -5 -47 -27 -67 -61c188 -18 311 -196 289 -401c-15 -140 -102 -291 -252 -344c-71 -25 -163 -32 -256 14l8 12c49 -27 107 -35 159 -31c285 18 347 734 46 739c-57 -105 -102 -301 -162 -479c36 6 74 18 114 38zM393 747c-22 0 -46 -1 -70 -5
c-128 -20 -248 -97 -274 -225c-33 -155 42 -252 166 -252c55 175 104 373 178 482zM448 1006l8 17c24 -9 55 -53 52 -93c24 26 43 53 67 77l11 -12c-27 -33 -54 -63 -78 -96l-15 8c-3 3 -45 93 -45 99z" />
    <glyph glyph-name="D.alt2" horiz-adv-x="1330" 
d="M666 110c74 100 123 212 187 319c67 -43 88 -119 59 -193c-35 -82 -139 -136 -246 -126zM1095 714c58 36 126 61 207 65l-6 13c-77 8 -185 4 -244 -33c-701 626 -1496 -428 -498 -625c-71 -101 -358 -378 -512 -220c-26 27 -35 56 -25 84c67 170 356 102 465 13l7 11
c-116 89 -408 165 -484 -19c-6 -17 -13 -66 25 -98c182 -159 459 -18 629 195c98 -13 225 33 264 131c34 78 7 163 -64 210c57 98 126 200 225 265c158 -222 -26 -696 -267 -704c-55 -3 -113 4 -159 19l-8 -7c79 -25 178 -27 259 -8c337 77 421 441 186 708zM760 471
c-60 -105 -121 -216 -199 -326c-706 110 -257 1242 480 607c-89 -37 -214 -165 -275 -271c-21 12 -45 23 -71 28l-1 -11c22 -5 45 -15 66 -27z" />
    <glyph glyph-name="D.alt2_caron" horiz-adv-x="1330" 
d="M666 110c74 100 123 212 187 319c67 -43 88 -119 59 -193c-35 -82 -139 -136 -246 -126zM1095 714c58 36 126 61 207 65l-6 13c-77 8 -185 4 -244 -33c-701 626 -1496 -428 -498 -625c-71 -101 -358 -378 -512 -220c-26 27 -35 56 -25 84c67 170 356 102 465 13l7 11
c-116 89 -408 165 -484 -19c-6 -17 -13 -66 25 -98c182 -159 459 -18 629 195c98 -13 225 33 264 131c34 78 7 163 -64 210c57 98 126 200 225 265c158 -222 -26 -696 -267 -704c-55 -3 -113 4 -159 19l-8 -7c79 -25 178 -27 259 -8c337 77 421 441 186 708zM760 471
c-60 -105 -121 -216 -199 -326c-706 110 -257 1242 480 607c-89 -37 -214 -165 -275 -271c-21 12 -45 23 -71 28l-1 -11c22 -5 45 -15 66 -27zM1023 993l-8 -17c0 -6 42 -96 45 -99l15 -8c24 33 51 63 78 96l-11 12c-24 -24 -43 -51 -67 -77c3 40 -28 84 -52 93z" />
    <glyph glyph-name="D_caron" unicode="&#x10e;" horiz-adv-x="889" 
d="M452 306l1 -11c-45 -20 -84 -32 -119 -37c-62 -185 -211 -345 -334 -356l4 10c100 7 163 160 220 341c-175 -7 -215 160 -193 270c14 67 58 127 123 167c50 32 112 55 183 63c26 5 52 7 77 6c55 77 139 109 186 111l3 -11c-25 -5 -77 -67 -97 -101
c188 -18 311 -196 289 -401c-14 -136 -100 -283 -241 -339c-73 -30 -169 -40 -266 10l10 9c210 -109 364 145 386 321c28 221 -5 376 -184 389c-57 -105 -103 -301 -163 -479c35 6 74 18 115 38zM406 747c-23 0 -46 -1 -70 -5c-128 -20 -248 -97 -274 -225
c-32 -155 42 -251 166 -252c54 175 105 373 178 482zM528 1040l8 17c24 -9 55 -53 52 -93c24 26 43 53 67 77l11 -12c-27 -33 -54 -63 -78 -96l-15 8c-3 3 -45 93 -45 99z" />
    <glyph glyph-name="Delta" unicode="&#x394;" horiz-adv-x="418" 
d="M219 306l155 -306h-310zM212 260l-127 -248h249z" />
    <glyph glyph-name="Delta" unicode="&#x2206;" horiz-adv-x="418" 
d="M219 306l155 -306h-310zM212 260l-127 -248h249z" />
    <glyph glyph-name="E" unicode="E" horiz-adv-x="554" 
d="M348 37c66 39 130 105 206 201v-21c-72 -88 -133 -151 -197 -191c-67 -40 -147 -57 -229 -36c-91 24 -128 88 -127 162c1 109 82 236 185 275c-32 16 -58 39 -79 65c-33 45 -21 125 15 182c89 141 298 115 338 -24c26 14 51 26 78 36l9 -9c-29 -13 -59 -25 -85 -42
c3 -14 1 -32 -4 -48c-10 -29 -37 -62 -61 -51c-29 14 -5 53 13 73c11 12 24 22 38 32c-7 26 -16 42 -29 59c-127 161 -315 -111 -217 -265c40 19 97 34 128 16c18 -11 28 -45 1 -53c-25 -9 -79 1 -130 23c-48 -30 -86 -151 -89 -260c-5 -157 126 -192 236 -124zM218 428
c45 -17 91 -25 109 -18c14 5 7 24 -4 30c-25 14 -65 3 -105 -12zM418 598c-13 -14 -32 -43 -15 -50c14 -6 36 22 43 43c3 12 7 25 4 36c-11 -8 -23 -18 -32 -29z" />
    <glyph glyph-name="E.alt1" horiz-adv-x="585" 
d="M281 -2c106 21 190 100 304 240v-21c-111 -134 -193 -210 -301 -231c-43 -8 -83 -6 -126 5c-275 70 -146 358 59 436c-122 48 -165 136 -95 247c46 73 177 104 271 76c68 -21 107 -76 100 -144c-4 -32 -28 -70 -52 -63l4 13c14 -4 30 28 32 51c8 67 -32 112 -89 131
c-155 50 -256 -219 -156 -303c40 19 98 34 128 16c18 -11 28 -45 1 -53c-24 -9 -79 1 -130 23c-99 -41 -234 -478 50 -423zM248 428c45 -17 92 -25 109 -18c14 5 7 24 -4 30c-25 14 -64 3 -105 -12z" />
    <glyph glyph-name="E.alt1_acute" horiz-adv-x="585" 
d="M281 -2c106 21 190 100 304 240v-21c-111 -134 -193 -210 -301 -231c-43 -8 -83 -6 -126 5c-275 70 -146 358 59 436c-122 48 -165 136 -95 247c46 73 177 104 271 76c68 -21 107 -76 100 -144c-4 -32 -28 -70 -52 -63l4 13c14 -4 30 28 32 51c8 67 -32 112 -89 131
c-155 50 -256 -219 -156 -303c40 19 98 34 128 16c18 -11 28 -45 1 -53c-24 -9 -79 1 -130 23c-99 -41 -234 -478 50 -423zM248 428c45 -17 92 -25 109 -18c14 5 7 24 -4 30c-25 14 -64 3 -105 -12zM286 826c-1 6 65 98 71 104c0 1 12 -2 12 -1c-6 -10 -25 -97 -28 -104
c-5 0 -52 1 -55 1z" />
    <glyph glyph-name="E.alt1_breve" horiz-adv-x="585" 
d="M281 -2c106 21 190 100 304 240v-21c-111 -134 -193 -210 -301 -231c-43 -8 -83 -6 -126 5c-275 70 -146 358 59 436c-122 48 -165 136 -95 247c46 73 177 104 271 76c68 -21 107 -76 100 -144c-4 -32 -28 -70 -52 -63l4 13c14 -4 30 28 32 51c8 67 -32 112 -89 131
c-155 50 -256 -219 -156 -303c40 19 98 34 128 16c18 -11 28 -45 1 -53c-24 -9 -79 1 -130 23c-99 -41 -234 -478 50 -423zM248 428c45 -17 92 -25 109 -18c14 5 7 24 -4 30c-25 14 -64 3 -105 -12zM247 940l22 14c54 -56 80 -88 124 -14l20 -14c-56 -106 -164 -72 -166 14z
" />
    <glyph glyph-name="E.alt1_caron" horiz-adv-x="585" 
d="M281 -2c106 21 190 100 304 240v-21c-111 -134 -193 -210 -301 -231c-43 -8 -83 -6 -126 5c-275 70 -146 358 59 436c-122 48 -165 136 -95 247c46 73 177 104 271 76c68 -21 107 -76 100 -144c-4 -32 -28 -70 -52 -63l4 13c14 -4 30 28 32 51c8 67 -32 112 -89 131
c-155 50 -256 -219 -156 -303c40 19 98 34 128 16c18 -11 28 -45 1 -53c-24 -9 -79 1 -130 23c-99 -41 -234 -478 50 -423zM248 428c45 -17 92 -25 109 -18c14 5 7 24 -4 30c-25 14 -64 3 -105 -12zM263 932l8 17c24 -9 55 -53 52 -93c24 26 43 53 67 77l11 -12
c-27 -33 -54 -63 -78 -96l-15 8c-3 3 -45 93 -45 99z" />
    <glyph glyph-name="E.alt1_circumflex" horiz-adv-x="585" 
d="M281 -2c106 21 190 100 304 240v-21c-111 -134 -193 -210 -301 -231c-43 -8 -83 -6 -126 5c-275 70 -146 358 59 436c-122 48 -165 136 -95 247c46 73 177 104 271 76c68 -21 107 -76 100 -144c-4 -32 -28 -70 -52 -63l4 13c14 -4 30 28 32 51c8 67 -32 112 -89 131
c-155 50 -256 -219 -156 -303c40 19 98 34 128 16c18 -11 28 -45 1 -53c-24 -9 -79 1 -130 23c-99 -41 -234 -478 50 -423zM248 428c45 -17 92 -25 109 -18c14 5 7 24 -4 30c-25 14 -64 3 -105 -12zM413 856l-8 -17c-24 9 -55 53 -52 93c-24 -26 -43 -53 -67 -77l-11 12
c27 33 54 63 78 96l15 -8c3 -3 45 -93 45 -99z" />
    <glyph glyph-name="E.alt1_dieresis" horiz-adv-x="585" 
d="M281 -2c-284 -55 -149 382 -50 423c51 -22 106 -32 130 -23c27 8 17 42 -1 53c-30 18 -88 3 -128 -16c-100 84 1 353 156 303c57 -19 97 -64 89 -131c-2 -23 -18 -55 -32 -51l-4 -13c24 -7 48 31 52 63c7 68 -32 123 -100 144c-94 28 -225 -3 -271 -76
c-70 -111 -27 -199 95 -247c-205 -78 -334 -366 -59 -436c43 -11 83 -13 126 -5c108 21 190 97 301 231v21c-114 -140 -198 -219 -304 -240zM248 428c41 15 80 26 105 12c11 -6 18 -25 4 -30c-17 -7 -64 1 -109 18zM237 890c0 16 9 29 25 29c15 0 26 -13 26 -29
c0 -15 -11 -30 -26 -30c-16 0 -25 15 -25 30zM402 879c0 16 11 29 26 29c14 0 26 -13 26 -29c0 -17 -12 -30 -26 -30c-15 0 -26 13 -26 30z" />
    <glyph glyph-name="E.alt1_dotaccent" horiz-adv-x="585" 
d="M281 -2c-284 -55 -149 382 -50 423c51 -22 106 -32 130 -23c27 8 17 42 -1 53c-30 18 -88 3 -128 -16c-100 84 1 353 156 303c57 -19 97 -64 89 -131c-2 -23 -18 -55 -32 -51l-4 -13c24 -7 48 31 52 63c7 68 -32 123 -100 144c-94 28 -225 -3 -271 -76
c-70 -111 -27 -199 95 -247c-205 -78 -334 -366 -59 -436c43 -11 83 -13 126 -5c108 21 190 97 301 231v21c-114 -140 -198 -219 -304 -240zM248 428c41 15 80 26 105 12c11 -6 18 -25 4 -30c-17 -7 -64 1 -109 18zM312 889c0 16 11 29 26 29c14 0 26 -13 26 -29
c0 -17 -12 -30 -26 -30c-15 0 -26 13 -26 30z" />
    <glyph glyph-name="E.alt1_grave" horiz-adv-x="585" 
d="M281 -2c106 21 190 100 304 240v-21c-111 -134 -193 -210 -301 -231c-43 -8 -83 -6 -126 5c-275 70 -146 358 59 436c-122 48 -165 136 -95 247c46 73 177 104 271 76c68 -21 107 -76 100 -144c-4 -32 -28 -70 -52 -63l4 13c14 -4 30 28 32 51c8 67 -32 112 -89 131
c-155 50 -256 -219 -156 -303c40 19 98 34 128 16c18 -11 28 -45 1 -53c-24 -9 -79 1 -130 23c-99 -41 -234 -478 50 -423zM248 428c45 -17 92 -25 109 -18c14 5 7 24 -4 30c-25 14 -64 3 -105 -12zM356 849c-3 0 -50 -1 -55 -1c-3 7 -22 94 -28 104l12 1
c6 -6 72 -98 71 -104z" />
    <glyph glyph-name="E.alt1_macron" horiz-adv-x="585" 
d="M281 -2c106 21 190 100 304 240v-21c-111 -134 -193 -210 -301 -231c-43 -8 -83 -6 -126 5c-275 70 -146 358 59 436c-122 48 -165 136 -95 247c46 73 177 104 271 76c68 -21 107 -76 100 -144c-4 -32 -28 -70 -52 -63l4 13c14 -4 30 28 32 51c8 67 -32 112 -89 131
c-155 50 -256 -219 -156 -303c40 19 98 34 128 16c18 -11 28 -45 1 -53c-24 -9 -79 1 -130 23c-99 -41 -234 -478 50 -423zM248 428c45 -17 92 -25 109 -18c14 5 7 24 -4 30c-25 14 -64 3 -105 -12zM401 881l-1 -22l-153 15v23z" />
    <glyph glyph-name="E.alt1_ogonek" horiz-adv-x="585" 
d="M248 428c45 -17 92 -25 109 -18c14 5 7 24 -4 30c-25 14 -64 3 -105 -12zM335 -1v2c-16 -6 -33 -11 -51 -15c-43 -8 -83 -6 -126 5c-275 70 -146 358 59 436c-122 48 -165 136 -95 247c46 73 177 104 271 76c68 -21 107 -76 100 -144c-4 -32 -28 -70 -52 -63l4 13
c14 -4 30 28 32 51c8 67 -32 112 -89 131c-155 50 -256 -219 -156 -303c40 19 98 34 128 16c18 -11 28 -45 1 -53c-24 -9 -79 1 -130 23c-99 -41 -234 -478 50 -423c40 7 59 16 88 33c69 39 135 107 216 207v-21c-79 -96 -144 -162 -213 -199c-5 -8 -7 -18 -8 -22
c-11 -51 6 -109 71 -74l1 -6c-73 -44 -120 11 -101 83z" />
    <glyph glyph-name="E.alt2" horiz-adv-x="782" 
d="M484 451c44 -17 90 -25 108 -17c15 4 8 23 -1 28c-25 15 -65 4 -107 -11zM91 463c-85 50 -125 134 -53 233c72 97 262 142 408 98c83 73 209 116 315 84c103 -32 174 -120 118 -214c-44 -75 -166 -141 -290 -186l9 -4c18 -11 24 -44 -3 -53c-24 -9 -76 0 -124 20l-13 -4
c-122 -87 -244 -531 34 -507c81 7 172 65 237 116l6 -12c-63 -52 -155 -112 -244 -118c-148 -10 -301 78 -273 240c17 108 101 216 186 269c-105 -19 -219 -17 -313 38zM499 752l-2 1c-74 -78 -75 -238 -28 -295c28 13 66 24 95 23c125 43 253 110 303 193
c54 89 -24 164 -114 192c-72 23 -171 -28 -237 -92l-10 -11c57 -34 101 -88 108 -152l-14 -1c-7 59 -48 109 -101 142zM449 448l4 2c-166 86 -135 225 -20 335c-139 41 -315 -2 -385 -98c-67 -97 -26 -172 54 -216c89 -49 180 -46 274 -36c22 3 46 7 73 13z" />
    <glyph glyph-name="E.alt2_acute" horiz-adv-x="782" 
d="M484 451c44 -17 90 -25 108 -17c15 4 8 23 -1 28c-25 15 -65 4 -107 -11zM91 463c-85 50 -125 134 -53 233c72 97 262 142 408 98c83 73 209 116 315 84c103 -32 174 -120 118 -214c-44 -75 -166 -141 -290 -186l9 -4c18 -11 24 -44 -3 -53c-24 -9 -76 0 -124 20l-13 -4
c-122 -87 -244 -531 34 -507c81 7 172 65 237 116l6 -12c-63 -52 -155 -112 -244 -118c-148 -10 -301 78 -273 240c17 108 101 216 186 269c-105 -19 -219 -17 -313 38zM499 752l-2 1c-74 -78 -75 -238 -28 -295c28 13 66 24 95 23c125 43 253 110 303 193
c54 89 -24 164 -114 192c-72 23 -171 -28 -237 -92l-10 -11c57 -34 101 -88 108 -152l-14 -1c-7 59 -48 109 -101 142zM449 448l4 2c-166 86 -135 225 -20 335c-139 41 -315 -2 -385 -98c-67 -97 -26 -172 54 -216c89 -49 180 -46 274 -36c22 3 46 7 73 13zM655 952
c-1 6 65 98 71 104c0 1 12 -2 12 -1c-6 -10 -25 -97 -28 -104c-5 0 -52 1 -55 1z" />
    <glyph glyph-name="E.alt2_breve" horiz-adv-x="782" 
d="M484 451c44 -17 90 -25 108 -17c15 4 8 23 -1 28c-25 15 -65 4 -107 -11zM91 463c-85 50 -125 134 -53 233c72 97 262 142 408 98c83 73 209 116 315 84c103 -32 174 -120 118 -214c-44 -75 -166 -141 -290 -186l9 -4c18 -11 24 -44 -3 -53c-24 -9 -76 0 -124 20l-13 -4
c-122 -87 -244 -531 34 -507c81 7 172 65 237 116l6 -12c-63 -52 -155 -112 -244 -118c-148 -10 -301 78 -273 240c17 108 101 216 186 269c-105 -19 -219 -17 -313 38zM499 752l-2 1c-74 -78 -75 -238 -28 -295c28 13 66 24 95 23c125 43 253 110 303 193
c54 89 -24 164 -114 192c-72 23 -171 -28 -237 -92l-10 -11c57 -34 101 -88 108 -152l-14 -1c-7 59 -48 109 -101 142zM449 448l4 2c-166 86 -135 225 -20 335c-139 41 -315 -2 -385 -98c-67 -97 -26 -172 54 -216c89 -49 180 -46 274 -36c22 3 46 7 73 13zM619 1055l22 14
c54 -56 80 -88 124 -14l20 -14c-56 -106 -164 -72 -166 14z" />
    <glyph glyph-name="E.alt2_caron" horiz-adv-x="782" 
d="M484 451c44 -17 90 -25 108 -17c15 4 8 23 -1 28c-25 15 -65 4 -107 -11zM91 463c-85 50 -125 134 -53 233c72 97 262 142 408 98c83 73 209 116 315 84c103 -32 174 -120 118 -214c-44 -75 -166 -141 -290 -186l9 -4c18 -11 24 -44 -3 -53c-24 -9 -76 0 -124 20l-13 -4
c-122 -87 -244 -531 34 -507c81 7 172 65 237 116l6 -12c-63 -52 -155 -112 -244 -118c-148 -10 -301 78 -273 240c17 108 101 216 186 269c-105 -19 -219 -17 -313 38zM499 752l-2 1c-74 -78 -75 -238 -28 -295c28 13 66 24 95 23c125 43 253 110 303 193
c54 89 -24 164 -114 192c-72 23 -171 -28 -237 -92l-10 -11c57 -34 101 -88 108 -152l-14 -1c-7 59 -48 109 -101 142zM449 448l4 2c-166 86 -135 225 -20 335c-139 41 -315 -2 -385 -98c-67 -97 -26 -172 54 -216c89 -49 180 -46 274 -36c22 3 46 7 73 13zM632 1065l8 17
c24 -9 55 -53 52 -93c24 26 43 53 67 77l11 -12c-27 -33 -54 -63 -78 -96l-15 8c-3 3 -45 93 -45 99z" />
    <glyph glyph-name="E.alt2_circumflex" horiz-adv-x="782" 
d="M484 451c44 -17 90 -25 108 -17c15 4 8 23 -1 28c-25 15 -65 4 -107 -11zM91 463c-85 50 -125 134 -53 233c72 97 262 142 408 98c83 73 209 116 315 84c103 -32 174 -120 118 -214c-44 -75 -166 -141 -290 -186l9 -4c18 -11 24 -44 -3 -53c-24 -9 -76 0 -124 20l-13 -4
c-122 -87 -244 -531 34 -507c81 7 172 65 237 116l6 -12c-63 -52 -155 -112 -244 -118c-148 -10 -301 78 -273 240c17 108 101 216 186 269c-105 -19 -219 -17 -313 38zM499 752l-2 1c-74 -78 -75 -238 -28 -295c28 13 66 24 95 23c125 43 253 110 303 193
c54 89 -24 164 -114 192c-72 23 -171 -28 -237 -92l-10 -11c57 -34 101 -88 108 -152l-14 -1c-7 59 -48 109 -101 142zM449 448l4 2c-166 86 -135 225 -20 335c-139 41 -315 -2 -385 -98c-67 -97 -26 -172 54 -216c89 -49 180 -46 274 -36c22 3 46 7 73 13zM787 993l-8 -17
c-24 9 -55 53 -52 93c-24 -26 -43 -53 -67 -77l-11 12c27 33 54 63 78 96l15 -8c3 -3 45 -93 45 -99z" />
    <glyph glyph-name="E.alt2_dieresis" horiz-adv-x="782" 
d="M484 451c42 15 82 26 107 11c9 -5 16 -24 1 -28c-18 -8 -64 0 -108 17zM91 463c94 -55 208 -57 313 -38c-85 -53 -169 -161 -186 -269c-28 -162 125 -250 273 -240c89 6 181 66 244 118l-6 12c-65 -51 -156 -109 -237 -116c-278 -24 -156 420 -34 507l13 4
c48 -20 100 -29 124 -20c27 9 21 42 3 53l-9 4c124 45 246 111 290 186c56 94 -15 182 -118 214c-106 32 -232 -11 -315 -84c-146 44 -336 -1 -408 -98c-72 -99 -32 -183 53 -233zM497 753l2 -1c53 -33 94 -83 101 -142l14 1c-7 64 -51 118 -108 152l10 11
c66 64 165 115 237 92c90 -28 168 -103 114 -192c-50 -83 -178 -150 -303 -193c-29 1 -67 -10 -95 -23c-47 57 -46 217 28 295zM453 450l-4 -2c-27 -6 -51 -10 -73 -13c-94 -10 -185 -13 -274 36c-80 44 -121 119 -54 216c70 96 246 139 385 98c-115 -110 -146 -249 20 -335
zM600 1012c0 16 9 29 25 29c15 0 26 -13 26 -29c0 -15 -11 -30 -26 -30c-16 0 -25 15 -25 30zM765 1001c0 16 11 29 26 29c14 0 26 -13 26 -29c0 -17 -12 -30 -26 -30c-15 0 -26 13 -26 30z" />
    <glyph glyph-name="E.alt2_dotaccent" horiz-adv-x="782" 
d="M484 451c42 15 82 26 107 11c9 -5 16 -24 1 -28c-18 -8 -64 0 -108 17zM91 463c94 -55 208 -57 313 -38c-85 -53 -169 -161 -186 -269c-28 -162 125 -250 273 -240c89 6 181 66 244 118l-6 12c-65 -51 -156 -109 -237 -116c-278 -24 -156 420 -34 507l13 4
c48 -20 100 -29 124 -20c27 9 21 42 3 53l-9 4c124 45 246 111 290 186c56 94 -15 182 -118 214c-106 32 -232 -11 -315 -84c-146 44 -336 -1 -408 -98c-72 -99 -32 -183 53 -233zM497 753l2 -1c53 -33 94 -83 101 -142l14 1c-7 64 -51 118 -108 152l10 11
c66 64 165 115 237 92c90 -28 168 -103 114 -192c-50 -83 -178 -150 -303 -193c-29 1 -67 -10 -95 -23c-47 57 -46 217 28 295zM453 450l-4 -2c-27 -6 -51 -10 -73 -13c-94 -10 -185 -13 -274 36c-80 44 -121 119 -54 216c70 96 246 139 385 98c-115 -110 -146 -249 20 -335
zM689 1003c0 16 11 29 26 29c14 0 26 -13 26 -29c0 -17 -12 -30 -26 -30c-15 0 -26 13 -26 30z" />
    <glyph glyph-name="E.alt2_grave" horiz-adv-x="782" 
d="M484 451c44 -17 90 -25 108 -17c15 4 8 23 -1 28c-25 15 -65 4 -107 -11zM91 463c-85 50 -125 134 -53 233c72 97 262 142 408 98c83 73 209 116 315 84c103 -32 174 -120 118 -214c-44 -75 -166 -141 -290 -186l9 -4c18 -11 24 -44 -3 -53c-24 -9 -76 0 -124 20l-13 -4
c-122 -87 -244 -531 34 -507c81 7 172 65 237 116l6 -12c-63 -52 -155 -112 -244 -118c-148 -10 -301 78 -273 240c17 108 101 216 186 269c-105 -19 -219 -17 -313 38zM499 752l-2 1c-74 -78 -75 -238 -28 -295c28 13 66 24 95 23c125 43 253 110 303 193
c54 89 -24 164 -114 192c-72 23 -171 -28 -237 -92l-10 -11c57 -34 101 -88 108 -152l-14 -1c-7 59 -48 109 -101 142zM449 448l4 2c-166 86 -135 225 -20 335c-139 41 -315 -2 -385 -98c-67 -97 -26 -172 54 -216c89 -49 180 -46 274 -36c22 3 46 7 73 13zM753 962
c-3 0 -50 -1 -55 -1c-3 7 -22 94 -28 104l12 1c6 -6 72 -98 71 -104z" />
    <glyph glyph-name="E.alt2_macron" horiz-adv-x="782" 
d="M484 451c44 -17 90 -25 108 -17c15 4 8 23 -1 28c-25 15 -65 4 -107 -11zM91 463c-85 50 -125 134 -53 233c72 97 262 142 408 98c83 73 209 116 315 84c103 -32 174 -120 118 -214c-44 -75 -166 -141 -290 -186l9 -4c18 -11 24 -44 -3 -53c-24 -9 -76 0 -124 20l-13 -4
c-122 -87 -244 -531 34 -507c81 7 172 65 237 116l6 -12c-63 -52 -155 -112 -244 -118c-148 -10 -301 78 -273 240c17 108 101 216 186 269c-105 -19 -219 -17 -313 38zM499 752l-2 1c-74 -78 -75 -238 -28 -295c28 13 66 24 95 23c125 43 253 110 303 193
c54 89 -24 164 -114 192c-72 23 -171 -28 -237 -92l-10 -11c57 -34 101 -88 108 -152l-14 -1c-7 59 -48 109 -101 142zM449 448l4 2c-166 86 -135 225 -20 335c-139 41 -315 -2 -385 -98c-67 -97 -26 -172 54 -216c89 -49 180 -46 274 -36c22 3 46 7 73 13zM765 1000l-1 -22
l-153 15v23z" />
    <glyph glyph-name="E.alt2_ogonek" horiz-adv-x="782" 
d="M484 451c44 -17 90 -25 108 -17c15 4 8 23 -1 28c-25 15 -65 4 -107 -11zM499 752l-2 1c-74 -78 -75 -238 -28 -295c28 13 66 24 95 23c125 43 253 110 303 193c54 89 -24 164 -114 192c-72 23 -171 -28 -237 -92l-10 -11c57 -34 101 -88 108 -152l-14 -1
c-7 59 -48 109 -101 142zM449 448l4 2c-80 40 -125 82 -114 182c5 45 60 121 94 153c-139 41 -315 -2 -385 -98c-104 -151 55 -239 212 -260c37 -5 149 12 189 21zM527 -86c0 3 1 5 2 8c-13 -3 -25 -5 -38 -6c-148 -10 -301 78 -273 240c17 108 101 216 186 269
c-11 -2 -97 -17 -147 -11c-174 21 -330 129 -219 282c72 97 262 142 408 98c83 73 209 116 315 84c103 -32 174 -120 118 -214c-44 -75 -166 -141 -290 -186l9 -4c18 -11 24 -44 -3 -53c-24 -9 -76 0 -124 20l-13 -4c-122 -87 -244 -531 34 -507c81 7 172 65 237 116l6 -12
c-42 -35 -98 -73 -156 -96l-10 -4c-8 -5 -12 -17 -13 -23c-11 -51 6 -109 71 -74l1 -6c-73 -44 -120 11 -101 83z" />
    <glyph glyph-name="E.breve" unicode="&#x114;" horiz-adv-x="554" 
d="M348 37c66 39 130 105 206 201v-21c-72 -88 -133 -151 -197 -191c-67 -40 -147 -57 -229 -36c-91 24 -128 88 -127 162c1 109 82 236 185 275c-32 16 -58 39 -79 65c-33 45 -21 125 15 182c89 141 298 115 338 -24c26 14 51 26 78 36l9 -9c-29 -13 -59 -25 -85 -42
c3 -14 1 -32 -4 -48c-10 -29 -37 -62 -61 -51c-29 14 -5 53 13 73c11 12 24 22 38 32c-7 26 -16 42 -29 59c-127 161 -315 -111 -217 -265c40 19 97 34 128 16c18 -11 28 -45 1 -53c-25 -9 -79 1 -130 23c-48 -30 -86 -151 -89 -260c-5 -157 126 -192 236 -124zM218 428
c45 -17 91 -25 109 -18c14 5 7 24 -4 30c-25 14 -65 3 -105 -12zM418 598c-13 -14 -32 -43 -15 -50c14 -6 36 22 43 43c3 12 7 25 4 36c-11 -8 -23 -18 -32 -29zM217 920l22 14c54 -56 80 -88 124 -14l20 -14c-56 -106 -164 -72 -166 14z" />
    <glyph glyph-name="E.dot" unicode="&#x116;" horiz-adv-x="554" 
d="M348 37c-110 -68 -241 -33 -236 124c3 109 41 230 89 260c51 -22 105 -32 130 -23c27 8 17 42 -1 53c-31 18 -88 3 -128 -16c-98 154 90 426 217 265c13 -17 22 -33 29 -59c-14 -10 -27 -20 -38 -32c-18 -20 -42 -59 -13 -73c24 -11 51 22 61 51c5 16 7 34 4 48
c26 17 56 29 85 42l-9 9c-27 -10 -52 -22 -78 -36c-40 139 -249 165 -338 24c-36 -57 -48 -137 -15 -182c21 -26 47 -49 79 -65c-103 -39 -184 -166 -185 -275c-1 -74 36 -138 127 -162c82 -21 162 -4 229 36c64 40 125 103 197 191v21c-76 -96 -140 -162 -206 -201z
M218 428c40 15 80 26 105 12c11 -6 18 -25 4 -30c-18 -7 -64 1 -109 18zM418 598c9 11 21 21 32 29c3 -11 -1 -24 -4 -36c-7 -21 -29 -49 -43 -43c-17 7 2 36 15 50zM282 889c0 16 11 29 26 29c14 0 26 -13 26 -29c0 -17 -12 -30 -26 -30c-15 0 -26 13 -26 30z" />
    <glyph glyph-name="E.macron" unicode="&#x112;" horiz-adv-x="554" 
d="M348 37c66 39 130 105 206 201v-21c-72 -88 -133 -151 -197 -191c-67 -40 -147 -57 -229 -36c-91 24 -128 88 -127 162c1 109 82 236 185 275c-32 16 -58 39 -79 65c-33 45 -21 125 15 182c89 141 298 115 338 -24c26 14 51 26 78 36l9 -9c-29 -13 -59 -25 -85 -42
c3 -14 1 -32 -4 -48c-10 -29 -37 -62 -61 -51c-29 14 -5 53 13 73c11 12 24 22 38 32c-7 26 -16 42 -29 59c-127 161 -315 -111 -217 -265c40 19 97 34 128 16c18 -11 28 -45 1 -53c-25 -9 -79 1 -130 23c-48 -30 -86 -151 -89 -260c-5 -157 126 -192 236 -124zM218 428
c45 -17 91 -25 109 -18c14 5 7 24 -4 30c-25 14 -65 3 -105 -12zM418 598c-13 -14 -32 -43 -15 -50c14 -6 36 22 43 43c3 12 7 25 4 36c-11 -8 -23 -18 -32 -29zM376 879l-1 -22l-153 15v23z" />
    <glyph glyph-name="E.ogonek" unicode="&#x118;" horiz-adv-x="554" 
d="M218 428c45 -17 91 -25 109 -18c14 5 7 24 -4 30c-25 14 -65 3 -105 -12zM418 598c-13 -14 -32 -43 -15 -50c14 -6 36 22 43 43c3 12 7 25 4 36c-11 -8 -23 -18 -32 -29zM348 37c66 39 130 105 206 201v-21c-72 -88 -133 -151 -197 -191c-35 -21 -73 -36 -114 -42v-3
c-2 -10 -18 -126 39 -83l8 -10c-112 -65 -75 83 -73 94c-29 -2 -59 1 -89 8c-91 24 -128 88 -127 162c1 109 82 236 185 275c-32 16 -58 39 -79 65c-33 45 -21 125 15 182c89 141 298 115 338 -24c26 14 51 26 78 36l9 -9c-29 -13 -59 -25 -85 -42c3 -14 1 -32 -4 -48
c-10 -29 -37 -62 -61 -51c-29 14 -5 53 13 73c11 12 24 22 38 32c-7 26 -16 42 -29 59c-127 161 -340 -170 -217 -265c40 19 97 34 128 16c18 -11 28 -45 1 -53c-25 -9 -79 1 -130 23c-48 -30 -86 -151 -89 -260c-5 -157 126 -192 236 -124z" />
    <glyph glyph-name="Eacute" unicode="&#xc9;" horiz-adv-x="554" 
d="M348 37c66 39 130 105 206 201v-21c-72 -88 -133 -151 -197 -191c-67 -40 -147 -57 -229 -36c-91 24 -128 88 -127 162c1 109 82 236 185 275c-32 16 -58 39 -79 65c-33 45 -21 125 15 182c89 141 298 115 338 -24c26 14 51 26 78 36l9 -9c-29 -13 -59 -25 -85 -42
c3 -14 1 -32 -4 -48c-10 -29 -37 -62 -61 -51c-29 14 -5 53 13 73c11 12 24 22 38 32c-7 26 -16 42 -29 59c-127 161 -315 -111 -217 -265c40 19 97 34 128 16c18 -11 28 -45 1 -53c-25 -9 -79 1 -130 23c-48 -30 -86 -151 -89 -260c-5 -157 126 -192 236 -124zM218 428
c45 -17 91 -25 109 -18c14 5 7 24 -4 30c-25 14 -65 3 -105 -12zM418 598c-13 -14 -32 -43 -15 -50c14 -6 36 22 43 43c3 12 7 25 4 36c-11 -8 -23 -18 -32 -29zM287 847c-1 6 65 98 71 104c0 1 12 -2 12 -1c-6 -10 -25 -97 -28 -104c-5 0 -52 1 -55 1z" />
    <glyph glyph-name="Ecaron" unicode="&#x11a;" horiz-adv-x="554" 
d="M348 37c66 39 130 105 206 201v-21c-72 -88 -133 -151 -197 -191c-67 -40 -147 -57 -229 -36c-91 24 -128 88 -127 162c1 109 82 236 185 275c-32 16 -58 39 -79 65c-33 45 -21 125 15 182c89 141 298 115 338 -24c26 14 51 26 78 36l9 -9c-29 -13 -59 -25 -85 -42
c3 -14 1 -32 -4 -48c-10 -29 -37 -62 -61 -51c-29 14 -5 53 13 73c11 12 24 22 38 32c-7 26 -16 42 -29 59c-127 161 -315 -111 -217 -265c40 19 97 34 128 16c18 -11 28 -45 1 -53c-25 -9 -79 1 -130 23c-48 -30 -86 -151 -89 -260c-5 -157 126 -192 236 -124zM218 428
c45 -17 91 -25 109 -18c14 5 7 24 -4 30c-25 14 -65 3 -105 -12zM418 598c-13 -14 -32 -43 -15 -50c14 -6 36 22 43 43c3 12 7 25 4 36c-11 -8 -23 -18 -32 -29zM265 946l8 17c24 -9 55 -53 52 -93c24 26 43 53 67 77l11 -12c-27 -33 -54 -63 -78 -96l-15 8
c-3 3 -45 93 -45 99z" />
    <glyph glyph-name="Ecircumflex" unicode="&#xca;" horiz-adv-x="554" 
d="M348 37c66 39 130 105 206 201v-21c-72 -88 -133 -151 -197 -191c-67 -40 -147 -57 -229 -36c-91 24 -128 88 -127 162c1 109 82 236 185 275c-32 16 -58 39 -79 65c-33 45 -21 125 15 182c89 141 298 115 338 -24c26 14 51 26 78 36l9 -9c-29 -13 -59 -25 -85 -42
c3 -14 1 -32 -4 -48c-10 -29 -37 -62 -61 -51c-29 14 -5 53 13 73c11 12 24 22 38 32c-7 26 -16 42 -29 59c-127 161 -315 -111 -217 -265c40 19 97 34 128 16c18 -11 28 -45 1 -53c-25 -9 -79 1 -130 23c-48 -30 -86 -151 -89 -260c-5 -157 126 -192 236 -124zM218 428
c45 -17 91 -25 109 -18c14 5 7 24 -4 30c-25 14 -65 3 -105 -12zM418 598c-13 -14 -32 -43 -15 -50c14 -6 36 22 43 43c3 12 7 25 4 36c-11 -8 -23 -18 -32 -29zM393 846l-8 -17c-24 9 -55 53 -52 93c-24 -26 -43 -53 -67 -77l-11 12c27 33 54 63 78 96l15 -8
c3 -3 45 -93 45 -99z" />
    <glyph glyph-name="Edieresis" unicode="&#xcb;" horiz-adv-x="554" 
d="M348 37c-110 -68 -241 -33 -236 124c3 109 41 230 89 260c51 -22 105 -32 130 -23c27 8 17 42 -1 53c-31 18 -88 3 -128 -16c-98 154 90 426 217 265c13 -17 22 -33 29 -59c-14 -10 -27 -20 -38 -32c-18 -20 -42 -59 -13 -73c24 -11 51 22 61 51c5 16 7 34 4 48
c26 17 56 29 85 42l-9 9c-27 -10 -52 -22 -78 -36c-40 139 -249 165 -338 24c-36 -57 -48 -137 -15 -182c21 -26 47 -49 79 -65c-103 -39 -184 -166 -185 -275c-1 -74 36 -138 127 -162c82 -21 162 -4 229 36c64 40 125 103 197 191v21c-76 -96 -140 -162 -206 -201z
M218 428c40 15 80 26 105 12c11 -6 18 -25 4 -30c-18 -7 -64 1 -109 18zM418 598c9 11 21 21 32 29c3 -11 -1 -24 -4 -36c-7 -21 -29 -49 -43 -43c-17 7 2 36 15 50zM187 880c0 16 9 29 25 29c15 0 26 -13 26 -29c0 -15 -11 -30 -26 -30c-16 0 -25 15 -25 30zM352 869
c0 16 11 29 26 29c14 0 26 -13 26 -29c0 -17 -12 -30 -26 -30c-15 0 -26 13 -26 30z" />
    <glyph glyph-name="Egrave" unicode="&#xc8;" horiz-adv-x="554" 
d="M348 37c66 39 130 105 206 201v-21c-72 -88 -133 -151 -197 -191c-67 -40 -147 -57 -229 -36c-91 24 -128 88 -127 162c1 109 82 236 185 275c-32 16 -58 39 -79 65c-33 45 -21 125 15 182c89 141 298 115 338 -24c26 14 51 26 78 36l9 -9c-29 -13 -59 -25 -85 -42
c3 -14 1 -32 -4 -48c-10 -29 -37 -62 -61 -51c-29 14 -5 53 13 73c11 12 24 22 38 32c-7 26 -16 42 -29 59c-127 161 -315 -111 -217 -265c40 19 97 34 128 16c18 -11 28 -45 1 -53c-25 -9 -79 1 -130 23c-48 -30 -86 -151 -89 -260c-5 -157 126 -192 236 -124zM218 428
c45 -17 91 -25 109 -18c14 5 7 24 -4 30c-25 14 -65 3 -105 -12zM418 598c-13 -14 -32 -43 -15 -50c14 -6 36 22 43 43c3 12 7 25 4 36c-11 -8 -23 -18 -32 -29zM329 847c-3 0 -50 -1 -55 -1c-3 7 -22 94 -28 104l12 1c6 -6 72 -98 71 -104z" />
    <glyph glyph-name="Eng" unicode="&#x14a;" horiz-adv-x="846" 
d="M529 725c-87 -227 -70 -622 -330 -734c-57 -25 -143 -17 -183 35c-15 19 -28 60 6 112l12 -7c-25 -37 -28 -72 -7 -97c33 -43 109 -55 161 -33c217 88 37 631 329 743c-53 -16 -117 -29 -179 -40c-134 -24 -329 -34 -309 -232c7 -73 81 -153 156 -124l5 -13
c-89 -29 -166 55 -174 137c-18 206 173 218 319 245c66 12 134 25 188 43l20 -10c-5 -38 43 -537 109 -720c10 80 91 633 316 713c58 20 149 17 189 -34c16 -19 29 -61 -7 -113l-11 7c25 36 31 75 7 98c-246 238 -405 -661 -413 -705c-15 -78 -83 -120 -179 -114l-2 15
c80 -15 90 45 94 99c-1 10 -7 21 -16 44c-56 154 -106 566 -101 685z" />
    <glyph glyph-name="Eth" unicode="&#xd0;" horiz-adv-x="889" 
d="M452 306l1 -11c-45 -20 -84 -32 -119 -37c-62 -185 -211 -345 -334 -356l4 10c100 7 163 160 220 341c-175 -7 -215 160 -193 270c14 67 58 127 123 167c50 32 112 55 183 63c26 5 52 7 77 6c55 77 139 109 186 111l3 -11c-25 -5 -77 -67 -97 -101
c188 -18 311 -196 289 -401c-14 -136 -100 -283 -241 -339c-73 -30 -169 -40 -266 10l10 9c210 -109 364 145 386 321c28 221 -5 376 -184 389c-41 -76 -77 -199 -116 -328h64v-12h-67c-14 -47 -29 -93 -44 -139c35 6 74 18 115 38zM406 747c-23 0 -46 -1 -70 -5
c-128 -20 -248 -97 -274 -225c-32 -155 42 -251 166 -252l43 142h-64v12h67c39 127 80 250 132 328z" />
    <glyph glyph-name="Euro" unicode="&#x20ac;" horiz-adv-x="462" 
d="M212 183c16 -137 67 -209 179 -137l7 -10c-28 -22 -60 -32 -92 -32c-85 0 -176 78 -196 179h-46v13h43c-4 28 -3 56 0 88h-43v13h46c20 101 111 179 196 179c32 0 64 -10 92 -32l-7 -10c-112 73 -163 7 -179 -137h169v-13h-171c-5 -28 -5 -58 0 -88h171v-13h-169z" />
    <glyph glyph-name="F" unicode="F" horiz-adv-x="732" 
d="M360 19c-44 -67 -96 -112 -225 -107c55 3 98 51 135 122c38 64 72 202 102 322c-11 11 -20 24 -28 38l10 9c6 -11 14 -21 22 -30c23 89 38 158 77 227c22 38 49 76 82 98l-36 4c-98 11 -218 45 -317 38c-74 -6 -137 -41 -164 -152c-20 -70 24 -171 103 -169v-13
c-94 1 -137 108 -115 187c31 117 96 153 174 159c102 7 230 -27 332 -38l36 -4c26 25 154 69 170 74c60 20 83 -73 14 -86c-28 -5 -68 -4 -99 -2c-33 -22 -54 -58 -72 -93c-34 -74 -61 -179 -89 -281c38 -27 84 -35 127 -18c5 18 10 34 18 47c13 25 42 60 63 39
c20 -19 -4 -52 -29 -71c-14 -10 -28 -18 -41 -25c-7 -30 -9 -62 -10 -94l-13 6c1 28 5 56 9 83c-44 -16 -90 -8 -128 17c-32 -115 -64 -225 -108 -287zM645 709c31 -2 57 -4 86 2c50 11 29 71 -11 49c-18 -9 -52 -30 -75 -51zM630 350c-7 -12 -11 -27 -16 -40
c10 5 19 10 29 18c15 11 40 41 29 51c-12 13 -32 -13 -42 -29z" />
    <glyph glyph-name="F.alt1" horiz-adv-x="742" 
d="M176 127l10 -9c-77 -92 31 -174 84 -84c38 64 72 212 102 332c-11 11 -20 24 -28 38l10 9c6 -11 14 -21 22 -30c23 89 38 148 77 217c22 38 49 76 82 98l-36 4c-98 11 -218 45 -317 38c-74 -6 -137 -41 -164 -152c-20 -70 24 -171 103 -169v-13c-94 1 -137 108 -115 187
c31 117 96 153 174 159c102 7 230 -27 332 -38l36 -4c69 44 189 95 219 52c15 -21 8 -56 -35 -64c-28 -5 -68 -4 -99 -2c-33 -22 -54 -58 -72 -93c-34 -74 -61 -179 -89 -281c38 -27 84 -35 127 -18c5 18 10 34 18 47c13 25 42 60 63 39c20 -19 -4 -52 -29 -71
c-14 -10 -28 -18 -41 -25c-7 -30 -9 -62 -10 -94l-13 6c1 28 5 56 9 83c-44 -16 -90 -8 -128 17c-32 -115 -64 -225 -108 -287c-80 -106 -292 -28 -184 108zM645 709c31 -2 57 -4 86 2c50 11 29 71 -11 49c-18 -9 -52 -30 -75 -51zM630 350c-7 -12 -11 -27 -16 -40
c10 5 19 10 29 18c15 11 40 41 29 51c-12 13 -32 -13 -42 -29z" />
    <glyph glyph-name="F.alt2" horiz-adv-x="1152" 
d="M724 384l10 10c9 -15 20 -29 31 -40c40 148 66 278 233 392c-128 7 -215 50 -343 45c94 -335 -123 -493 -300 -433c-43 21 -75 56 -85 112c-24 177 63 344 279 335c-44 166 -97 230 -268 185c-106 -29 -220 -148 -257 -265c-15 -51 -22 -130 37 -195l-11 -9
c-48 54 -61 128 -38 210c37 119 156 243 266 270c183 49 329 -26 375 -199c139 5 221 -37 357 -44c55 49 185 72 223 51l2 -10c-24 -38 -73 -52 -136 -52c-162 -118 -205 -292 -251 -449c37 -23 80 -30 121 -13c6 17 11 33 19 47c12 25 41 60 63 38c19 -18 -5 -51 -29 -70
c-14 -10 -29 -18 -42 -25c-6 -30 -8 -62 -9 -94l-13 5c1 28 4 56 8 84c-43 -15 -86 -9 -123 13c-37 -123 -78 -234 -183 -298c-76 -44 -196 -68 -268 0c-19 16 -38 54 -14 112l13 -6c-18 -40 -15 -76 11 -97c39 -36 116 -34 164 -4c108 68 161 217 195 348
c-14 13 -26 28 -37 46zM282 474c8 -37 28 -87 79 -104c245 -80 230 252 191 420c-200 22 -306 -151 -270 -316zM1216 802c-28 10 -65 -8 -102 -42c46 3 87 15 106 40c-2 2 -3 1 -4 2zM1000 330c-7 -12 -11 -26 -16 -40l29 19c14 13 40 41 30 51c-13 13 -33 -13 -43 -30z" />
    <glyph glyph-name="F.alt3" horiz-adv-x="788" 
d="M26 -13c-18 17 -39 55 -13 112l12 -5c-18 -40 -14 -76 10 -97c41 -36 131 -32 177 -2c106 67 147 202 178 329c-15 14 -29 30 -41 50l9 10c10 -17 23 -32 36 -44c37 150 69 293 239 408c-55 2 -121 12 -182 25c-134 22 -342 61 -391 -134c-18 -70 25 -171 104 -169v-13
c-93 1 -137 108 -115 187c53 201 258 165 404 142c66 -12 133 -24 192 -25c54 49 184 73 223 50l1 -9c-23 -39 -72 -52 -135 -52c-162 -121 -204 -296 -249 -453c37 -22 79 -28 119 -12c5 17 9 33 18 47c13 25 42 60 63 38c20 -18 -4 -51 -29 -70c-14 -10 -28 -18 -41 -25
c-7 -30 -9 -62 -10 -94l-13 5c1 28 5 56 9 84c-42 -15 -84 -9 -121 12c-35 -122 -76 -231 -179 -294c-82 -51 -196 -70 -275 -1zM850 805c-28 9 -65 -9 -102 -42c46 3 88 15 105 39c0 2 -2 1 -3 3zM635 330c-7 -12 -12 -26 -16 -40l29 19c13 13 39 41 29 51
c-12 13 -32 -13 -42 -30z" />
    <glyph glyph-name="F.alt4" horiz-adv-x="1165" 
d="M728 399c54 190 129 280 181 343c-85 16 -177 51 -259 81c-47 -220 -229 -447 -343 -354c-55 46 -68 156 11 271c19 28 126 149 237 120c25 105 72 225 -64 236c-468 38 -655 -891 -265 -879l10 -12c-432 -39 -232 962 257 903c127 -14 196 -93 160 -271
c183 -73 658 -215 827 3l13 -7c-102 -150 -368 -135 -519 -104c-36 -71 -75 -150 -123 -305c48 -35 136 -77 181 -59c6 17 10 33 19 47c13 25 42 60 62 38c20 -18 -3 -52 -28 -70c-15 -11 -28 -18 -41 -25c-7 -30 -9 -62 -11 -94l-12 5c1 28 4 56 8 84
c-47 -17 -134 24 -182 59l-12 -42c-43 -151 -92 -305 -151 -412c-76 -138 -171 -177 -256 -186c-159 -16 -286 122 -205 277c58 109 236 151 264 1c11 -54 -6 -116 -51 -150l-7 12c38 29 56 83 45 137c-28 138 -187 95 -240 -3c-70 -130 16 -234 123 -257
c240 -48 319 430 371 613zM553 847c-94 31 -206 -85 -225 -114c-77 -113 -64 -214 -13 -254c97 -74 206 255 238 368zM1064 410c-7 -12 -12 -26 -16 -40c9 6 19 11 29 19c14 11 39 41 28 51c-12 13 -32 -13 -41 -30z" />
    <glyph glyph-name="F.alt5" horiz-adv-x="819" 
d="M708 216l-12 5c0 65 12 107 30 133c-47 6 -86 11 -158 0c-32 -115 -69 -228 -151 -316c-75 -80 -239 -101 -300 -91c-16 3 -33 10 -47 18c-68 41 -90 135 -50 243c26 72 126 153 202 146c22 -4 49 -12 65 -46c55 36 111 46 175 55l12 42c35 130 71 206 163 301
c-47 9 -79 25 -122 43c-114 45 -357 91 -426 -43c-81 -156 146 -167 133 -72l15 1c13 -123 -258 -101 -159 79c75 137 324 97 441 48c48 -20 84 -38 131 -44c4 4 8 8 14 12c34 32 153 72 204 55c16 -6 26 -15 25 -26c-2 -21 -36 -38 -49 -44c-37 -13 -72 -16 -107 -12
c-95 -93 -117 -157 -154 -295l-11 -40c100 10 138 2 178 -2l-10 -13c-21 -33 -30 -79 -32 -137zM78 -23c55 -33 153 -24 246 73c79 81 103 188 134 299c-64 -10 -115 -19 -165 -54c3 -7 7 -15 9 -25c4 -30 -10 -44 -24 -51c-14 -6 -32 -3 -40 8c-4 7 -12 24 13 53
c7 7 18 14 25 21c-10 21 -30 37 -54 40c-64 5 -164 -66 -189 -139c-36 -100 -18 -188 45 -225zM754 718l-3 -3c29 -2 57 3 87 13c18 6 42 22 42 32c0 3 -5 10 -16 13c-21 7 -88 -37 -110 -55zM283 286c-6 -4 -13 -8 -19 -15c-16 -14 -19 -27 -14 -35c4 -6 12 -7 24 -4
c5 2 18 10 14 35c-2 7 -4 13 -5 19z" />
    <glyph glyph-name="G" unicode="G" horiz-adv-x="714" 
d="M460 117l57 193l73 -4c-3 -49 -12 -137 -28 -195c-39 -143 -113 -324 -207 -429c91 -31 163 -77 243 -136l-10 -8c-77 60 -148 103 -243 134c-97 -95 -191 -91 -248 -83c-39 5 -90 49 -63 90c28 41 196 43 244 31c90 91 132 241 171 369c-61 -63 -138 -108 -225 -97
c-264 35 -274 396 -134 596c71 102 195 201 324 173c110 -23 171 -113 139 -213c-11 -31 -35 -64 -59 -53l7 12c13 -7 33 29 38 45c28 97 -37 179 -131 198c-58 11 -115 -33 -199 -163c-130 -200 -207 -549 24 -582c90 -7 165 46 224 113zM43 -330c-14 -23 21 -66 61 -66
c45 0 127 60 163 96c-48 10 -204 4 -224 -30z" />
    <glyph glyph-name="G.alt1" horiz-adv-x="714" 
d="M448 98l63 214l83 -4c-3 -49 -22 -137 -38 -195c-29 -106 -77 -232 -138 -333l185 -83c332 -149 708 -315 919 -19l13 -9c-218 -307 -601 -136 -937 13c-68 30 -121 60 -187 86c-133 -240 -478 -264 -598 -144c-41 42 -56 90 -37 134c30 68 150 133 310 123
c72 -3 160 -28 248 -61c50 86 81 170 105 250c-59 -58 -132 -99 -215 -88c-182 24 -243 202 -218 376c11 79 40 157 84 220c71 102 195 201 324 173c110 -23 171 -113 139 -213c-11 -31 -35 -64 -59 -53l7 12c13 -7 33 29 38 45c28 97 -37 178 -131 198
c-204 29 -265 -216 -288 -379c-25 -171 -41 -343 113 -366c85 -6 157 41 215 103zM105 -136l-19 3c-154 8 -268 -54 -295 -115c-16 -37 -3 -79 33 -116c125 -139 387 -17 502 171c-80 29 -155 49 -221 57z" />
    <glyph glyph-name="G.alt1_breve" horiz-adv-x="714" 
d="M448 98l63 214l83 -4c-3 -49 -22 -137 -38 -195c-29 -106 -77 -232 -138 -333l185 -83c332 -149 708 -315 919 -19l13 -9c-218 -307 -601 -136 -937 13c-68 30 -121 60 -187 86c-133 -240 -478 -264 -598 -144c-41 42 -56 90 -37 134c30 68 150 133 310 123
c72 -3 160 -28 248 -61c50 86 81 170 105 250c-59 -58 -132 -99 -215 -88c-182 24 -243 202 -218 376c11 79 40 157 84 220c71 102 195 201 324 173c110 -23 171 -113 139 -213c-11 -31 -35 -64 -59 -53l7 12c13 -7 33 29 38 45c28 97 -37 178 -131 198
c-204 29 -265 -216 -288 -379c-25 -171 -41 -343 113 -366c85 -6 157 41 215 103zM105 -136l-19 3c-154 8 -268 -54 -295 -115c-16 -37 -3 -79 33 -116c125 -139 387 -17 502 171c-80 29 -155 49 -221 57zM280 909l22 14c54 -56 80 -88 124 -14l20 -14
c-56 -106 -164 -72 -166 14z" />
    <glyph glyph-name="G.alt1_cedilla" horiz-adv-x="714" 
d="M448 98l63 214l83 -4c-3 -49 -22 -137 -38 -195c-29 -106 -77 -232 -138 -333l185 -83c332 -149 708 -315 919 -19l13 -9c-218 -307 -601 -136 -937 13c-68 30 -121 60 -187 86c-133 -240 -478 -264 -598 -144c-41 42 -56 90 -37 134c30 68 150 133 310 123
c72 -3 160 -28 248 -61c50 86 81 170 105 250c-59 -58 -132 -99 -215 -88c-182 24 -243 202 -218 376c11 79 40 157 84 220c71 102 195 201 324 173c110 -23 171 -113 139 -213c-11 -31 -35 -64 -59 -53l7 12c13 -7 33 29 38 45c28 97 -37 178 -131 198
c-204 29 -265 -216 -288 -379c-25 -171 -41 -343 113 -366c85 -6 157 41 215 103zM105 -136l-19 3c-154 8 -268 -54 -295 -115c-16 -37 -3 -79 33 -116c125 -139 387 -17 502 171c-80 29 -155 49 -221 57zM313 -579l6 12c67 -42 139 87 53 88l17 71l19 -2l-15 -49
c129 -34 10 -168 -80 -120z" />
    <glyph glyph-name="G.alt1_circumflex" horiz-adv-x="714" 
d="M448 98l63 214l83 -4c-3 -49 -22 -137 -38 -195c-29 -106 -77 -232 -138 -333l185 -83c332 -149 708 -315 919 -19l13 -9c-218 -307 -601 -136 -937 13c-68 30 -121 60 -187 86c-133 -240 -478 -264 -598 -144c-41 42 -56 90 -37 134c30 68 150 133 310 123
c72 -3 160 -28 248 -61c50 86 81 170 105 250c-59 -58 -132 -99 -215 -88c-182 24 -243 202 -218 376c11 79 40 157 84 220c71 102 195 201 324 173c110 -23 171 -113 139 -213c-11 -31 -35 -64 -59 -53l7 12c13 -7 33 29 38 45c28 97 -37 178 -131 198
c-204 29 -265 -216 -288 -379c-25 -171 -41 -343 113 -366c85 -6 157 41 215 103zM105 -136l-19 3c-154 8 -268 -54 -295 -115c-16 -37 -3 -79 33 -116c125 -139 387 -17 502 171c-80 29 -155 49 -221 57zM447 847l-8 -17c-24 9 -55 53 -52 93c-24 -26 -43 -53 -67 -77
l-11 12c27 33 54 63 78 96l15 -8c3 -3 45 -93 45 -99z" />
    <glyph glyph-name="G.alt1_dotaccent" horiz-adv-x="714" 
d="M511 312l-63 -214c-58 -62 -130 -109 -215 -103c-154 23 -138 195 -113 366c23 163 84 408 288 379c94 -20 159 -101 131 -198c-5 -16 -25 -52 -38 -45l-7 -12c24 -11 48 22 59 53c32 100 -29 190 -139 213c-129 28 -253 -71 -324 -173c-44 -63 -73 -141 -84 -220
c-25 -174 36 -352 218 -376c83 -11 156 30 215 88c-24 -80 -55 -164 -105 -250c-88 33 -176 58 -248 61c-160 10 -280 -55 -310 -123c-19 -44 -4 -92 37 -134c120 -120 465 -96 598 144c66 -26 119 -56 187 -86c336 -149 719 -320 937 -13l-13 9
c-211 -296 -587 -130 -919 19l-185 83c61 101 109 227 138 333c16 58 35 146 38 195zM105 -136c66 -8 141 -28 221 -57c-115 -188 -377 -310 -502 -171c-36 37 -49 79 -33 116c27 61 141 123 295 115zM362 869c0 16 11 29 26 29c14 0 26 -13 26 -29c0 -17 -12 -30 -26 -30
c-15 0 -26 13 -26 30z" />
    <glyph glyph-name="G.alt2" horiz-adv-x="901" 
d="M116 -450c-77 70 -55 167 3 230c66 72 183 108 259 42c44 -38 45 -68 40 -87c-8 -28 -34 -50 -70 -57c-35 -6 -66 4 -84 29l10 9c15 -22 43 -30 72 -25c28 5 52 26 59 47c7 24 -6 48 -38 76c-69 59 -173 26 -237 -42c-49 -54 -78 -140 -6 -211c244 -243 580 464 575 645
c-38 -83 -125 -153 -229 -185c-131 -40 -272 -24 -368 41c-66 44 -100 104 -101 176c-3 147 110 301 235 394c130 97 445 228 575 139c63 -43 75 -123 39 -243c-72 -230 -294 -374 -551 -367v13c255 -8 471 138 538 357c34 115 26 190 -32 229c-124 86 -337 -43 -465 -138
c-99 -74 -233 -239 -231 -384c4 -212 171 -262 356 -204c109 33 193 105 229 195l8 20l7 -23c145 -332 -273 -965 -593 -676z" />
    <glyph glyph-name="G.alt2_breve" horiz-adv-x="881" 
d="M116 -450c-77 70 -55 167 3 230c66 72 183 108 259 42c44 -38 45 -68 40 -87c-8 -28 -34 -50 -70 -57c-35 -6 -66 4 -84 29l10 9c15 -22 43 -30 72 -25c28 5 52 26 59 47c7 24 -6 48 -38 76c-69 59 -173 26 -237 -42c-49 -54 -78 -140 -6 -211c244 -243 580 464 575 645
c-38 -83 -125 -153 -229 -185c-131 -40 -272 -24 -368 41c-66 44 -100 104 -101 176c-3 147 110 301 235 394c130 97 445 228 575 139c63 -43 75 -123 39 -243c-72 -230 -294 -374 -551 -367v13c255 -8 471 138 538 357c34 115 26 190 -32 229c-124 86 -337 -43 -465 -138
c-99 -74 -233 -239 -231 -384c4 -212 171 -262 356 -204c109 33 193 105 229 195l8 20l7 -23c145 -332 -273 -965 -593 -676zM610 977l22 14c54 -56 80 -88 124 -14l20 -14c-56 -106 -164 -72 -166 14z" />
    <glyph glyph-name="G.alt2_cedilla" horiz-adv-x="881" 
d="M116 -450c-77 70 -55 167 3 230c66 72 183 108 259 42c44 -38 45 -68 40 -87c-8 -28 -34 -50 -70 -57c-35 -6 -66 4 -84 29l10 9c15 -22 43 -30 72 -25c28 5 52 26 59 47c7 24 -6 48 -38 76c-69 59 -173 26 -237 -42c-49 -54 -78 -140 -6 -211c244 -243 580 464 575 645
c-38 -83 -125 -153 -229 -185c-131 -40 -272 -24 -368 41c-66 44 -100 104 -101 176c-3 147 110 301 235 394c130 97 445 228 575 139c63 -43 75 -123 39 -243c-72 -230 -294 -374 -551 -367v13c255 -8 471 138 538 357c34 115 26 190 -32 229c-124 86 -337 -43 -465 -138
c-99 -74 -233 -239 -231 -384c4 -212 171 -262 356 -204c109 33 193 105 229 195l8 20l7 -23c145 -332 -273 -965 -593 -676zM282 -185l6 12c67 -42 139 87 53 88l17 71l19 -2l-15 -49c129 -34 10 -168 -80 -120z" />
    <glyph glyph-name="G.alt2_circumflex" horiz-adv-x="881" 
d="M116 -450c-77 70 -55 167 3 230c66 72 183 108 259 42c44 -38 45 -68 40 -87c-8 -28 -34 -50 -70 -57c-35 -6 -66 4 -84 29l10 9c15 -22 43 -30 72 -25c28 5 52 26 59 47c7 24 -6 48 -38 76c-69 59 -173 26 -237 -42c-49 -54 -78 -140 -6 -211c244 -243 580 464 575 645
c-38 -83 -125 -153 -229 -185c-131 -40 -272 -24 -368 41c-66 44 -100 104 -101 176c-3 147 110 301 235 394c130 97 445 228 575 139c63 -43 75 -123 39 -243c-72 -230 -294 -374 -551 -367v13c255 -8 471 138 538 357c34 115 26 190 -32 229c-124 86 -337 -43 -465 -138
c-99 -74 -233 -239 -231 -384c4 -212 171 -262 356 -204c109 33 193 105 229 195l8 20l7 -23c145 -332 -273 -965 -593 -676zM746 872l-8 -17c-24 9 -55 53 -52 93c-24 -26 -43 -53 -67 -77l-11 12c27 33 54 63 78 96l15 -8c3 -3 45 -93 45 -99z" />
    <glyph glyph-name="G.alt2_dotaccent" horiz-adv-x="881" 
d="M116 -450c320 -289 738 344 593 676l-7 23l-8 -20c-36 -90 -120 -162 -229 -195c-185 -58 -352 -8 -356 204c-2 145 132 310 231 384c128 95 341 224 465 138c58 -39 66 -114 32 -229c-67 -219 -283 -365 -538 -357v-13c257 -7 479 137 551 367c36 120 24 200 -39 243
c-130 89 -445 -42 -575 -139c-125 -93 -238 -247 -235 -394c1 -72 35 -132 101 -176c96 -65 237 -81 368 -41c104 32 191 102 229 185c5 -181 -331 -888 -575 -645c-72 71 -43 157 6 211c64 68 168 101 237 42c32 -28 45 -52 38 -76c-7 -21 -31 -42 -59 -47
c-29 -5 -57 3 -72 25l-10 -9c18 -25 49 -35 84 -29c36 7 62 29 70 57c5 19 4 49 -40 87c-76 66 -193 30 -259 -42c-58 -63 -80 -160 -3 -230zM652 913c0 16 11 29 26 29c14 0 26 -13 26 -29c0 -17 -12 -30 -26 -30c-15 0 -26 13 -26 30z" />
    <glyph glyph-name="G.alt3" horiz-adv-x="960" 
d="M159 274l15 -5c-33 -108 56 -209 175 -244c253 -75 428 161 449 318c-143 -64 -327 -37 -441 73c-95 2 -195 17 -266 71c-141 114 -117 355 66 411c109 35 217 12 313 -35c88 55 270 83 385 66c229 -33 295 -260 75 -407c-158 -106 -281 -117 -465 -107
c115 -97 211 -107 349 -49l20 10c51 -275 -120 -384 -364 -382c-184 -6 -355 127 -311 280zM449 430c199 -12 314 -3 473 103c212 139 147 352 -70 383c-108 16 -235 -30 -318 -80c97 -51 202 -107 259 -167l-10 -10c-58 62 -164 118 -263 170c-126 -88 -192 -282 -71 -399z
M266 902c-32 0 -67 -4 -101 -15c-166 -49 -194 -282 -68 -388c71 -60 173 -65 246 -69c-137 157 -31 328 113 425c-58 28 -123 47 -190 47z" />
    <glyph glyph-name="G.alt3_breve" horiz-adv-x="929" 
d="M159 274l15 -5c-33 -108 56 -209 175 -244c253 -75 428 161 449 318c-143 -64 -327 -37 -441 73c-95 2 -195 17 -266 71c-141 114 -117 355 66 411c109 35 217 12 313 -35c88 55 270 83 385 66c229 -33 295 -260 75 -407c-158 -106 -281 -117 -465 -107
c115 -97 211 -107 349 -49l20 10c51 -275 -120 -384 -364 -382c-184 -6 -355 127 -311 280zM449 430c199 -12 314 -3 473 103c212 139 147 352 -70 383c-108 16 -235 -30 -318 -80c97 -51 202 -107 259 -167l-10 -10c-58 62 -164 118 -263 170c-126 -88 -192 -282 -71 -399z
M266 902c-32 0 -67 -4 -101 -15c-166 -49 -194 -282 -68 -388c71 -60 173 -65 246 -69c-137 157 -31 328 113 425c-58 28 -123 47 -190 47zM701 1101l22 14c54 -56 80 -88 124 -14l20 -14c-56 -106 -164 -72 -166 14z" />
    <glyph glyph-name="G.alt3_cedilla" horiz-adv-x="929" 
d="M159 274l15 -5c-33 -108 56 -209 175 -244c253 -75 428 161 449 318c-143 -64 -327 -37 -441 73c-95 2 -195 17 -266 71c-141 114 -117 355 66 411c109 35 217 12 313 -35c88 55 270 83 385 66c229 -33 295 -260 75 -407c-158 -106 -281 -117 -465 -107
c115 -97 211 -107 349 -49l20 10c51 -275 -120 -384 -364 -382c-184 -6 -355 127 -311 280zM449 430c199 -12 314 -3 473 103c212 139 147 352 -70 383c-108 16 -235 -30 -318 -80c97 -51 202 -107 259 -167l-10 -10c-58 62 -164 118 -263 170c-126 -88 -192 -282 -71 -399z
M266 902c-32 0 -67 -4 -101 -15c-166 -49 -194 -282 -68 -388c71 -60 173 -65 246 -69c-137 157 -31 328 113 425c-58 28 -123 47 -190 47zM375 -202l6 12c67 -42 139 87 53 88l17 71l19 -2l-15 -49c129 -34 10 -168 -80 -120z" />
    <glyph glyph-name="G.alt3_circumflex" horiz-adv-x="929" 
d="M159 274l15 -5c-33 -108 56 -209 175 -244c253 -75 428 161 449 318c-143 -64 -327 -37 -441 73c-95 2 -195 17 -266 71c-141 114 -117 355 66 411c109 35 217 12 313 -35c88 55 270 83 385 66c229 -33 295 -260 75 -407c-158 -106 -281 -117 -465 -107
c115 -97 211 -107 349 -49l20 10c51 -275 -120 -384 -364 -382c-184 -6 -355 127 -311 280zM449 430c199 -12 314 -3 473 103c212 139 147 352 -70 383c-108 16 -235 -30 -318 -80c97 -51 202 -107 259 -167l-10 -10c-58 62 -164 118 -263 170c-126 -88 -192 -282 -71 -399z
M266 902c-32 0 -67 -4 -101 -15c-166 -49 -194 -282 -68 -388c71 -60 173 -65 246 -69c-137 157 -31 328 113 425c-58 28 -123 47 -190 47zM853 1014l-8 -17c-24 9 -55 53 -52 93c-24 -26 -43 -53 -67 -77l-11 12c27 33 54 63 78 96l15 -8c3 -3 45 -93 45 -99z" />
    <glyph glyph-name="G.alt3_dotaccent" horiz-adv-x="929" 
d="M159 274c-44 -153 127 -286 311 -280c244 -2 415 107 364 382l-20 -10c-138 -58 -234 -48 -349 49c184 -10 307 1 465 107c220 147 154 374 -75 407c-115 17 -297 -11 -385 -66c-96 47 -204 70 -313 35c-183 -56 -207 -297 -66 -411c71 -54 171 -69 266 -71
c114 -110 298 -137 441 -73c-21 -157 -196 -393 -449 -318c-119 35 -208 136 -175 244zM449 430c-121 117 -55 311 71 399c99 -52 205 -108 263 -170l10 10c-57 60 -162 116 -259 167c83 50 210 96 318 80c217 -31 282 -244 70 -383c-159 -106 -274 -115 -473 -103zM266 902
c67 0 132 -19 190 -47c-144 -97 -250 -268 -113 -425c-73 4 -175 9 -246 69c-126 106 -98 339 68 388c34 11 69 15 101 15zM792 1061c0 16 11 29 26 29c14 0 26 -13 26 -29c0 -17 -12 -30 -26 -30c-15 0 -26 13 -26 30z" />
    <glyph glyph-name="G.alt4" horiz-adv-x="968" 
d="M751 246l14 66l83 -4c-3 -49 -22 -137 -38 -195c-39 -143 -133 -334 -227 -439c91 -31 183 -67 263 -126l-10 -8c-77 60 -168 93 -263 124c-86 -83 -164 -78 -230 -70c-39 4 -88 46 -61 87c28 41 176 23 224 11c90 91 152 261 191 389c-64 -59 -143 -100 -229 -89
c-94 18 -145 68 -182 147c-37 80 -43 176 -29 275c-175 15 -330 129 -219 282c72 97 292 162 438 118c83 73 179 96 285 64c103 -32 174 -120 118 -214c-64 -108 -213 -205 -361 -235c-51 -11 -101 -16 -150 -17c-22 -174 -15 -361 79 -397c88 -34 186 24 259 98zM867 674
c54 89 -24 164 -114 192c-72 23 -147 -28 -204 -83c75 -29 141 -93 149 -172l-14 -1c-8 74 -71 135 -144 164c-89 -98 -150 -220 -169 -348c49 3 98 7 147 17c147 29 284 122 349 231zM48 687c-104 -151 54 -248 212 -260c19 131 109 290 205 378
c-139 41 -347 -21 -417 -118zM291 -328c-14 -23 21 -66 61 -66c45 0 107 40 143 76c-48 10 -184 24 -204 -10z" />
    <glyph glyph-name="G.alt4_breve" horiz-adv-x="968" 
d="M751 246l14 66l83 -4c-3 -49 -22 -137 -38 -195c-39 -143 -133 -334 -227 -439c91 -31 183 -67 263 -126l-10 -8c-77 60 -168 93 -263 124c-86 -83 -164 -78 -230 -70c-39 4 -88 46 -61 87c28 41 176 23 224 11c90 91 152 261 191 389c-64 -59 -143 -100 -229 -89
c-94 18 -145 68 -182 147c-37 80 -43 176 -29 275c-175 15 -330 129 -219 282c72 97 292 162 438 118c83 73 179 96 285 64c103 -32 174 -120 118 -214c-64 -108 -213 -205 -361 -235c-51 -11 -101 -16 -150 -17c-22 -174 -15 -361 79 -397c88 -34 186 24 259 98zM867 674
c54 89 -24 164 -114 192c-72 23 -147 -28 -204 -83c75 -29 141 -93 149 -172l-14 -1c-8 74 -71 135 -144 164c-89 -98 -150 -220 -169 -348c49 3 98 7 147 17c147 29 284 122 349 231zM48 687c-104 -151 54 -248 212 -260c19 131 109 290 205 378
c-139 41 -347 -21 -417 -118zM291 -328c-14 -23 21 -66 61 -66c45 0 107 40 143 76c-48 10 -184 24 -204 -10zM615 1050l22 14c54 -56 80 -88 124 -14l20 -14c-56 -106 -164 -72 -166 14z" />
    <glyph glyph-name="G.alt4_cedilla" horiz-adv-x="968" 
d="M751 246l14 66l83 -4c-3 -49 -22 -137 -38 -195c-39 -143 -133 -334 -227 -439c91 -31 183 -67 263 -126l-10 -8c-77 60 -168 93 -263 124c-86 -83 -164 -78 -230 -70c-39 4 -88 46 -61 87c28 41 176 23 224 11c90 91 152 261 191 389c-64 -59 -143 -100 -229 -89
c-94 18 -145 68 -182 147c-37 80 -43 176 -29 275c-175 15 -330 129 -219 282c72 97 292 162 438 118c83 73 179 96 285 64c103 -32 174 -120 118 -214c-64 -108 -213 -205 -361 -235c-51 -11 -101 -16 -150 -17c-22 -174 -15 -361 79 -397c88 -34 186 24 259 98zM867 674
c54 89 -24 164 -114 192c-72 23 -147 -28 -204 -83c75 -29 141 -93 149 -172l-14 -1c-8 74 -71 135 -144 164c-89 -98 -150 -220 -169 -348c49 3 98 7 147 17c147 29 284 122 349 231zM48 687c-104 -151 54 -248 212 -260c19 131 109 290 205 378
c-139 41 -347 -21 -417 -118zM291 -328c-14 -23 21 -66 61 -66c45 0 107 40 143 76c-48 10 -184 24 -204 -10zM396 -216l6 12c67 -42 139 87 53 88l17 71l19 -2l-15 -49c129 -34 10 -168 -80 -120z" />
    <glyph glyph-name="G.alt4_circumflex" horiz-adv-x="968" 
d="M751 246l14 66l83 -4c-3 -49 -22 -137 -38 -195c-39 -143 -133 -334 -227 -439c91 -31 183 -67 263 -126l-10 -8c-77 60 -168 93 -263 124c-86 -83 -164 -78 -230 -70c-39 4 -88 46 -61 87c28 41 176 23 224 11c90 91 152 261 191 389c-64 -59 -143 -100 -229 -89
c-94 18 -145 68 -182 147c-37 80 -43 176 -29 275c-175 15 -330 129 -219 282c72 97 292 162 438 118c83 73 179 96 285 64c103 -32 174 -120 118 -214c-64 -108 -213 -205 -361 -235c-51 -11 -101 -16 -150 -17c-22 -174 -15 -361 79 -397c88 -34 186 24 259 98zM867 674
c54 89 -24 164 -114 192c-72 23 -147 -28 -204 -83c75 -29 141 -93 149 -172l-14 -1c-8 74 -71 135 -144 164c-89 -98 -150 -220 -169 -348c49 3 98 7 147 17c147 29 284 122 349 231zM48 687c-104 -151 54 -248 212 -260c19 131 109 290 205 378
c-139 41 -347 -21 -417 -118zM291 -328c-14 -23 21 -66 61 -66c45 0 107 40 143 76c-48 10 -184 24 -204 -10zM781 966l-8 -17c-24 9 -55 53 -52 93c-24 -26 -43 -53 -67 -77l-11 12c27 33 54 63 78 96l15 -8c3 -3 45 -93 45 -99z" />
    <glyph glyph-name="G.alt4_dotaccent" horiz-adv-x="968" 
d="M765 312l-14 -66l-45 -133c-73 -74 -171 -132 -259 -98c-94 36 -101 223 -79 397c49 1 99 6 150 17c148 30 297 127 361 235c56 94 -15 182 -118 214c-106 32 -202 9 -285 -64c-146 44 -366 -21 -438 -118c-111 -153 44 -267 219 -282c-14 -99 -8 -195 29 -275
c37 -79 88 -129 182 -147c86 -11 165 30 229 89c-39 -128 -101 -298 -191 -389c-48 12 -196 30 -224 -11c-27 -41 22 -83 61 -87c66 -8 144 -13 230 70c95 -31 186 -64 263 -124l10 8c-80 59 -172 95 -263 126c94 105 188 296 227 439c16 58 35 146 38 195zM867 674
c-65 -109 -202 -202 -349 -231c-49 -10 -98 -14 -147 -17c19 128 80 250 169 348c73 -29 136 -90 144 -164l14 1c-8 79 -74 143 -149 172c57 55 132 106 204 83c90 -28 168 -103 114 -192zM48 687c70 97 278 159 417 118c-96 -88 -186 -247 -205 -378
c-158 12 -316 109 -212 260zM291 -328c20 34 156 20 204 10c-36 -36 -98 -76 -143 -76c-40 0 -75 43 -61 66zM664 979c0 16 11 29 26 29c14 0 26 -13 26 -29c0 -17 -12 -30 -26 -30c-15 0 -26 13 -26 30z" />
    <glyph glyph-name="G.breve" unicode="&#x11e;" horiz-adv-x="714" 
d="M460 117l57 193l73 -4c-3 -49 -12 -137 -28 -195c-39 -143 -113 -324 -207 -429c91 -31 163 -77 243 -136l-10 -8c-77 60 -148 103 -243 134c-97 -95 -191 -91 -248 -83c-39 5 -90 49 -63 90c28 41 196 43 244 31c90 91 132 241 171 369c-61 -63 -138 -108 -225 -97
c-264 35 -274 396 -134 596c71 102 195 201 324 173c110 -23 171 -113 139 -213c-11 -31 -35 -64 -59 -53l7 12c13 -7 33 29 38 45c28 97 -37 179 -131 198c-58 11 -115 -33 -199 -163c-130 -200 -207 -549 24 -582c90 -7 165 46 224 113zM43 -330c-14 -23 21 -66 61 -66
c45 0 127 60 163 96c-48 10 -204 4 -224 -30zM307 930l22 14c54 -56 80 -88 124 -14l20 -14c-56 -106 -164 -72 -166 14z" />
    <glyph glyph-name="G.cedilla" unicode="&#x122;" horiz-adv-x="714" 
d="M460 117l57 193l73 -4c-3 -49 -12 -137 -28 -195c-39 -143 -113 -324 -207 -429c91 -31 163 -77 243 -136l-10 -8c-77 60 -148 103 -243 134c-97 -95 -191 -91 -248 -83c-39 5 -90 49 -63 90c28 41 196 43 244 31c90 91 132 241 171 369c-61 -63 -138 -108 -225 -97
c-264 35 -274 396 -134 596c71 102 195 201 324 173c110 -23 171 -113 139 -213c-11 -31 -35 -64 -59 -53l7 12c13 -7 33 29 38 45c28 97 -37 179 -131 198c-58 11 -115 -33 -199 -163c-130 -200 -207 -549 24 -582c90 -7 165 46 224 113zM43 -330c-14 -23 21 -66 61 -66
c45 0 127 60 163 96c-48 10 -204 4 -224 -30zM143 -199l6 12c67 -42 139 87 53 88l17 71l19 -2l-15 -49c129 -34 10 -168 -80 -120z" />
    <glyph glyph-name="G.dot" unicode="&#x120;" horiz-adv-x="714" 
d="M517 310l-57 -193l-3 -9c-59 -67 -134 -120 -224 -113c-231 33 -154 382 -24 582c84 130 141 174 199 163c94 -19 159 -101 131 -198c-5 -16 -25 -52 -38 -45l-7 -12c24 -11 48 22 59 53c32 100 -29 190 -139 213c-129 28 -253 -71 -324 -173
c-140 -200 -130 -561 134 -596c87 -11 164 34 225 97c-39 -128 -81 -278 -171 -369c-48 12 -216 10 -244 -31c-27 -41 24 -85 63 -90c57 -8 151 -12 248 83c95 -31 166 -74 243 -134l10 8c-80 59 -152 105 -243 136c94 105 168 286 207 429c16 58 25 146 28 195zM43 -330
c20 34 176 40 224 30c-36 -36 -118 -96 -163 -96c-40 0 -75 43 -61 66zM362 879c0 16 11 29 26 29c14 0 26 -13 26 -29c0 -17 -12 -30 -26 -30c-15 0 -26 13 -26 30z" />
    <glyph glyph-name="Gcircumflex" unicode="&#x11c;" horiz-adv-x="714" 
d="M460 117l57 193l73 -4c-3 -49 -12 -137 -28 -195c-39 -143 -113 -324 -207 -429c91 -31 163 -77 243 -136l-10 -8c-77 60 -148 103 -243 134c-97 -95 -191 -91 -248 -83c-39 5 -90 49 -63 90c28 41 196 43 244 31c90 91 132 241 171 369c-61 -63 -138 -108 -225 -97
c-264 35 -274 396 -134 596c71 102 195 201 324 173c110 -23 171 -113 139 -213c-11 -31 -35 -64 -59 -53l7 12c13 -7 33 29 38 45c28 97 -37 179 -131 198c-58 11 -115 -33 -199 -163c-130 -200 -207 -549 24 -582c90 -7 165 46 224 113zM43 -330c-14 -23 21 -66 61 -66
c45 0 127 60 163 96c-48 10 -204 4 -224 -30zM443 836l-8 -17c-24 9 -55 53 -52 93c-24 -26 -43 -53 -67 -77l-11 12c27 33 54 63 78 96l15 -8c3 -3 45 -93 45 -99z" />
    <glyph glyph-name="H" unicode="H" horiz-adv-x="989" 
d="M371 390c-44 10 -83 23 -108 42l4 14c25 -19 63 -34 107 -44c21 79 45 137 79 198c22 38 49 76 82 98l-36 4c-98 11 -218 45 -317 38c-74 -6 -137 -41 -164 -152c-20 -70 24 -171 103 -169v-13c-94 1 -137 108 -115 187c31 117 96 153 174 159c102 7 230 -27 332 -38
c12 -2 24 -3 36 -4c26 25 154 59 170 64c60 21 83 -63 14 -76c-28 -5 -68 -4 -99 -2c-33 -22 -54 -58 -72 -93c-29 -61 -52 -143 -75 -228c93 -15 172 -14 242 4c32 107 127 333 225 367c32 14 95 10 123 -22c36 -53 -7 -124 -36 -168c-49 -76 -122 -142 -202 -177
c-29 -96 -129 -451 -22 -496c-190 35 -119 374 -93 478c0 1 0 2 1 4c-69 -16 -147 -17 -241 -3c-36 -134 -72 -272 -123 -343c-44 -67 -96 -112 -159 -117l4 10c87 108 117 285 166 478zM1030 565c26 40 66 101 36 149c-13 20 -30 24 -43 19c-91 -38 -157 -260 -180 -338
c76 38 142 98 187 170zM645 709c31 -2 57 -4 86 2c50 11 29 71 -11 49c-18 -9 -52 -30 -75 -51z" />
    <glyph glyph-name="H.alt1" horiz-adv-x="932" 
d="M176 127l10 -9c-77 -92 31 -174 84 -84c68 114 92 401 183 566c22 38 49 76 82 98l-36 4c-98 11 -218 45 -317 38c-74 -6 -137 -41 -164 -152c-20 -70 24 -171 103 -169v-13c-94 1 -137 108 -115 187c31 117 96 153 174 159c102 7 230 -27 332 -38c12 -2 24 -3 36 -4
c26 25 154 59 170 64c60 21 83 -63 14 -76c-28 -5 -68 -4 -99 -2c-33 -22 -54 -58 -72 -93c-30 -64 -54 -152 -78 -241c71 3 142 20 211 51c52 150 160 302 302 280c48 -7 83 -43 44 -97c-51 -70 -163 -124 -239 -154c-48 -137 -169 -624 89 -562l5 -6
c-283 -64 -260 347 -206 523c-51 -20 -154 -47 -210 -49c-35 -129 -70 -260 -119 -329c-80 -106 -292 -28 -184 108zM804 456c80 32 180 85 225 153c28 42 2 65 -36 71c-120 16 -157 -143 -189 -224zM645 709c31 -2 57 -4 86 2c50 11 29 71 -11 49c-18 -9 -52 -30 -75 -51z
" />
    <glyph glyph-name="H.alt1_circumflex" horiz-adv-x="932" 
d="M176 127l10 -9c-77 -92 31 -174 84 -84c68 114 92 401 183 566c22 38 49 76 82 98l-36 4c-98 11 -218 45 -317 38c-74 -6 -137 -41 -164 -152c-20 -70 24 -171 103 -169v-13c-94 1 -137 108 -115 187c31 117 96 153 174 159c102 7 230 -27 332 -38c12 -2 24 -3 36 -4
c26 25 154 59 170 64c60 21 83 -63 14 -76c-28 -5 -68 -4 -99 -2c-33 -22 -54 -58 -72 -93c-30 -64 -54 -152 -78 -241c71 3 142 20 211 51c52 150 160 302 302 280c48 -7 83 -43 44 -97c-51 -70 -163 -124 -239 -154c-48 -137 -169 -624 89 -562l5 -6
c-283 -64 -260 347 -206 523c-51 -20 -154 -47 -210 -49c-35 -129 -70 -260 -119 -329c-80 -106 -292 -28 -184 108zM804 456c80 32 180 85 225 153c28 42 2 65 -36 71c-120 16 -157 -143 -189 -224zM645 709c31 -2 57 -4 86 2c50 11 29 71 -11 49c-18 -9 -52 -30 -75 -51z
M869 871l-8 -17c-24 9 -55 53 -52 93c-24 -26 -43 -53 -67 -77l-11 12c27 33 54 63 78 96l15 -8c3 -3 45 -93 45 -99z" />
    <glyph glyph-name="H.alt1_stroke" horiz-adv-x="932" 
d="M176 127l10 -9c-77 -92 31 -174 84 -84c68 114 92 401 183 566c22 38 49 76 82 98l-36 4c-98 11 -218 45 -317 38c-74 -6 -137 -41 -164 -152c-20 -70 24 -171 103 -169v-13c-94 1 -137 108 -115 187c31 117 96 153 174 159c102 7 230 -27 332 -38l36 -4
c26 25 154 59 170 64c60 21 83 -63 14 -76c-28 -5 -68 -4 -99 -2c-33 -22 -54 -58 -72 -93c-19 -41 -35 -92 -51 -145c88 -2 133 11 222 51l-1 -3c42 86 175 201 265 187c48 -7 83 -43 44 -97c-51 -70 -163 -124 -239 -154c-48 -137 -169 -624 89 -562l5 -6
c-283 -64 -260 347 -206 523c-86 -35 -118 -47 -210 -49c-35 -129 -70 -260 -119 -329c-83 -115 -295 -33 -184 108zM804 456c80 32 180 85 225 153c28 42 2 65 -36 71c-120 16 -157 -143 -189 -224zM505 443l-22 -81c86 2 126 13 211 51c8 23 18 51 31 79
c-89 -36 -126 -50 -220 -49zM645 709c31 -2 57 -4 86 2c50 11 29 71 -11 49c-18 -9 -52 -30 -75 -51z" />
    <glyph glyph-name="H.alt2" horiz-adv-x="904" 
d="M827 337l5 -14c-28 -11 -63 -17 -100 -20c-27 -107 -43 -242 -27 -329h-11c-85 21 -95 213 -66 322c-47 -1 -119 8 -157 18c-32 -117 -67 -231 -111 -295c-45 -65 -166 -112 -228 -117l4 10c54 3 96 52 135 122c35 63 63 186 91 302c-40 15 -72 31 -84 48
c-19 -23 -30 -37 -57 -49l-8 13c29 11 41 24 57 49c-5 15 -9 30 -11 48c-4 31 2 71 28 69c32 1 27 -45 19 -70c-4 -16 -12 -32 -20 -48c10 -16 41 -32 80 -45c23 93 48 178 88 249c21 38 48 76 82 98l-36 4c-98 11 -218 45 -318 38c-73 -6 -136 -41 -164 -152
c-19 -70 24 -171 104 -169v-13c-94 1 -137 108 -116 187c31 117 96 153 175 159c101 7 230 -27 332 -38l36 -4c26 25 154 59 169 64c61 21 84 -63 15 -76c-28 -5 -68 -4 -99 -2c-34 -22 -54 -58 -72 -93c-34 -73 -60 -174 -87 -275c41 -12 107 -20 157 -18
c52 176 138 402 348 352c0 -1 1 -13 1 -13c-158 -36 -189 -174 -245 -332c34 3 65 9 91 20zM646 709c31 -2 56 -4 85 2c51 11 30 71 -11 49c-17 -9 -52 -30 -74 -51zM295 451c4 18 11 51 -8 50c-16 1 -17 -37 -17 -57l9 -32c5 12 12 25 16 39z" />
    <glyph glyph-name="H.alt2_circumflex" horiz-adv-x="904" 
d="M827 337l5 -14c-28 -11 -63 -17 -100 -20c-27 -107 -43 -242 -27 -329h-11c-85 21 -95 213 -66 322c-47 -1 -119 8 -157 18c-32 -117 -67 -231 -111 -295c-45 -65 -166 -112 -228 -117l4 10c54 3 96 52 135 122c35 63 63 186 91 302c-40 15 -72 31 -84 48
c-19 -23 -30 -37 -57 -49l-8 13c29 11 41 24 57 49c-5 15 -9 30 -11 48c-4 31 2 71 28 69c32 1 27 -45 19 -70c-4 -16 -12 -32 -20 -48c10 -16 41 -32 80 -45c23 93 48 178 88 249c21 38 48 76 82 98l-36 4c-98 11 -218 45 -318 38c-73 -6 -136 -41 -164 -152
c-19 -70 24 -171 104 -169v-13c-94 1 -137 108 -116 187c31 117 96 153 175 159c101 7 230 -27 332 -38l36 -4c26 25 154 59 169 64c61 21 84 -63 15 -76c-28 -5 -68 -4 -99 -2c-34 -22 -54 -58 -72 -93c-34 -73 -60 -174 -87 -275c41 -12 107 -20 157 -18
c52 176 138 402 348 352c0 -1 1 -13 1 -13c-158 -36 -189 -174 -245 -332c34 3 65 9 91 20zM646 709c31 -2 56 -4 85 2c51 11 30 71 -11 49c-17 -9 -52 -30 -74 -51zM295 451c4 18 11 51 -8 50c-16 1 -17 -37 -17 -57l9 -32c5 12 12 25 16 39zM815 866l-8 -17
c-24 9 -55 53 -52 93c-24 -26 -43 -53 -67 -77l-11 12c27 33 54 63 78 96l15 -8c3 -3 45 -93 45 -99z" />
    <glyph glyph-name="H.alt2_stroke" horiz-adv-x="834" 
d="M646 709c31 -2 56 -4 85 2c51 11 30 71 -11 49c-17 -9 -52 -30 -74 -51zM827 337l5 -14c-28 -11 -63 -17 -100 -20c-27 -107 -43 -242 -27 -329h-11c-85 21 -95 213 -66 322c-47 -1 -119 8 -157 18c-32 -117 -67 -231 -111 -295c-45 -65 -166 -112 -228 -117l4 10
c54 3 96 52 135 122c35 63 63 186 91 302c-40 15 -72 31 -84 48c-19 -23 -30 -37 -57 -49l-8 13c29 11 41 24 57 49c-5 15 -9 30 -11 48c-4 31 2 71 28 69c22 0 26 -21 24 -43c13 -14 41 -28 76 -40c18 62 39 119 67 169c21 38 48 76 82 98l-36 4c-98 11 -218 45 -318 38
c-73 -6 -136 -41 -164 -152c-19 -70 24 -171 104 -169v-13c-94 1 -137 108 -116 187c31 117 96 153 175 159c101 7 230 -27 332 -38l36 -4c26 25 154 59 169 64c61 21 84 -63 15 -76c-28 -5 -68 -4 -99 -2c-34 -22 -54 -58 -72 -93c-25 -54 -46 -123 -66 -195h1
c41 -12 110 -20 160 -18c55 156 144 314 323 272c0 -1 1 -13 1 -13c-131 -30 -174 -129 -217 -252c31 3 60 9 85 20l5 -14c-27 -11 -60 -17 -95 -20l-23 -66c34 3 65 9 91 20zM492 394l-17 -66c41 -12 107 -20 157 -18l20 66c-47 -1 -122 8 -159 18h-1zM309 454l-3 -10
c-4 -16 -12 -32 -20 -48c10 -16 41 -32 80 -45c5 22 11 44 17 65c-32 12 -59 24 -74 38zM295 451c4 18 11 51 -8 50c-16 1 -17 -37 -17 -57l9 -32c5 12 12 25 16 39z" />
    <glyph glyph-name="H.alt3" horiz-adv-x="904" 
d="M858 -146l5 -5c-217 -41 -293 211 -235 437c-76 -1 -90 10 -157 28c-32 -118 -65 -232 -111 -295c-82 -115 -294 -33 -183 108l9 -9c-76 -92 32 -174 85 -84c36 62 70 195 99 312c-41 14 -70 31 -82 48c-19 -23 -30 -37 -57 -49l-8 13c29 11 41 24 57 49
c-5 15 -9 30 -11 48c-4 31 2 71 28 69c32 1 27 -45 19 -70c-4 -16 -12 -32 -20 -48c11 -16 39 -31 77 -45c24 93 41 167 81 239c21 38 48 76 82 98l-36 4c-98 11 -218 45 -318 38c-73 -6 -136 -41 -164 -152c-19 -70 24 -171 104 -169v-13c-94 1 -137 108 -116 187
c31 117 96 153 175 159c101 7 230 -27 332 -38c12 -2 24 -3 36 -4c26 25 154 59 169 64c61 21 84 -63 15 -76c-28 -5 -68 -4 -99 -2c-34 -22 -54 -58 -72 -93c-34 -72 -60 -174 -87 -275c67 -18 81 -30 157 -28c33 122 85 236 132 287c50 57 145 94 216 75c0 -1 1 -13 1 -13
c-73 18 -135 -81 -166 -135c-25 -42 -56 -122 -79 -213c65 6 120 23 146 59l10 -10c-28 -38 -88 -57 -160 -62c-52 -211 -59 -438 126 -434zM646 709c31 -2 56 -4 85 2c51 11 30 71 -11 49c-17 -9 -52 -30 -74 -51zM305 461c4 18 11 51 -8 50c-16 1 -17 -37 -17 -57l9 -32
c5 12 12 25 16 39z" />
    <glyph glyph-name="H.alt3_circumflex" horiz-adv-x="904" 
d="M858 -146l5 -5c-217 -41 -293 211 -235 437c-76 -1 -90 10 -157 28c-32 -118 -65 -232 -111 -295c-82 -115 -294 -33 -183 108l9 -9c-76 -92 32 -174 85 -84c36 62 70 195 99 312c-41 14 -70 31 -82 48c-19 -23 -30 -37 -57 -49l-8 13c29 11 41 24 57 49
c-5 15 -9 30 -11 48c-4 31 2 71 28 69c32 1 27 -45 19 -70c-4 -16 -12 -32 -20 -48c11 -16 39 -31 77 -45c24 93 41 167 81 239c21 38 48 76 82 98l-36 4c-98 11 -218 45 -318 38c-73 -6 -136 -41 -164 -152c-19 -70 24 -171 104 -169v-13c-94 1 -137 108 -116 187
c31 117 96 153 175 159c101 7 230 -27 332 -38c12 -2 24 -3 36 -4c26 25 154 59 169 64c61 21 84 -63 15 -76c-28 -5 -68 -4 -99 -2c-34 -22 -54 -58 -72 -93c-34 -72 -60 -174 -87 -275c67 -18 81 -30 157 -28c33 122 85 236 132 287c50 57 145 94 216 75c0 -1 1 -13 1 -13
c-73 18 -135 -81 -166 -135c-25 -42 -56 -122 -79 -213c65 6 120 23 146 59l10 -10c-28 -38 -88 -57 -160 -62c-52 -211 -59 -438 126 -434zM646 709c31 -2 56 -4 85 2c51 11 30 71 -11 49c-17 -9 -52 -30 -74 -51zM305 461c4 18 11 51 -8 50c-16 1 -17 -37 -17 -57l9 -32
c5 12 12 25 16 39zM828 873l-8 -17c-24 9 -55 53 -52 93c-24 -26 -43 -53 -67 -77l-11 12c27 33 54 63 78 96l15 -8c3 -3 45 -93 45 -99z" />
    <glyph glyph-name="H.alt3_stroke" horiz-adv-x="904" 
d="M646 709c31 -2 56 -4 85 2c51 11 30 71 -11 49c-17 -9 -52 -30 -74 -51zM305 461c4 18 11 51 -8 50c-16 1 -17 -37 -17 -57l9 -32c5 12 12 25 16 39zM858 -146l5 -5c-217 -41 -293 211 -235 437c-76 -1 -90 10 -157 28c-32 -118 -65 -232 -111 -295
c-82 -115 -294 -33 -183 108l9 -9c-76 -92 32 -174 85 -84c36 62 70 195 99 312c-41 14 -70 31 -82 48c-19 -23 -30 -37 -57 -49l-8 13c29 11 41 24 57 49c-5 15 -9 30 -11 48c-4 31 2 71 28 69c32 1 27 -45 19 -70c-4 -16 -12 -32 -20 -48c11 -16 39 -31 77 -45
c24 93 41 167 81 239c21 38 48 76 82 98l-36 4c-98 11 -218 45 -318 38c-73 -6 -136 -41 -164 -152c-19 -70 24 -171 104 -169v-13c-94 1 -137 108 -116 187c31 117 96 153 175 159c101 7 230 -27 332 -38c12 -2 24 -3 36 -4c26 25 154 59 169 64c61 21 84 -63 15 -76
c-28 -5 -68 -4 -99 -2c-34 -22 -54 -58 -72 -93c-26 -56 -48 -129 -69 -205h2c67 -18 83 -30 158 -28c32 94 73 176 111 217c50 57 145 94 216 75c0 -1 1 -13 1 -13c-73 18 -135 -81 -166 -135c-25 -42 -56 -122 -79 -213c65 6 120 23 146 59l10 -10
c-28 -38 -88 -57 -160 -62c-52 -211 -59 -438 126 -434zM490 384l-15 -56c67 -18 81 -30 157 -28c5 19 10 37 16 56c-74 -1 -91 10 -157 28h-1z" />
    <glyph glyph-name="H.alt4" horiz-adv-x="1029" 
d="M870 -229c-201 79 -140 360 -101 516c9 39 20 69 33 107c-85 -20 -138 -31 -233 -40c-32 -115 -70 -228 -152 -316c-92 -98 -252 -131 -346 -73c-68 41 -91 135 -51 243c27 72 127 153 203 146c21 -4 48 -12 64 -46c55 36 111 42 176 53l12 44c34 130 70 270 162 365
c-46 9 -78 25 -122 43c-114 45 -292 91 -362 -43c-81 -156 146 -167 134 -72l14 1c14 -123 -257 -101 -159 79c75 137 260 97 377 48c48 -20 84 -38 131 -44l14 12c37 31 151 72 205 55c16 -6 25 -15 24 -26c-1 -21 -36 -38 -49 -44c-37 -13 -72 -16 -107 -12
c-95 -93 -116 -221 -154 -359l-10 -40c88 10 149 19 235 42c20 57 45 123 83 171c48 66 135 85 209 89c49 0 86 -35 69 -82c-34 -97 -138 -143 -255 -175c-15 -42 -27 -84 -38 -123c-32 -124 -101 -505 77 -493l4 -6c-18 -19 -59 -31 -87 -20zM78 -23c56 -33 153 -24 246 73
c79 81 103 185 135 296c-65 -9 -116 -16 -165 -51c3 -7 6 -15 8 -25c5 -30 -10 -44 -24 -51c-14 -6 -32 -3 -39 8c-5 7 -12 24 13 53c7 7 17 14 24 21c-10 21 -30 37 -53 40c-65 5 -164 -66 -190 -139c-36 -100 -18 -188 45 -225zM1102 655c-75 3 -127 -91 -154 -148
c-8 -16 -25 -60 -29 -79c112 33 206 77 237 166c14 40 -20 61 -54 61zM754 782l-3 -3c29 -2 58 3 87 13c19 6 43 22 43 32c-1 3 -6 10 -16 13c-21 7 -88 -37 -111 -55zM283 286c-6 -4 -12 -8 -19 -15c-15 -14 -18 -27 -13 -35c4 -6 12 -7 23 -4c5 2 18 10 14 35
c-1 7 -4 13 -5 19z" />
    <glyph glyph-name="H.alt4_circumflex" horiz-adv-x="1029" 
d="M870 -229c-201 79 -140 360 -101 516c9 39 20 69 33 107c-85 -20 -138 -31 -233 -40c-32 -115 -70 -228 -152 -316c-92 -98 -252 -131 -346 -73c-68 41 -91 135 -51 243c27 72 127 153 203 146c21 -4 48 -12 64 -46c55 36 111 42 176 53l12 44c34 130 70 270 162 365
c-46 9 -78 25 -122 43c-114 45 -292 91 -362 -43c-81 -156 146 -167 134 -72l14 1c14 -123 -257 -101 -159 79c75 137 260 97 377 48c48 -20 84 -38 131 -44l14 12c37 31 151 72 205 55c16 -6 25 -15 24 -26c-1 -21 -36 -38 -49 -44c-37 -13 -72 -16 -107 -12
c-95 -93 -116 -221 -154 -359l-10 -40c88 10 149 19 235 42c20 57 45 123 83 171c48 66 135 85 209 89c49 0 86 -35 69 -82c-34 -97 -138 -143 -255 -175c-15 -42 -27 -84 -38 -123c-32 -124 -101 -505 77 -493l4 -6c-18 -19 -59 -31 -87 -20zM78 -23c56 -33 153 -24 246 73
c79 81 103 185 135 296c-65 -9 -116 -16 -165 -51c3 -7 6 -15 8 -25c5 -30 -10 -44 -24 -51c-14 -6 -32 -3 -39 8c-5 7 -12 24 13 53c7 7 17 14 24 21c-10 21 -30 37 -53 40c-65 5 -164 -66 -190 -139c-36 -100 -18 -188 45 -225zM1102 655c-75 3 -127 -91 -154 -148
c-8 -16 -25 -60 -29 -79c112 33 206 77 237 166c14 40 -20 61 -54 61zM754 782l-3 -3c29 -2 58 3 87 13c19 6 43 22 43 32c-1 3 -6 10 -16 13c-21 7 -88 -37 -111 -55zM283 286c-6 -4 -12 -8 -19 -15c-15 -14 -18 -27 -13 -35c4 -6 12 -7 23 -4c5 2 18 10 14 35
c-1 7 -4 13 -5 19zM893 936l-8 -17c-24 9 -55 53 -52 93c-24 -26 -43 -53 -67 -77l-11 12c27 33 54 63 78 96l15 -8c3 -3 45 -93 45 -99z" />
    <glyph glyph-name="H.alt4_stroke" horiz-adv-x="1029" 
d="M754 782l-3 -3c29 -2 58 3 87 13c19 6 43 22 43 32c-1 3 -6 10 -16 13c-21 7 -88 -37 -111 -55zM283 286c-6 -4 -12 -8 -19 -15c-15 -14 -18 -27 -13 -35c4 -6 12 -7 23 -4c5 2 18 10 14 35c-1 7 -4 13 -5 19zM870 -229c-201 79 -140 360 -101 516c9 39 20 69 33 107
c-85 -20 -138 -31 -233 -40c-32 -115 -70 -228 -152 -316c-92 -98 -252 -131 -346 -73c-68 41 -91 135 -51 243c27 72 127 153 203 146c21 -4 48 -12 64 -46c55 36 111 42 176 53l12 44c34 130 70 270 162 365c-46 9 -78 25 -122 43c-114 45 -292 91 -362 -43
c-81 -156 146 -167 134 -72l14 1c14 -123 -257 -101 -159 79c75 137 260 97 377 48c48 -20 84 -38 131 -44l14 12c37 31 151 72 205 55c16 -6 25 -15 24 -26c-1 -21 -36 -38 -49 -44c-37 -13 -72 -16 -107 -12c-86 -85 -111 -198 -144 -321c84 10 162 19 244 40
c14 34 32 67 54 95c48 66 135 85 209 89c49 0 86 -35 69 -82c-34 -97 -138 -143 -255 -175c-15 -42 -27 -84 -38 -123c-32 -124 -101 -505 77 -493l4 -6c-18 -19 -59 -31 -87 -20zM78 -23c56 -33 153 -24 246 73c79 81 103 185 135 296c-65 -9 -116 -16 -165 -51
c3 -7 6 -15 8 -25c5 -30 -10 -44 -24 -51c-14 -6 -32 -3 -39 8c-5 7 -12 24 13 53c7 7 17 14 24 21c-10 21 -30 37 -53 40c-65 5 -164 -66 -190 -139c-36 -100 -18 -188 45 -225zM1102 655c-75 3 -127 -91 -154 -148c-8 -16 -25 -60 -29 -79c112 33 206 77 237 166
c14 40 -20 61 -54 61zM590 432l-7 -24l-10 -40c88 10 149 19 235 42c7 19 14 40 22 60c-80 -18 -151 -29 -240 -38z" />
    <glyph glyph-name="H.alt5" horiz-adv-x="1633" 
d="M739 858c-61 -46 -81 -108 -59 -170c15 -39 52 -62 97 -64c52 -2 103 26 126 67l13 -4c-26 -49 -83 -78 -139 -76c-52 2 -91 29 -110 73c-26 68 0 137 65 186c245 169 474 -78 392 -373l-29 -111c74 -35 82 -46 170 -88c64 243 144 559 356 648l-2 -21
c-104 -67 -194 -438 -245 -653l-7 -28c32 -18 63 -34 88 -44c78 -33 123 -31 178 38v-21c-57 -64 -113 -59 -181 -31c-25 11 -51 23 -88 43c-31 -134 -57 -276 -49 -403c9 -159 39 -260 121 -284c96 -27 189 38 234 112c41 65 38 131 -3 180c-27 32 -71 41 -113 27
c-50 -16 -89 -58 -96 -106h-13c7 55 51 102 104 119c50 16 96 4 128 -32c47 -53 47 -128 3 -196c-80 -128 -196 -152 -317 -116c-51 15 -141 72 -150 296c-7 146 18 321 48 457c-47 16 -128 75 -170 89c-70 -255 -161 -542 -401 -620c-102 -38 -255 -6 -339 72
c-85 -54 -162 -68 -226 -41c-97 42 -118 106 -119 149c-4 101 97 225 229 290c6 117 36 212 93 267c66 65 166 100 248 83c60 -13 109 -51 129 -108c50 -147 -99 -425 -261 -567c-27 -25 -56 -47 -82 -65c353 -160 553 257 611 573c-47 14 -91 13 -138 -7l-2 13
c50 21 97 21 144 8c11 45 23 89 35 133c48 177 29 480 -273 306zM668 453c-25 68 -55 98 -95 106c-78 17 -174 -16 -236 -79c-53 -54 -82 -137 -88 -253c112 51 226 46 302 -16l-10 -10c-71 59 -181 63 -292 12c-1 -51 -7 -89 1 -151c12 -92 53 -179 101 -221
c26 17 57 41 83 65c179 159 279 423 234 547zM236 207c-91 -47 -223 -156 -217 -275c3 -58 41 -107 111 -136c60 -25 134 -11 210 37c-42 35 -89 122 -103 228c-8 59 -2 95 -1 146z" />
    <glyph glyph-name="H.alt5_circumflex" horiz-adv-x="1633" 
d="M739 858c-61 -46 -81 -108 -59 -170c15 -39 52 -62 97 -64c52 -2 103 26 126 67l13 -4c-26 -49 -83 -78 -139 -76c-52 2 -91 29 -110 73c-26 68 0 137 65 186c245 169 474 -78 392 -373l-29 -111c74 -35 82 -46 170 -88c64 243 144 559 356 648l-2 -21
c-104 -67 -194 -438 -245 -653l-7 -28c32 -18 63 -34 88 -44c78 -33 123 -31 178 38v-21c-57 -64 -113 -59 -181 -31c-25 11 -51 23 -88 43c-31 -134 -57 -276 -49 -403c9 -159 39 -260 121 -284c96 -27 189 38 234 112c41 65 38 131 -3 180c-27 32 -71 41 -113 27
c-50 -16 -89 -58 -96 -106h-13c7 55 51 102 104 119c50 16 96 4 128 -32c47 -53 47 -128 3 -196c-80 -128 -196 -152 -317 -116c-51 15 -141 72 -150 296c-7 146 18 321 48 457c-47 16 -128 75 -170 89c-70 -255 -161 -542 -401 -620c-102 -38 -255 -6 -339 72
c-85 -54 -162 -68 -226 -41c-97 42 -118 106 -119 149c-4 101 97 225 229 290c6 117 36 212 93 267c66 65 166 100 248 83c60 -13 109 -51 129 -108c50 -147 -99 -425 -261 -567c-27 -25 -56 -47 -82 -65c353 -160 553 257 611 573c-47 14 -91 13 -138 -7l-2 13
c50 21 97 21 144 8c11 45 23 89 35 133c48 177 29 480 -273 306zM668 453c-25 68 -55 98 -95 106c-78 17 -174 -16 -236 -79c-53 -54 -82 -137 -88 -253c112 51 226 46 302 -16l-10 -10c-71 59 -181 63 -292 12c-1 -51 -7 -89 1 -151c12 -92 53 -179 101 -221
c26 17 57 41 83 65c179 159 279 423 234 547zM236 207c-91 -47 -223 -156 -217 -275c3 -58 41 -107 111 -136c60 -25 134 -11 210 37c-42 35 -89 122 -103 228c-8 59 -2 95 -1 146zM1375 968l-8 -17c-24 9 -55 53 -52 93c-24 -26 -43 -53 -67 -77l-11 12c27 33 54 63 78 96
l15 -8c3 -3 45 -93 45 -99z" />
    <glyph glyph-name="H.alt5_stroke" horiz-adv-x="1633" 
d="M739 858c-61 -46 -81 -108 -59 -170c15 -39 52 -62 97 -64c52 -2 103 26 126 67l13 -4c-26 -49 -83 -78 -139 -76c-52 2 -91 29 -110 73c-26 68 0 137 65 186c240 165 464 -68 396 -355l29 -17c23 -14 79 -51 139 -84c60 219 145 456 325 532l-2 -21
c-104 -67 -194 -438 -245 -653l-7 -28c32 -18 63 -34 88 -44c78 -33 123 -31 178 38v-21c-57 -64 -113 -59 -181 -31c-25 11 -51 23 -88 43c-31 -134 -57 -276 -49 -403c9 -159 39 -260 121 -284c96 -27 189 38 234 112c41 65 38 131 -3 180c-27 32 -71 41 -113 27
c-50 -16 -89 -58 -96 -106h-13c7 55 51 102 104 119c50 16 96 4 128 -32c47 -53 47 -128 3 -196c-80 -128 -196 -152 -317 -116c-51 15 -141 72 -150 296c-7 146 18 321 48 457c-47 16 -128 75 -170 89c-70 -255 -161 -542 -401 -620c-102 -38 -255 -6 -339 72
c-85 -54 -162 -68 -226 -41c-97 42 -118 106 -119 149c-4 101 97 225 229 290c6 117 36 212 93 267c66 65 166 100 248 83c60 -13 109 -51 129 -108c50 -147 -99 -425 -261 -567c-27 -25 -56 -47 -82 -65c353 -160 553 257 611 573c-47 14 -91 13 -138 -7l-2 13
c50 21 97 21 144 8c40 185 137 634 -238 439zM668 453c-25 68 -55 98 -95 106c-78 17 -174 -16 -236 -79c-53 -54 -82 -137 -88 -253c112 51 226 46 302 -16l-10 -10c-71 59 -181 63 -292 12c-1 -51 -7 -89 1 -151c12 -92 53 -179 101 -221c26 17 57 41 83 65
c179 159 279 423 234 547zM236 207c-91 -47 -223 -156 -217 -275c3 -58 41 -107 111 -136c60 -25 134 -11 210 37c-42 35 -89 122 -103 228c-8 59 -2 95 -1 146zM1183 466l-58 34c-1 -1 -1 -2 -1 -3l-29 -111c74 -35 82 -46 170 -88c8 32 17 67 27 101
c-25 14 -58 34 -109 67z" />
    <glyph glyph-name="H_circumflex" unicode="&#x124;" horiz-adv-x="936" 
d="M371 390c-44 10 -83 23 -108 42l4 14c25 -19 63 -34 107 -44c21 79 45 137 79 198c22 38 49 76 82 98l-36 4c-98 11 -218 45 -317 38c-74 -6 -137 -41 -164 -152c-20 -70 24 -171 103 -169v-13c-94 1 -137 108 -115 187c31 117 96 153 174 159c102 7 230 -27 332 -38
c12 -2 24 -3 36 -4c26 25 154 59 170 64c60 21 83 -63 14 -76c-28 -5 -68 -4 -99 -2c-33 -22 -54 -58 -72 -93c-29 -61 -52 -143 -75 -228c93 -15 172 -14 242 4c32 107 127 333 225 367c32 14 95 10 123 -22c36 -53 -7 -124 -36 -168c-49 -76 -122 -142 -202 -177
c-29 -96 -129 -451 -22 -496c-190 35 -119 374 -93 478c0 1 0 2 1 4c-69 -16 -147 -17 -241 -3c-36 -134 -72 -272 -123 -343c-44 -67 -96 -112 -159 -117l4 10c87 108 117 285 166 478zM1030 565c26 40 66 101 36 149c-13 20 -30 24 -43 19c-91 -38 -157 -260 -180 -338
c76 38 142 98 187 170zM645 709c31 -2 57 -4 86 2c50 11 29 71 -11 49c-18 -9 -52 -30 -75 -51zM840 879l-8 -17c-24 9 -55 53 -52 93c-24 -26 -43 -53 -67 -77l-11 12c27 33 54 63 78 96l15 -8c3 -3 45 -93 45 -99z" />
    <glyph glyph-name="H_stroke" unicode="&#x126;" horiz-adv-x="989" 
d="M645 709c31 -2 57 -4 86 2c50 11 29 71 -11 49c-18 -9 -52 -30 -75 -51zM371 390c-44 10 -83 23 -108 42l4 14c25 -19 63 -34 107 -44c7 28 15 54 24 78c-43 10 -81 23 -105 42l4 14c24 -19 62 -34 105 -44c15 38 31 72 51 108c22 38 49 76 82 98l-36 4
c-98 11 -218 45 -317 38c-74 -6 -137 -41 -164 -152c-20 -70 24 -171 103 -169v-13c-94 1 -137 108 -115 187c31 117 96 153 174 159c102 7 230 -27 332 -38c12 -2 24 -3 36 -4c26 25 154 59 170 64c60 21 83 -63 14 -76c-28 -5 -68 -4 -99 -2c-33 -22 -54 -58 -72 -93
c-19 -39 -35 -86 -50 -137c92 -15 179 -15 248 2c45 112 118 252 194 278c32 14 95 10 123 -22c36 -53 -7 -124 -36 -168c-49 -76 -122 -142 -202 -177c-29 -96 -129 -451 -22 -496c-190 35 -119 374 -93 478c0 1 0 2 1 4c-69 -16 -147 -17 -241 -3
c-36 -134 -72 -272 -123 -343c-44 -67 -96 -112 -159 -117l4 10c87 108 117 285 166 478zM1030 565c26 40 66 101 36 149c-13 20 -30 24 -43 19c-91 -38 -157 -260 -180 -338c76 38 142 98 187 170zM507 453l-21 -78c93 -15 172 -14 242 4c6 21 15 47 26 75
c-69 -15 -154 -15 -247 -1z" />
    <glyph glyph-name="I" unicode="I" horiz-adv-x="622" 
d="M16 26c-15 19 -28 60 6 112l12 -7c-25 -37 -28 -72 -7 -97c33 -43 103 -55 155 -33c170 69 185 275 233 431c28 92 64 173 102 248c-53 -16 -117 -29 -179 -40c-134 -24 -329 -34 -309 -232c7 -73 81 -153 156 -124l5 -13c-89 -29 -166 55 -174 137
c-18 206 173 218 319 245c66 12 134 25 188 43c35 64 158 130 186 94c33 -43 -39 -82 -98 -104c-40 -76 -50 -164 -79 -257c-52 -170 -93 -364 -263 -438c-63 -28 -207 -23 -253 35zM619 703c44 19 102 51 82 76c-25 33 -66 -48 -82 -76z" />
    <glyph glyph-name="I.alt1" horiz-adv-x="600" 
d="M86 -126l-12 9c20 20 43 55 58 91c-34 12 -67 29 -91 56c-131 152 97 166 117 20c4 -22 0 -45 -8 -68c290 -44 48 533 472 759c-49 -15 -107 -26 -163 -35c-133 -24 -341 -59 -321 -258c7 -72 81 -152 156 -123l4 -13c-88 -30 -165 54 -173 137c-19 205 185 243 332 269
c65 13 133 26 188 44l9 -9c-160 -138 -144 -273 -194 -465c-24 -91 -82 -244 -180 -302c-38 -22 -87 -26 -134 -16c-16 -39 -42 -73 -60 -96zM52 38c22 -24 52 -43 86 -52c6 21 10 42 8 64c-13 120 -214 120 -94 -12z" />
    <glyph glyph-name="I.alt1_acute" horiz-adv-x="600" 
d="M86 -126l-12 9c20 20 43 55 58 91c-34 12 -67 29 -91 56c-131 152 97 166 117 20c4 -22 0 -45 -8 -68c290 -44 48 533 472 759c-49 -15 -107 -26 -163 -35c-133 -24 -341 -59 -321 -258c7 -72 81 -152 156 -123l4 -13c-88 -30 -165 54 -173 137c-19 205 185 243 332 269
c65 13 133 26 188 44l9 -9c-160 -138 -144 -273 -194 -465c-24 -91 -82 -244 -180 -302c-38 -22 -87 -26 -134 -16c-16 -39 -42 -73 -60 -96zM52 38c22 -24 52 -43 86 -52c6 21 10 42 8 64c-13 120 -214 120 -94 -12zM402 822c-1 6 65 98 71 104c0 1 12 -2 12 -1
c-6 -10 -25 -97 -28 -104c-5 0 -52 1 -55 1z" />
    <glyph glyph-name="I.alt1_breve" horiz-adv-x="600" 
d="M86 -126l-12 9c20 20 43 55 58 91c-34 12 -67 29 -91 56c-131 152 97 166 117 20c4 -22 0 -45 -8 -68c290 -44 48 533 472 759c-49 -15 -107 -26 -163 -35c-133 -24 -341 -59 -321 -258c7 -72 81 -152 156 -123l4 -13c-88 -30 -165 54 -173 137c-19 205 185 243 332 269
c65 13 133 26 188 44l9 -9c-160 -138 -144 -273 -194 -465c-24 -91 -82 -244 -180 -302c-38 -22 -87 -26 -134 -16c-16 -39 -42 -73 -60 -96zM52 38c22 -24 52 -43 86 -52c6 21 10 42 8 64c-13 120 -214 120 -94 -12zM338 915l22 14c54 -56 80 -88 124 -14l20 -14
c-56 -106 -164 -72 -166 14z" />
    <glyph glyph-name="I.alt1_circumflex" horiz-adv-x="600" 
d="M86 -126l-12 9c20 20 43 55 58 91c-34 12 -67 29 -91 56c-131 152 97 166 117 20c4 -22 0 -45 -8 -68c290 -44 48 533 472 759c-49 -15 -107 -26 -163 -35c-133 -24 -341 -59 -321 -258c7 -72 81 -152 156 -123l4 -13c-88 -30 -165 54 -173 137c-19 205 185 243 332 269
c65 13 133 26 188 44l9 -9c-160 -138 -144 -273 -194 -465c-24 -91 -82 -244 -180 -302c-38 -22 -87 -26 -134 -16c-16 -39 -42 -73 -60 -96zM52 38c22 -24 52 -43 86 -52c6 21 10 42 8 64c-13 120 -214 120 -94 -12zM441 835l-8 -17c-24 9 -55 53 -52 93
c-24 -26 -43 -53 -67 -77l-11 12c27 33 54 63 78 96l15 -8c3 -3 45 -93 45 -99z" />
    <glyph glyph-name="I.alt1_dieresis" horiz-adv-x="600" 
d="M86 -126c18 23 44 57 60 96c47 -10 96 -6 134 16c98 58 156 211 180 302c50 192 34 327 194 465l-9 9c-55 -18 -123 -31 -188 -44c-147 -26 -351 -64 -332 -269c8 -83 85 -167 173 -137l-4 13c-75 -29 -149 51 -156 123c-20 199 188 234 321 258c56 9 114 20 163 35
c-424 -226 -182 -803 -472 -759c8 23 12 46 8 68c-20 146 -248 132 -117 -20c24 -27 57 -44 91 -56c-15 -36 -38 -71 -58 -91zM52 38c-120 132 81 132 94 12c2 -22 -2 -43 -8 -64c-34 9 -64 28 -86 52zM290 878c0 16 9 29 25 29c15 0 26 -13 26 -29c0 -15 -11 -30 -26 -30
c-16 0 -25 15 -25 30zM455 867c0 16 11 29 26 29c14 0 26 -13 26 -29c0 -17 -12 -30 -26 -30c-15 0 -26 13 -26 30z" />
    <glyph glyph-name="I.alt1_dotaccent" horiz-adv-x="600" 
d="M86 -126c18 23 44 57 60 96c47 -10 96 -6 134 16c98 58 156 211 180 302c50 192 34 327 194 465l-9 9c-55 -18 -123 -31 -188 -44c-147 -26 -351 -64 -332 -269c8 -83 85 -167 173 -137l-4 13c-75 -29 -149 51 -156 123c-20 199 188 234 321 258c56 9 114 20 163 35
c-424 -226 -182 -803 -472 -759c8 23 12 46 8 68c-20 146 -248 132 -117 -20c24 -27 57 -44 91 -56c-15 -36 -38 -71 -58 -91zM52 38c-120 132 81 132 94 12c2 -22 -2 -43 -8 -64c-34 9 -64 28 -86 52zM367 848c0 16 11 29 26 29c14 0 26 -13 26 -29c0 -17 -12 -30 -26 -30
c-15 0 -26 13 -26 30z" />
    <glyph glyph-name="I.alt1_grave" horiz-adv-x="600" 
d="M86 -126l-12 9c20 20 43 55 58 91c-34 12 -67 29 -91 56c-131 152 97 166 117 20c4 -22 0 -45 -8 -68c290 -44 48 533 472 759c-49 -15 -107 -26 -163 -35c-133 -24 -341 -59 -321 -258c7 -72 81 -152 156 -123l4 -13c-88 -30 -165 54 -173 137c-19 205 185 243 332 269
c65 13 133 26 188 44l9 -9c-160 -138 -144 -273 -194 -465c-24 -91 -82 -244 -180 -302c-38 -22 -87 -26 -134 -16c-16 -39 -42 -73 -60 -96zM52 38c22 -24 52 -43 86 -52c6 21 10 42 8 64c-13 120 -214 120 -94 -12zM458 830c-3 0 -50 -1 -55 -1c-3 7 -22 94 -28 104l12 1
c6 -6 72 -98 71 -104z" />
    <glyph glyph-name="I.alt1_macron" horiz-adv-x="600" 
d="M86 -126l-12 9c20 20 43 55 58 91c-34 12 -67 29 -91 56c-131 152 97 166 117 20c4 -22 0 -45 -8 -68c290 -44 48 533 472 759c-49 -15 -107 -26 -163 -35c-133 -24 -341 -59 -321 -258c7 -72 81 -152 156 -123l4 -13c-88 -30 -165 54 -173 137c-19 205 185 243 332 269
c65 13 133 26 188 44l9 -9c-160 -138 -144 -273 -194 -465c-24 -91 -82 -244 -180 -302c-38 -22 -87 -26 -134 -16c-16 -39 -42 -73 -60 -96zM52 38c22 -24 52 -43 86 -52c6 21 10 42 8 64c-13 120 -214 120 -94 -12zM691 887l-1 -22l-153 15v23z" />
    <glyph glyph-name="I.alt1_ogonek" horiz-adv-x="600" 
d="M52 38c22 -24 52 -43 86 -52c6 21 10 42 8 64c-13 120 -214 120 -94 -12zM240 -31v1c-30 -7 -63 -7 -94 0c-16 -39 -42 -73 -60 -96l-12 9c20 20 43 55 58 91c-34 12 -67 29 -91 56c-131 152 97 166 117 20c4 -22 0 -45 -8 -68c290 -44 48 533 472 759
c-49 -15 -107 -26 -163 -35c-133 -24 -341 -59 -321 -258c7 -72 81 -152 156 -123l4 -13c-88 -30 -165 54 -173 137c-19 205 185 243 332 269c65 13 133 26 188 44l9 -9c-160 -138 -144 -273 -194 -465c-24 -91 -82 -244 -180 -302c-6 -3 -11 -6 -17 -8c-2 -4 -4 -8 -4 -11
c-7 -34 32 -113 74 -90l3 -13c-80 -49 -102 77 -96 105z" />
    <glyph glyph-name="I.alt1_tilde" horiz-adv-x="600" 
d="M86 -126l-12 9c20 20 43 55 58 91c-34 12 -67 29 -91 56c-131 152 97 166 117 20c4 -22 0 -45 -8 -68c290 -44 48 533 472 759c-49 -15 -107 -26 -163 -35c-133 -24 -341 -59 -321 -258c7 -72 81 -152 156 -123l4 -13c-88 -30 -165 54 -173 137c-19 205 185 243 332 269
c65 13 133 26 188 44l9 -9c-160 -138 -144 -273 -194 -465c-24 -91 -82 -244 -180 -302c-38 -22 -87 -26 -134 -16c-16 -39 -42 -73 -60 -96zM52 38c22 -24 52 -43 86 -52c6 21 10 42 8 64c-13 120 -214 120 -94 -12zM484 834c-44 -12 -84 8 -102 26c-26 20 -38 46 -70 40
c-20 -4 -42 -20 -66 -50l-16 8c24 32 56 52 84 56c28 8 80 0 106 -22c42 -32 70 -64 116 -12l12 -14c-14 -16 -50 -32 -64 -32z" />
    <glyph glyph-name="I.alt2" horiz-adv-x="1178" 
d="M1004 975c132 -28 179 -222 120 -428c-86 -301 -147 -644 -434 -745c-93 -30 -262 -46 -339 22c-85 -54 -162 -68 -226 -41c-97 42 -118 106 -119 149c-4 101 97 225 229 290c6 117 36 212 93 267c66 65 166 100 248 83c60 -13 109 -51 129 -108
c50 -147 -99 -425 -261 -567c-27 -25 -56 -47 -82 -65c18 -14 37 -24 58 -31c288 -91 488 305 536 538c-295 33 -142 677 48 636zM481 558c-53 -11 -105 -38 -144 -78c-53 -54 -82 -137 -88 -253c112 51 226 46 302 -16l-10 -10c-71 59 -181 63 -292 12
c-1 -51 3 -109 11 -171c12 -92 43 -159 91 -201c26 17 57 41 83 65c166 148 290 698 47 652zM959 353l53 199c33 123 115 389 -15 412c-159 28 -318 -586 -38 -611zM236 207c-91 -47 -223 -156 -217 -275c3 -58 41 -107 111 -136c60 -25 134 -11 210 37
c-42 35 -79 102 -93 208c-8 59 -12 115 -11 166z" />
    <glyph glyph-name="I.alt2_acute" horiz-adv-x="1148" 
d="M1004 975c132 -28 179 -222 120 -428c-86 -301 -147 -644 -434 -745c-93 -30 -262 -46 -339 22c-85 -54 -162 -68 -226 -41c-97 42 -118 106 -119 149c-4 101 97 225 229 290c6 117 36 212 93 267c66 65 166 100 248 83c60 -13 109 -51 129 -108
c50 -147 -99 -425 -261 -567c-27 -25 -56 -47 -82 -65c18 -14 37 -24 58 -31c288 -91 488 305 536 538c-295 33 -142 677 48 636zM481 558c-53 -11 -105 -38 -144 -78c-53 -54 -82 -137 -88 -253c112 51 226 46 302 -16l-10 -10c-71 59 -181 63 -292 12
c-1 -51 3 -109 11 -171c12 -92 43 -159 91 -201c26 17 57 41 83 65c166 148 290 698 47 652zM959 353l53 199c33 123 115 389 -15 412c-159 28 -318 -586 -38 -611zM236 207c-91 -47 -223 -156 -217 -275c3 -58 41 -107 111 -136c60 -25 134 -11 210 37
c-42 35 -79 102 -93 208c-8 59 -12 115 -11 166zM985 1057c-1 6 65 98 71 104c0 1 12 -2 12 -1c-6 -10 -25 -97 -28 -104c-5 0 -52 1 -55 1z" />
    <glyph glyph-name="I.alt2_breve" horiz-adv-x="1148" 
d="M1004 975c132 -28 179 -222 120 -428c-86 -301 -147 -644 -434 -745c-93 -30 -262 -46 -339 22c-85 -54 -162 -68 -226 -41c-97 42 -118 106 -119 149c-4 101 97 225 229 290c6 117 36 212 93 267c66 65 166 100 248 83c60 -13 109 -51 129 -108
c50 -147 -99 -425 -261 -567c-27 -25 -56 -47 -82 -65c18 -14 37 -24 58 -31c288 -91 488 305 536 538c-295 33 -142 677 48 636zM481 558c-53 -11 -105 -38 -144 -78c-53 -54 -82 -137 -88 -253c112 51 226 46 302 -16l-10 -10c-71 59 -181 63 -292 12
c-1 -51 3 -109 11 -171c12 -92 43 -159 91 -201c26 17 57 41 83 65c166 148 290 698 47 652zM959 353l53 199c33 123 115 389 -15 412c-159 28 -318 -586 -38 -611zM236 207c-91 -47 -223 -156 -217 -275c3 -58 41 -107 111 -136c60 -25 134 -11 210 37
c-42 35 -79 102 -93 208c-8 59 -12 115 -11 166zM905 1140l22 14c54 -56 80 -88 124 -14l20 -14c-56 -106 -164 -72 -166 14z" />
    <glyph glyph-name="I.alt2_circumflex" horiz-adv-x="1148" 
d="M1004 975c132 -28 179 -222 120 -428c-86 -301 -147 -644 -434 -745c-93 -30 -262 -46 -339 22c-85 -54 -162 -68 -226 -41c-97 42 -118 106 -119 149c-4 101 97 225 229 290c6 117 36 212 93 267c66 65 166 100 248 83c60 -13 109 -51 129 -108
c50 -147 -99 -425 -261 -567c-27 -25 -56 -47 -82 -65c18 -14 37 -24 58 -31c288 -91 488 305 536 538c-295 33 -142 677 48 636zM481 558c-53 -11 -105 -38 -144 -78c-53 -54 -82 -137 -88 -253c112 51 226 46 302 -16l-10 -10c-71 59 -181 63 -292 12
c-1 -51 3 -109 11 -171c12 -92 43 -159 91 -201c26 17 57 41 83 65c166 148 290 698 47 652zM959 353l53 199c33 123 115 389 -15 412c-159 28 -318 -586 -38 -611zM236 207c-91 -47 -223 -156 -217 -275c3 -58 41 -107 111 -136c60 -25 134 -11 210 37
c-42 35 -79 102 -93 208c-8 59 -12 115 -11 166zM1081 1046l-8 -17c-24 9 -55 53 -52 93c-24 -26 -43 -53 -67 -77l-11 12c27 33 54 63 78 96l15 -8c3 -3 45 -93 45 -99z" />
    <glyph glyph-name="I.alt2_dieresis" horiz-adv-x="1148" 
d="M1004 975c-190 41 -343 -603 -48 -636c-48 -233 -248 -629 -536 -538c-21 7 -40 17 -58 31c26 18 55 40 82 65c162 142 311 420 261 567c-20 57 -69 95 -129 108c-82 17 -182 -18 -248 -83c-57 -55 -87 -150 -93 -267c-132 -65 -233 -189 -229 -290
c1 -43 22 -107 119 -149c64 -27 141 -13 226 41c77 -68 246 -52 339 -22c287 101 348 444 434 745c59 206 12 400 -120 428zM481 558c243 46 119 -504 -47 -652c-26 -24 -57 -48 -83 -65c-48 42 -79 109 -91 201c-8 62 -12 120 -11 171c111 51 221 47 292 -12l10 10
c-76 62 -190 67 -302 16c6 116 35 199 88 253c39 40 91 67 144 78zM1012 552l-53 -199c-280 25 -121 639 38 611c130 -23 48 -289 15 -412zM236 207c-1 -51 3 -107 11 -166c14 -106 51 -173 93 -208c-76 -48 -150 -62 -210 -37c-70 29 -108 78 -111 136
c-6 119 126 228 217 275zM905 1090c0 16 9 29 25 29c15 0 26 -13 26 -29c0 -15 -11 -30 -26 -30c-16 0 -25 15 -25 30zM1070 1079c0 16 11 29 26 29c14 0 26 -13 26 -29c0 -17 -12 -30 -26 -30c-15 0 -26 13 -26 30z" />
    <glyph glyph-name="I.alt2_dotaccent" horiz-adv-x="1148" 
d="M1004 975c-190 41 -343 -603 -48 -636c-48 -233 -248 -629 -536 -538c-21 7 -40 17 -58 31c26 18 55 40 82 65c162 142 311 420 261 567c-20 57 -69 95 -129 108c-82 17 -182 -18 -248 -83c-57 -55 -87 -150 -93 -267c-132 -65 -233 -189 -229 -290
c1 -43 22 -107 119 -149c64 -27 141 -13 226 41c77 -68 246 -52 339 -22c287 101 348 444 434 745c59 206 12 400 -120 428zM481 558c243 46 119 -504 -47 -652c-26 -24 -57 -48 -83 -65c-48 42 -79 109 -91 201c-8 62 -12 120 -11 171c111 51 221 47 292 -12l10 10
c-76 62 -190 67 -302 16c6 116 35 199 88 253c39 40 91 67 144 78zM1012 552l-53 -199c-280 25 -121 639 38 611c130 -23 48 -289 15 -412zM236 207c-1 -51 3 -107 11 -166c14 -106 51 -173 93 -208c-76 -48 -150 -62 -210 -37c-70 29 -108 78 -111 136
c-6 119 126 228 217 275zM970 1099c0 16 11 29 26 29c14 0 26 -13 26 -29c0 -17 -12 -30 -26 -30c-15 0 -26 13 -26 30z" />
    <glyph glyph-name="I.alt2_grave" horiz-adv-x="1148" 
d="M1004 975c132 -28 179 -222 120 -428c-86 -301 -147 -644 -434 -745c-93 -30 -262 -46 -339 22c-85 -54 -162 -68 -226 -41c-97 42 -118 106 -119 149c-4 101 97 225 229 290c6 117 36 212 93 267c66 65 166 100 248 83c60 -13 109 -51 129 -108
c50 -147 -99 -425 -261 -567c-27 -25 -56 -47 -82 -65c18 -14 37 -24 58 -31c288 -91 488 305 536 538c-295 33 -142 677 48 636zM481 558c-53 -11 -105 -38 -144 -78c-53 -54 -82 -137 -88 -253c112 51 226 46 302 -16l-10 -10c-71 59 -181 63 -292 12
c-1 -51 3 -109 11 -171c12 -92 43 -159 91 -201c26 17 57 41 83 65c166 148 290 698 47 652zM959 353l53 199c33 123 115 389 -15 412c-159 28 -318 -586 -38 -611zM236 207c-91 -47 -223 -156 -217 -275c3 -58 41 -107 111 -136c60 -25 134 -11 210 37
c-42 35 -79 102 -93 208c-8 59 -12 115 -11 166zM1016 1061c-3 0 -50 -1 -55 -1c-3 7 -22 94 -28 104l12 1c6 -6 72 -98 71 -104z" />
    <glyph glyph-name="I.alt2_macron" horiz-adv-x="1148" 
d="M1004 975c132 -28 179 -222 120 -428c-86 -301 -147 -644 -434 -745c-93 -30 -262 -46 -339 22c-85 -54 -162 -68 -226 -41c-97 42 -118 106 -119 149c-4 101 97 225 229 290c6 117 36 212 93 267c66 65 166 100 248 83c60 -13 109 -51 129 -108
c50 -147 -99 -425 -261 -567c-27 -25 -56 -47 -82 -65c18 -14 37 -24 58 -31c288 -91 488 305 536 538c-295 33 -142 677 48 636zM481 558c-53 -11 -105 -38 -144 -78c-53 -54 -82 -137 -88 -253c112 51 226 46 302 -16l-10 -10c-71 59 -181 63 -292 12
c-1 -51 3 -109 11 -171c12 -92 43 -159 91 -201c26 17 57 41 83 65c166 148 290 698 47 652zM959 353l53 199c33 123 115 389 -15 412c-159 28 -318 -586 -38 -611zM236 207c-91 -47 -223 -156 -217 -275c3 -58 41 -107 111 -136c60 -25 134 -11 210 37
c-42 35 -79 102 -93 208c-8 59 -12 115 -11 166zM1084 1099l-1 -22l-153 15v23z" />
    </font>
</defs>
</svg>
