<?xml version="1.0" standalone="no"?>
<!DOCTYPE svg PUBLIC "-//W3C//DTD SVG 1.1//EN" "http://www.w3.org/Graphics/SVG/1.1/DTD/svg11.dtd" >
<svg xmlns="http://www.w3.org/2000/svg" width="100%" height="100%">
<metadata>
Created by FontXChange 20110222 at Thu May 31 00:07:02 2018
 By Suzi Rubino
 The digitally encoded machine readable software for producing the Typefaces licensed to you is copyrighted (c) 1989 Adobe Systems. All Rights Reserved. This software is the property of Adobe Systems Incorporated and its licensors, and may not be reproduced, used,  displayed, modified, disclosed or transferred without the express  written approval of Adobe.  The digitally encoded machine readable outline data for producing the Typefaces licensed to you is copyrighted (c) 1981 Linotype AG and/or its subsidiaries. All Rights Reserved. This data is the property of Linotype AG and/or its subsidiaries and may not be reproduced, used, displayed, modified, disclosed or  transferred without the express written approval of Linotype AG  and/or its subsidiaries. 
</metadata>
<defs>
<font id="AkzidenzGrotesk-Black" horiz-adv-x="556" >
  <font-face 
    font-family="AkzidenzGrotesk"
    font-weight="900"
    font-stretch="normal"
    units-per-em="1000"
    panose-1="2 0 10 3 0 0 0 0 0 0"
    ascent="800"
    descent="-200"
    x-height="532"
    cap-height="712"
    bbox="-168 -234 1105 956"
    underline-thickness="50"
    underline-position="-100"
    unicode-range="U+0020-FB02"
  />
    <missing-glyph />
    <glyph glyph-name="A" unicode="A" horiz-adv-x="722" 
d="M3 0l263 712h184l269 -712h-191l-36 112h-263l-36 -112h-190zM271 244h178l-88 294h-2z" />
    <glyph glyph-name="AE" unicode="&#xc6;" horiz-adv-x="1130" 
d="M-17 0l418 712h669v-138h-366v-130h342v-138h-342v-168h401v-138h-578v174h-251l-94 -174h-199zM351 306h175v310h-2z" />
    <glyph glyph-name="Aacute" unicode="&#xc1;" horiz-adv-x="722" 
d="M3 0l263 712h184l269 -712h-191l-36 112h-263l-36 -112h-190zM271 244h178l-88 294h-2zM266 763l99 150h181l-160 -150h-120z" />
    <glyph glyph-name="Acircumflex" unicode="&#xc2;" horiz-adv-x="722" 
d="M3 0l263 712h184l269 -712h-191l-36 112h-263l-36 -112h-190zM271 244h178l-88 294h-2zM284 922h153l115 -150h-131l-61 82l-62 -82h-128z" />
    <glyph glyph-name="Adieresis" unicode="&#xc4;" horiz-adv-x="722" 
d="M3 0l263 712h184l269 -712h-191l-36 112h-263l-36 -112h-190zM271 244h178l-88 294h-2zM542 782h-150v126h150v-126zM330 782h-150v126h150v-126z" />
    <glyph glyph-name="Agrave" unicode="&#xc0;" horiz-adv-x="722" 
d="M3 0l263 712h184l269 -712h-191l-36 112h-263l-36 -112h-190zM271 244h178l-88 294h-2zM357 913l99 -150h-120l-160 150h181z" />
    <glyph glyph-name="Aring" unicode="&#xc5;" horiz-adv-x="722" 
d="M3 0l263 712h184l269 -712h-191l-36 112h-263l-36 -112h-190zM271 244h178l-88 294h-2zM473 844c0 -62 -51 -112 -112 -112s-112 51 -112 112s51 112 112 112s112 -50 112 -112zM413 844c0 28 -24 52 -52 52s-52 -25 -52 -52s24 -52 52 -52s52 24 52 52z" />
    <glyph glyph-name="Atilde" unicode="&#xc3;" horiz-adv-x="722" 
d="M3 0l263 712h184l269 -712h-191l-36 112h-263l-36 -112h-190zM271 244h178l-88 294h-2zM243 769h-71c8 62 50 132 121 132c51 0 113 -40 144 -40c24 0 38 18 43 40h70c-4 -49 -30 -127 -119 -127c-67 0 -106 37 -144 37c-24 0 -40 -22 -44 -42z" />
    <glyph glyph-name="B" unicode="B" horiz-adv-x="722" 
d="M69 0v712h348c144 0 241 -50 241 -183c0 -91 -52 -139 -149 -161v-2c97 -7 175 -58 175 -163c0 -147 -110 -203 -291 -203h-324zM241 300v-168h145c94 0 120 37 120 83c0 59 -22 85 -88 85h-177zM239 580v-148h148c57 0 93 22 93 74c0 60 -34 74 -93 74h-148z" />
    <glyph glyph-name="C" unicode="C" horiz-adv-x="704" 
d="M682 546l-142 -71c-25 66 -86 107 -148 107c-98 0 -176 -66 -176 -226c0 -104 42 -226 182 -226c48 0 118 36 146 100l141 -68c-61 -111 -167 -182 -287 -182c-227 0 -360 176 -360 376s124 376 346 376c140 0 232 -68 298 -186z" />
    <glyph glyph-name="Ccedilla" unicode="&#xc7;" horiz-adv-x="704" 
d="M682 546l-142 -71c-25 66 -86 107 -148 107c-98 0 -176 -66 -176 -226c0 -104 42 -226 182 -226c48 0 118 36 146 100l141 -68c-61 -111 -167 -182 -287 -182c-227 0 -360 176 -360 376s124 376 346 376c140 0 232 -68 298 -186zM371 -5h56l-41 -62c10 2 21 4 36 4
c43 0 92 -23 92 -75c0 -48 -36 -96 -128 -96c-38 0 -87 11 -119 26l21 45c19 -10 53 -19 81 -19c34 0 52 13 52 39c0 24 -17 34 -44 34c-13 0 -29 -1 -41 -6l-21 18z" />
    <glyph glyph-name="D" unicode="D" horiz-adv-x="741" 
d="M64 0v712h276c217 0 363 -103 363 -356s-146 -356 -363 -356h-276zM242 562v-412h102c133 0 181 91 181 206s-48 206 -182 206h-101z" />
    <glyph glyph-name="E" unicode="E" horiz-adv-x="648" 
d="M623 0h-554v712h524v-138h-346v-130h323v-138h-323v-168h376v-138z" />
    <glyph glyph-name="Eacute" unicode="&#xc9;" horiz-adv-x="648" 
d="M623 0h-554v712h524v-138h-346v-130h323v-138h-323v-168h376v-138zM256 763l99 150h181l-160 -150h-120z" />
    <glyph glyph-name="Ecircumflex" unicode="&#xca;" horiz-adv-x="648" 
d="M623 0h-554v712h524v-138h-346v-130h323v-138h-323v-168h376v-138zM247 913h153l115 -150h-131l-61 82l-62 -82h-128z" />
    <glyph glyph-name="Edieresis" unicode="&#xcb;" horiz-adv-x="648" 
d="M623 0h-554v712h524v-138h-346v-130h323v-138h-323v-168h376v-138zM505 773h-150v126h150v-126zM293 773h-150v126h150v-126z" />
    <glyph glyph-name="Egrave" unicode="&#xc8;" horiz-adv-x="648" 
d="M623 0h-554v712h524v-138h-346v-130h323v-138h-323v-168h376v-138zM347 913l99 -150h-120l-160 150h181z" />
    <glyph glyph-name="Eth" unicode="&#xd0;" horiz-adv-x="741" 
d="M64 0v312h-71v120h71v280h276c217 0 363 -103 363 -356s-146 -356 -363 -356h-276zM242 312v-162h102c133 0 181 91 181 206s-48 206 -181 206h-102v-130h133v-120h-133z" />
    <glyph glyph-name="F" unicode="F" horiz-adv-x="630" 
d="M69 0v712h544v-138h-366v-150h339v-138h-339v-286h-178z" />
    <glyph glyph-name="G" unicode="G" horiz-adv-x="759" 
d="M715 554l-148 -65c-35 61 -93 93 -168 93c-109 0 -183 -70 -183 -226c0 -138 62 -226 183 -226c65 0 150 38 158 129h-158v138h308v-397h-138v64c-46 -53 -120 -84 -207 -84c-215 0 -324 156 -324 373s117 379 349 379c140 0 258 -62 328 -178z" />
    <glyph glyph-name="H" unicode="H" horiz-adv-x="759" 
d="M69 0v712h178v-256h265v256h178v-712h-178v300h-265v-300h-178z" />
    <glyph glyph-name="I" unicode="I" horiz-adv-x="316" 
d="M69 0v712h178v-712h-178z" />
    <glyph glyph-name="Iacute" unicode="&#xcd;" horiz-adv-x="316" 
d="M69 0v712h178v-712h-178zM63 763l99 150h181l-160 -150h-120z" />
    <glyph glyph-name="Icircumflex" unicode="&#xce;" horiz-adv-x="316" 
d="M69 0v712h178v-712h-178zM81 913h153l115 -150h-131l-61 82l-62 -82h-128z" />
    <glyph glyph-name="Idieresis" unicode="&#xcf;" horiz-adv-x="316" 
d="M69 0v712h178v-712h-178zM339 773h-150v126h150v-126zM127 773h-150v126h150v-126z" />
    <glyph glyph-name="Igrave" unicode="&#xcc;" horiz-adv-x="316" 
d="M69 0v712h178v-712h-178zM154 913l99 -150h-120l-160 150h181z" />
    <glyph glyph-name="J" unicode="J" horiz-adv-x="407" 
d="M19 0v144h74c60 0 67 27 67 72v496h178v-554c0 -114 -68 -158 -170 -158h-149z" />
    <glyph glyph-name="K" unicode="K" horiz-adv-x="741" 
d="M69 0v712h178v-284l255 284h236l-259 -270l267 -442h-198l-194 316l-107 -109v-207h-178z" />
    <glyph glyph-name="L" unicode="L" 
d="M69 0v712h178v-562h278v-150h-456z" />
    <glyph glyph-name="Lslash" unicode="&#x141;" 
d="M69 0v264l-49 -30v100l49 31v347h178v-238l140 86v-103l-140 -86v-221h278v-150h-456z" />
    <glyph glyph-name="M" unicode="M" horiz-adv-x="907" 
d="M65 0v712h261l126 -529h2l130 529h258v-712h-168v553h-2l-141 -553h-157l-145 553h-2v-553h-162z" />
    <glyph glyph-name="N" unicode="N" horiz-adv-x="741" 
d="M69 0v712h180l259 -455h2v455h162v-712h-178l-261 448h-2v-448h-162z" />
    <glyph glyph-name="Ntilde" unicode="&#xd1;" horiz-adv-x="741" 
d="M69 0v712h180l259 -455h2v455h162v-712h-178l-261 448h-2v-448h-162zM253 769h-71c8 62 50 132 121 132c51 0 113 -40 144 -40c24 0 38 18 43 40h70c-4 -49 -30 -127 -119 -127c-67 0 -106 37 -144 37c-24 0 -40 -22 -44 -42z" />
    <glyph glyph-name="O" unicode="O" horiz-adv-x="796" 
d="M580 356c0 112 -50 226 -182 226c-104 0 -182 -66 -182 -226c0 -104 42 -226 182 -226c132 0 182 116 182 226zM758 356c0 -200 -133 -376 -360 -376s-360 176 -360 376s133 376 360 376s360 -176 360 -376z" />
    <glyph glyph-name="OE" unicode="&#x152;" horiz-adv-x="1111" 
d="M1043 712v-138h-358v-130h335v-138h-335v-168h388v-138h-566v23c-31 -19 -101 -29 -137 -29c-196 0 -332 132 -332 349c0 237 133 375 331 375c60 0 100 -12 138 -36v30h536zM507 159v391c-32 23 -75 30 -100 30c-108 0 -191 -58 -191 -224c0 -143 73 -224 177 -224
c41 0 77 7 114 27z" />
    <glyph glyph-name="Oacute" unicode="&#xd3;" horiz-adv-x="796" 
d="M580 356c0 112 -50 226 -182 226c-104 0 -182 -66 -182 -226c0 -104 42 -226 182 -226c132 0 182 116 182 226zM758 356c0 -200 -133 -376 -360 -376s-360 176 -360 376s133 376 360 376s360 -176 360 -376zM303 763l99 150h181l-160 -150h-120z" />
    <glyph glyph-name="Ocircumflex" unicode="&#xd4;" horiz-adv-x="796" 
d="M580 356c0 112 -50 226 -182 226c-104 0 -182 -66 -182 -226c0 -104 42 -226 182 -226c132 0 182 116 182 226zM758 356c0 -200 -133 -376 -360 -376s-360 176 -360 376s133 376 360 376s360 -176 360 -376zM321 913h153l115 -150h-131l-61 82l-62 -82h-128z" />
    <glyph glyph-name="Odieresis" unicode="&#xd6;" horiz-adv-x="796" 
d="M580 356c0 112 -50 226 -182 226c-104 0 -182 -66 -182 -226c0 -104 42 -226 182 -226c132 0 182 116 182 226zM758 356c0 -200 -133 -376 -360 -376s-360 176 -360 376s133 376 360 376s360 -176 360 -376zM579 773h-150v126h150v-126zM367 773h-150v126h150v-126z" />
    <glyph glyph-name="Ograve" unicode="&#xd2;" horiz-adv-x="796" 
d="M580 356c0 112 -50 226 -182 226c-104 0 -182 -66 -182 -226c0 -104 42 -226 182 -226c132 0 182 116 182 226zM758 356c0 -200 -133 -376 -360 -376s-360 176 -360 376s133 376 360 376s360 -176 360 -376zM394 913l99 -150h-120l-160 150h181z" />
    <glyph glyph-name="Oslash" unicode="&#xd8;" horiz-adv-x="796" 
d="M566 451l-295 -267c27 -33 69 -54 127 -54c132 0 182 116 182 226c0 33 -4 66 -14 95zM231 257l296 268c-29 35 -71 57 -129 57c-104 0 -182 -66 -182 -226c0 -33 4 -67 15 -99zM736 714l55 -59l-92 -84c38 -60 59 -136 59 -215c0 -200 -133 -376 -360 -376
c-103 0 -187 36 -247 95l-89 -81l-57 58l94 86c-40 62 -61 138 -61 218c0 200 133 376 360 376c105 0 190 -38 250 -98z" />
    <glyph glyph-name="Otilde" unicode="&#xd5;" horiz-adv-x="796" 
d="M580 356c0 112 -50 226 -182 226c-104 0 -182 -66 -182 -226c0 -104 42 -226 182 -226c132 0 182 116 182 226zM758 356c0 -200 -133 -376 -360 -376s-360 176 -360 376s133 376 360 376s360 -176 360 -376zM280 769h-71c8 62 50 132 121 132c51 0 113 -40 144 -40
c24 0 38 18 43 40h70c-4 -49 -30 -127 -119 -127c-67 0 -106 37 -144 37c-24 0 -40 -22 -44 -42z" />
    <glyph glyph-name="P" unicode="P" horiz-adv-x="704" 
d="M247 580v-218h150c81 0 110 53 110 108c0 71 -34 110 -115 110h-145zM69 0v712h353c192 0 263 -100 263 -241c0 -95 -53 -241 -297 -241h-139v-230h-180z" />
    <glyph glyph-name="Q" unicode="Q" horiz-adv-x="796" 
d="M580 356c0 112 -50 226 -182 226c-104 0 -182 -66 -182 -226c0 -104 42 -226 182 -226c132 0 182 116 182 226zM814 61l-52 -127c-76 6 -154 58 -187 89c-50 -27 -109 -43 -177 -43c-227 0 -360 176 -360 376s133 376 360 376s360 -176 360 -376c0 -87 -25 -170 -74 -237
c16 -23 74 -51 130 -58z" />
    <glyph glyph-name="R" unicode="R" horiz-adv-x="722" 
d="M247 580v-192h163c57 1 95 30 95 96s-38 95 -95 96h-163zM69 0v712h356c160 0 258 -74 258 -234c0 -92 -58 -166 -147 -192l163 -286h-199l-140 256h-113v-256h-178z" />
    <glyph glyph-name="S" unicode="S" horiz-adv-x="685" 
d="M2 125l136 88c62 -56 121 -89 206 -89c47 0 133 20 133 82c0 36 -27 54 -80 63l-148 24c-132 21 -204 91 -204 196c0 172 139 243 291 243c118 0 234 -48 314 -137l-135 -97c-47 57 -116 90 -191 90c-41 0 -101 -26 -101 -72c0 -38 31 -57 99 -68l68 -11
c142 -23 259 -67 259 -203c0 -214 -193 -254 -326 -254c-121 0 -224 39 -321 145z" />
    <glyph glyph-name="Scaron" unicode="&#x160;" horiz-adv-x="685" 
d="M2 125l136 88c62 -56 121 -89 206 -89c47 0 133 20 133 82c0 36 -27 54 -80 63l-148 24c-132 21 -204 91 -204 196c0 172 139 243 291 243c118 0 234 -48 314 -137l-135 -97c-47 57 -116 90 -191 90c-41 0 -101 -26 -101 -72c0 -38 31 -57 99 -68l68 -11
c142 -23 259 -67 259 -203c0 -214 -193 -254 -326 -254c-121 0 -224 39 -321 145zM419 763h-153l-114 150h128l62 -82l61 82h131z" />
    <glyph glyph-name="T" unicode="T" horiz-adv-x="574" 
d="M12 574v138h550v-138h-186v-574h-178v574h-186z" />
    <glyph glyph-name="Thorn" unicode="&#xde;" horiz-adv-x="704" 
d="M247 505v-218h150c81 0 110 53 110 108c0 71 -34 110 -115 110h-145zM69 0v712h177v-75h176c192 0 263 -100 263 -241c0 -95 -53 -241 -297 -241h-139v-155h-180z" />
    <glyph glyph-name="U" unicode="U" horiz-adv-x="741" 
d="M672 712v-464c0 -195 -165 -268 -302 -268c-136 0 -301 73 -301 268v464h178v-449c0 -80 31 -139 123 -139c93 0 124 59 124 139v449h178z" />
    <glyph glyph-name="Uacute" unicode="&#xda;" horiz-adv-x="741" 
d="M672 712v-464c0 -195 -165 -268 -302 -268c-136 0 -301 73 -301 268v464h178v-449c0 -80 31 -139 123 -139c93 0 124 59 124 139v449h178zM276 763l99 150h181l-160 -150h-120z" />
    <glyph glyph-name="Ucircumflex" unicode="&#xdb;" horiz-adv-x="741" 
d="M672 712v-464c0 -195 -165 -268 -302 -268c-136 0 -301 73 -301 268v464h178v-449c0 -80 31 -139 123 -139c93 0 124 59 124 139v449h178zM294 913h153l115 -150h-131l-61 82l-62 -82h-128z" />
    <glyph glyph-name="Udieresis" unicode="&#xdc;" horiz-adv-x="741" 
d="M672 712v-464c0 -195 -165 -268 -302 -268c-136 0 -301 73 -301 268v464h178v-449c0 -80 31 -139 123 -139c93 0 124 59 124 139v449h178zM552 773h-150v126h150v-126zM340 773h-150v126h150v-126z" />
    <glyph glyph-name="Ugrave" unicode="&#xd9;" horiz-adv-x="741" 
d="M672 712v-464c0 -195 -165 -268 -302 -268c-136 0 -301 73 -301 268v464h178v-449c0 -80 31 -139 123 -139c93 0 124 59 124 139v449h178zM367 913l99 -150h-120l-160 150h181z" />
    <glyph glyph-name="V" unicode="V" horiz-adv-x="685" 
d="M244 0l-238 712h189l145 -508h2l150 508h187l-246 -712h-189z" />
    <glyph glyph-name="W" unicode="W" horiz-adv-x="1000" 
d="M192 0l-186 712h178l107 -508h2l125 508h163l130 -508h2l106 508h175l-184 -712h-185l-127 487h-2l-126 -487h-178z" />
    <glyph glyph-name="X" unicode="X" horiz-adv-x="778" 
d="M6 0l274 383l-235 329h216l130 -217l129 217h213l-234 -329l273 -383h-218l-164 266l-169 -266h-215z" />
    <glyph glyph-name="Y" unicode="Y" horiz-adv-x="722" 
d="M272 0v332l-270 380h208l151 -246l151 246h208l-270 -380v-332h-178z" />
    <glyph glyph-name="Yacute" unicode="&#xdd;" horiz-adv-x="722" 
d="M272 0v332l-270 380h208l151 -246l151 246h208l-270 -380v-332h-178zM266 763l99 150h181l-160 -150h-120z" />
    <glyph glyph-name="Ydieresis" unicode="&#x178;" horiz-adv-x="722" 
d="M272 0v332l-270 380h208l151 -246l151 246h208l-270 -380v-332h-178zM542 773h-150v126h150v-126zM330 773h-150v126h150v-126z" />
    <glyph glyph-name="Z" unicode="Z" horiz-adv-x="685" 
d="M258 138h389v-138h-611v133l396 441h-365v138h582v-139z" />
    <glyph glyph-name="Zcaron" unicode="&#x17d;" horiz-adv-x="685" 
d="M258 138h389v-138h-611v133l396 441h-365v138h582v-139zM419 763h-153l-114 150h128l62 -82l61 82h131z" />
    <glyph glyph-name="a" unicode="a" horiz-adv-x="593" 
d="M369 222v37l-105 -30c-39 -11 -75 -26 -75 -69c0 -42 35 -60 73 -60c61 0 107 41 107 122zM519 392v-281c0 -37 1 -78 14 -111h-144c-6 18 -9 37 -10 55h-2c-26 -42 -104 -69 -160 -69c-102 0 -178 56 -178 158c0 128 103 173 273 197l57 8v44c0 40 -32 57 -74 57
c-50 0 -74 -18 -82 -71h-150c5 153 147 167 219 167c145 0 236 -34 237 -154z" />
    <glyph glyph-name="aacute" unicode="&#xe1;" horiz-adv-x="593" 
d="M369 222v37l-105 -30c-39 -11 -75 -26 -75 -69c0 -42 35 -60 73 -60c61 0 107 41 107 122zM519 392v-281c0 -37 1 -78 14 -111h-144c-6 18 -9 37 -10 55h-2c-26 -42 -104 -69 -160 -69c-102 0 -178 56 -178 158c0 128 103 173 273 197l57 8v44c0 40 -32 57 -74 57
c-50 0 -74 -18 -82 -71h-150c5 153 147 167 219 167c145 0 236 -34 237 -154zM202 592l99 150h181l-160 -150h-120z" />
    <glyph glyph-name="acircumflex" unicode="&#xe2;" horiz-adv-x="593" 
d="M369 222v37l-105 -30c-39 -11 -75 -26 -75 -69c0 -42 35 -60 73 -60c61 0 107 41 107 122zM519 392v-281c0 -37 1 -78 14 -111h-144c-6 18 -9 37 -10 55h-2c-26 -42 -104 -69 -160 -69c-102 0 -178 56 -178 158c0 128 103 173 273 197l57 8v44c0 40 -32 57 -74 57
c-50 0 -74 -18 -82 -71h-150c5 153 147 167 219 167c145 0 236 -34 237 -154zM220 742h153l115 -150h-131l-61 82l-62 -82h-128z" />
    <glyph glyph-name="acute" unicode="&#xb4;" horiz-adv-x="278" 
d="M-1 592l99 150h181l-160 -150h-120z" />
    <glyph glyph-name="adieresis" unicode="&#xe4;" horiz-adv-x="593" 
d="M369 222v37l-105 -30c-39 -11 -75 -26 -75 -69c0 -42 35 -60 73 -60c61 0 107 41 107 122zM519 392v-281c0 -37 1 -78 14 -111h-144c-6 18 -9 37 -10 55h-2c-26 -42 -104 -69 -160 -69c-102 0 -178 56 -178 158c0 128 103 173 273 197l57 8v44c0 40 -32 57 -74 57
c-50 0 -74 -18 -82 -71h-150c5 153 147 167 219 167c145 0 236 -34 237 -154zM478 602h-150v126h150v-126zM266 602h-150v126h150v-126z" />
    <glyph glyph-name="ae" unicode="&#xe6;" horiz-adv-x="907" 
d="M363 222v35c-43 -21 -175 -24 -175 -92c0 -37 27 -59 63 -59c81 0 112 68 112 116zM519 330h194c-3 62 -49 102 -95 102c-63 0 -97 -40 -99 -102zM875 234h-356c0 -73 50 -128 120 -128c58 0 91 36 117 88l119 -64c-48 -81 -139 -144 -245 -144c-76 0 -126 20 -193 79
c-57 -52 -136 -79 -213 -79c-98 0 -192 54 -192 162c0 134 107 166 175 177l157 26c6 56 -25 81 -79 81c-40 0 -68 -19 -70 -58h-156c8 118 77 172 209 172c70 0 125 -11 181 -57c53 39 106 57 166 57c180 0 265 -136 260 -312z" />
    <glyph glyph-name="agrave" unicode="&#xe0;" horiz-adv-x="593" 
d="M369 222v37l-105 -30c-39 -11 -75 -26 -75 -69c0 -42 35 -60 73 -60c61 0 107 41 107 122zM519 392v-281c0 -37 1 -78 14 -111h-144c-6 18 -9 37 -10 55h-2c-26 -42 -104 -69 -160 -69c-102 0 -178 56 -178 158c0 128 103 173 273 197l57 8v44c0 40 -32 57 -74 57
c-50 0 -74 -18 -82 -71h-150c5 153 147 167 219 167c145 0 236 -34 237 -154zM293 742l99 -150h-120l-160 150h181z" />
    <glyph glyph-name="ampersand" unicode="&#x26;" horiz-adv-x="685" 
d="M380 395l91 -139c21 34 31 72 37 109l129 -48c-20 -62 -46 -125 -81 -172c27 -30 58 -31 74 -31c15 0 25 1 34 2v-116h-91c-63 0 -89 21 -114 49c-60 -42 -143 -55 -193 -55c-172 0 -245 122 -245 206c0 132 68 190 174 242c-27 37 -43 81 -43 128c0 98 89 150 179 150
c98 0 184 -51 184 -158c0 -80 -68 -135 -135 -167zM382 151l-121 182c-43 -28 -84 -64 -84 -115c0 -48 37 -104 99 -104c41 0 75 10 106 37zM383 567c0 31 -25 45 -51 45c-23 0 -48 -17 -48 -42c0 -26 20 -58 32 -78c34 16 67 44 67 75z" />
    <glyph glyph-name="aring" unicode="&#xe5;" horiz-adv-x="593" 
d="M369 222v37l-105 -30c-39 -11 -75 -26 -75 -69c0 -42 35 -60 73 -60c61 0 107 41 107 122zM519 392v-281c0 -37 1 -78 14 -111h-144c-6 18 -9 37 -10 55h-2c-26 -42 -104 -69 -160 -69c-102 0 -178 56 -178 158c0 128 103 173 273 197l57 8v44c0 40 -32 57 -74 57
c-50 0 -74 -18 -82 -71h-150c5 153 147 167 219 167c145 0 236 -34 237 -154zM409 692c0 -62 -51 -112 -112 -112s-112 51 -112 112s51 112 112 112s112 -50 112 -112zM349 692c0 28 -24 52 -52 52s-52 -25 -52 -52s24 -52 52 -52s52 24 52 52z" />
    <glyph glyph-name="asciicircum" unicode="^" horiz-adv-x="600" 
d="M189 317h-116l174 365h106l174 -365h-117l-110 248z" />
    <glyph glyph-name="asciitilde" unicode="~" horiz-adv-x="600" 
d="M105 157l-36 102c22 42 58 85 125 85c34 0 73 -14 111 -31c37 -16 75 -36 102 -36c40 0 65 37 88 72l36 -102c-30 -42 -63 -86 -125 -86c-37 0 -69 15 -102 33c-30 17 -69 36 -115 36c-35 0 -61 -25 -84 -73z" />
    <glyph glyph-name="asterisk" unicode="*" horiz-adv-x="352" 
d="M50 441l59 86l-99 26l22 79l103 -27v107h39h39v-107l103 35l26 -77l-101 -31l64 -87l-66 -48l-62 86l-61 -86z" />
    <glyph glyph-name="at" unicode="@" horiz-adv-x="800" 
d="M494 352c0 70 -52 93 -79 93c-53 0 -109 -42 -109 -101c0 -56 35 -92 86 -92c47 0 102 38 102 100zM622 129l99 3c-72 -98 -175 -152 -297 -152c-215 0 -392 156 -392 373s173 379 386 379c176 0 350 -123 350 -299c0 -227 -202 -289 -258 -289c-29 0 -53 16 -54 50h-2
c-24 -28 -59 -50 -97 -50c-90 0 -165 73 -165 186c0 110 80 217 203 217c50 0 92 -17 122 -57l10 48h95l-45 -240c-2 -9 -5 -24 -5 -35s3 -21 18 -21c43 0 94 59 94 157c0 156 -111 243 -270 243c-179 0 -280 -128 -280 -288c0 -170 120 -284 292 -284c81 0 146 22 196 59z
" />
    <glyph glyph-name="atilde" unicode="&#xe3;" horiz-adv-x="593" 
d="M369 222v37l-105 -30c-39 -11 -75 -26 -75 -69c0 -42 35 -60 73 -60c61 0 107 41 107 122zM519 392v-281c0 -37 1 -78 14 -111h-144c-6 18 -9 37 -10 55h-2c-26 -42 -104 -69 -160 -69c-102 0 -178 56 -178 158c0 128 103 173 273 197l57 8v44c0 40 -32 57 -74 57
c-50 0 -74 -18 -82 -71h-150c5 153 147 167 219 167c145 0 236 -34 237 -154zM179 598h-71c8 62 50 132 121 132c51 0 113 -40 144 -40c24 0 38 18 43 40h70c-4 -49 -30 -127 -119 -127c-67 0 -106 37 -144 37c-24 0 -40 -22 -44 -42z" />
    <glyph glyph-name="b" unicode="b" horiz-adv-x="630" 
d="M70 0v712h156v-229c46 51 103 63 146 63c107 0 229 -72 226 -264c0 -211 -105 -296 -239 -296c-61 0 -111 33 -137 66h-2v-52h-150zM225 266c0 -91 28 -166 109 -166c80 0 108 75 108 166c-3 102 -25 166 -108 166c-81 0 -109 -75 -109 -166z" />
    <glyph glyph-name="backslash" unicode="\" horiz-adv-x="481" 
d="M335 -20l-309 752h120l309 -752h-120z" />
    <glyph glyph-name="bar" unicode="|" horiz-adv-x="222" 
d="M51 -20v752h120v-752h-120z" />
    <glyph glyph-name="braceleft" unicode="{" horiz-adv-x="333" 
d="M331 712v-90h-42c-54 0 -58 -38 -58 -71v-171c-1 -77 -73 -95 -108 -97v-2c35 -2 107 -20 108 -97v-171c0 -33 4 -71 58 -71h42v-90h-87c-72 0 -145 40 -145 144v174c0 55 -73 61 -97 61v102c24 0 97 6 97 61v174c0 104 73 144 145 144h87z" />
    <glyph glyph-name="braceright" unicode="}" horiz-adv-x="333" 
d="M2 -148v90h42c54 0 58 38 58 71v171c1 77 73 95 108 97v2c-35 2 -107 20 -108 97v171c0 33 -4 71 -58 71h-42v90h87c72 0 145 -40 145 -144v-174c0 -55 73 -61 97 -61v-102c-24 0 -97 -6 -97 -61v-174c0 -104 -73 -144 -145 -144h-87z" />
    <glyph glyph-name="bracketleft" unicode="[" horiz-adv-x="352" 
d="M338 -148h-266v860h266v-84h-134v-692h134v-84z" />
    <glyph glyph-name="bracketright" unicode="]" horiz-adv-x="352" 
d="M280 -148h-266v84h134v692h-134v84h266v-860z" />
    <glyph glyph-name="breve" unicode="&#x2d8;" horiz-adv-x="278" 
d="M242 750h72c-6 -104 -84 -152 -175 -152c-101 0 -171 51 -175 152h72c7 -56 62 -68 103 -68c51 0 97 18 103 68z" />
    <glyph glyph-name="brokenbar" unicode="&#xa6;" horiz-adv-x="222" 
d="M51 -20v289h120v-289h-120zM51 443v289h120v-289h-120z" />
    <glyph glyph-name="bullet" unicode="&#x2022;" horiz-adv-x="500" 
d="M72 356c0 98 80 178 178 178s178 -80 178 -178s-80 -178 -178 -178s-178 80 -178 178z" />
    <glyph glyph-name="c" unicode="c" 
d="M535 416l-120 -63c-28 60 -76 73 -100 73c-89 0 -121 -69 -121 -160s38 -160 121 -160c48 0 86 18 111 78l112 -57c-48 -85 -135 -141 -237 -141c-159 0 -269 101 -269 280c0 176 117 280 264 280c101 0 188 -37 239 -130z" />
    <glyph glyph-name="caron" unicode="&#x2c7;" horiz-adv-x="278" 
d="M215 592h-153l-114 150h128l62 -82l61 82h131z" />
    <glyph glyph-name="ccedilla" unicode="&#xe7;" 
d="M535 416l-120 -63c-28 60 -76 73 -100 73c-89 0 -121 -69 -121 -160s38 -160 121 -160c48 0 86 18 111 78l112 -57c-48 -85 -135 -141 -237 -141c-159 0 -269 101 -269 280c0 176 117 280 264 280c101 0 188 -37 239 -130zM282 -5h56l-41 -62c10 2 21 4 36 4
c43 0 92 -23 92 -75c0 -48 -36 -96 -128 -96c-38 0 -87 11 -119 26l21 45c19 -10 53 -19 81 -19c34 0 52 13 52 39c0 24 -17 34 -44 34c-13 0 -29 -1 -41 -6l-21 18z" />
    <glyph glyph-name="cedilla" unicode="&#xb8;" horiz-adv-x="278" 
d="M113 -5h56l-41 -62c10 2 21 4 36 4c43 0 92 -23 92 -75c0 -48 -36 -96 -128 -96c-38 0 -87 11 -119 26l21 45c19 -10 53 -19 81 -19c34 0 52 13 52 39c0 24 -17 34 -44 34c-13 0 -29 -1 -41 -6l-21 18z" />
    <glyph glyph-name="cent" unicode="&#xa2;" 
d="M261 -132v121c-137 15 -229 113 -229 277c0 162 99 263 229 277v105h90v-105c77 -12 143 -51 184 -127l-120 -63c-28 60 -76 73 -100 73c-89 0 -121 -69 -121 -160s38 -160 121 -160c48 0 86 18 111 78l112 -57c-40 -71 -107 -122 -187 -136v-123h-90z" />
    <glyph glyph-name="circumflex" unicode="&#x2c6;" horiz-adv-x="278" 
d="M62 742h153l115 -150h-131l-61 82l-62 -82h-128z" />
    <glyph glyph-name="colon" unicode=":" horiz-adv-x="278" 
d="M220 356h-162v168h162v-168zM220 0h-162v168h162v-168z" />
    <glyph glyph-name="comma" unicode="," horiz-adv-x="278" 
d="M61 -176v73c49 13 63 61 63 103h-66v168h162v-168c0 -101 -72 -159 -159 -176z" />
    <glyph glyph-name="copyright" unicode="&#xa9;" horiz-adv-x="800" 
d="M582 418h-98c-8 55 -46 71 -90 71c-60 0 -92 -45 -92 -130c0 -81 37 -134 94 -134c50 0 85 19 88 73h101c-14 -104 -91 -157 -177 -157c-125 0 -208 94 -208 215c0 124 78 217 206 217c89 0 160 -54 176 -155zM24 356c0 208 168 376 376 376s376 -168 376 -376
s-168 -376 -376 -376s-376 168 -376 376zM680 356c0 181 -125 294 -280 294s-280 -113 -280 -294s125 -294 280 -294s280 113 280 294z" />
    <glyph glyph-name="currency" unicode="&#xa4;" 
d="M537 143l-60 -60l-58 58c-30 -30 -85 -48 -142 -48c-56 0 -110 17 -142 46l-57 -57l-61 61l58 58c-29 33 -46 84 -46 140c0 54 15 110 45 141l-57 57l63 63l57 -57c30 26 87 44 140 44c56 0 110 -18 136 -42l58 58l68 -68l-56 -56c26 -28 42 -84 42 -140
c0 -54 -16 -108 -44 -142zM405 341c0 84 -62 140 -128 140s-128 -56 -128 -140s62 -140 128 -140s128 56 128 140z" />
    <glyph glyph-name="d" unicode="d" horiz-adv-x="630" 
d="M560 712v-712h-150v52h-2c-26 -33 -73 -66 -143 -66c-128 0 -230 83 -233 276c-3 212 119 284 226 284c43 0 100 -8 146 -56v222h156zM404 277c0 95 -28 155 -109 155c-74 0 -107 -64 -107 -166c0 -87 21 -166 107 -166c81 0 109 75 109 177z" />
    <glyph glyph-name="dagger" unicode="&#x2020;" 
d="M209 -124v470h-186v132h186v234h138v-234h186v-132h-186v-470h-138z" />
    <glyph glyph-name="daggerdbl" unicode="&#x2021;" 
d="M209 -124v183h-161v126h161v232h-161v126h161v169h138v-169h161v-126h-161v-232h161v-126h-161v-183h-138z" />
    <glyph glyph-name="degree" unicode="&#xb0;" horiz-adv-x="400" 
d="M49 545c0 83 68 151 151 151s151 -68 151 -151s-68 -151 -151 -151s-151 68 -151 151zM115 545c0 -47 38 -85 85 -85s85 38 85 85s-38 85 -85 85s-85 -38 -85 -85z" />
    <glyph glyph-name="dieresis" unicode="&#xa8;" horiz-adv-x="278" 
d="M320 602h-150v126h150v-126zM108 602h-150v126h150v-126z" />
    <glyph glyph-name="divide" unicode="&#xf7;" horiz-adv-x="600" 
d="M553 193h-506v120h506v-120zM393 46c0 -51 -42 -93 -93 -93s-93 42 -93 93s42 93 93 93s93 -42 93 -93zM393 460c0 -51 -42 -93 -93 -93s-93 42 -93 93s42 93 93 93s93 -42 93 -93z" />
    <glyph glyph-name="dollar" unicode="$" 
d="M518 624l-103 -106c-38 27 -86 46 -134 46c-39 0 -94 -12 -94 -61c0 -25 28 -40 67 -52l115 -36c102 -31 172 -81 172 -211c0 -123 -98 -209 -220 -218v-121h-90v121c-88 1 -173 37 -238 94l108 109c52 -49 104 -71 175 -71c46 0 97 18 97 78c0 48 -42 63 -85 77l-113 36
c-102 33 -156 81 -156 182c0 122 93 198 212 205v121h90v-121c62 -3 130 -20 197 -72z" />
    <glyph glyph-name="dotaccent" unicode="&#x2d9;" horiz-adv-x="278" 
d="M64 602v126h150v-126h-150z" />
    <glyph glyph-name="dotlessi" unicode="&#x131;" horiz-adv-x="296" 
d="M70 532h156v-532h-156v532z" />
    <glyph glyph-name="e" unicode="e" horiz-adv-x="593" 
d="M554 234h-366c1 -102 66 -134 116 -134c58 0 85 30 130 94l117 -61c-54 -100 -139 -147 -258 -147c-165 0 -261 114 -261 264c0 188 99 296 261 296c194 0 260 -148 261 -312zM186 330h212c-5 78 -61 102 -106 102s-99 -32 -106 -102z" />
    <glyph glyph-name="eacute" unicode="&#xe9;" horiz-adv-x="593" 
d="M554 234h-366c1 -102 66 -134 116 -134c58 0 85 30 130 94l117 -61c-54 -100 -139 -147 -258 -147c-165 0 -261 114 -261 264c0 188 99 296 261 296c194 0 260 -148 261 -312zM186 330h212c-5 78 -61 102 -106 102s-99 -32 -106 -102zM202 592l99 150h181l-160 -150h-120
z" />
    <glyph glyph-name="ecircumflex" unicode="&#xea;" horiz-adv-x="593" 
d="M554 234h-366c1 -102 66 -134 116 -134c58 0 85 30 130 94l117 -61c-54 -100 -139 -147 -258 -147c-165 0 -261 114 -261 264c0 188 99 296 261 296c194 0 260 -148 261 -312zM186 330h212c-5 78 -61 102 -106 102s-99 -32 -106 -102zM220 742h153l115 -150h-131l-61 82
l-62 -82h-128z" />
    <glyph glyph-name="edieresis" unicode="&#xeb;" horiz-adv-x="593" 
d="M554 234h-366c1 -102 66 -134 116 -134c58 0 85 30 130 94l117 -61c-54 -100 -139 -147 -258 -147c-165 0 -261 114 -261 264c0 188 99 296 261 296c194 0 260 -148 261 -312zM186 330h212c-5 78 -61 102 -106 102s-99 -32 -106 -102zM478 602h-150v126h150v-126z
M266 602h-150v126h150v-126z" />
    <glyph glyph-name="egrave" unicode="&#xe8;" horiz-adv-x="593" 
d="M554 234h-366c1 -102 66 -134 116 -134c58 0 85 30 130 94l117 -61c-54 -100 -139 -147 -258 -147c-165 0 -261 114 -261 264c0 188 99 296 261 296c194 0 260 -148 261 -312zM186 330h212c-5 78 -61 102 -106 102s-99 -32 -106 -102zM293 742l99 -150h-120l-160 150h181
z" />
    <glyph glyph-name="eight" unicode="8" 
d="M344 493c0 61 -26 83 -66 83s-66 -22 -66 -83c0 -62 26 -84 66 -84s66 22 66 84zM521 196c0 -150 -105 -210 -243 -210s-243 60 -243 210c0 78 47 141 124 158v2c-59 25 -97 87 -97 153c0 132 92 186 224 187c116 -1 208 -55 208 -187c0 -66 -38 -128 -97 -153v-2
c77 -17 124 -80 124 -158zM359 204c0 56 -20 97 -81 97s-81 -41 -81 -97c0 -57 20 -98 81 -98s81 41 81 98z" />
    <glyph glyph-name="ellipsis" unicode="&#x2026;" horiz-adv-x="1000" 
d="M89 0v168h162v-168h-162zM419 0v168h162v-168h-162zM749 0v168h162v-168h-162z" />
    <glyph glyph-name="emdash" unicode="&#x2014;" horiz-adv-x="1000" 
d="M0 207v138h1000v-138h-1000z" />
    <glyph glyph-name="endash" unicode="&#x2013;" horiz-adv-x="500" 
d="M500 207h-500v138h500v-138z" />
    <glyph glyph-name="equal" unicode="=" horiz-adv-x="600" 
d="M553 425v-120h-506v120h506zM553 201v-120h-506v120h506z" />
    <glyph glyph-name="eth" unicode="&#xf0;" horiz-adv-x="630" 
d="M315 399c-89 0 -127 -64 -127 -150c0 -85 44 -149 127 -149c81 0 127 64 127 149c0 86 -38 150 -127 150zM124 695l115 79l91 -59l100 59l56 -49l-97 -56c125 -102 209 -213 209 -411c0 -210 -158 -272 -283 -272c-166 0 -283 93 -283 263c0 171 117 264 283 264
c21 0 45 -5 64 -17l2 2c-28 35 -70 72 -113 101l-96 -56l-56 49l89 51z" />
    <glyph glyph-name="exclam" unicode="!" horiz-adv-x="296" 
d="M181 242h-66l-48 258v212h162v-212zM229 0h-162v168h162v-168z" />
    <glyph glyph-name="exclamdown" unicode="&#xa1;" horiz-adv-x="296" 
d="M115 290h66l48 -258v-212h-162v212zM67 532h162v-168h-162v168z" />
    <glyph glyph-name="f" unicode="f" horiz-adv-x="352" 
d="M90 0v426h-82v96h82v52c0 60 19 146 152 146c34 0 82 -5 102 -12v-114h-44c-27 0 -54 -8 -54 -38v-34h96v-96h-96v-426h-156z" />
    <glyph glyph-name="fi" unicode="&#xfb01;" horiz-adv-x="630" 
d="M404 592v120h156v-120h-156zM404 0v532h156v-532h-156zM90 0v426h-82v96h82v52c0 60 19 146 152 146c34 0 82 -5 102 -12v-114h-44c-27 0 -54 -8 -54 -38v-34h96v-96h-96v-426h-156z" />
    <glyph glyph-name="five" unicode="5" 
d="M56 322l44 360h392l-11 -132h-259l-17 -120c31 26 71 36 110 36c119 0 206 -93 206 -229c0 -128 -80 -251 -262 -251c-163 0 -230 97 -230 228l156 7v-22c0 -58 39 -93 78 -93c65 0 90 59 90 118c0 70 -24 128 -86 128c-31 0 -58 -14 -75 -53z" />
    <glyph glyph-name="fl" unicode="&#xfb02;" horiz-adv-x="630" 
d="M404 0v712h156v-712h-156zM90 0v426h-82v96h82v52c0 60 19 146 152 146c34 0 82 -5 102 -12v-114h-44c-27 0 -54 -8 -54 -38v-34h96v-96h-96v-426h-156z" />
    <glyph glyph-name="florin" unicode="&#x192;" 
d="M506 678l-18 -129c-18 7 -34 9 -47 9c-33 0 -70 -22 -78 -87l-12 -94h122l-12 -102h-123l-29 -246c-19 -165 -89 -215 -185 -215c-32 0 -65 4 -94 18l14 129c9 -6 29 -10 47 -9c29 2 60 18 66 62l33 261h-111l14 102h110l22 171c16 122 125 148 169 148
c38 0 77 -6 112 -18z" />
    <glyph glyph-name="four" unicode="4" 
d="M287 271v237h-2l-155 -237h157zM16 157v120l281 405h152v-411h91v-114h-90v-157h-163v157h-271z" />
    <glyph glyph-name="fraction" unicode="&#x2044;" horiz-adv-x="167" 
d="M-168 -36l415 754h88l-415 -754h-88z" />
    <glyph glyph-name="g" unicode="g" horiz-adv-x="611" 
d="M393 532h144v-533c0 -169 -173 -175 -255 -175c-160 0 -244 54 -245 184h162c1 -58 34 -82 90 -82c60 0 97 12 97 90v61c-34 -33 -100 -44 -147 -44c-149 0 -207 120 -207 254c0 130 68 259 209 259c58 0 108 -13 152 -56v42zM387 289c0 108 -53 143 -101 143
c-49 0 -98 -28 -98 -143c0 -64 14 -142 96 -142c100 0 103 87 103 142z" />
    <glyph glyph-name="germandbls" unicode="&#xdf;" horiz-adv-x="611" 
d="M70 0v504c0 156 93 216 242 216c135 0 223 -54 223 -187c0 -63 -33 -110 -96 -125v-2c106 -5 140 -91 140 -187c0 -166 -86 -233 -190 -233c-40 0 -77 9 -101 20v116c22 -11 41 -16 58 -16c23 0 77 16 77 127c0 85 -18 132 -116 131v84c59 0 84 24 84 76
c0 57 -21 88 -79 88c-68 0 -86 -48 -86 -102v-510h-156z" />
    <glyph glyph-name="grave" unicode="`" horiz-adv-x="278" 
d="M180 742l99 -150h-120l-160 150h181z" />
    <glyph glyph-name="greater" unicode="&#x3e;" horiz-adv-x="600" 
d="M47 107l351 146l-351 146v115l506 -214v-94l-506 -214v115z" />
    <glyph glyph-name="guillemotleft" unicode="&#xab;" horiz-adv-x="389" 
d="M31 214v124l144 114v-128l-60 -48l60 -48v-128zM214 214v124l144 114v-128l-60 -48l60 -48v-128z" />
    <glyph glyph-name="guillemotright" unicode="&#xbb;" horiz-adv-x="389" 
d="M358 337v-123l-144 -114v128l60 48l-60 48v128zM175 337v-123l-144 -114v128l60 48l-60 48v128z" />
    <glyph glyph-name="guilsinglleft" unicode="&#x2039;" horiz-adv-x="222" 
d="M39 214v124l144 114v-128l-60 -48l60 -48v-128z" />
    <glyph glyph-name="guilsinglright" unicode="&#x203a;" horiz-adv-x="222" 
d="M183 338v-124l-144 -114v128l60 48l-60 48v128z" />
    <glyph glyph-name="h" unicode="h" horiz-adv-x="611" 
d="M70 0v712h156v-230h2c30 41 97 64 146 64c112 0 167 -65 167 -172v-374h-156v319c0 82 -44 101 -78 101c-36 0 -81 -23 -81 -122v-298h-156z" />
    <glyph glyph-name="hungarumlaut" unicode="&#x2dd;" horiz-adv-x="278" 
d="M-122 592l98 150h181l-159 -150h-120zM121 592l98 150h181l-159 -150h-120z" />
    <glyph glyph-name="hyphen" unicode="-" horiz-adv-x="352" 
d="M300 204h-248v144h248v-144z" />
    <glyph glyph-name="i" unicode="i" horiz-adv-x="296" 
d="M70 532h156v-532h-156v532zM226 592h-156v120h156v-120z" />
    <glyph glyph-name="iacute" unicode="&#xed;" horiz-adv-x="296" 
d="M70 532h156v-532h-156v532zM53 592l99 150h181l-160 -150h-120z" />
    <glyph glyph-name="icircumflex" unicode="&#xee;" horiz-adv-x="296" 
d="M70 532h156v-532h-156v532zM71 742h153l115 -150h-131l-61 82l-62 -82h-128z" />
    <glyph glyph-name="idieresis" unicode="&#xef;" horiz-adv-x="296" 
d="M70 532h156v-532h-156v532zM329 602h-150v126h150v-126zM117 602h-150v126h150v-126z" />
    <glyph glyph-name="igrave" unicode="&#xec;" horiz-adv-x="296" 
d="M70 532h156v-532h-156v532zM144 742l99 -150h-120l-160 150h181z" />
    <glyph glyph-name="j" unicode="j" horiz-adv-x="296" 
d="M226 532v-562c2 -74 -34 -146 -131 -146h-93v126h35c25 2 32 20 33 48v534h156zM70 592v120h156v-120h-156z" />
    <glyph glyph-name="k" unicode="k" horiz-adv-x="593" 
d="M226 0h-156v712h156v-359l162 179h191l-182 -202l197 -330h-178l-132 215l-58 -59v-156z" />
    <glyph glyph-name="l" unicode="l" horiz-adv-x="296" 
d="M226 0h-156v712h156v-712z" />
    <glyph glyph-name="less" unicode="&#x3c;" horiz-adv-x="600" 
d="M553 107v-115l-506 214v94l506 214v-115l-351 -146z" />
    <glyph glyph-name="logicalnot" unicode="&#xac;" horiz-adv-x="600" 
d="M47 305v120h506v-317h-120v197h-386z" />
    <glyph glyph-name="lslash" unicode="&#x142;" horiz-adv-x="296" 
d="M70 0v278l-64 -46v104l64 46v330h156v-217l64 46v-104l-64 -46v-391h-156z" />
    <glyph glyph-name="m" unicode="m" horiz-adv-x="926" 
d="M70 0v532h156v-47c40 47 106 61 154 61c61 0 106 -24 141 -71c51 52 109 71 171 71c52 0 164 -18 164 -140v-406h-156v311c0 75 -21 109 -80 109c-52 0 -79 -39 -79 -93v-327h-156v333c0 52 -16 87 -76 87c-63 0 -83 -41 -83 -89v-331h-156z" />
    <glyph glyph-name="macron" unicode="&#xaf;" horiz-adv-x="278" 
d="M302 628h-326v84h326v-84z" />
    <glyph glyph-name="minus" unicode="&#x2212;" horiz-adv-x="600" 
d="M553 193h-506v120h506v-120z" />
    <glyph glyph-name="mu" unicode="&#x3bc;" horiz-adv-x="611" 
d="M541 532v-532h-156v27c-17 -19 -42 -41 -79 -41c-38 0 -62 12 -80 31v-193h-156v708h156v-333c0 -52 16 -87 76 -87c63 0 83 41 83 75v345h156z" />
    <glyph glyph-name="multiply" unicode="&#xd7;" horiz-adv-x="600" 
d="M218 253l-154 154l82 82l154 -154l154 154l82 -82l-155 -154l155 -154l-82 -82l-154 155l-154 -155l-82 82z" />
    <glyph glyph-name="n" unicode="n" horiz-adv-x="611" 
d="M70 0v532h156v-47c40 47 106 61 154 61c126 0 161 -73 161 -153v-393h-156v333c0 52 -16 87 -76 87c-63 0 -83 -41 -83 -89v-331h-156z" />
    <glyph glyph-name="nine" unicode="9" 
d="M42 174l160 16c5 -38 17 -78 63 -78c81 0 97 95 100 204h-3c-29 -45 -83 -71 -143 -71c-95 0 -191 63 -191 213c0 144 100 238 241 238c126 0 252 -72 252 -330c0 -179 -47 -380 -263 -380c-131 0 -196 68 -216 188zM184 464c0 -53 26 -99 82 -99c47 0 81 36 81 99
c0 69 -29 106 -81 106c-55 0 -82 -39 -82 -106z" />
    <glyph glyph-name="ntilde" unicode="&#xf1;" horiz-adv-x="611" 
d="M70 0v532h156v-47c40 47 106 61 154 61c126 0 161 -73 161 -153v-393h-156v333c0 52 -16 87 -76 87c-63 0 -83 -41 -83 -89v-331h-156zM188 598h-71c8 62 50 132 121 132c51 0 113 -40 144 -40c24 0 38 18 43 40h70c-4 -49 -30 -127 -119 -127c-67 0 -106 37 -144 37
c-24 0 -40 -22 -44 -42z" />
    <glyph glyph-name="numbersign" unicode="#" 
d="M245 395l-14 -108h80l14 108h-80zM87 0l26 185h-80v102h94l14 108h-80v102h95l25 185h104l-25 -185h80l25 185h104l-26 -185h80v-102h-94l-14 -108h80v-102h-95l-25 -185h-104l25 185h-79l-26 -185h-104z" />
    <glyph glyph-name="o" unicode="o" horiz-adv-x="630" 
d="M315 426c-89 0 -127 -69 -127 -160s38 -160 127 -160s127 69 127 166c0 85 -38 154 -127 154zM315 546c166 0 283 -101 283 -280s-117 -280 -283 -280s-283 101 -283 280s117 280 283 280z" />
    <glyph glyph-name="oacute" unicode="&#xf3;" horiz-adv-x="630" 
d="M315 426c-89 0 -127 -69 -127 -160s38 -160 127 -160s127 69 127 166c0 85 -38 154 -127 154zM315 546c166 0 283 -101 283 -280s-117 -280 -283 -280s-283 101 -283 280s117 280 283 280zM220 592l99 150h181l-160 -150h-120z" />
    <glyph glyph-name="ocircumflex" unicode="&#xf4;" horiz-adv-x="630" 
d="M315 426c-89 0 -127 -69 -127 -160s38 -160 127 -160s127 69 127 166c0 85 -38 154 -127 154zM315 546c166 0 283 -101 283 -280s-117 -280 -283 -280s-283 101 -283 280s117 280 283 280zM238 742h153l115 -150h-131l-61 82l-62 -82h-128z" />
    <glyph glyph-name="odieresis" unicode="&#xf6;" horiz-adv-x="630" 
d="M315 426c-89 0 -127 -69 -127 -160s38 -160 127 -160s127 69 127 166c0 85 -38 154 -127 154zM315 546c166 0 283 -101 283 -280s-117 -280 -283 -280s-283 101 -283 280s117 280 283 280zM496 602h-150v126h150v-126zM284 602h-150v126h150v-126z" />
    <glyph glyph-name="oe" unicode="&#x153;" horiz-adv-x="944" 
d="M912 234h-356c0 -73 50 -128 120 -128c58 0 91 36 117 88l119 -64c-48 -81 -139 -144 -245 -144c-95 0 -147 37 -189 76c-53 -55 -120 -76 -183 -76c-115 0 -263 56 -263 280c0 206 132 280 263 280c76 0 126 -21 182 -66c45 40 109 66 175 66c180 0 265 -136 260 -312z
M299 426c-89 0 -111 -94 -111 -167c0 -97 40 -153 113 -153c69 0 105 58 105 167c0 104 -36 153 -107 153zM556 330h194c-3 62 -49 102 -95 102c-63 0 -97 -40 -99 -102z" />
    <glyph glyph-name="ogonek" unicode="&#x2db;" horiz-adv-x="278" 
d="M136 0h52c-44 -40 -89 -84 -89 -128c0 -22 11 -43 48 -43c31 0 49 20 55 32l30 -11c-22 -32 -56 -75 -136 -75c-52 0 -81 27 -81 79c0 64 51 116 121 146z" />
    <glyph glyph-name="ograve" unicode="&#xf2;" horiz-adv-x="630" 
d="M315 426c-89 0 -127 -69 -127 -160s38 -160 127 -160s127 69 127 166c0 85 -38 154 -127 154zM315 546c166 0 283 -101 283 -280s-117 -280 -283 -280s-283 101 -283 280s117 280 283 280zM311 742l99 -150h-120l-160 150h181z" />
    <glyph glyph-name="one" unicode="1" 
d="M377 682v-682h-162v498c-43 -16 -99 -20 -146 -23v108c101 3 151 35 181 99h127z" />
    <glyph glyph-name="onehalf" unicode="&#xbd;" horiz-adv-x="834" 
d="M150 -36l415 754h88l-415 -754h-88zM268 690v-409h-114v289c-25 -10 -62 -15 -89 -15v72c66 0 98 22 118 63h85zM801 84v-84h-308v72c141 107 194 138 194 221c0 25 -22 44 -36 44c-21 0 -43 -21 -43 -54c0 -10 0 -21 3 -33l-111 9v23c0 61 40 133 150 133
c77 0 151 -38 151 -122c0 -80 -41 -132 -158 -207v-2h158z" />
    <glyph glyph-name="onequarter" unicode="&#xbc;" horiz-adv-x="834" 
d="M181 -36l415 754h88l-415 -754h-88zM268 690v-409h-114v289c-25 -10 -62 -15 -89 -15v72c66 0 98 22 118 63h85zM659 163v144h-2l-106 -144h108zM479 91v77l180 241h108v-246h56v-72h-56v-91h-108v91h-180z" />
    <glyph glyph-name="onesuperior" unicode="&#xb9;" horiz-adv-x="361" 
d="M268 690v-409h-114v289c-25 -10 -62 -15 -89 -15v72c66 0 98 22 118 63h85z" />
    <glyph glyph-name="ordfeminine" unicode="&#xaa;" horiz-adv-x="385" 
d="M247 526l-72 -18c-26 -6 -47 -16 -47 -42c0 -33 20 -40 46 -40c43 0 75 34 75 82v18h-2zM344 603v-168c0 -23 1 -47 9 -67h-95c-3 13 -5 26 -5 37h-2c-13 -29 -67 -45 -98 -45c-67 0 -121 31 -121 94c0 108 134 113 216 126v14c0 30 -15 42 -49 42c-30 0 -48 -9 -54 -38
h-96c4 82 80 98 148 98c83 0 147 -16 147 -93z" />
    <glyph glyph-name="ordmasculine" unicode="&#xba;" horiz-adv-x="410" 
d="M287 528c0 54 -24 96 -82 96s-82 -42 -82 -96s24 -96 82 -96s82 42 82 96zM389 528c0 -107 -76 -168 -184 -168s-184 61 -184 168s76 168 184 168s184 -61 184 -168z" />
    <glyph glyph-name="oslash" unicode="&#xf8;" horiz-adv-x="630" 
d="M194 207l213 180c-20 24 -51 39 -92 39c-89 0 -127 -69 -127 -160c0 -21 2 -41 6 -59zM590 542l42 -47l-78 -65c28 -44 44 -99 44 -164c0 -179 -117 -280 -283 -280c-82 0 -152 25 -201 71l-74 -63l-42 47l76 64c-27 43 -42 97 -42 161c0 179 117 280 283 280
c80 0 149 -24 199 -69zM435 329l-213 -181c21 -27 52 -42 93 -42c89 0 127 69 127 166c0 20 -2 40 -7 57z" />
    <glyph glyph-name="otilde" unicode="&#xf5;" horiz-adv-x="630" 
d="M315 426c-89 0 -127 -69 -127 -160s38 -160 127 -160s127 69 127 166c0 85 -38 154 -127 154zM315 546c166 0 283 -101 283 -280s-117 -280 -283 -280s-283 101 -283 280s117 280 283 280zM197 598h-71c8 62 50 132 121 132c51 0 113 -40 144 -40c24 0 38 18 43 40h70
c-4 -49 -30 -127 -119 -127c-67 0 -106 37 -144 37c-24 0 -40 -22 -44 -42z" />
    <glyph glyph-name="p" unicode="p" horiz-adv-x="611" 
d="M63 -176v708h144v-49h2c37 48 93 63 142 63c126 0 228 -92 228 -262c0 -200 -84 -298 -227 -298c-51 0 -95 16 -131 48h-2v-210h-156zM215 266c0 -91 28 -166 108 -166s108 75 108 183c0 72 -28 149 -106 149s-110 -75 -110 -166z" />
    <glyph glyph-name="paragraph" unicode="&#xb6;" horiz-adv-x="620" 
d="M253 -124v487c-145 0 -223 64 -223 171c0 144 107 178 246 178h314v-836h-120v746h-97v-746h-120z" />
    <glyph glyph-name="parenleft" unicode="(" horiz-adv-x="352" 
d="M341 -108l-52 -60c-169 132 -253 262 -253 450c0 194 104 340 251 450l52 -53c-111 -109 -159 -217 -159 -397c0 -146 41 -279 161 -390z" />
    <glyph glyph-name="parenright" unicode=")" horiz-adv-x="352" 
d="M63 -168l-52 60c120 111 161 244 161 390c0 180 -48 288 -159 397l52 53c147 -110 251 -256 251 -450c0 -188 -84 -318 -253 -450z" />
    <glyph glyph-name="percent" unicode="%" horiz-adv-x="889" 
d="M214 -14l389 735l59 -25l-390 -735zM231 412c32 0 47 26 47 97s-15 97 -47 97s-47 -26 -47 -97s15 -97 47 -97zM231 322c-80 0 -143 57 -143 187s63 187 143 187s143 -57 143 -187s-63 -187 -143 -187zM658 76c32 0 47 26 47 97s-15 97 -47 97s-47 -26 -47 -97
s15 -97 47 -97zM658 -14c-80 0 -143 57 -143 187s63 187 143 187s143 -57 143 -187s-63 -187 -143 -187z" />
    <glyph glyph-name="period" unicode="." horiz-adv-x="278" 
d="M220 0h-162v168h162v-168z" />
    <glyph glyph-name="periodcentered" unicode="&#xb7;" horiz-adv-x="278" 
d="M46 285c0 51 42 93 93 93s93 -42 93 -93s-42 -93 -93 -93s-93 42 -93 93z" />
    <glyph glyph-name="perthousand" unicode="&#x2030;" horiz-adv-x="1000" 
d="M122 -14l389 735l59 -25l-390 -735zM525 -14c-82 0 -137 73 -137 180c0 136 74 180 137 180c69 0 137 -44 137 -180s-72 -180 -137 -180zM525 70c34 0 47 34 47 96c0 55 -20 96 -47 96c-24 0 -47 -21 -47 -96c0 -74 20 -96 47 -96zM845 -14c-82 0 -137 73 -137 180
c0 136 74 180 137 180c69 0 137 -44 137 -180s-72 -180 -137 -180zM845 70c34 0 47 34 47 96c0 55 -20 96 -47 96c-24 0 -47 -21 -47 -96c0 -74 20 -96 47 -96zM155 336c-82 0 -137 73 -137 180c0 136 74 180 137 180c69 0 137 -44 137 -180s-72 -180 -137 -180zM155 420
c34 0 47 34 47 96c0 55 -20 96 -47 96c-24 0 -47 -21 -47 -96c0 -74 20 -96 47 -96z" />
    <glyph glyph-name="plus" unicode="+" horiz-adv-x="600" 
d="M240 313v193h120v-193h193v-120h-193v-193h-120v193h-193v120h193z" />
    <glyph glyph-name="plusminus" unicode="&#xb1;" horiz-adv-x="600" 
d="M240 388v118h120v-118h193v-120h-193v-118h-120v118h-193v120h193zM47 0v120h506v-120h-506z" />
    <glyph glyph-name="q" unicode="q" horiz-adv-x="611" 
d="M548 532v-708h-156v210h-2c-36 -32 -80 -48 -131 -48c-143 0 -227 98 -227 298c0 170 102 262 228 262c49 0 105 -15 142 -63h2v49h144zM396 266c0 91 -32 166 -110 166s-106 -77 -106 -149c0 -108 28 -183 108 -183s108 75 108 166z" />
    <glyph glyph-name="question" unicode="?" horiz-adv-x="611" 
d="M332 245h-126v31c0 122 191 136 191 249c0 55 -46 79 -95 79c-71 0 -116 -53 -119 -124l-141 47c51 177 189 191 264 191c195 0 263 -94 263 -182c0 -72 -39 -115 -82 -147l-128 -95c-18 -14 -25 -29 -27 -49zM350 0h-162v168h162v-168z" />
    <glyph glyph-name="questiondown" unicode="&#xbf;" horiz-adv-x="611" 
d="M279 287h126v-31c0 -122 -191 -136 -191 -249c0 -55 46 -79 95 -79c71 0 116 53 119 124l141 -47c-51 -177 -189 -191 -264 -191c-195 0 -263 94 -263 182c0 72 39 115 82 147l128 95c18 14 25 29 27 49zM261 532h162v-168h-162v168z" />
    <glyph glyph-name="quotedbl" unicode="&#x22;" horiz-adv-x="481" 
d="M272 368v344h120v-344h-120zM89 368v344h120v-344h-120z" />
    <glyph glyph-name="quotedblbase" unicode="&#x201e;" horiz-adv-x="481" 
d="M46 -176v73c49 13 63 61 63 103h-66v168h162v-168c0 -101 -72 -159 -159 -176zM279 -176v73c49 13 63 61 63 103h-66v168h162v-168c0 -101 -72 -159 -159 -176z" />
    <glyph glyph-name="quotedblleft" unicode="&#x201c;" horiz-adv-x="481" 
d="M202 712v-73c-49 -13 -63 -61 -63 -103h66v-168h-162v168c0 101 72 159 159 176zM435 712v-73c-49 -13 -63 -61 -63 -103h66v-168h-162v168c0 101 72 159 159 176z" />
    <glyph glyph-name="quotedblright" unicode="&#x201d;" horiz-adv-x="481" 
d="M46 368v73c49 13 63 61 63 103h-66v168h162v-168c0 -101 -72 -159 -159 -176zM279 368v73c49 13 63 61 63 103h-66v168h162v-168c0 -101 -72 -159 -159 -176z" />
    <glyph glyph-name="quoteleft" unicode="&#x2018;" horiz-adv-x="278" 
d="M217 712v-73c-49 -13 -63 -61 -63 -103h66v-168h-162v168c0 101 72 159 159 176z" />
    <glyph glyph-name="quoteright" unicode="&#x2019;" horiz-adv-x="278" 
d="M61 368v73c49 13 63 61 63 103h-66v168h162v-168c0 -101 -72 -159 -159 -176z" />
    <glyph glyph-name="quotesinglbase" unicode="&#x201a;" horiz-adv-x="278" 
d="M61 -176v73c49 13 63 61 63 103h-66v168h162v-168c0 -101 -72 -159 -159 -176z" />
    <glyph glyph-name="quotesingle" unicode="'" horiz-adv-x="278" 
d="M79 368v344h120v-344h-120z" />
    <glyph glyph-name="r" unicode="r" horiz-adv-x="389" 
d="M70 0v532h156v-54c34 32 91 52 146 56l1 -138l-17 -2c-93 -11 -130 -27 -130 -86v-308h-156z" />
    <glyph glyph-name="registered" unicode="&#xae;" horiz-adv-x="800" 
d="M338 324v-172h-90v412h202c77 0 124 -36 124 -117s-47 -113 -112 -117l105 -178h-101l-93 172h-35zM339 492v-96h78c35 0 55 9 55 48c0 45 -25 48 -55 48h-78zM680 356c0 181 -125 294 -280 294s-280 -113 -280 -294s125 -294 280 -294s280 113 280 294zM24 356
c0 208 168 376 376 376s376 -168 376 -376s-168 -376 -376 -376s-376 168 -376 376z" />
    <glyph glyph-name="ring" unicode="&#x2da;" horiz-adv-x="278" 
d="M251 692c0 -62 -51 -112 -112 -112s-112 51 -112 112s51 112 112 112s112 -50 112 -112zM191 692c0 28 -24 52 -52 52s-52 -25 -52 -52s24 -52 52 -52s52 24 52 52z" />
    <glyph glyph-name="s" unicode="s" 
d="M511 469l-96 -94c-31 37 -98 57 -147 57c-39 0 -67 -14 -67 -41c0 -91 315 -16 315 -215c0 -140 -124 -190 -240 -190s-182 33 -260 105l97 84c48 -46 97 -75 168 -75c26 0 85 6 85 54c0 83 -315 17 -315 206c0 134 117 186 225 186c82 0 163 -29 235 -77z" />
    <glyph glyph-name="scaron" unicode="&#x161;" 
d="M511 469l-96 -94c-31 37 -98 57 -147 57c-39 0 -67 -14 -67 -41c0 -91 315 -16 315 -215c0 -140 -124 -190 -240 -190s-182 33 -260 105l97 84c48 -46 97 -75 168 -75c26 0 85 6 85 54c0 83 -315 17 -315 206c0 134 117 186 225 186c82 0 163 -29 235 -77zM354 592h-153
l-114 150h128l62 -82l61 82h131z" />
    <glyph glyph-name="section" unicode="&#xa7;" 
d="M521 653l-87 -93c-70 49 -112 58 -152 58c-37 0 -59 -21 -59 -42c0 -31 14 -42 77 -72l121 -57c68 -32 115 -78 115 -165c0 -78 -34 -128 -101 -162c19 -15 46 -47 46 -102c0 -106 -95 -162 -209 -162c-97 0 -183 35 -240 84l96 88c28 -28 84 -58 143 -58
c52 0 66 25 66 44c0 26 -18 38 -40 50l-172 92c-65 34 -105 95 -105 160c0 77 40 127 107 153c-32 24 -48 61 -48 103c0 96 83 160 203 160c88 0 170 -31 239 -79zM203 266l152 -91c22 25 49 50 49 85c0 34 -28 55 -55 70l-145 78c-18 0 -53 -40 -52 -71
c1 -36 22 -53 51 -71z" />
    <glyph glyph-name="semicolon" unicode=";" horiz-adv-x="278" 
d="M61 -176v73c49 13 63 61 63 103h-66v168h162v-168c0 -101 -72 -159 -159 -176zM220 356h-162v168h162v-168z" />
    <glyph glyph-name="seven" unicode="7" 
d="M61 550v132h483v-126c-116 -120 -224 -344 -236 -556h-188c39 200 128 393 263 550h-322z" />
    <glyph glyph-name="six" unicode="6" 
d="M514 508l-160 -16c-5 38 -17 78 -63 78c-81 0 -97 -95 -100 -204h3c29 45 83 71 143 71c95 0 191 -63 191 -213c0 -144 -100 -238 -241 -238c-126 0 -252 72 -252 330c0 179 47 380 263 380c131 0 196 -68 216 -188zM372 218c0 53 -26 99 -82 99c-47 0 -81 -36 -81 -99
c0 -69 29 -106 81 -106c55 0 82 39 82 106z" />
    <glyph glyph-name="slash" unicode="/" horiz-adv-x="481" 
d="M26 -20l309 752h120l-309 -752h-120z" />
    <glyph glyph-name="space" unicode=" " horiz-adv-x="278" 
 />
    <glyph glyph-name="sterling" unicode="&#xa3;" 
d="M52 273v104h78c-39 38 -68 91 -68 139c0 106 98 180 230 180c122 0 232 -60 232 -198v-42h-148v25c0 59 -30 89 -75 89c-47 0 -77 -26 -77 -65c0 -44 32 -95 45 -128h125v-102h-99c4 -16 7 -35 7 -57c0 -23 -9 -50 -25 -79c19 -10 61 -27 80 -27c25 0 48 19 48 67v25h138
v-37c0 -47 -25 -181 -144 -181c-58 0 -109 19 -158 59c-30 -50 -83 -59 -117 -59c-64 0 -111 38 -111 104c0 60 35 113 108 113c24 0 47 -10 67 -22c0 39 -6 80 -16 92h-120zM121 125c-18 0 -30 -16 -30 -40c0 -16 12 -27 28 -27c24 0 40 15 53 41c-13 15 -34 26 -51 26z
" />
    <glyph glyph-name="t" unicode="t" horiz-adv-x="352" 
d="M333 522v-96h-93v-261c0 -42 21 -53 49 -53c17 0 39 2 47 3v-123c-20 -2 -66 -6 -100 -6c-133 0 -152 83 -152 160v280h-76v96h76v154h156v-154h93z" />
    <glyph glyph-name="thorn" unicode="&#xfe;" horiz-adv-x="611" 
d="M63 -176v888h156v-209c29 23 73 43 129 43c138 0 231 -92 231 -262c0 -200 -90 -298 -234 -298c-49 0 -110 27 -124 48h-2v-210h-156zM423 266c0 102 -25 166 -108 166c-80 0 -108 -75 -108 -166s28 -166 108 -166s108 75 108 166z" />
    <glyph glyph-name="three" unicode="3" 
d="M233 302v114h35c42 0 68 26 68 73c0 43 -11 81 -67 81c-49 0 -68 -51 -71 -98l-156 13c8 143 108 211 238 211c128 0 224 -60 224 -189c0 -83 -47 -125 -103 -145v-2c76 -23 126 -74 126 -158c0 -169 -139 -216 -259 -216c-174 0 -239 85 -239 245l160 13
c-2 -7 -4 -18 -4 -35c0 -50 18 -97 82 -97c51 0 82 30 82 91c0 69 -33 99 -85 99h-31z" />
    <glyph glyph-name="threequarters" unicode="&#xbe;" horiz-adv-x="834" 
d="M203 -36l415 754h88l-415 -754h-88zM135 568l-109 4c10 90 73 124 157 124c86 0 149 -40 149 -113c0 -40 -31 -74 -69 -86v-2c50 -13 84 -43 84 -91c0 -104 -108 -129 -169 -129c-103 0 -164 48 -164 150l108 6v-13c0 -51 27 -59 56 -59c25 0 49 20 49 49
c0 28 -22 48 -55 48h-23v72h21c31 0 48 17 48 44c0 23 -9 46 -40 46c-34 0 -41 -28 -43 -50zM659 163v144h-2l-106 -144h108zM479 91v77l180 241h108v-246h56v-72h-56v-91h-108v91h-180z" />
    <glyph glyph-name="threesuperior" unicode="&#xb3;" horiz-adv-x="361" 
d="M135 568l-109 4c10 90 73 124 157 124c86 0 149 -40 149 -113c0 -40 -31 -74 -69 -86v-2c50 -13 84 -43 84 -91c0 -104 -108 -129 -169 -129c-103 0 -164 48 -164 150l108 6v-13c0 -51 27 -59 56 -59c25 0 49 20 49 49c0 28 -22 48 -55 48h-23v72h21c31 0 48 17 48 44
c0 23 -9 46 -40 46c-34 0 -41 -28 -43 -50z" />
    <glyph glyph-name="tilde" unicode="&#x2dc;" horiz-adv-x="278" 
d="M21 598h-71c8 62 50 132 121 132c51 0 113 -40 144 -40c24 0 38 18 43 40h70c-4 -49 -30 -127 -119 -127c-67 0 -106 37 -144 37c-24 0 -40 -22 -44 -42z" />
    <glyph glyph-name="trademark" unicode="&#x2122;" horiz-adv-x="1000" 
d="M130 300v322h-112v90h344v-90h-112v-322h-120zM814 300v268h-2l-91 -268h-88l-91 268h-2v-268h-108v412h156l89 -240l89 240h156v-412h-108z" />
    <glyph glyph-name="two" unicode="2" 
d="M501 132v-132h-466v120c259 204 298 256 298 370c0 56 -24 86 -62 86c-56 0 -67 -66 -67 -106c0 -13 1 -24 3 -41l-165 15v29c0 109 80 223 226 223c138 0 233 -76 233 -205c0 -149 -65 -217 -258 -357v-2h258z" />
    <glyph glyph-name="twosuperior" unicode="&#xb2;" horiz-adv-x="361" 
d="M326 365v-84h-308v72c141 107 194 138 194 221c0 25 -22 44 -36 44c-21 0 -43 -21 -43 -54c0 -10 0 -21 3 -33l-111 9v23c0 61 40 133 150 133c77 0 151 -38 151 -122c0 -80 -41 -132 -158 -207v-2h158z" />
    <glyph glyph-name="u" unicode="u" horiz-adv-x="611" 
d="M541 532v-532h-156v47c-40 -47 -106 -61 -154 -61c-126 0 -161 73 -161 153v393h156v-348c0 -47 17 -72 76 -72c45 0 83 25 83 83v337h156z" />
    <glyph glyph-name="uacute" unicode="&#xfa;" horiz-adv-x="611" 
d="M541 532v-532h-156v47c-40 -47 -106 -61 -154 -61c-126 0 -161 73 -161 153v393h156v-348c0 -47 17 -72 76 -72c45 0 83 25 83 83v337h156zM211 592l99 150h181l-160 -150h-120z" />
    <glyph glyph-name="ucircumflex" unicode="&#xfb;" horiz-adv-x="611" 
d="M541 532v-532h-156v47c-40 -47 -106 -61 -154 -61c-126 0 -161 73 -161 153v393h156v-348c0 -47 17 -72 76 -72c45 0 83 25 83 83v337h156zM229 742h153l115 -150h-131l-61 82l-62 -82h-128z" />
    <glyph glyph-name="udieresis" unicode="&#xfc;" horiz-adv-x="611" 
d="M541 532v-532h-156v47c-40 -47 -106 -61 -154 -61c-126 0 -161 73 -161 153v393h156v-348c0 -47 17 -72 76 -72c45 0 83 25 83 83v337h156zM487 602h-150v126h150v-126zM275 602h-150v126h150v-126z" />
    <glyph glyph-name="ugrave" unicode="&#xf9;" horiz-adv-x="611" 
d="M541 532v-532h-156v47c-40 -47 -106 -61 -154 -61c-126 0 -161 73 -161 153v393h156v-348c0 -47 17 -72 76 -72c45 0 83 25 83 83v337h156zM302 742l99 -150h-120l-160 150h181z" />
    <glyph glyph-name="underscore" unicode="_" horiz-adv-x="500" 
d="M500 -125h-500v50h500v-50z" />
    <glyph glyph-name="v" unicode="v" horiz-adv-x="519" 
d="M180 0l-180 532h167l92 -376h2l92 376h166l-182 -532h-157z" />
    <glyph glyph-name="w" unicode="w" horiz-adv-x="796" 
d="M157 0l-159 532h162l71 -376h2l78 376h169l70 -376h2l83 376h163l-177 -532h-153l-76 347h-2l-79 -347h-154z" />
    <glyph glyph-name="x" unicode="x" horiz-adv-x="519" 
d="M13 532h179l68 -150l70 150h179l-163 -252l175 -280h-172l-91 172l-87 -172h-173l174 277z" />
    <glyph glyph-name="y" unicode="y" horiz-adv-x="500" 
d="M41 -176v122c18 -1 36 -2 53 -2c47 0 72 9 72 39c0 8 -1 17 -14 57l-156 492h164l86 -406h2l87 406h169l-187 -567c-27 -81 -61 -141 -153 -141h-123z" />
    <glyph glyph-name="yacute" unicode="&#xfd;" horiz-adv-x="500" 
d="M41 -176v122c18 -1 36 -2 53 -2c47 0 72 9 72 39c0 8 -1 17 -14 57l-156 492h164l86 -406h2l87 406h169l-187 -567c-27 -81 -61 -141 -153 -141h-123zM110 592l99 150h181l-160 -150h-120z" />
    <glyph glyph-name="ydieresis" unicode="&#xff;" horiz-adv-x="500" 
d="M41 -176v122c18 -1 36 -2 53 -2c47 0 72 9 72 39c0 8 -1 17 -14 57l-156 492h164l86 -406h2l87 406h169l-187 -567c-27 -81 -61 -141 -153 -141h-123zM431 602h-150v126h150v-126zM219 602h-150v126h150v-126z" />
    <glyph glyph-name="yen" unicode="&#xa5;" 
d="M197 0v141h-149v102h149v73h-149v102h88l-159 264h200l101 -246l101 246h200l-159 -264h88v-102h-149v-73h149v-102h-149v-141h-162z" />
    <glyph glyph-name="z" unicode="z" horiz-adv-x="574" 
d="M77 412v120h451v-126l-283 -286h281v-120h-480v126l283 286h-252z" />
    <glyph glyph-name="zcaron" unicode="&#x17e;" horiz-adv-x="574" 
d="M77 412v120h451v-126l-283 -286h281v-120h-480v126l283 286h-252zM363 592h-153l-114 150h128l62 -82l61 82h131z" />
    <glyph glyph-name="zero" unicode="0" 
d="M371 341c0 179 -35 229 -93 229c-46 0 -93 -50 -93 -229c0 -173 32 -229 93 -229c59 0 93 50 93 229zM521 341c0 -273 -125 -355 -243 -355s-243 82 -243 355c0 255 117 355 243 355c124 0 243 -82 243 -355z" />
  </font>
</defs>
</svg>
