<?xml version="1.0" standalone="no"?>
<!DOCTYPE svg PUBLIC "-//W3C//DTD SVG 1.1//EN" "http://www.w3.org/Graphics/SVG/1.1/DTD/svg11.dtd" >
<svg xmlns="http://www.w3.org/2000/svg" width="100%" height="100%">
<metadata>
Created by FontXChange 20110222 at Mon Feb 25 17:52:47 2019
 By Suzi Rubino
Copyright 1990-1992 as an unpublished work by Bitstream Inc.  All rights reserved.  Confidential.
</metadata>
<defs>
<font id="BodoniBT-Italic" horiz-adv-x="500" >
  <font-face 
    font-family="BodoniBT"
    font-weight="400"
    font-stretch="normal"
    units-per-em="1000"
    panose-1="2 0 5 3 0 0 0 0 0 0"
    ascent="800"
    descent="-200"
    x-height="398"
    cap-height="667"
    bbox="-172 -236 1163 955"
    underline-thickness="60"
    underline-position="-117"
    slope="-11"
    stemh="22"
    stemv="101"
    unicode-range="U+0020-FB02"
  />
    <missing-glyph />
    <glyph glyph-name="A" unicode="A" horiz-adv-x="611" 
d="M123 0h-183v25h55l418 656h35l13 -656h90v-25h-301v25h90l-3 179h-195l-116 -179h97v-25zM337 231l-6 269l-173 -269h179z" />
    <glyph glyph-name="AE" unicode="&#xc6;" horiz-adv-x="933" 
d="M397 324l62 317h-25l-211 -317h174zM666 199h-27c1 20 1 33 1 38c0 69 -23 95 -101 95h-14l-60 -307h113c110 0 162 44 228 185l30 -3l-50 -207h-541v25h95l52 271h-187l-181 -271h96v-25h-182v25h54l300 447c35 52 56 89 56 119c0 35 -26 50 -80 50h-15v26h628l-26 -183
h-29v25c0 88 -38 132 -125 132h-117l-54 -285h16c87 0 127 38 148 119h26z" />
    <glyph glyph-name="Aacute" unicode="&#xc1;" horiz-adv-x="611" 
d="M123 0h-183v25h55l418 656h35l13 -656h90v-25h-301v25h90l-3 179h-195l-116 -179h97v-25zM337 231l-6 269l-173 -269h179zM386 734h-43l143 145c21 21 40 31 55 31c23 0 39 -17 39 -40c0 -18 -12 -29 -37 -44z" />
    <glyph glyph-name="Acircumflex" unicode="&#xc2;" horiz-adv-x="611" 
d="M123 0h-183v25h55l418 656h35l13 -656h90v-25h-301v25h90l-3 179h-195l-116 -179h97v-25zM337 231l-6 269l-173 -269h179zM564 734h-36l-81 95l-123 -95h-47l151 171h55z" />
    <glyph glyph-name="Adieresis" unicode="&#xc4;" horiz-adv-x="611" 
d="M123 0h-183v25h55l418 656h35l13 -656h90v-25h-301v25h90l-3 179h-195l-116 -179h97v-25zM337 231l-6 269l-173 -269h179zM300 814c0 27 25 52 52 52c29 0 53 -24 53 -52c0 -31 -23 -54 -53 -54c-28 0 -52 23 -52 54zM480 814c0 27 25 52 52 52c29 0 53 -24 53 -52
c0 -31 -23 -54 -53 -54c-28 0 -52 23 -52 54z" />
    <glyph glyph-name="Agrave" unicode="&#xc0;" horiz-adv-x="611" 
d="M123 0h-183v25h55l418 656h35l13 -656h90v-25h-301v25h90l-3 179h-195l-116 -179h97v-25zM337 231l-6 269l-173 -269h179zM513 734h-39l-130 97c-19 14 -29 28 -29 42c0 22 17 37 37 37c13 0 28 -9 41 -25z" />
    <glyph glyph-name="Aring" unicode="&#xc5;" horiz-adv-x="611" 
d="M123 0h-183v25h55l418 656h35l13 -656h90v-25h-301v25h90l-3 179h-195l-116 -179h97v-25zM337 231l-6 269l-173 -269h179zM316 834c0 67 53 121 121 121s121 -54 121 -121c0 -68 -53 -121 -121 -121s-121 53 -121 121zM364 833c0 -40 32 -72 73 -72c40 0 72 31 72 72
s-32 73 -72 73c-41 0 -73 -32 -73 -73z" />
    <glyph glyph-name="Atilde" unicode="&#xc3;" horiz-adv-x="611" 
d="M123 0h-183v25h55l418 656h35l13 -656h90v-25h-301v25h90l-3 179h-195l-116 -179h97v-25zM337 231l-6 269l-173 -269h179zM589 869c-13 -65 -46 -99 -93 -99c-11 0 -23 2 -38 6l-64 17c-13 3 -23 5 -29 5c-21 0 -33 -13 -39 -39h-30c9 65 39 99 88 99c11 0 22 -2 35 -5
l63 -17c12 -3 22 -5 28 -5c28 0 42 11 49 38h30z" />
    <glyph glyph-name="B" unicode="B" horiz-adv-x="662" 
d="M257 362h46c53 0 93 2 124 29c34 30 57 85 57 144c0 83 -42 106 -141 106h-33zM191 25h80c112 0 166 52 166 185c0 87 -48 127 -148 127h-37zM5 0v25h63l119 616h-83v25h293c144 0 217 -49 217 -144s-71 -160 -201 -172v-7c100 -18 155 -77 155 -165
c0 -134 -87 -178 -265 -178h-298z" />
    <glyph glyph-name="C" unicode="C" horiz-adv-x="662" 
d="M521 4h-22l-26 31c-55 -35 -106 -52 -167 -52c-160 0 -263 112 -263 271c0 103 49 222 133 312c72 77 153 115 248 115c52 0 89 -13 131 -52l41 40h22l-28 -190h-27c-20 122 -66 181 -142 181c-78 0 -138 -55 -181 -166c-46 -118 -65 -227 -65 -304
c0 -116 51 -179 140 -179c86 0 164 62 219 186h30z" />
    <glyph glyph-name="Ccedilla" unicode="&#xc7;" horiz-adv-x="662" 
d="M521 4h-22l-26 31c-55 -35 -106 -52 -167 -52c-160 0 -263 112 -263 271c0 103 49 222 133 312c72 77 153 115 248 115c52 0 89 -13 131 -52l41 40h22l-28 -190h-27c-20 122 -66 181 -142 181c-78 0 -138 -55 -181 -166c-46 -118 -65 -227 -65 -304
c0 -116 51 -179 140 -179c86 0 164 62 219 186h30zM167 -186l18 44c41 -26 83 -37 114 -37c37 0 54 14 54 43c0 27 -18 42 -51 42c-11 0 -26 -2 -47 -5l32 99h31l-18 -56c15 2 28 2 35 2c54 0 87 -33 87 -81c0 -53 -39 -88 -110 -88c-39 0 -87 14 -145 37z" />
    <glyph glyph-name="D" unicode="D" horiz-adv-x="718" 
d="M5 0v25h63l119 616h-83v26h277c62 0 111 -8 149 -27c87 -43 146 -142 146 -261c0 -115 -55 -227 -148 -302c-76 -61 -147 -77 -241 -77h-282zM191 25h74c95 0 157 19 199 93c49 87 77 202 77 336c0 145 -52 187 -176 187h-55z" />
    <glyph glyph-name="E" unicode="E" horiz-adv-x="664" 
d="M257 332l-60 -307h113c110 0 161 44 227 185l31 -3l-51 -207h-540v25h94l120 616h-83v26h505l-26 -183h-29v25c0 88 -39 132 -126 132h-116l-54 -285h16c87 0 126 38 147 119h27l-54 -276h-27v33c0 72 -14 100 -104 100h-10z" />
    <glyph glyph-name="Eacute" unicode="&#xc9;" horiz-adv-x="664" 
d="M257 332l-60 -307h113c110 0 161 44 227 185l31 -3l-51 -207h-540v25h94l120 616h-83v26h505l-26 -183h-29v25c0 88 -39 132 -126 132h-116l-54 -285h16c87 0 126 38 147 119h27l-54 -276h-27v33c0 72 -14 100 -104 100h-10zM348 734h-43l143 145c21 21 40 31 55 31
c23 0 39 -17 39 -40c0 -18 -12 -29 -37 -44z" />
    <glyph glyph-name="Ecircumflex" unicode="&#xca;" horiz-adv-x="664" 
d="M257 332l-60 -307h113c110 0 161 44 227 185l31 -3l-51 -207h-540v25h94l120 616h-83v26h505l-26 -183h-29v25c0 88 -39 132 -126 132h-116l-54 -285h16c87 0 126 38 147 119h27l-54 -276h-27v33c0 72 -14 100 -104 100h-10zM526 734h-36l-81 95l-123 -95h-47l151 171h55
z" />
    <glyph glyph-name="Edieresis" unicode="&#xcb;" horiz-adv-x="664" 
d="M257 332l-60 -307h113c110 0 161 44 227 185l31 -3l-51 -207h-540v25h94l120 616h-83v26h505l-26 -183h-29v25c0 88 -39 132 -126 132h-116l-54 -285h16c87 0 126 38 147 119h27l-54 -276h-27v33c0 72 -14 100 -104 100h-10zM262 814c0 27 25 52 52 52
c29 0 53 -24 53 -52c0 -31 -23 -54 -53 -54c-28 0 -52 23 -52 54zM442 814c0 27 25 52 52 52c29 0 53 -24 53 -52c0 -31 -23 -54 -53 -54c-28 0 -52 23 -52 54z" />
    <glyph glyph-name="Egrave" unicode="&#xc8;" horiz-adv-x="664" 
d="M257 332l-60 -307h113c110 0 161 44 227 185l31 -3l-51 -207h-540v25h94l120 616h-83v26h505l-26 -183h-29v25c0 88 -39 132 -126 132h-116l-54 -285h16c87 0 126 38 147 119h27l-54 -276h-27v33c0 72 -14 100 -104 100h-10zM475 734h-39l-130 97c-19 14 -29 28 -29 42
c0 22 17 37 37 37c13 0 28 -9 41 -25z" />
    <glyph glyph-name="Eth" unicode="&#xd0;" horiz-adv-x="718" 
d="M191 25h74c95 0 157 19 199 93c49 87 77 202 77 336c0 145 -52 187 -176 187h-55l-54 -278h147v-30h-153zM5 0v25h63l60 308h-128v30h134l53 278h-83v26h277c62 0 111 -8 149 -27c87 -43 146 -142 146 -261c0 -115 -55 -227 -148 -302c-76 -61 -147 -77 -241 -77h-282z
" />
    <glyph glyph-name="F" unicode="F" horiz-adv-x="611" 
d="M250 332l-60 -307h85v-25h-305v25h94l120 616h-83v26h505l-26 -183h-29v25c0 88 -39 132 -126 132h-116l-54 -285h16c87 0 127 38 148 119h26l-54 -276h-27v24c0 78 -8 109 -105 109h-9z" />
    <glyph glyph-name="G" unicode="G" horiz-adv-x="718" 
d="M674 244v-25h-72c-32 -150 -138 -236 -290 -236c-165 0 -269 110 -269 271c0 103 49 222 133 312c72 77 153 115 248 115c52 0 89 -13 131 -52l41 40h22l-28 -190h-27c-20 122 -66 181 -142 181c-78 0 -138 -54 -181 -165c-46 -118 -66 -234 -66 -323
c0 -106 46 -162 130 -162c98 0 144 64 156 209h-90v25h304z" />
    <glyph glyph-name="H" unicode="H" horiz-adv-x="773" 
d="M275 0h-270v25h63l119 616h-83v26h301v-26h-95l-55 -282h272l55 282h-84v26h271v-26h-63l-120 -616h83v-25h-301v25h95l58 304h-272l-58 -304h84v-25z" />
    <glyph glyph-name="I" unicode="I" horiz-adv-x="387" 
d="M281 0h-304v25h94l120 616h-83v26h303v-26h-95l-119 -616h84v-25z" />
    <glyph glyph-name="Iacute" unicode="&#xcd;" horiz-adv-x="387" 
d="M281 0h-304v25h94l120 616h-83v26h303v-26h-95l-119 -616h84v-25zM230 734h-43l143 145c21 21 40 31 55 31c23 0 39 -17 39 -40c0 -18 -12 -29 -37 -44z" />
    <glyph glyph-name="Icircumflex" unicode="&#xce;" horiz-adv-x="387" 
d="M281 0h-304v25h94l120 616h-83v26h303v-26h-95l-119 -616h84v-25zM408 734h-36l-81 95l-123 -95h-47l151 171h55z" />
    <glyph glyph-name="Idieresis" unicode="&#xcf;" horiz-adv-x="387" 
d="M281 0h-304v25h94l120 616h-83v26h303v-26h-95l-119 -616h84v-25zM144 814c0 27 25 52 52 52c29 0 53 -24 53 -52c0 -31 -23 -54 -53 -54c-28 0 -52 23 -52 54zM324 814c0 27 25 52 52 52c29 0 53 -24 53 -52c0 -31 -23 -54 -53 -54c-28 0 -52 23 -52 54z" />
    <glyph glyph-name="Igrave" unicode="&#xcc;" horiz-adv-x="387" 
d="M281 0h-304v25h94l120 616h-83v26h303v-26h-95l-119 -616h84v-25zM357 734h-39l-130 97c-19 14 -29 28 -29 42c0 22 17 37 37 37c13 0 28 -9 41 -25z" />
    <glyph glyph-name="J" unicode="J" horiz-adv-x="435" 
d="M236 641h-83v26h303v-26h-94l-84 -438c-35 -185 -88 -291 -223 -291c-67 0 -109 37 -109 86c0 39 23 65 58 65c32 0 52 -19 52 -47c0 -36 -30 -51 -30 -61c0 -7 12 -17 29 -17c42 0 54 39 67 109z" />
    <glyph glyph-name="K" unicode="K" horiz-adv-x="718" 
d="M281 0h-304v25h94l120 616h-83v26h303v-26h-95l-119 -616h84v-25zM690 0h-320v25h93l-196 323l319 293h-101v26h230v-26h-83l-263 -243l233 -373h88v-25z" />
    <glyph glyph-name="L" unicode="L" horiz-adv-x="609" 
d="M190 25h113c110 0 162 44 228 185l30 -3l-51 -207h-540v25h94l120 616h-83v26h293v-26h-85z" />
    <glyph glyph-name="Lslash" unicode="&#x141;" horiz-adv-x="609" 
d="M255 366l170 97v-32l-178 -103l-57 -303h113c110 0 162 44 228 185l30 -3l-51 -207h-540v25h94l49 256l-126 -72v33l134 76l63 323h-83v26h293v-26h-85z" />
    <glyph glyph-name="M" unicode="M" horiz-adv-x="833" 
d="M183 0h-197v25h82l121 616h-83v26h242l46 -438h9l219 438h234v-26h-92l-121 -616h86v-25h-296v25h86l115 588h-11l-304 -613h-30l-64 614h-10l-117 -589h85v-25z" />
    <glyph glyph-name="N" unicode="N" horiz-adv-x="718" 
d="M178 0h-197v25h82l121 616h-83v26h230l189 -462h11l87 436h-86v26h199v-26h-81l-132 -662h-37l-262 635h-9l-117 -589h85v-25z" />
    <glyph glyph-name="Ntilde" unicode="&#xd1;" horiz-adv-x="718" 
d="M178 0h-197v25h82l121 616h-83v26h230l189 -462h11l87 436h-86v26h199v-26h-81l-132 -662h-37l-262 635h-9l-117 -589h85v-25zM598 869c-13 -65 -46 -99 -93 -99c-11 0 -23 2 -38 6l-64 17c-13 3 -23 5 -29 5c-21 0 -33 -13 -39 -39h-30c9 65 39 99 88 99
c11 0 22 -2 35 -5l63 -17c12 -3 22 -5 28 -5c28 0 42 11 49 38h30z" />
    <glyph glyph-name="O" unicode="O" horiz-adv-x="718" 
d="M41 252c0 92 36 186 108 274c83 103 179 155 283 155c143 0 245 -114 245 -269c0 -89 -37 -185 -107 -272c-84 -104 -180 -156 -286 -156c-142 0 -243 115 -243 268zM418 656c-81 0 -136 -55 -179 -168c-40 -108 -62 -232 -62 -322c0 -107 39 -157 122 -157
c80 0 137 54 179 167c40 107 61 233 61 322c0 107 -38 158 -121 158z" />
    <glyph glyph-name="OE" unicode="&#x152;" horiz-adv-x="1037" 
d="M629 332l-60 -307h113c110 0 161 44 227 185l31 -3l-51 -207h-580c-168 0 -268 114 -268 262c0 99 52 210 149 300c90 84 169 105 282 105h513l-26 -183h-29v25c0 88 -39 132 -126 132h-116l-54 -285h16c87 0 126 38 147 119h27l-54 -276h-27c1 20 1 33 1 38
c0 69 -23 95 -101 95h-14zM538 504c4 19 5 36 5 49c0 58 -39 90 -111 90c-81 0 -143 -45 -186 -136c-47 -98 -76 -233 -76 -315c0 -106 56 -165 153 -165s131 61 152 165z" />
    <glyph glyph-name="Oacute" unicode="&#xd3;" horiz-adv-x="718" 
d="M41 252c0 92 36 186 108 274c83 103 179 155 283 155c143 0 245 -114 245 -269c0 -89 -37 -185 -107 -272c-84 -104 -180 -156 -286 -156c-142 0 -243 115 -243 268zM418 656c-81 0 -136 -55 -179 -168c-40 -108 -62 -232 -62 -322c0 -107 39 -157 122 -157
c80 0 137 54 179 167c40 107 61 233 61 322c0 107 -38 158 -121 158zM401 734h-43l143 145c21 21 40 31 55 31c23 0 39 -17 39 -40c0 -18 -12 -29 -37 -44z" />
    <glyph glyph-name="Ocircumflex" unicode="&#xd4;" horiz-adv-x="718" 
d="M41 252c0 92 36 186 108 274c83 103 179 155 283 155c143 0 245 -114 245 -269c0 -89 -37 -185 -107 -272c-84 -104 -180 -156 -286 -156c-142 0 -243 115 -243 268zM418 656c-81 0 -136 -55 -179 -168c-40 -108 -62 -232 -62 -322c0 -107 39 -157 122 -157
c80 0 137 54 179 167c40 107 61 233 61 322c0 107 -38 158 -121 158zM579 734h-36l-81 95l-123 -95h-47l151 171h55z" />
    <glyph glyph-name="Odieresis" unicode="&#xd6;" horiz-adv-x="718" 
d="M41 252c0 92 36 186 108 274c83 103 179 155 283 155c143 0 245 -114 245 -269c0 -89 -37 -185 -107 -272c-84 -104 -180 -156 -286 -156c-142 0 -243 115 -243 268zM418 656c-81 0 -136 -55 -179 -168c-40 -108 -62 -232 -62 -322c0 -107 39 -157 122 -157
c80 0 137 54 179 167c40 107 61 233 61 322c0 107 -38 158 -121 158zM315 814c0 27 25 52 52 52c29 0 53 -24 53 -52c0 -31 -23 -54 -53 -54c-28 0 -52 23 -52 54zM495 814c0 27 25 52 52 52c29 0 53 -24 53 -52c0 -31 -23 -54 -53 -54c-28 0 -52 23 -52 54z" />
    <glyph glyph-name="Ograve" unicode="&#xd2;" horiz-adv-x="718" 
d="M41 252c0 92 36 186 108 274c83 103 179 155 283 155c143 0 245 -114 245 -269c0 -89 -37 -185 -107 -272c-84 -104 -180 -156 -286 -156c-142 0 -243 115 -243 268zM418 656c-81 0 -136 -55 -179 -168c-40 -108 -62 -232 -62 -322c0 -107 39 -157 122 -157
c80 0 137 54 179 167c40 107 61 233 61 322c0 107 -38 158 -121 158zM528 734h-39l-130 97c-19 14 -29 28 -29 42c0 22 17 37 37 37c13 0 28 -9 41 -25z" />
    <glyph glyph-name="Oslash" unicode="&#xd8;" horiz-adv-x="718" 
d="M193 2l-47 -81h-40l56 98c-76 45 -121 133 -121 235c0 106 47 213 141 309c78 79 160 120 247 120c33 0 66 -8 101 -21l34 63h40l-42 -76c73 -47 115 -132 115 -235c0 -113 -57 -233 -158 -328c-74 -69 -155 -105 -227 -105c-35 0 -68 7 -99 21zM506 624
c-26 22 -53 34 -81 34c-84 0 -133 -44 -174 -140c-47 -110 -70 -233 -70 -315c0 -38 6 -73 22 -111zM219 49c16 -26 43 -39 82 -39c78 0 132 53 175 164c40 103 63 231 63 323c0 31 -5 62 -11 96z" />
    <glyph glyph-name="Otilde" unicode="&#xd5;" horiz-adv-x="718" 
d="M41 252c0 92 36 186 108 274c83 103 179 155 283 155c143 0 245 -114 245 -269c0 -89 -37 -185 -107 -272c-84 -104 -180 -156 -286 -156c-142 0 -243 115 -243 268zM418 656c-81 0 -136 -55 -179 -168c-40 -108 -62 -232 -62 -322c0 -107 39 -157 122 -157
c80 0 137 54 179 167c40 107 61 233 61 322c0 107 -38 158 -121 158zM604 869c-13 -65 -46 -99 -93 -99c-11 0 -23 2 -38 6l-64 17c-13 3 -23 5 -29 5c-21 0 -33 -13 -39 -39h-30c9 65 39 99 88 99c11 0 22 -2 35 -5l63 -17c12 -3 22 -5 28 -5c28 0 42 11 49 38h30z" />
    <glyph glyph-name="P" unicode="P" horiz-adv-x="620" 
d="M275 0h-270v25h63l119 616h-83v25h293c144 0 217 -56 217 -161c0 -76 -34 -133 -101 -166c-66 -33 -141 -33 -229 -33h-38l-55 -281h84v-25zM253 335h49c55 0 95 2 125 31c35 33 57 92 57 159c0 90 -40 116 -141 116h-33z" />
    <glyph glyph-name="Q" unicode="Q" horiz-adv-x="718" 
d="M418 656c-81 0 -136 -56 -179 -169c-40 -107 -62 -233 -62 -323c0 -107 39 -158 122 -158c80 0 136 55 179 169c40 106 61 232 61 322c0 107 -38 159 -121 159zM544 -209c-40 -7 -73 -11 -100 -11c-147 0 -222 59 -222 177c0 11 1 22 2 34c-116 34 -183 131 -183 260
c0 90 36 186 106 273c84 104 180 157 285 157c143 0 245 -115 245 -270c0 -168 -128 -357 -316 -421c-3 -26 -5 -50 -5 -72c0 -66 46 -110 121 -110c21 0 43 4 67 10v-27z" />
    <glyph glyph-name="R" unicode="R" horiz-adv-x="699" 
d="M273 0h-264v25h63l120 616h-83v25h292c144 0 217 -50 217 -141c0 -102 -89 -167 -252 -171v-11c116 -26 167 -87 167 -202v-56c0 -48 20 -73 58 -73c13 0 30 4 49 10v-28c-26 -11 -55 -15 -86 -15c-94 0 -150 56 -154 153l-5 105c-3 66 -50 111 -125 111
c-4 0 -9 -1 -14 -1l-61 -322h78v-25zM262 373h45c54 0 94 2 125 28c35 29 57 83 57 139c0 81 -44 101 -142 101h-32z" />
    <glyph glyph-name="S" unicode="S" horiz-adv-x="553" 
d="M50 0h-21l25 190h32c17 -118 76 -179 165 -179c84 0 151 62 151 139c0 46 -28 87 -75 111l-84 43c-88 45 -137 80 -137 181c0 116 76 196 188 196c58 0 101 -18 136 -57l49 46h14l-27 -179h-26c-14 105 -65 162 -140 162c-81 0 -134 -51 -134 -109c0 -47 27 -65 75 -89
l93 -47c92 -46 132 -107 132 -196c0 -133 -86 -229 -226 -229c-57 0 -104 22 -134 60z" />
    <glyph glyph-name="Scaron" unicode="&#x160;" horiz-adv-x="553" 
d="M50 0h-21l25 190h32c17 -118 76 -179 165 -179c84 0 151 62 151 139c0 46 -28 87 -75 111l-84 43c-88 45 -137 80 -137 181c0 116 76 196 188 196c58 0 101 -18 136 -57l49 46h14l-27 -179h-26c-14 105 -65 162 -140 162c-81 0 -134 -51 -134 -109c0 -47 27 -65 75 -89
l93 -47c92 -46 132 -107 132 -196c0 -133 -86 -229 -226 -229c-57 0 -104 22 -134 60zM244 905h36l81 -95l123 95h48l-151 -171h-56z" />
    <glyph glyph-name="T" unicode="T" horiz-adv-x="646" 
d="M409 0h-310v25h94l119 616h-20c-92 0 -155 -59 -199 -180h-33l49 206h547l-28 -206h-34c1 11 1 21 1 30c0 111 -33 151 -131 151c-9 0 -19 0 -29 -1l-119 -616h93v-25z" />
    <glyph glyph-name="Thorn" unicode="&#xde;" horiz-adv-x="620" 
d="M223 188h43c52 0 90 1 120 22c39 28 69 93 69 169c0 90 -41 116 -142 116h-32zM275 0h-270v25h63l119 616h-83v25h289v-25h-83l-23 -122h80c144 0 217 -55 217 -160c0 -76 -34 -133 -101 -166s-141 -33 -228 -33h-39l-25 -135h84v-25z" />
    <glyph glyph-name="U" unicode="U" horiz-adv-x="718" 
d="M187 641h-83v26h301v-26h-95l-88 -455c-4 -19 -6 -40 -6 -60c0 -73 43 -115 117 -115c107 0 176 65 200 189l86 441h-83v26h208v-26h-95l-82 -423c-31 -162 -102 -239 -254 -239c-131 0 -215 67 -215 163c0 19 3 44 9 77z" />
    <glyph glyph-name="Uacute" unicode="&#xda;" horiz-adv-x="718" 
d="M187 641h-83v26h301v-26h-95l-88 -455c-4 -19 -6 -40 -6 -60c0 -73 43 -115 117 -115c107 0 176 65 200 189l86 441h-83v26h208v-26h-95l-82 -423c-31 -162 -102 -239 -254 -239c-131 0 -215 67 -215 163c0 19 3 44 9 77zM416 734h-43l143 145c21 21 40 31 55 31
c23 0 39 -17 39 -40c0 -18 -12 -29 -37 -44z" />
    <glyph glyph-name="Ucircumflex" unicode="&#xdb;" horiz-adv-x="718" 
d="M187 641h-83v26h301v-26h-95l-88 -455c-4 -19 -6 -40 -6 -60c0 -73 43 -115 117 -115c107 0 176 65 200 189l86 441h-83v26h208v-26h-95l-82 -423c-31 -162 -102 -239 -254 -239c-131 0 -215 67 -215 163c0 19 3 44 9 77zM594 734h-36l-81 95l-123 -95h-47l151 171h55z
" />
    <glyph glyph-name="Udieresis" unicode="&#xdc;" horiz-adv-x="718" 
d="M187 641h-83v26h301v-26h-95l-88 -455c-4 -19 -6 -40 -6 -60c0 -73 43 -115 117 -115c107 0 176 65 200 189l86 441h-83v26h208v-26h-95l-82 -423c-31 -162 -102 -239 -254 -239c-131 0 -215 67 -215 163c0 19 3 44 9 77zM330 814c0 27 25 52 52 52c29 0 53 -24 53 -52
c0 -31 -23 -54 -53 -54c-28 0 -52 23 -52 54zM510 814c0 27 25 52 52 52c29 0 53 -24 53 -52c0 -31 -23 -54 -53 -54c-28 0 -52 23 -52 54z" />
    <glyph glyph-name="Ugrave" unicode="&#xd9;" horiz-adv-x="718" 
d="M187 641h-83v26h301v-26h-95l-88 -455c-4 -19 -6 -40 -6 -60c0 -73 43 -115 117 -115c107 0 176 65 200 189l86 441h-83v26h208v-26h-95l-82 -423c-31 -162 -102 -239 -254 -239c-131 0 -215 67 -215 163c0 19 3 44 9 77zM543 734h-39l-130 97c-19 14 -29 28 -29 42
c0 22 17 37 37 37c13 0 28 -9 41 -25z" />
    <glyph glyph-name="V" unicode="V" horiz-adv-x="611" 
d="M485 667h183v-26h-55l-422 -662h-32l-13 662h-90v26h301v-26h-90l9 -475l305 475h-96v26z" />
    <glyph glyph-name="W" unicode="W" horiz-adv-x="882" 
d="M175 -21h-36l-3 662h-87v26h669v-26h-56l-160 -231l2 -253h7l334 484h-67v26h162v-26h-59l-454 -662h-31v319zM251 153h8l131 190l-1 298h-136zM502 465l125 176h-126z" />
    <glyph glyph-name="X" unicode="X" horiz-adv-x="662" 
d="M176 0h-206v25h71l236 294l-124 322h-86v26h299v-26h-88l84 -220h8l178 220h-99v26h218v-26h-80l-209 -258l139 -358h83v-25h-306v25h96l-96 250h-11l-205 -250h98v-25z" />
    <glyph glyph-name="Y" unicode="Y" horiz-adv-x="606" 
d="M403 0h-310v25h93l54 284l-129 332h-75v26h300v-26h-98l112 -298h9l198 298h-94v26h192v-26h-61l-229 -342l-54 -274h92v-25z" />
    <glyph glyph-name="Yacute" unicode="&#xdd;" horiz-adv-x="606" 
d="M403 0h-310v25h93l54 284l-129 332h-75v26h300v-26h-98l112 -298h9l198 298h-94v26h192v-26h-61l-229 -342l-54 -274h92v-25zM339 734h-43l143 145c21 21 40 31 55 31c23 0 39 -17 39 -40c0 -18 -12 -29 -37 -44z" />
    <glyph glyph-name="Ydieresis" unicode="&#x178;" horiz-adv-x="606" 
d="M403 0h-310v25h93l54 284l-129 332h-75v26h300v-26h-98l112 -298h9l198 298h-94v26h192v-26h-61l-229 -342l-54 -274h92v-25zM253 814c0 27 25 52 52 52c29 0 53 -24 53 -52c0 -31 -23 -54 -53 -54c-28 0 -52 23 -52 54zM433 814c0 27 25 52 52 52c29 0 53 -24 53 -52
c0 -31 -23 -54 -53 -54c-28 0 -52 23 -52 54z" />
    <glyph glyph-name="Z" unicode="Z" horiz-adv-x="611" 
d="M490 0h-476v31l425 610h-98c-88 0 -154 -49 -207 -150h-30l43 176h434v-33l-424 -609h99c127 0 196 34 253 180h29z" />
    <glyph glyph-name="Zcaron" unicode="&#x17d;" horiz-adv-x="611" 
d="M490 0h-476v31l425 610h-98c-88 0 -154 -49 -207 -150h-30l43 176h434v-33l-424 -609h99c127 0 196 34 253 180h29zM273 905h36l81 -95l123 95h48l-151 -171h-56z" />
    <glyph glyph-name="a" unicode="a" horiz-adv-x="539" 
d="M274 372c-47 0 -77 -42 -102 -124c-29 -94 -36 -158 -36 -178c0 -38 19 -58 56 -58c46 0 92 40 119 116c20 56 30 127 30 155c0 55 -29 89 -67 89zM504 139l20 -11c-32 -90 -98 -143 -150 -143c-45 0 -69 21 -69 59v9h-6c-36 -48 -73 -68 -129 -68
c-79 0 -134 69 -134 153c0 58 24 121 67 171c50 58 112 89 163 89c46 0 76 -22 91 -67h8l15 58h99l-75 -322c-1 -3 -1 -7 -1 -13c0 -12 6 -18 18 -18c20 0 59 37 83 103z" />
    <glyph glyph-name="aacute" unicode="&#xe1;" horiz-adv-x="539" 
d="M274 372c-47 0 -77 -42 -102 -124c-29 -94 -36 -158 -36 -178c0 -38 19 -58 56 -58c46 0 92 40 119 116c20 56 30 127 30 155c0 55 -29 89 -67 89zM504 139l20 -11c-32 -90 -98 -143 -150 -143c-45 0 -69 21 -69 59v9h-6c-36 -48 -73 -68 -129 -68
c-79 0 -134 69 -134 153c0 58 24 121 67 171c50 58 112 89 163 89c46 0 76 -22 91 -67h8l15 58h99l-75 -322c-1 -3 -1 -7 -1 -13c0 -12 6 -18 18 -18c20 0 59 37 83 103zM275 452h-43l143 145c21 21 40 31 55 31c23 0 39 -17 39 -40c0 -18 -12 -29 -37 -44z" />
    <glyph glyph-name="acircumflex" unicode="&#xe2;" horiz-adv-x="539" 
d="M274 372c-47 0 -77 -42 -102 -124c-29 -94 -36 -158 -36 -178c0 -38 19 -58 56 -58c46 0 92 40 119 116c20 56 30 127 30 155c0 55 -29 89 -67 89zM504 139l20 -11c-32 -90 -98 -143 -150 -143c-45 0 -69 21 -69 59v9h-6c-36 -48 -73 -68 -129 -68
c-79 0 -134 69 -134 153c0 58 24 121 67 171c50 58 112 89 163 89c46 0 76 -22 91 -67h8l15 58h99l-75 -322c-1 -3 -1 -7 -1 -13c0 -12 6 -18 18 -18c20 0 59 37 83 103zM453 452h-36l-81 95l-123 -95h-47l151 171h55z" />
    <glyph glyph-name="acute" unicode="&#xb4;" 
d="M255 452h-43l143 145c21 21 40 31 55 31c23 0 39 -17 39 -40c0 -18 -12 -29 -37 -44z" />
    <glyph glyph-name="adieresis" unicode="&#xe4;" horiz-adv-x="539" 
d="M274 372c-47 0 -77 -42 -102 -124c-29 -94 -36 -158 -36 -178c0 -38 19 -58 56 -58c46 0 92 40 119 116c20 56 30 127 30 155c0 55 -29 89 -67 89zM504 139l20 -11c-32 -90 -98 -143 -150 -143c-45 0 -69 21 -69 59v9h-6c-36 -48 -73 -68 -129 -68
c-79 0 -134 69 -134 153c0 58 24 121 67 171c50 58 112 89 163 89c46 0 76 -22 91 -67h8l15 58h99l-75 -322c-1 -3 -1 -7 -1 -13c0 -12 6 -18 18 -18c20 0 59 37 83 103zM189 532c0 27 25 52 52 52c29 0 53 -24 53 -52c0 -31 -23 -54 -53 -54c-28 0 -52 23 -52 54zM369 532
c0 27 25 52 52 52c29 0 53 -24 53 -52c0 -31 -23 -54 -53 -54c-28 0 -52 23 -52 54z" />
    <glyph glyph-name="ae" unicode="&#xe6;" horiz-adv-x="713" 
d="M274 372c-47 0 -77 -42 -102 -124c-29 -94 -36 -158 -36 -178c0 -38 19 -58 56 -58c46 0 92 40 119 116c20 56 30 127 30 155c0 55 -29 89 -67 89zM453 389l-12 -53h8c34 43 71 63 118 63c68 0 126 -47 126 -103c0 -75 -76 -129 -221 -129c-16 0 -32 1 -49 2
c-8 -33 -13 -58 -13 -77c0 -51 29 -82 82 -82c59 0 120 36 163 103l19 -13c-41 -74 -109 -114 -187 -114c-79 0 -141 39 -164 105c-29 -68 -81 -105 -150 -105c-84 0 -137 68 -137 152c0 58 24 121 67 171c50 58 112 89 163 89c46 0 76 -22 91 -67h8l15 58h73zM430 194
c12 -1 22 -2 33 -2c93 0 140 41 140 119c0 39 -20 61 -54 61c-59 0 -94 -58 -119 -178z" />
    <glyph glyph-name="agrave" unicode="&#xe0;" horiz-adv-x="539" 
d="M274 372c-47 0 -77 -42 -102 -124c-29 -94 -36 -158 -36 -178c0 -38 19 -58 56 -58c46 0 92 40 119 116c20 56 30 127 30 155c0 55 -29 89 -67 89zM504 139l20 -11c-32 -90 -98 -143 -150 -143c-45 0 -69 21 -69 59v9h-6c-36 -48 -73 -68 -129 -68
c-79 0 -134 69 -134 153c0 58 24 121 67 171c50 58 112 89 163 89c46 0 76 -22 91 -67h8l15 58h99l-75 -322c-1 -3 -1 -7 -1 -13c0 -12 6 -18 18 -18c20 0 59 37 83 103zM402 452h-39l-130 97c-19 14 -29 28 -29 42c0 22 17 37 37 37c13 0 28 -9 41 -25z" />
    <glyph glyph-name="ampersand" unicode="&#x26;" horiz-adv-x="831" 
d="M390 441c85 27 127 74 127 141c0 51 -27 79 -71 79c-52 0 -90 -36 -90 -98c0 -18 8 -66 34 -122zM769 114c-36 -82 -109 -130 -184 -130c-62 0 -112 30 -154 91c-60 -61 -129 -91 -205 -91c-114 0 -187 79 -187 179c0 115 79 188 242 238c-12 49 -18 87 -18 116
c0 103 70 164 190 164c99 0 153 -44 153 -109c0 -72 -67 -114 -207 -158c28 -78 56 -150 94 -214c80 121 105 217 199 217c47 0 76 -25 76 -64c0 -31 -20 -55 -51 -55c-27 0 -47 19 -47 39c0 16 10 29 10 38c0 5 -3 7 -10 7c-49 0 -82 -85 -161 -213
c45 -84 87 -125 132 -125c41 0 75 27 108 84zM415 99c-37 46 -83 139 -126 279c-87 -32 -131 -86 -131 -158c0 -94 63 -187 134 -187c37 0 79 22 123 66z" />
    <glyph glyph-name="aring" unicode="&#xe5;" horiz-adv-x="539" 
d="M274 372c-47 0 -77 -42 -102 -124c-29 -94 -36 -158 -36 -178c0 -38 19 -58 56 -58c46 0 92 40 119 116c20 56 30 127 30 155c0 55 -29 89 -67 89zM504 139l20 -11c-32 -90 -98 -143 -150 -143c-45 0 -69 21 -69 59v9h-6c-36 -48 -73 -68 -129 -68
c-79 0 -134 69 -134 153c0 58 24 121 67 171c50 58 112 89 163 89c46 0 76 -22 91 -67h8l15 58h99l-75 -322c-1 -3 -1 -7 -1 -13c0 -12 6 -18 18 -18c20 0 59 37 83 103zM224 550c0 -40 32 -72 73 -72c40 0 72 31 72 72s-32 74 -72 74c-41 0 -73 -33 -73 -74zM176 551
c0 67 53 121 121 121s121 -54 121 -121c0 -68 -53 -121 -121 -121s-121 53 -121 121z" />
    <glyph glyph-name="asciicircum" unicode="^" horiz-adv-x="1000" 
d="M452 714h95l250 -276h-48l-250 205l-251 -205h-47z" />
    <glyph glyph-name="asciitilde" unicode="~" horiz-adv-x="833" 
d="M747 376v-76c-66 -46 -127 -69 -190 -69c-51 0 -95 18 -141 34c-47 16 -91 32 -141 32c-59 0 -117 -27 -188 -77v76c69 47 131 70 189 70c52 0 97 -14 142 -30c49 -17 93 -36 140 -36c62 0 120 27 189 76z" />
    <glyph glyph-name="asterisk" unicode="*" 
d="M265 490v8c0 64 -35 102 -35 136c0 27 17 47 41 47c22 0 40 -17 40 -44c0 -37 -34 -74 -34 -141v-6c72 37 80 109 135 109c22 0 37 -18 37 -39c0 -23 -17 -40 -49 -47c-20 -4 -60 0 -117 -33c53 -33 95 -28 120 -34c30 -8 47 -28 47 -48c0 -21 -18 -38 -41 -38
c-48 0 -59 68 -133 109v-8c0 -64 34 -101 34 -135c0 -27 -16 -47 -40 -47c-22 0 -40 16 -40 43c0 37 34 74 34 141v6c-72 -37 -81 -108 -136 -108c-22 0 -37 17 -37 38c0 23 18 40 50 47c20 4 60 1 117 34c-53 32 -95 28 -120 34c-31 8 -47 25 -47 47c0 21 17 39 40 39
c48 0 60 -69 134 -110z" />
    <glyph glyph-name="at" unicode="@" horiz-adv-x="986" 
d="M539 469c-37 0 -64 -21 -92 -63c-49 -74 -76 -163 -76 -226c0 -58 30 -93 69 -93c42 0 79 28 114 86c39 65 60 144 60 196c0 61 -31 100 -75 100zM579 162c-40 -68 -89 -101 -150 -101c-84 0 -138 65 -138 165c0 70 33 143 93 201c45 43 98 65 147 65
c58 0 95 -32 108 -93l25 85h77l-84 -299c-4 -15 -9 -31 -9 -48c0 -33 16 -52 44 -52c19 0 53 12 83 35c77 59 117 150 117 267c0 87 -34 160 -102 218c-58 50 -141 78 -235 78c-117 0 -220 -41 -298 -118c-82 -81 -124 -188 -124 -315c0 -116 34 -199 115 -267
c70 -59 167 -93 274 -93c110 0 212 33 306 101l16 -20c-96 -72 -205 -108 -321 -108c-124 0 -226 30 -303 88c-98 74 -151 183 -151 311c0 132 57 250 165 339c87 72 192 109 311 109c226 0 373 -134 373 -336c0 -104 -40 -198 -110 -261c-39 -35 -84 -53 -127 -53
c-62 0 -97 35 -102 102z" />
    <glyph glyph-name="atilde" unicode="&#xe3;" horiz-adv-x="539" 
d="M274 372c-47 0 -77 -42 -102 -124c-29 -94 -36 -158 -36 -178c0 -38 19 -58 56 -58c46 0 92 40 119 116c20 56 30 127 30 155c0 55 -29 89 -67 89zM504 139l20 -11c-32 -90 -98 -143 -150 -143c-45 0 -69 21 -69 59v9h-6c-36 -48 -73 -68 -129 -68
c-79 0 -134 69 -134 153c0 58 24 121 67 171c50 58 112 89 163 89c46 0 76 -22 91 -67h8l15 58h99l-75 -322c-1 -3 -1 -7 -1 -13c0 -12 6 -18 18 -18c20 0 59 37 83 103zM478 587c-13 -65 -46 -99 -93 -99c-11 0 -23 2 -38 6l-64 17c-13 3 -23 5 -29 5
c-21 0 -33 -13 -39 -39h-30c9 65 39 99 88 99c11 0 22 -2 35 -5l63 -17c12 -3 22 -5 28 -5c28 0 42 11 49 38h30z" />
    <glyph glyph-name="b" unicode="b" horiz-adv-x="528" 
d="M224 332h6c31 42 67 68 129 68c76 0 134 -68 134 -153c0 -132 -111 -261 -268 -261c-99 0 -155 43 -155 118c0 22 3 47 9 73l113 469h-77v23h58c39 0 76 2 113 9h22zM247 11c49 0 79 40 104 122c29 94 37 157 37 179c0 38 -19 57 -58 57c-47 0 -96 -39 -122 -115
c-24 -69 -35 -146 -35 -165c0 -49 29 -78 74 -78z" />
    <glyph glyph-name="backslash" unicode="\" horiz-adv-x="278" 
d="M162 -93l-88 774h51l88 -774h-51z" />
    <glyph glyph-name="bar" unicode="|" 
d="M214 764h73v-1000h-73v1000z" />
    <glyph glyph-name="braceleft" unicode="{" 
d="M414 740v-26c-95 -1 -115 -34 -115 -129v-69c0 -126 -16 -182 -135 -206c119 -24 135 -79 135 -206v-69c0 -95 19 -127 115 -128v-26h-5c-145 0 -187 42 -187 169v101c0 99 -26 135 -135 144v31c108 9 135 43 135 144v101c0 127 42 169 187 169h5z" />
    <glyph glyph-name="braceright" unicode="}" 
d="M86 740h5c145 0 188 -42 188 -169v-101c0 -101 27 -135 135 -144v-31c-108 -9 -135 -43 -135 -144v-101c0 -127 -43 -169 -188 -169h-5v26c95 1 116 33 116 128v69c0 127 15 182 134 206c-119 24 -134 80 -134 206v69c0 95 -21 128 -116 129v26z" />
    <glyph glyph-name="bracketleft" unicode="[" horiz-adv-x="347" 
d="M248 -209h-245l170 876h245l-7 -33h-173l-157 -810h173z" />
    <glyph glyph-name="bracketright" unicode="]" horiz-adv-x="347" 
d="M59 666h245l-170 -875h-244l6 33h173l157 810h-173z" />
    <glyph glyph-name="breve" unicode="&#x2d8;" 
d="M477 607c-57 -94 -112 -140 -188 -140c-73 0 -109 46 -110 140h30c8 -49 35 -70 85 -70c61 0 105 20 149 70h34z" />
    <glyph glyph-name="brokenbar" unicode="&#xa6;" 
d="M214 699h73v-370h-73v370zM214 199h73v-370h-73v370z" />
    <glyph glyph-name="bullet" unicode="&#x2022;" horiz-adv-x="590" 
d="M150 372c0 80 65 144 145 144c79 0 144 -64 144 -144c0 -79 -65 -145 -145 -145s-144 65 -144 145z" />
    <glyph glyph-name="c" unicode="c" horiz-adv-x="442" 
d="M369 120l20 -11c-48 -82 -109 -123 -182 -123c-104 0 -171 71 -171 165c0 126 118 247 255 247c68 0 121 -38 121 -85c0 -30 -18 -51 -50 -51c-31 0 -52 18 -52 41c0 28 25 43 25 50c0 12 -15 23 -41 23c-57 0 -84 -21 -109 -82c-34 -83 -48 -170 -48 -207
c0 -47 30 -75 79 -75c55 0 105 40 153 108z" />
    <glyph glyph-name="caron" unicode="&#x2c7;" 
d="M186 623h36l81 -95l123 95h48l-151 -171h-56z" />
    <glyph glyph-name="ccedilla" unicode="&#xe7;" horiz-adv-x="442" 
d="M369 120l20 -11c-48 -82 -109 -123 -182 -123c-104 0 -171 71 -171 165c0 126 118 247 255 247c68 0 121 -38 121 -85c0 -30 -18 -51 -50 -51c-31 0 -52 18 -52 41c0 28 25 43 25 50c0 12 -15 23 -41 23c-57 0 -84 -21 -109 -82c-34 -83 -48 -170 -48 -207
c0 -47 30 -75 79 -75c55 0 105 40 153 108zM44 -186l18 44c41 -26 83 -37 114 -37c37 0 54 14 54 43c0 27 -18 42 -51 42c-11 0 -26 -2 -47 -5l32 99h31l-18 -56c15 2 28 2 35 2c54 0 87 -33 87 -81c0 -53 -39 -88 -110 -88c-39 0 -87 14 -145 37z" />
    <glyph glyph-name="cedilla" unicode="&#xb8;" 
d="M79 -186l18 44c41 -26 83 -37 114 -37c37 0 54 14 54 43c0 27 -18 42 -51 42c-11 0 -26 -2 -47 -5l32 99h31l-18 -56c15 2 28 2 35 2c54 0 87 -33 87 -81c0 -53 -39 -88 -110 -88c-39 0 -87 14 -145 37z" />
    <glyph glyph-name="cent" unicode="&#xa2;" horiz-adv-x="509" 
d="M180 25l146 293c13 25 22 33 22 35c0 12 -15 23 -41 23c-56 0 -84 -21 -109 -81c-34 -84 -48 -166 -48 -209c0 -25 6 -40 30 -61zM129 -150h-38l71 144c-66 17 -113 81 -113 156c0 127 118 248 255 248c20 0 39 -4 58 -11l64 129h39l-72 -143c22 -18 32 -38 32 -60
c0 -30 -18 -51 -51 -51c-20 0 -31 9 -33 10l-129 -259h15c55 0 104 35 155 107l20 -11c-46 -80 -109 -122 -180 -122h-8c-1 0 -7 1 -16 1z" />
    <glyph glyph-name="circumflex" unicode="&#x2c6;" 
d="M433 452h-36l-81 95l-123 -95h-47l151 171h55z" />
    <glyph glyph-name="colon" unicode=":" horiz-adv-x="315" 
d="M254 332c0 -36 -30 -66 -66 -66c-37 0 -66 29 -66 66s29 66 66 66s66 -30 66 -66zM201 52c0 -36 -30 -66 -66 -66c-37 0 -66 29 -66 66s29 66 66 66s66 -30 66 -66z" />
    <glyph glyph-name="comma" unicode="," horiz-adv-x="255" 
d="M53 -146l-12 22c83 41 123 103 123 145c0 10 -5 18 -9 18c-15 0 -15 -46 -63 -46c-32 0 -54 22 -54 62c0 38 33 64 73 64c52 0 90 -37 90 -96s-55 -134 -148 -169z" />
    <glyph glyph-name="copyright" unicode="&#xa9;" horiz-adv-x="822" 
d="M412 679c90 0 179 -37 244 -101c64 -64 102 -154 102 -247c0 -91 -36 -178 -102 -245c-65 -66 -151 -102 -245 -102c-93 0 -178 36 -245 102s-102 150 -102 245c0 92 36 178 102 245c65 66 153 103 246 103zM412 637c-80 0 -158 -33 -215 -91c-58 -59 -88 -134 -88 -215
c0 -83 31 -157 89 -215c59 -58 132 -89 213 -89c82 0 156 31 213 89c58 59 90 136 90 215c0 80 -33 161 -89 217s-135 89 -213 89zM548 536h18l1 -154h-21c-21 88 -68 133 -137 133c-77 0 -117 -61 -117 -181c0 -122 44 -186 127 -186c55 0 100 29 137 86l19 -13
c-39 -68 -96 -103 -169 -103c-113 0 -201 92 -201 209c0 121 89 211 200 211c62 0 95 -32 112 -32c18 0 27 9 31 30z" />
    <glyph glyph-name="currency" unicode="&#xa4;" horiz-adv-x="606" 
d="M79 695l100 -100c37 28 78 42 124 42c47 0 88 -14 125 -42l100 100l40 -39l-100 -101c27 -36 40 -77 40 -123c0 -45 -12 -86 -40 -123l100 -100l-40 -40l-100 100c-35 -26 -75 -42 -124 -42c-47 0 -88 14 -125 42l-100 -100l-40 40l101 100c-22 28 -41 70 -41 123
c0 46 14 87 41 123l-101 101zM304 581c-82 0 -148 -67 -148 -148c0 -82 66 -149 148 -149s148 67 148 149c0 81 -66 148 -148 148z" />
    <glyph glyph-name="d" unicode="d" horiz-adv-x="560" 
d="M286 372c-51 0 -84 -42 -111 -124c-31 -92 -39 -158 -39 -178c0 -39 19 -58 61 -58c50 0 101 41 129 116c22 60 34 130 34 154c0 55 -31 90 -74 90zM525 139l21 -11c-33 -90 -102 -143 -157 -143c-48 0 -73 21 -73 59v9h-6c-38 -48 -77 -68 -135 -68
c-83 0 -141 70 -141 153c0 57 25 120 70 170c54 61 111 90 176 90c47 0 77 -22 92 -67h8l73 315h-77v23h58c39 0 77 2 114 9h21l-148 -611c-1 -5 -2 -9 -2 -13c0 -12 7 -18 20 -18c21 0 61 37 86 103z" />
    <glyph glyph-name="dagger" unicode="&#x2020;" 
d="M135 -158c32 151 51 286 51 405v18c39 43 65 102 80 180c-59 0 -99 -37 -139 -37c-29 0 -49 16 -49 42c0 29 17 48 45 48c35 0 75 -35 142 -35h5c8 28 12 55 12 84c0 42 -10 72 -10 88c0 28 18 46 44 46c28 0 46 -17 46 -43c0 -36 -53 -67 -73 -174c5 0 9 -1 13 -1
c57 0 93 34 125 34c34 0 52 -16 52 -44c0 -25 -18 -44 -43 -44c-36 0 -71 36 -146 36h-3c-7 -29 -10 -56 -10 -81c0 -33 6 -66 17 -98c-52 -104 -98 -245 -138 -424h-21z" />
    <glyph glyph-name="daggerdbl" unicode="&#x2021;" 
d="M180 265c39 43 65 103 80 181c-59 0 -99 -37 -139 -37c-29 0 -48 16 -48 42c0 29 17 47 45 47c35 0 74 -34 140 -34h6c8 28 12 55 12 84c0 42 -10 72 -10 88c0 28 19 46 45 46c28 0 45 -18 45 -44c0 -36 -52 -66 -72 -173c5 0 9 -1 14 -1c56 0 91 33 123 33
c34 0 52 -16 52 -44c0 -25 -18 -43 -43 -43c-36 0 -71 36 -146 36h-3c-7 -29 -10 -57 -10 -82c0 -32 6 -63 17 -97c-41 -49 -67 -108 -81 -183c59 0 99 36 139 36c29 0 48 -16 48 -42c0 -29 -16 -47 -44 -47c-35 0 -75 35 -142 35h-5c-8 -28 -12 -56 -12 -85
c0 -42 10 -71 10 -87c0 -28 -19 -47 -45 -47c-28 0 -45 18 -45 44c0 36 53 67 73 174c-5 0 -9 1 -13 1c-57 0 -92 -34 -125 -34c-34 0 -52 16 -52 44c0 25 18 44 43 44c36 0 71 -37 146 -37h3c7 30 10 58 10 81c0 32 -6 64 -16 101z" />
    <glyph glyph-name="degree" unicode="&#xb0;" horiz-adv-x="329" 
d="M165 711c77 0 140 -63 140 -141c0 -76 -61 -140 -141 -140c-79 0 -140 62 -140 140s64 141 141 141zM165 665c-52 0 -95 -41 -95 -94s42 -96 95 -96c54 0 94 44 94 96s-41 94 -94 94z" />
    <glyph glyph-name="dieresis" unicode="&#xa8;" 
d="M169 532c0 27 25 52 52 52c29 0 53 -24 53 -52c0 -31 -23 -54 -53 -54c-28 0 -52 23 -52 54zM349 532c0 27 25 52 52 52c29 0 53 -24 53 -52c0 -31 -23 -54 -53 -54c-28 0 -52 23 -52 54z" />
    <glyph glyph-name="divide" unicode="&#xf7;" horiz-adv-x="833" 
d="M417 540c33 0 61 -28 61 -62c0 -33 -27 -61 -61 -61s-61 27 -61 61s28 62 61 62zM124 332h585v-68h-585v68zM417 179c33 0 61 -27 61 -61c0 -33 -27 -61 -61 -61c-35 0 -61 27 -61 61s28 61 61 61z" />
    <glyph glyph-name="dollar" unicode="$" horiz-adv-x="509" 
d="M127 -97h-23l21 103c-74 19 -117 68 -117 113c0 49 24 81 62 81c28 0 44 -16 44 -45c0 -17 -7 -31 -18 -38c-20 -13 -43 -7 -43 -32c0 -17 29 -41 78 -53l55 270c-61 22 -94 71 -94 134c0 90 58 160 161 187l13 64h23l-11 -61c15 2 27 3 39 3c4 0 14 0 29 -1l13 59h23
l-14 -63c68 -20 105 -62 105 -112c0 -34 -18 -60 -50 -60c-27 0 -45 17 -45 40c0 49 47 35 47 64c0 19 -21 34 -61 44l-49 -233c81 -34 118 -83 118 -159c0 -98 -74 -182 -193 -205l-20 -100h-23l19 98c-15 -1 -24 -1 -27 -1c-11 0 -25 1 -41 3zM206 405l40 193
c-68 -19 -107 -70 -107 -113c0 -35 22 -62 67 -80zM229 398l65 -20l47 227c-14 1 -22 1 -27 1c-10 0 -24 -1 -41 -3zM152 27c16 -2 27 -3 34 -3c11 0 23 0 35 2l50 248l-64 20zM245 29c87 23 137 78 137 137c0 48 -29 79 -87 98z" />
    <glyph glyph-name="dotaccent" unicode="&#x2d9;" 
d="M256 532c0 28 28 55 56 55c30 0 56 -26 56 -55c0 -31 -24 -56 -56 -56c-30 0 -56 26 -56 56z" />
    <glyph glyph-name="dotlessi" unicode="&#x131;" horiz-adv-x="308" 
d="M165 68c-1 -4 -1 -8 -1 -13c0 -12 7 -18 20 -18c22 0 64 37 89 103l22 -9c-34 -90 -105 -145 -165 -145c-46 0 -73 24 -73 58c0 13 3 29 8 50l66 272h-77v23h58c38 0 76 2 113 9h22z" />
    <glyph glyph-name="e" unicode="e" horiz-adv-x="442" 
d="M158 194h20c99 0 154 27 154 119c0 40 -21 63 -55 63c-59 0 -94 -59 -119 -182zM383 113l20 -12c-41 -74 -110 -115 -188 -115c-104 0 -177 71 -177 167c0 127 114 245 245 245c84 0 139 -44 139 -102c0 -75 -77 -128 -222 -128c-15 0 -32 1 -49 2
c-9 -34 -13 -59 -13 -76c0 -53 30 -83 83 -83c59 0 119 35 162 102z" />
    <glyph glyph-name="eacute" unicode="&#xe9;" horiz-adv-x="442" 
d="M158 194h20c99 0 154 27 154 119c0 40 -21 63 -55 63c-59 0 -94 -59 -119 -182zM383 113l20 -12c-41 -74 -110 -115 -188 -115c-104 0 -177 71 -177 167c0 127 114 245 245 245c84 0 139 -44 139 -102c0 -75 -77 -128 -222 -128c-15 0 -32 1 -49 2
c-9 -34 -13 -59 -13 -76c0 -53 30 -83 83 -83c59 0 119 35 162 102zM243 452h-43l143 145c21 21 40 31 55 31c23 0 39 -17 39 -40c0 -18 -12 -29 -37 -44z" />
    <glyph glyph-name="ecircumflex" unicode="&#xea;" horiz-adv-x="442" 
d="M158 194h20c99 0 154 27 154 119c0 40 -21 63 -55 63c-59 0 -94 -59 -119 -182zM383 113l20 -12c-41 -74 -110 -115 -188 -115c-104 0 -177 71 -177 167c0 127 114 245 245 245c84 0 139 -44 139 -102c0 -75 -77 -128 -222 -128c-15 0 -32 1 -49 2
c-9 -34 -13 -59 -13 -76c0 -53 30 -83 83 -83c59 0 119 35 162 102zM421 452h-36l-81 95l-123 -95h-47l151 171h55z" />
    <glyph glyph-name="edieresis" unicode="&#xeb;" horiz-adv-x="442" 
d="M158 194h20c99 0 154 27 154 119c0 40 -21 63 -55 63c-59 0 -94 -59 -119 -182zM383 113l20 -12c-41 -74 -110 -115 -188 -115c-104 0 -177 71 -177 167c0 127 114 245 245 245c84 0 139 -44 139 -102c0 -75 -77 -128 -222 -128c-15 0 -32 1 -49 2
c-9 -34 -13 -59 -13 -76c0 -53 30 -83 83 -83c59 0 119 35 162 102zM157 532c0 27 25 52 52 52c29 0 53 -24 53 -52c0 -31 -23 -54 -53 -54c-28 0 -52 23 -52 54zM337 532c0 27 25 52 52 52c29 0 53 -24 53 -52c0 -31 -23 -54 -53 -54c-28 0 -52 23 -52 54z" />
    <glyph glyph-name="egrave" unicode="&#xe8;" horiz-adv-x="442" 
d="M158 194h20c99 0 154 27 154 119c0 40 -21 63 -55 63c-59 0 -94 -59 -119 -182zM383 113l20 -12c-41 -74 -110 -115 -188 -115c-104 0 -177 71 -177 167c0 127 114 245 245 245c84 0 139 -44 139 -102c0 -75 -77 -128 -222 -128c-15 0 -32 1 -49 2
c-9 -34 -13 -59 -13 -76c0 -53 30 -83 83 -83c59 0 119 35 162 102zM370 452h-39l-130 97c-19 14 -29 28 -29 42c0 22 17 37 37 37c13 0 28 -9 41 -25z" />
    <glyph glyph-name="eight" unicode="8" horiz-adv-x="509" 
d="M319 335l-1 -10c83 -18 130 -76 130 -154c0 -102 -98 -188 -231 -188c-118 0 -192 71 -192 163c0 87 77 168 190 183l2 10c-66 13 -112 69 -112 135c0 98 86 172 208 172c105 0 171 -55 171 -142c0 -82 -57 -144 -165 -169zM196 418c0 -47 26 -75 76 -75
c39 0 61 20 79 69c17 46 27 101 27 137c0 52 -23 78 -66 78c-70 0 -116 -101 -116 -209zM339 223c0 62 -28 95 -79 95c-80 0 -128 -89 -128 -236c0 -50 29 -78 81 -78c80 0 126 97 126 219z" />
    <glyph glyph-name="ellipsis" unicode="&#x2026;" horiz-adv-x="1000" 
d="M221 52c0 -36 -30 -66 -66 -66c-37 0 -66 29 -66 66s29 66 66 66s66 -30 66 -66zM554 52c0 -36 -30 -66 -66 -66c-37 0 -66 29 -66 66s29 66 66 66s66 -30 66 -66zM888 52c0 -36 -30 -66 -66 -66c-37 0 -66 29 -66 66s29 66 66 66s66 -30 66 -66z" />
    <glyph glyph-name="emdash" unicode="&#x2014;" horiz-adv-x="1000" 
d="M1006 222l-12 -60h-1000l12 60h1000z" />
    <glyph glyph-name="endash" unicode="&#x2013;" 
d="M506 222l-12 -60h-500l12 60h500z" />
    <glyph glyph-name="equal" unicode="=" horiz-adv-x="833" 
d="M124 429h585v-68h-585v68zM124 235h585v-68h-585v68z" />
    <glyph glyph-name="eth" unicode="&#xf0;" horiz-adv-x="495" 
d="M352 389c-6 53 -21 103 -41 145l-143 -65l-9 25l141 63c-18 33 -53 68 -103 103l15 18c52 -22 98 -54 138 -98l130 57l8 -25l-121 -55c64 -90 95 -184 95 -287c0 -171 -122 -284 -252 -284c-102 0 -173 71 -173 167c0 124 119 246 248 246c22 0 44 -3 67 -10zM280 377
c-52 0 -84 -34 -107 -106c-23 -71 -32 -140 -32 -174c0 -61 24 -88 75 -88c53 0 84 34 107 106c22 69 31 139 31 174c0 61 -22 88 -74 88z" />
    <glyph glyph-name="exclam" unicode="!" horiz-adv-x="315" 
d="M148 209h-29c41 176 42 293 43 364c1 69 18 108 70 108c36 0 60 -24 60 -54c0 -50 -82 -161 -144 -418zM175 50c0 -36 -30 -66 -66 -66c-37 0 -66 29 -66 66s29 66 66 66s66 -30 66 -66z" />
    <glyph glyph-name="exclamdown" unicode="&#xa1;" horiz-adv-x="315" 
d="M187 455h29c-41 -176 -42 -293 -43 -364c-1 -69 -18 -107 -70 -107c-36 0 -60 23 -60 53c0 50 82 161 144 418zM159 615c0 36 30 66 66 66c37 0 66 -29 66 -66s-29 -66 -66 -66s-66 30 -66 66z" />
    <glyph glyph-name="f" unicode="f" horiz-adv-x="331" 
d="M49 389h99c54 192 140 289 247 289c64 0 101 -34 101 -77c0 -31 -19 -51 -47 -51c-34 0 -53 16 -53 43c0 26 21 38 21 48c0 8 -9 15 -26 15c-74 0 -104 -83 -140 -267h94v-33h-98c-82 -400 -154 -590 -306 -590c-55 0 -89 25 -89 64c0 34 17 53 48 53c29 0 43 -15 43 -45
c0 -14 -8 -21 -8 -29c0 -11 7 -18 21 -18c99 0 103 184 185 565h-92v33z" />
    <glyph glyph-name="fi" unicode="&#xfb01;" horiz-adv-x="586" 
d="M48 389h101c52 193 140 289 260 289c82 0 127 -30 127 -79c0 -29 -20 -49 -47 -49c-34 0 -53 16 -53 43c0 25 18 34 18 44c0 8 -14 17 -38 17c-87 0 -134 -85 -165 -265h155c27 0 58 1 95 8h22l-81 -330c-1 -4 -2 -8 -2 -13c0 -12 7 -18 20 -18c22 0 65 37 90 103l21 -10
c-34 -90 -105 -145 -165 -145c-46 0 -73 24 -73 58c0 11 2 28 8 51l65 263h-160c-82 -400 -153 -590 -306 -590c-55 0 -88 25 -88 64c0 34 17 53 48 53c29 0 42 -15 42 -45c0 -14 -8 -21 -8 -29c0 -11 7 -18 21 -18c100 0 103 185 185 565h-92v33z" />
    <glyph glyph-name="five" unicode="5" horiz-adv-x="509" 
d="M451 667h19c-8 -87 -43 -117 -121 -117h-151c-15 0 -20 -1 -24 -15l-45 -172c46 15 87 21 118 21c118 0 195 -67 195 -169c0 -119 -119 -231 -273 -231c-92 0 -146 56 -146 113c0 44 25 70 59 70c31 0 50 -24 50 -52c0 -48 -48 -56 -48 -70c0 -18 29 -39 81 -39
c57 0 95 26 124 85c24 50 38 109 38 157c0 65 -41 106 -111 106c-36 0 -71 -9 -111 -27l-7 11l64 251c8 30 26 45 53 45h174c38 0 58 12 62 33z" />
    <glyph glyph-name="fl" unicode="&#xfb02;" horiz-adv-x="586" 
d="M550 139l21 -10c-34 -90 -105 -145 -165 -145c-46 0 -73 24 -73 58c0 11 2 28 8 51l114 467c-13 4 -19 16 -19 34c0 24 18 33 18 43c0 8 -13 17 -37 17c-87 0 -135 -86 -166 -265h94v-33h-99c-82 -399 -153 -590 -306 -590c-55 0 -88 25 -88 64c0 34 17 53 48 53
c29 0 42 -15 42 -45c0 -14 -8 -21 -8 -29c0 -11 7 -18 21 -18c99 0 103 184 185 565h-92v33h101c56 197 136 289 266 289c28 0 54 -5 81 -17c23 5 47 10 72 16h22l-148 -610c-1 -4 -2 -9 -2 -13c0 -12 7 -18 20 -18c22 0 65 37 90 103z" />
    <glyph glyph-name="florin" unicode="&#x192;" horiz-adv-x="509" 
d="M418 331h-120l-35 -164c-64 -301 -115 -403 -272 -403c-45 0 -71 25 -71 54c0 25 15 41 38 41c25 0 38 -14 38 -37c0 -10 -7 -18 -7 -25c0 -8 6 -10 20 -10c101 0 107 193 181 544h-102v29h110c53 195 122 286 236 286c60 0 92 -22 92 -57c0 -25 -15 -42 -38 -42
c-26 0 -42 13 -42 36c0 17 9 24 9 28c0 8 -7 12 -20 12c-64 0 -95 -89 -130 -262h113v-30z" />
    <glyph glyph-name="four" unicode="4" horiz-adv-x="509" 
d="M247 196l69 335c-111 -118 -204 -232 -277 -335h208zM386 0h-257v23h82l29 141h-232v35c103 148 230 294 379 447h53l-93 -449h82l16 72h23l-36 -176h-23l13 71h-82l-28 -141h74v-23z" />
    <glyph glyph-name="fraction" unicode="&#x2044;" horiz-adv-x="167" 
d="M-116 -16h-51l449 662h51z" />
    <glyph glyph-name="g" unicode="g" horiz-adv-x="498" 
d="M76 -5v6c-34 11 -52 35 -52 68c0 35 33 67 98 101c-19 22 -30 51 -30 83c0 79 74 145 176 145c62 0 106 -25 134 -76c18 57 37 82 71 82c21 0 37 -14 37 -35c0 -19 -12 -32 -29 -32c-14 0 -25 10 -38 10c-25 0 -15 -57 -52 -128c-30 -58 -82 -90 -148 -90
c-48 0 -83 10 -101 27c-37 -18 -55 -35 -55 -53c0 -22 18 -27 49 -28l120 -5c96 -4 151 -16 151 -100c0 -119 -89 -204 -246 -204c-125 0 -198 54 -198 118c0 48 41 94 113 111zM277 378c-40 0 -61 -13 -75 -48c-17 -41 -28 -103 -28 -125c0 -34 20 -53 58 -53
c41 0 57 11 75 63c15 44 21 90 21 117s-18 46 -51 46zM116 -13c-58 -21 -87 -57 -87 -100c0 -53 54 -96 140 -96c123 0 196 67 196 137c0 30 -22 46 -52 48z" />
    <glyph glyph-name="germandbls" unicode="&#xdf;" horiz-adv-x="498" 
d="M329 362v-3c85 -16 131 -73 131 -156c0 -119 -86 -217 -183 -217c-64 0 -101 35 -101 81c0 32 18 53 47 53c30 0 48 -18 48 -44c0 -27 -24 -34 -24 -47c0 -10 8 -17 23 -17c18 0 37 17 48 50c27 77 41 174 41 212c0 43 -26 69 -65 69h-13c-16 0 -24 3 -24 16
c0 19 13 16 33 18c19 2 32 3 45 19c30 37 58 119 58 195c0 40 -23 65 -66 65c-94 0 -90 -112 -149 -391c-69 -325 -113 -499 -271 -499c-47 0 -79 24 -79 63c0 34 15 52 47 52c27 0 41 -15 41 -47c0 -8 -7 -16 -7 -25c0 -10 8 -17 21 -17c87 0 84 136 131 405
c57 326 120 482 271 482c101 0 157 -55 157 -136c0 -83 -56 -151 -160 -181z" />
    <glyph glyph-name="grave" unicode="`" 
d="M382 452h-39l-130 97c-19 14 -29 28 -29 42c0 22 17 37 37 37c13 0 28 -9 41 -25z" />
    <glyph glyph-name="greater" unicode="&#x3e;" horiz-adv-x="833" 
d="M129 566l575 -236v-63l-575 -236v75l474 192l-474 193v75z" />
    <glyph glyph-name="guillemotleft" unicode="&#xab;" horiz-adv-x="465" 
d="M89 190c114 92 167 147 184 147c6 0 12 -6 12 -11c0 -12 -42 -58 -124 -138c43 -83 66 -130 66 -138s-5 -12 -12 -12c-14 0 -21 10 -31 24zM219 190c114 92 166 147 183 147c6 0 12 -6 12 -11c0 -12 -41 -58 -123 -138c43 -83 65 -130 65 -138s-4 -12 -11 -12
c-14 0 -21 10 -31 24z" />
    <glyph glyph-name="guillemotright" unicode="&#xbb;" horiz-adv-x="465" 
d="M375 187c-114 -92 -166 -147 -183 -147c-6 0 -12 5 -12 10s5 14 16 27c35 42 72 78 107 112c-43 83 -66 129 -66 137s5 13 12 13c14 0 21 -10 31 -24zM245 187c-114 -92 -166 -147 -183 -147c-6 0 -12 5 -12 10c0 12 41 59 123 139c-43 83 -65 129 -65 137s4 13 11 13
c14 0 21 -10 31 -24z" />
    <glyph glyph-name="guilsinglleft" unicode="&#x2039;" horiz-adv-x="333" 
d="M89 190c114 92 167 147 184 147c6 0 12 -6 12 -11c0 -12 -42 -58 -124 -138c43 -83 66 -130 66 -138s-5 -12 -12 -12c-14 0 -21 10 -31 24z" />
    <glyph glyph-name="guilsinglright" unicode="&#x203a;" horiz-adv-x="333" 
d="M243 187c-114 -92 -167 -147 -184 -147c-6 0 -11 5 -11 10c0 12 41 59 123 139c-43 83 -66 129 -66 137s5 13 12 13c14 0 21 -10 31 -24z" />
    <glyph glyph-name="h" unicode="h" horiz-adv-x="553" 
d="M145 0h-101l148 646h-74v23h56c37 0 73 2 109 9h20l-84 -366h9c52 57 101 85 155 85c57 0 89 -26 89 -72c0 -13 -2 -28 -6 -44l-51 -213c-1 -3 -2 -7 -2 -13c0 -12 7 -18 20 -18c21 0 62 37 86 103l20 -9c-32 -90 -103 -145 -155 -145c-48 0 -74 22 -74 58
c0 16 4 32 8 50l49 211c2 7 3 13 3 20c0 21 -12 30 -38 30c-53 0 -125 -85 -138 -141z" />
    <glyph glyph-name="hungarumlaut" unicode="&#x2dd;" 
d="M272 583c15 28 29 45 52 45c20 0 36 -17 36 -37c0 -13 -8 -25 -24 -41l-99 -98h-35zM423 588c16 23 30 40 53 40c20 0 37 -18 37 -38c0 -14 -11 -26 -30 -42l-117 -96h-38z" />
    <glyph glyph-name="hyphen" unicode="-" horiz-adv-x="333" 
d="M33 148l19 88h244l-18 -88h-245z" />
    <glyph glyph-name="i" unicode="i" horiz-adv-x="308" 
d="M165 68c-1 -4 -1 -8 -1 -13c0 -12 7 -18 20 -18c22 0 64 37 89 103l22 -9c-34 -90 -105 -145 -165 -145c-46 0 -73 24 -73 58c0 13 3 29 8 50l66 272h-77v23h58c38 0 76 2 113 9h22zM166 589c0 32 25 57 57 57s57 -25 57 -57s-25 -57 -57 -57s-57 25 -57 57z" />
    <glyph glyph-name="iacute" unicode="&#xed;" horiz-adv-x="308" 
d="M165 68c-1 -4 -1 -8 -1 -13c0 -12 7 -18 20 -18c22 0 64 37 89 103l22 -9c-34 -90 -105 -145 -165 -145c-46 0 -73 24 -73 58c0 13 3 29 8 50l66 272h-77v23h58c38 0 76 2 113 9h22zM140 452h-43l143 145c21 21 40 31 55 31c23 0 39 -17 39 -40c0 -18 -12 -29 -37 -44z
" />
    <glyph glyph-name="icircumflex" unicode="&#xee;" horiz-adv-x="308" 
d="M165 68c-1 -4 -1 -8 -1 -13c0 -12 7 -18 20 -18c22 0 64 37 89 103l22 -9c-34 -90 -105 -145 -165 -145c-46 0 -73 24 -73 58c0 13 3 29 8 50l66 272h-77v23h58c38 0 76 2 113 9h22zM318 452h-36l-81 95l-123 -95h-47l151 171h55z" />
    <glyph glyph-name="idieresis" unicode="&#xef;" horiz-adv-x="308" 
d="M165 68c-1 -4 -1 -8 -1 -13c0 -12 7 -18 20 -18c22 0 64 37 89 103l22 -9c-34 -90 -105 -145 -165 -145c-46 0 -73 24 -73 58c0 13 3 29 8 50l66 272h-77v23h58c38 0 76 2 113 9h22zM54 532c0 27 25 52 52 52c29 0 53 -24 53 -52c0 -31 -23 -54 -53 -54
c-28 0 -52 23 -52 54zM234 532c0 27 25 52 52 52c29 0 53 -24 53 -52c0 -31 -23 -54 -53 -54c-28 0 -52 23 -52 54z" />
    <glyph glyph-name="igrave" unicode="&#xec;" horiz-adv-x="308" 
d="M165 68c-1 -4 -1 -8 -1 -13c0 -12 7 -18 20 -18c22 0 64 37 89 103l22 -9c-34 -90 -105 -145 -165 -145c-46 0 -73 24 -73 58c0 13 3 29 8 50l66 272h-77v23h58c38 0 76 2 113 9h22zM267 452h-39l-130 97c-19 14 -29 28 -29 42c0 22 17 37 37 37c13 0 28 -9 41 -25z" />
    <glyph glyph-name="j" unicode="j" horiz-adv-x="282" 
d="M130 366h-77v23h59c39 0 76 2 113 9h21l-74 -355c-38 -184 -102 -277 -213 -277c-56 0 -88 30 -88 66c0 32 17 47 52 47c22 0 38 -17 38 -52c0 -6 -1 -13 -1 -18c0 -12 3 -17 18 -17c30 0 49 40 67 132zM166 589c0 32 24 57 56 57s58 -25 58 -57s-26 -57 -58 -57
s-56 25 -56 57z" />
    <glyph glyph-name="k" unicode="k" horiz-adv-x="562" 
d="M317 244c63 -18 81 -50 81 -122c0 -18 -4 -38 -4 -62c0 -14 10 -27 21 -27c20 0 51 34 90 104l20 -8c-42 -95 -98 -143 -162 -143c-51 0 -73 22 -73 71c0 54 28 106 28 140c0 15 -9 26 -17 26c-11 0 -30 -22 -61 -22c-7 0 -19 1 -38 5h-5l-51 -206h-108l156 646h-77v23
h58c39 0 76 2 113 9h22l-107 -439h6c44 26 75 2 99 36c36 53 51 123 134 123c48 0 77 -25 77 -67c0 -26 -18 -48 -46 -48c-30 0 -46 16 -46 41c0 21 15 30 15 40c0 4 -4 5 -13 5c-51 0 -58 -58 -112 -125z" />
    <glyph glyph-name="l" unicode="l" horiz-adv-x="308" 
d="M165 68c-1 -4 -1 -9 -1 -13c0 -12 7 -18 20 -18c22 0 64 37 89 103l22 -9c-34 -90 -105 -145 -165 -145c-46 0 -73 24 -73 58c0 12 3 28 8 50l132 552h-77v23h58c39 0 77 2 114 9h21z" />
    <glyph glyph-name="less" unicode="&#x3c;" horiz-adv-x="833" 
d="M704 566v-75l-473 -193l473 -192v-75l-575 236v63z" />
    <glyph glyph-name="logicalnot" unicode="&#xac;" horiz-adv-x="833" 
d="M124 420h585v-245h-67v177h-518v68z" />
    <glyph glyph-name="lslash" unicode="&#x142;" horiz-adv-x="308" 
d="M232 351l94 52v-29l-101 -57l-60 -249c-1 -3 -1 -7 -1 -13c0 -12 7 -18 20 -18c22 0 64 37 89 103l22 -9c-34 -90 -105 -145 -165 -145c-46 0 -73 24 -73 58c0 13 3 29 8 50l44 181l-93 -52v30l100 56l81 337h-77v23h58c39 0 77 2 114 9h21z" />
    <glyph glyph-name="m" unicode="m" horiz-adv-x="801" 
d="M146 0h-102l84 366h-74v23h56c37 0 73 2 109 9h21l-21 -86h9c52 54 100 85 156 85c57 0 90 -31 90 -67c0 -6 -1 -12 -3 -18h8c52 56 99 85 153 85c55 0 87 -27 87 -72c0 -11 -3 -25 -7 -44l-49 -213c-1 -4 -2 -8 -2 -13c0 -11 6 -18 19 -18c21 0 60 37 85 103l19 -9
c-29 -91 -100 -145 -151 -145c-46 0 -72 22 -72 58c0 17 3 33 7 50l48 211c2 7 3 14 3 20c0 21 -12 30 -37 30c-52 0 -122 -85 -135 -141l-49 -214h-99l69 305c2 7 3 14 3 20c0 21 -12 30 -38 30c-53 0 -125 -85 -138 -141z" />
    <glyph glyph-name="macron" unicode="&#xaf;" 
d="M173 497l14 68h264l-15 -68h-263z" />
    <glyph glyph-name="minus" unicode="&#x2212;" horiz-adv-x="833" 
d="M124 333h585v-69h-585v69z" />
    <glyph glyph-name="mu" unicode="&#x3bc;" horiz-adv-x="571" 
d="M81 95c-46 -198 -28 -300 -88 -300c-27 0 -43 16 -43 46c0 46 49 158 88 341l53 250h82l-49 -232c-7 -31 -9 -53 -9 -65c0 -46 28 -72 79 -72c65 0 99 36 115 111l55 258h84l-56 -260c-6 -28 -9 -49 -9 -62c0 -32 18 -49 50 -49c29 0 54 17 68 46c17 35 15 63 32 63
c6 0 11 -6 11 -14c0 -19 -8 -58 -24 -92c-25 -50 -59 -76 -105 -76c-52 0 -83 37 -83 102v6c-33 -73 -77 -108 -144 -108c-62 0 -99 37 -107 107z" />
    <glyph glyph-name="multiply" unicode="&#xd7;" horiz-adv-x="833" 
d="M191 575l229 -229l229 229l48 -48l-229 -229l229 -229l-48 -47l-229 228l-229 -228l-48 47l229 229l-229 229z" />
    <glyph glyph-name="n" unicode="n" horiz-adv-x="553" 
d="M145 0h-101l83 366h-74v23h56c37 0 73 2 109 9h21l-20 -86h9c52 57 101 85 155 85c57 0 89 -26 89 -72c0 -13 -2 -28 -6 -44l-51 -213c-1 -3 -2 -7 -2 -13c0 -12 7 -18 20 -18c21 0 62 37 86 103l19 -9c-27 -88 -102 -145 -154 -145c-48 0 -74 22 -74 58c0 16 4 32 8 50
l49 211c2 7 3 13 3 20c0 21 -12 30 -38 30c-53 0 -125 -85 -138 -141z" />
    <glyph glyph-name="nine" unicode="9" horiz-adv-x="509" 
d="M340 311c32 112 41 191 41 225c0 52 -33 87 -81 87c-47 0 -81 -35 -104 -106c-21 -63 -34 -144 -34 -198c0 -48 21 -72 63 -72c34 0 70 23 115 64zM48 -17v24c125 19 216 100 277 247l-6 8c-34 -27 -65 -40 -100 -40c-97 0 -164 66 -164 169c0 136 119 254 239 254
c103 0 184 -83 184 -209c0 -93 -42 -201 -120 -291c-82 -94 -181 -146 -310 -162z" />
    <glyph glyph-name="ntilde" unicode="&#xf1;" horiz-adv-x="553" 
d="M145 0h-101l83 366h-74v23h56c37 0 73 2 109 9h21l-20 -86h9c52 57 101 85 155 85c57 0 89 -26 89 -72c0 -13 -2 -28 -6 -44l-51 -213c-1 -3 -2 -7 -2 -13c0 -12 7 -18 20 -18c21 0 62 37 86 103l19 -9c-27 -88 -102 -145 -154 -145c-48 0 -74 22 -74 58c0 16 4 32 8 50
l49 211c2 7 3 13 3 20c0 21 -12 30 -38 30c-53 0 -125 -85 -138 -141zM469 587c-13 -65 -46 -99 -93 -99c-11 0 -23 2 -38 6l-64 17c-13 3 -23 5 -29 5c-21 0 -33 -13 -39 -39h-30c9 65 39 99 88 99c11 0 22 -2 35 -5l63 -17c12 -3 22 -5 28 -5c28 0 42 11 49 38h30z" />
    <glyph glyph-name="numbersign" unicode="#" horiz-adv-x="769" 
d="M371 712h76l-79 -222h135l79 222h76l-79 -222h147l-24 -68h-147l-47 -135h156l-24 -68h-156l-79 -221h-76l79 221h-136l-79 -221h-75l78 221h-153l25 68h152l48 135h-164l25 68h163zM343 422l-48 -135h138l47 135h-137z" />
    <glyph glyph-name="o" unicode="o" horiz-adv-x="495" 
d="M284 399c105 0 174 -72 174 -168c0 -124 -118 -245 -248 -245c-102 0 -173 72 -173 168c0 124 119 245 247 245zM280 377c-53 0 -84 -34 -107 -106c-22 -67 -31 -138 -31 -174c0 -61 23 -88 74 -88c53 0 84 34 107 106c23 73 31 141 31 174c0 61 -22 88 -74 88z" />
    <glyph glyph-name="oacute" unicode="&#xf3;" horiz-adv-x="495" 
d="M284 399c105 0 174 -72 174 -168c0 -124 -118 -245 -248 -245c-102 0 -173 72 -173 168c0 124 119 245 247 245zM280 377c-53 0 -84 -34 -107 -106c-22 -67 -31 -138 -31 -174c0 -61 23 -88 74 -88c53 0 84 34 107 106c23 73 31 141 31 174c0 61 -22 88 -74 88zM257 452
h-43l143 145c21 21 40 31 55 31c23 0 39 -17 39 -40c0 -18 -12 -29 -37 -44z" />
    <glyph glyph-name="ocircumflex" unicode="&#xf4;" horiz-adv-x="495" 
d="M284 399c105 0 174 -72 174 -168c0 -124 -118 -245 -248 -245c-102 0 -173 72 -173 168c0 124 119 245 247 245zM280 377c-53 0 -84 -34 -107 -106c-22 -67 -31 -138 -31 -174c0 -61 23 -88 74 -88c53 0 84 34 107 106c23 73 31 141 31 174c0 61 -22 88 -74 88zM435 452
h-36l-81 95l-123 -95h-47l151 171h55z" />
    <glyph glyph-name="odieresis" unicode="&#xf6;" horiz-adv-x="495" 
d="M284 399c105 0 174 -72 174 -168c0 -124 -118 -245 -248 -245c-102 0 -173 72 -173 168c0 124 119 245 247 245zM280 377c-53 0 -84 -34 -107 -106c-22 -67 -31 -138 -31 -174c0 -61 23 -88 74 -88c53 0 84 34 107 106c23 73 31 141 31 174c0 61 -22 88 -74 88zM171 532
c0 27 25 52 52 52c29 0 53 -24 53 -52c0 -31 -23 -54 -53 -54c-28 0 -52 23 -52 54zM351 532c0 27 25 52 52 52c29 0 53 -24 53 -52c0 -31 -23 -54 -53 -54c-28 0 -52 23 -52 54z" />
    <glyph glyph-name="oe" unicode="&#x153;" horiz-adv-x="738" 
d="M280 375c-53 0 -84 -34 -107 -105c-23 -70 -31 -139 -31 -174c0 -60 23 -87 74 -87c53 0 84 35 107 106c23 73 31 139 31 172c0 60 -23 88 -74 88zM456 194h23c98 0 150 30 150 119c0 40 -20 63 -54 63c-59 0 -94 -59 -119 -182zM681 113l19 -12
c-41 -74 -109 -115 -187 -115c-60 0 -114 24 -144 64c-50 -43 -102 -64 -159 -64c-102 0 -173 71 -173 167c0 122 116 244 249 244c58 0 102 -19 138 -62c50 43 98 63 156 63c84 0 139 -44 139 -102c0 -75 -76 -128 -221 -128c-15 0 -32 1 -49 2c-9 -30 -14 -55 -14 -77
c0 -50 30 -82 83 -82c59 0 120 35 163 102z" />
    <glyph glyph-name="ogonek" unicode="&#x2db;" 
d="M282 17c-58 -44 -85 -90 -85 -125c0 -39 16 -61 44 -61c24 0 43 11 61 35l14 -8c-24 -50 -63 -77 -107 -77c-47 0 -77 31 -77 75c0 55 42 107 127 161h23z" />
    <glyph glyph-name="ograve" unicode="&#xf2;" horiz-adv-x="495" 
d="M284 399c105 0 174 -72 174 -168c0 -124 -118 -245 -248 -245c-102 0 -173 72 -173 168c0 124 119 245 247 245zM280 377c-53 0 -84 -34 -107 -106c-22 -67 -31 -138 -31 -174c0 -61 23 -88 74 -88c53 0 84 34 107 106c23 73 31 141 31 174c0 61 -22 88 -74 88zM384 452
h-39l-130 97c-19 14 -29 28 -29 42c0 22 17 37 37 37c13 0 28 -9 41 -25z" />
    <glyph glyph-name="one" unicode="1" horiz-adv-x="509" 
d="M373 0h-329v23h109l113 525c2 11 4 22 4 29c0 35 -35 32 -120 33v23c41 0 115 5 221 13h18l-131 -623h115v-23z" />
    <glyph glyph-name="onehalf" unicode="&#xbd;" horiz-adv-x="809" 
d="M235 277h-207v13h69l71 294c1 6 2 12 2 16c0 20 -22 18 -75 19v12c25 0 72 3 139 8h11l-82 -349h72v-13zM205 -16h-51l449 662h51zM750 100l-26 -100h-230l7 35c129 104 201 156 201 239c0 47 -18 69 -58 69c-43 0 -79 -29 -79 -53c0 -4 3 -6 9 -6c3 0 7 1 12 1
c12 0 29 -11 29 -29c0 -17 -12 -30 -32 -30c-26 0 -40 17 -40 44c0 47 48 91 120 91c63 0 111 -33 111 -80c0 -39 -23 -63 -60 -95c-55 -50 -117 -89 -166 -134v-4h139c23 0 30 5 38 28l7 24h18z" />
    <glyph glyph-name="onequarter" unicode="&#xbc;" horiz-adv-x="809" 
d="M235 277h-207v13h69l71 294c1 6 2 12 2 16c0 20 -22 18 -75 19v12c25 0 72 3 139 8h11l-82 -349h72v-13zM205 -16h-51l449 662h51zM644 110l43 187c-70 -66 -128 -130 -174 -187h131zM731 0h-162v13h52l18 79h-146v19c65 83 145 165 239 251h33l-58 -252h51l10 41h15
l-23 -99h-14l8 40h-52l-17 -79h46v-13z" />
    <glyph glyph-name="onesuperior" unicode="&#xb9;" horiz-adv-x="336" 
d="M246 252h-217v14h72l75 315c1 6 2 13 2 17c0 21 -23 19 -79 20v14c27 0 76 3 146 8h12l-87 -374h76v-14z" />
    <glyph glyph-name="ordfeminine" unicode="&#xaa;" horiz-adv-x="404" 
d="M206 648c-36 0 -58 -29 -77 -86c-22 -66 -27 -111 -27 -125c0 -27 14 -41 42 -41c35 0 69 28 89 82c15 39 23 88 23 108c0 39 -22 62 -50 62zM378 485l15 -7c-24 -63 -73 -100 -112 -100c-34 0 -52 14 -52 41v6h-5c-27 -34 -54 -47 -96 -47c-60 0 -101 48 -101 107
c0 40 18 84 50 119c38 41 84 63 123 63c34 0 57 -16 68 -47h6l11 40h74l-56 -225c-1 -2 -1 -5 -1 -9c0 -9 5 -13 14 -13c15 0 44 26 62 72z" />
    <glyph glyph-name="ordmasculine" unicode="&#xba;" horiz-adv-x="371" 
d="M213 667c79 0 131 -50 131 -117c0 -87 -89 -172 -186 -172c-77 0 -130 51 -130 118c0 87 89 171 185 171zM210 652c-40 0 -63 -24 -80 -74c-17 -47 -23 -97 -23 -122c0 -43 17 -62 55 -62c40 0 63 24 80 74c18 52 24 99 24 122c0 43 -17 62 -56 62z" />
    <glyph glyph-name="oslash" unicode="&#xf8;" horiz-adv-x="495" 
d="M151 -7l-51 -88h-36l58 99c-56 38 -85 88 -85 149c0 123 118 244 246 244c16 0 36 -2 60 -7l51 87h36l-58 -100c56 -33 86 -85 86 -147c0 -124 -119 -244 -246 -244c-16 0 -36 3 -61 7zM148 52l179 310c-16 9 -31 12 -48 12c-52 0 -83 -33 -106 -104s-31 -135 -31 -167
c0 -15 2 -32 6 -51zM167 22c16 -8 29 -13 46 -13c51 0 81 27 104 87c24 65 38 151 38 190c0 15 -4 31 -8 48z" />
    <glyph glyph-name="otilde" unicode="&#xf5;" horiz-adv-x="495" 
d="M284 399c105 0 174 -72 174 -168c0 -124 -118 -245 -248 -245c-102 0 -173 72 -173 168c0 124 119 245 247 245zM280 377c-53 0 -84 -34 -107 -106c-22 -67 -31 -138 -31 -174c0 -61 23 -88 74 -88c53 0 84 34 107 106c23 73 31 141 31 174c0 61 -22 88 -74 88zM460 587
c-13 -65 -46 -99 -93 -99c-11 0 -23 2 -38 6l-64 17c-13 3 -23 5 -29 5c-21 0 -33 -13 -39 -39h-30c9 65 39 99 88 99c11 0 22 -2 35 -5l63 -17c12 -3 22 -5 28 -5c28 0 42 11 49 38h30z" />
    <glyph glyph-name="p" unicode="p" horiz-adv-x="553" 
d="M259 14c51 0 83 41 110 123c31 92 40 158 40 178c0 39 -20 58 -62 58c-50 0 -101 -40 -129 -115c-22 -60 -33 -131 -33 -155c0 -55 31 -89 74 -89zM103 -211h71v-23h-241v23h61l134 577h-77v23h58c39 0 77 2 114 9h21l-16 -66h6c36 46 77 68 131 68
c87 0 145 -66 145 -157c0 -59 -26 -121 -77 -175c-50 -54 -107 -81 -169 -81c-47 0 -76 22 -91 67h-9z" />
    <glyph glyph-name="paragraph" unicode="&#xb6;" 
d="M468 722v-42h-59v-680h-54v680h-87v-680h-54v382c-113 5 -182 73 -182 170c0 100 74 170 192 170h244z" />
    <glyph glyph-name="parenleft" unicode="(" horiz-adv-x="347" 
d="M206 -207l-19 -11c-81 98 -134 253 -134 383c0 199 109 378 321 516l12 -18c-83 -63 -141 -130 -180 -217c-46 -102 -78 -251 -78 -381c0 -104 23 -190 78 -272z" />
    <glyph glyph-name="parenright" unicode=")" horiz-adv-x="347" 
d="M110 670l19 11c81 -98 134 -253 134 -383c0 -199 -109 -378 -321 -516l-12 18c83 63 140 130 179 217c46 102 78 251 78 381c0 104 -22 190 -77 272z" />
    <glyph glyph-name="percent" unicode="%" horiz-adv-x="823" 
d="M270 605c-27 -2 -47 -18 -69 -47c-53 -69 -81 -142 -81 -190c0 -42 20 -65 56 -65c82 0 162 120 162 224c0 9 0 17 -1 26c-32 11 -52 21 -67 52zM191 -30l357 617c-50 -31 -98 -45 -139 -45c-15 0 -30 1 -46 6c0 -10 1 -17 1 -23c0 -128 -97 -258 -211 -258
c-69 0 -116 47 -116 124c0 55 23 112 69 165c50 57 101 86 155 86c49 0 82 -24 96 -67c16 -7 32 -10 50 -10c65 0 127 31 188 96h38l-399 -691h-43zM458 105c0 140 123 260 223 260c65 0 104 -42 104 -118c0 -123 -95 -258 -209 -258c-69 0 -118 50 -118 116zM694 328
c-34 0 -64 -28 -98 -84c-38 -62 -56 -114 -56 -154c0 -43 20 -64 61 -64c72 0 157 116 157 223c0 52 -24 79 -64 79z" />
    <glyph glyph-name="period" unicode="." horiz-adv-x="255" 
d="M182 52c0 -36 -30 -66 -66 -66c-37 0 -66 29 -66 66s29 66 66 66s66 -30 66 -66z" />
    <glyph glyph-name="periodcentered" unicode="&#xb7;" horiz-adv-x="255" 
d="M193 315c0 -36 -30 -66 -66 -66c-37 0 -66 29 -66 66s29 66 66 66s66 -30 66 -66z" />
    <glyph glyph-name="perthousand" unicode="&#x2030;" horiz-adv-x="1200" 
d="M269 605c-27 -2 -47 -18 -69 -47c-53 -69 -80 -142 -80 -190c0 -42 19 -65 55 -65c82 0 162 120 162 224c0 9 0 17 -1 26c-32 11 -52 21 -67 52zM192 -30l356 617c-50 -31 -97 -45 -138 -45c-15 0 -31 1 -47 6c0 -10 1 -17 1 -23c0 -128 -96 -258 -210 -258
c-69 0 -117 47 -117 124c0 55 24 112 70 165c50 57 101 86 155 86c49 0 82 -24 96 -67c16 -7 32 -10 50 -10c66 0 128 32 188 96h38l-399 -691h-43zM457 105c0 140 124 260 224 260c65 0 104 -42 104 -118c0 -123 -96 -258 -210 -258c-69 0 -118 50 -118 116zM1069 328
c-34 0 -63 -28 -97 -84c-38 -62 -56 -114 -56 -154c0 -43 20 -64 61 -64c72 0 157 116 157 223c0 52 -25 79 -65 79zM836 105c0 140 123 260 223 260c65 0 104 -42 104 -118c0 -123 -95 -258 -209 -258c-69 0 -118 50 -118 116zM693 328c-34 0 -64 -28 -98 -84
c-38 -62 -56 -114 -56 -154c0 -43 21 -64 62 -64c72 0 156 116 156 223c0 52 -24 79 -64 79z" />
    <glyph glyph-name="plus" unicode="+" horiz-adv-x="833" 
d="M382 596h69v-264h258v-68h-258v-264h-69v264h-258v68h258v264z" />
    <glyph glyph-name="plusminus" unicode="&#xb1;" horiz-adv-x="833" 
d="M382 582h69v-166h258v-68h-258v-166h-69v166h-258v68h258v166zM124 83h585v-69h-585v69z" />
    <glyph glyph-name="q" unicode="q" horiz-adv-x="521" 
d="M273 371c-47 0 -76 -41 -101 -123c-29 -93 -36 -159 -36 -178c0 -38 19 -58 56 -58c46 0 92 40 119 116c20 56 30 126 30 155c0 55 -28 88 -68 88zM337 -211h68v-23h-248v23h74l60 254c-32 -40 -70 -58 -121 -58c-79 0 -134 69 -134 153c0 57 24 121 67 170
c52 60 107 90 167 90c46 0 73 -21 87 -67h8l15 58h101z" />
    <glyph glyph-name="question" unicode="?" 
d="M193 206h-26c-1 11 -1 21 -1 31c0 86 31 139 100 183c81 51 137 63 137 137c0 58 -48 101 -116 101s-107 -33 -107 -52c0 -14 52 -7 52 -61c0 -25 -16 -39 -46 -39c-34 0 -54 23 -54 52c0 70 62 123 153 123c105 0 174 -62 174 -159c0 -90 -43 -135 -129 -181
c-82 -44 -137 -54 -137 -125v-10zM232 50c0 -36 -30 -66 -66 -66c-37 0 -66 29 -66 66s29 66 66 66s66 -30 66 -66z" />
    <glyph glyph-name="questiondown" unicode="&#xbf;" 
d="M322 458h25c1 -11 1 -22 1 -32c0 -86 -30 -138 -99 -182c-81 -51 -137 -63 -137 -137c0 -58 48 -100 116 -100s107 32 107 51c0 14 -52 7 -52 61c0 25 16 39 46 39c34 0 54 -23 54 -52c0 -70 -62 -122 -153 -122c-105 0 -174 62 -174 159c0 90 43 135 129 181
c82 44 137 53 137 124v10zM283 615c0 36 30 66 66 66c37 0 66 -29 66 -66s-29 -66 -66 -66s-66 30 -66 66z" />
    <glyph glyph-name="quotedbl" unicode="&#x22;" horiz-adv-x="335" 
d="M95 420h-17l-34 224c-1 7 -2 14 -2 20c0 32 17 50 44 50c28 0 44 -18 44 -52c0 -7 0 -12 -1 -18zM257 420h-17l-34 224c-1 7 -1 12 -1 18c0 33 15 52 43 52c27 0 44 -18 44 -50c0 -6 0 -13 -1 -20z" />
    <glyph glyph-name="quotedblbase" unicode="&#x201e;" horiz-adv-x="488" 
d="M53 -146l-12 22c83 41 123 103 123 145c0 10 -5 18 -9 18c-15 0 -15 -46 -63 -46c-32 0 -54 22 -54 62c0 38 33 64 73 64c52 0 90 -37 90 -96s-55 -134 -148 -169zM287 -146l-12 22c83 41 123 103 123 145c0 10 -5 18 -9 18c-15 0 -15 -46 -63 -46c-32 0 -54 22 -54 62
c0 38 33 64 73 64c52 0 90 -37 90 -96s-55 -134 -148 -169z" />
    <glyph glyph-name="quotedblleft" unicode="&#x201c;" horiz-adv-x="488" 
d="M463 678l12 -22c-83 -41 -123 -103 -123 -145c0 -10 5 -18 9 -18c15 0 15 46 63 46c32 0 54 -22 54 -62c0 -38 -33 -65 -73 -65c-52 0 -90 38 -90 97s55 134 148 169zM230 678l11 -22c-83 -41 -123 -103 -123 -145c0 -10 5 -18 9 -18c15 0 15 46 63 46
c32 0 54 -22 54 -62c0 -38 -32 -65 -72 -65c-52 0 -91 38 -91 97s56 134 149 169z" />
    <glyph glyph-name="quotedblright" unicode="&#x201d;" horiz-adv-x="488" 
d="M348 413l-11 22c83 41 123 104 123 146c0 10 -6 17 -10 17c-15 0 -15 -46 -63 -46c-32 0 -53 22 -53 62c0 38 32 65 72 65c52 0 90 -37 90 -96s-55 -135 -148 -170zM114 413l-11 22c83 41 123 104 123 146c0 10 -5 17 -9 17c-15 0 -15 -46 -63 -46c-32 0 -54 22 -54 62
c0 38 32 65 72 65c52 0 90 -37 90 -96s-55 -135 -148 -170z" />
    <glyph glyph-name="quoteleft" unicode="&#x2018;" horiz-adv-x="255" 
d="M230 678l11 -22c-83 -41 -123 -103 -123 -145c0 -10 5 -18 9 -18c15 0 15 46 63 46c32 0 54 -22 54 -62c0 -38 -32 -65 -72 -65c-52 0 -91 38 -91 97s56 134 149 169z" />
    <glyph glyph-name="quoteright" unicode="&#x2019;" horiz-adv-x="255" 
d="M114 413l-11 22c83 41 123 104 123 146c0 10 -5 17 -9 17c-15 0 -15 -46 -63 -46c-32 0 -54 22 -54 62c0 38 32 65 72 65c52 0 90 -37 90 -96s-55 -135 -148 -170z" />
    <glyph glyph-name="quotesinglbase" unicode="&#x201a;" horiz-adv-x="255" 
d="M53 -146l-12 22c83 41 123 103 123 145c0 10 -5 18 -9 18c-15 0 -15 -46 -63 -46c-32 0 -54 22 -54 62c0 38 33 64 73 64c52 0 90 -37 90 -96s-55 -134 -148 -169z" />
    <glyph glyph-name="quotesingle" unicode="'" horiz-adv-x="172" 
d="M95 420h-17l-34 224c-1 7 -2 12 -2 18c0 33 16 52 44 52c27 0 44 -18 44 -50c0 -6 -1 -13 -2 -20z" />
    <glyph glyph-name="r" unicode="r" horiz-adv-x="428" 
d="M148 0h-102l84 366h-74v23h56c37 0 73 2 109 9h20l-18 -86h7c50 57 89 86 134 86c39 0 63 -22 63 -54c0 -36 -16 -52 -50 -52c-56 0 -39 47 -74 47s-96 -77 -112 -147z" />
    <glyph glyph-name="registered" unicode="&#xae;" horiz-adv-x="822" 
d="M412 679c91 0 182 -38 247 -104c63 -64 99 -153 99 -247c0 -89 -37 -178 -106 -246c-65 -64 -149 -98 -246 -98c-88 0 -174 37 -240 102c-67 66 -102 151 -102 245c0 92 35 178 101 245c65 66 154 103 247 103zM412 637c-80 0 -158 -33 -215 -91
c-58 -59 -88 -134 -88 -215c0 -83 31 -157 89 -215c59 -59 132 -89 213 -89s156 31 213 89c58 59 89 135 89 215c0 81 -32 161 -88 217s-135 89 -213 89zM228 534h194c99 0 155 -42 155 -95c0 -56 -43 -84 -139 -101c61 -18 92 -47 105 -101c10 -40 2 -75 33 -75
c20 0 31 22 31 64h22v-9c0 -55 -28 -85 -78 -85c-32 0 -56 11 -66 30c-17 31 -7 70 -15 101c-12 47 -43 68 -96 68h-14v-120c0 -34 15 -45 58 -48v-22h-190v22c44 2 59 13 59 48v252c0 35 -15 46 -59 49v22zM360 352c14 -1 25 -1 31 -1c70 0 108 32 108 84
c0 45 -33 78 -90 78c-33 0 -49 -11 -49 -34v-127z" />
    <glyph glyph-name="ring" unicode="&#x2da;" 
d="M197 564c0 67 53 121 121 121s121 -54 121 -121c0 -68 -53 -121 -121 -121s-121 53 -121 121zM245 563c0 -40 33 -72 74 -72c40 0 72 31 72 72s-32 74 -72 74c-41 0 -74 -33 -74 -74z" />
    <glyph glyph-name="s" unicode="s" horiz-adv-x="387" 
d="M206 134l-75 55c-33 24 -47 44 -47 88c0 67 55 121 142 121c65 0 110 -36 110 -74c0 -26 -15 -41 -41 -41c-25 0 -42 17 -42 39c0 13 12 22 12 33c0 9 -15 21 -39 21c-47 0 -73 -27 -73 -53c0 -24 17 -33 36 -46l73 -51c41 -28 58 -59 58 -107c0 -81 -61 -133 -166 -133
c-81 0 -128 36 -128 87c0 28 19 49 46 49c29 0 43 -14 43 -42c0 -21 -12 -35 -12 -49s18 -23 51 -23c59 0 93 25 93 64c0 22 -14 43 -41 62z" />
    <glyph glyph-name="scaron" unicode="&#x161;" horiz-adv-x="387" 
d="M206 134l-75 55c-33 24 -47 44 -47 88c0 67 55 121 142 121c65 0 110 -36 110 -74c0 -26 -15 -41 -41 -41c-25 0 -42 17 -42 39c0 13 12 22 12 33c0 9 -15 21 -39 21c-47 0 -73 -27 -73 -53c0 -24 17 -33 36 -46l73 -51c41 -28 58 -59 58 -107c0 -81 -61 -133 -166 -133
c-81 0 -128 36 -128 87c0 28 19 49 46 49c29 0 43 -14 43 -42c0 -21 -12 -35 -12 -49s18 -23 51 -23c59 0 93 25 93 64c0 22 -14 43 -41 62zM130 623h36l81 -95l123 95h48l-151 -171h-56z" />
    <glyph glyph-name="section" unicode="&#xa7;" 
d="M130 327c0 -24 13 -56 41 -96c43 -62 70 -92 112 -92c47 0 77 34 77 72c0 31 -20 61 -48 103c-36 54 -62 85 -106 85c-42 0 -76 -32 -76 -72zM260 120c45 -50 67 -99 67 -143c0 -72 -63 -125 -152 -125c-82 0 -136 49 -136 106c0 31 22 55 53 55c24 0 43 -20 43 -42
c0 -29 -34 -47 -34 -64c0 -19 26 -34 66 -34c57 0 98 36 98 87c0 47 -33 82 -76 136l-50 63c-41 52 -68 93 -68 142c0 71 56 121 120 121c11 0 24 -1 39 -3c-44 49 -66 92 -66 136c0 72 62 126 157 126c70 0 121 -46 121 -97c0 -35 -21 -56 -50 -56c-26 0 -45 17 -45 41
c0 30 31 43 31 59c0 11 -22 31 -63 31c-53 0 -92 -34 -92 -79c0 -42 30 -79 76 -136l50 -62c43 -53 70 -95 70 -145c0 -72 -55 -122 -124 -122c-7 0 -19 2 -35 5z" />
    <glyph glyph-name="semicolon" unicode=";" horiz-adv-x="315" 
d="M257 332c0 -36 -30 -66 -66 -66c-37 0 -66 29 -66 66s29 66 66 66s66 -30 66 -66zM79 -146l-12 22c83 41 123 103 123 145c0 10 -5 18 -9 18c-15 0 -15 -46 -63 -46c-32 0 -54 22 -54 62c0 38 33 64 73 64c52 0 90 -37 90 -96s-55 -134 -148 -169z" />
    <glyph glyph-name="seven" unicode="7" horiz-adv-x="509" 
d="M123 463h-28l80 169h339v-23l-129 -202c-75 -117 -115 -200 -115 -274c0 -33 5 -63 5 -90c0 -37 -24 -59 -62 -59c-41 0 -62 23 -62 63c0 28 13 59 36 96l244 390v14h-237c-36 0 -47 -29 -71 -84z" />
    <glyph glyph-name="six" unicode="6" horiz-adv-x="509" 
d="M466 646v-24c-124 -17 -214 -98 -277 -247l7 -8c34 27 64 41 99 41c97 0 164 -66 164 -169c0 -136 -119 -255 -239 -255c-103 0 -183 84 -183 210c0 93 41 200 119 290c82 94 181 146 310 162zM175 319c-32 -112 -41 -192 -41 -226c0 -52 32 -87 80 -87s82 35 105 106
c21 63 33 144 33 198c0 48 -20 72 -62 72c-34 0 -70 -22 -115 -63z" />
    <glyph glyph-name="slash" unicode="/" horiz-adv-x="278" 
d="M36 -93h-51l251 774h51z" />
    <glyph glyph-name="space" unicode=" " horiz-adv-x="255" 
 />
    <glyph glyph-name="sterling" unicode="&#xa3;" horiz-adv-x="509" 
d="M24 338l6 30h94c4 174 104 278 225 278c80 0 129 -42 129 -114c0 -41 -24 -66 -57 -66s-54 19 -54 53c0 44 60 38 60 63c0 26 -31 44 -72 44c-94 0 -112 -87 -119 -258h113l-5 -30h-110c-12 -105 -44 -177 -103 -222l1 -12c16 3 41 13 88 13c67 0 127 -52 175 -52
c30 0 48 15 48 40c0 28 -20 47 -60 54l6 19c52 -7 80 -37 80 -84c0 -63 -48 -108 -119 -108c-43 0 -80 16 -121 41c-39 24 -67 45 -95 45s-35 -16 -43 -45c-7 -26 -12 -44 -36 -44c-16 0 -29 13 -29 31c0 26 24 39 50 63c28 26 46 93 46 198c0 20 0 41 -1 63h-97z" />
    <glyph glyph-name="t" unicode="t" horiz-adv-x="347" 
d="M326 389v-23h-87l-70 -299c-1 -4 -2 -8 -2 -13c0 -12 7 -18 20 -18c22 0 65 37 90 103l21 -10c-34 -90 -104 -145 -164 -145c-46 0 -74 24 -74 58c0 13 3 30 8 51l64 273h-65v23h72l26 101c38 1 75 6 110 17l-26 -118h77z" />
    <glyph glyph-name="thorn" unicode="&#xfe;" horiz-adv-x="553" 
d="M259 14c51 0 83 41 110 123c31 93 40 157 40 178c0 39 -21 58 -62 58c-50 0 -101 -40 -129 -115c-22 -60 -33 -131 -33 -155c0 -55 31 -89 74 -89zM103 -211h71v-23h-241v23h61l199 857h-77v23h58c35 0 72 2 113 9h22l-81 -346h6c37 46 77 68 131 68
c87 0 145 -66 145 -157c0 -59 -26 -121 -77 -175s-107 -81 -169 -81c-47 0 -77 22 -91 67h-9z" />
    <glyph glyph-name="three" unicode="3" horiz-adv-x="509" 
d="M268 349v-9c94 -13 151 -73 151 -144c0 -117 -111 -212 -254 -212c-92 0 -155 50 -155 118c0 39 23 66 58 66c34 0 51 -18 51 -52c0 -48 -51 -45 -51 -67c0 -17 32 -41 83 -41c95 0 158 90 158 222c0 66 -36 101 -102 101c-24 0 -42 -6 -55 -6c-14 0 -22 7 -22 15
c0 11 9 18 25 18c15 0 29 -3 43 -3c91 0 139 81 139 184c0 56 -20 83 -73 83c-46 0 -79 -23 -79 -38c0 -16 24 -26 24 -53c0 -30 -17 -49 -49 -49c-31 0 -47 17 -47 49c0 57 68 115 171 115c99 0 162 -54 162 -130c0 -83 -58 -136 -178 -167z" />
    <glyph glyph-name="threequarters" unicode="&#xbe;" horiz-adv-x="808" 
d="M169 472v-5c59 -7 95 -40 95 -80c0 -66 -70 -119 -160 -119c-58 0 -98 28 -98 66c0 22 15 37 37 37c21 0 32 -10 32 -29c0 -27 -32 -25 -32 -38c0 -9 20 -23 52 -23c60 0 100 51 100 125c0 37 -23 56 -65 56c-15 0 -26 -3 -34 -3c-9 0 -14 4 -14 8c0 7 6 10 16 10
c9 0 18 -1 27 -1c57 0 87 45 87 103c0 31 -12 46 -46 46c-29 0 -49 -13 -49 -21c0 -9 15 -15 15 -30c0 -16 -11 -27 -31 -27s-30 9 -30 27c0 32 43 65 108 65c62 0 102 -30 102 -73c0 -47 -37 -76 -112 -94zM205 -16h-51l449 662h51zM644 110l43 187
c-70 -66 -128 -130 -174 -187h131zM731 0h-162v13h52l18 79h-146v19c65 83 145 165 239 251h33l-58 -252h51l10 41h15l-23 -99h-14l8 40h-52l-17 -79h46v-13z" />
    <glyph glyph-name="threesuperior" unicode="&#xb3;" horiz-adv-x="336" 
d="M177 461v-5c62 -8 100 -44 100 -86c0 -71 -74 -128 -168 -128c-61 0 -102 30 -102 71c0 24 15 40 38 40c22 0 34 -11 34 -31c0 -29 -34 -27 -34 -41c0 -10 21 -24 55 -24c62 0 104 54 104 133c0 40 -24 61 -67 61c-16 0 -28 -4 -37 -4s-14 4 -14 9c0 7 6 11 16 11
s19 -2 29 -2c60 0 91 49 91 110c0 34 -13 50 -48 50c-30 0 -52 -14 -52 -23s16 -15 16 -31c0 -18 -11 -30 -32 -30s-31 10 -31 30c0 34 44 69 112 69c66 0 107 -33 107 -78c0 -50 -38 -82 -117 -101z" />
    <glyph glyph-name="tilde" unicode="&#x2dc;" 
d="M458 587c-13 -65 -46 -99 -93 -99c-11 0 -23 2 -38 6l-64 17c-13 3 -23 5 -29 5c-21 0 -33 -13 -39 -39h-30c9 65 39 99 88 99c11 0 22 -2 35 -5l63 -17c12 -3 22 -5 28 -5c28 0 42 11 49 38h30z" />
    <glyph glyph-name="trademark" unicode="&#x2122;" horiz-adv-x="822" 
d="M122 704h217l5 -89h-13c-5 51 -25 74 -66 74h-8v-207c0 -16 7 -25 20 -26l16 -1v-14h-124v14l15 1c13 1 21 10 21 26v207h-8c-42 0 -62 -22 -67 -74h-13zM381 704h93l67 -191l70 191h88v-12l-14 -1c-14 -1 -21 -10 -21 -26v-183c0 -16 7 -25 21 -26l14 -1v-14h-117v14
l15 1c13 1 21 10 21 26v189l-84 -231h-10l-84 232v-190c0 -16 8 -25 21 -26l16 -1v-14h-96v14l16 1c13 1 21 10 21 26v181c0 16 -8 25 -21 26l-16 2v13z" />
    <glyph glyph-name="two" unicode="2" horiz-adv-x="509" 
d="M416 178l-41 -178h-365l10 62c206 187 320 279 320 428c0 83 -29 122 -93 122c-68 0 -125 -51 -125 -95c0 -6 5 -10 15 -10c5 0 11 2 18 2c20 0 47 -19 47 -52c0 -31 -19 -53 -51 -53c-41 0 -64 30 -64 79c0 83 77 162 191 162c100 0 176 -59 176 -143
c0 -69 -37 -112 -95 -170c-88 -89 -186 -158 -263 -240v-6h220c37 0 47 8 60 50l12 42h28z" />
    <glyph glyph-name="twosuperior" unicode="&#xb2;" horiz-adv-x="336" 
d="M275 359l-27 -107h-241l6 37c136 112 211 168 211 257c0 50 -19 73 -61 73c-45 0 -82 -30 -82 -57c0 -3 3 -6 9 -6c4 0 8 1 12 1c14 0 31 -11 31 -31c0 -18 -12 -32 -33 -32c-27 0 -43 18 -43 48c0 50 51 97 126 97c66 0 117 -35 117 -86c0 -41 -25 -67 -63 -102
c-58 -53 -123 -95 -174 -144v-3h146c24 0 31 4 39 30l8 25h19z" />
    <glyph glyph-name="u" unicode="u" horiz-adv-x="553" 
d="M520 139l20 -9c-27 -87 -98 -145 -158 -145c-44 0 -70 23 -70 60c0 8 1 18 2 28h-9c-53 -56 -101 -85 -156 -85c-57 0 -88 27 -88 73c0 11 2 25 6 43l60 262h-74v23h56c37 0 73 2 109 9h21l-74 -317c-2 -7 -3 -13 -3 -20c0 -21 12 -30 38 -30c53 0 125 84 138 141l51 217
h102l-75 -322c-1 -5 -1 -9 -1 -13c0 -12 6 -18 19 -18c21 0 62 37 86 103z" />
    <glyph glyph-name="uacute" unicode="&#xfa;" horiz-adv-x="553" 
d="M520 139l20 -9c-27 -87 -98 -145 -158 -145c-44 0 -70 23 -70 60c0 8 1 18 2 28h-9c-53 -56 -101 -85 -156 -85c-57 0 -88 27 -88 73c0 11 2 25 6 43l60 262h-74v23h56c37 0 73 2 109 9h21l-74 -317c-2 -7 -3 -13 -3 -20c0 -21 12 -30 38 -30c53 0 125 84 138 141l51 217
h102l-75 -322c-1 -5 -1 -9 -1 -13c0 -12 6 -18 19 -18c21 0 62 37 86 103zM271 452h-43l143 145c21 21 40 31 55 31c23 0 39 -17 39 -40c0 -18 -12 -29 -37 -44z" />
    <glyph glyph-name="ucircumflex" unicode="&#xfb;" horiz-adv-x="553" 
d="M520 139l20 -9c-27 -87 -98 -145 -158 -145c-44 0 -70 23 -70 60c0 8 1 18 2 28h-9c-53 -56 -101 -85 -156 -85c-57 0 -88 27 -88 73c0 11 2 25 6 43l60 262h-74v23h56c37 0 73 2 109 9h21l-74 -317c-2 -7 -3 -13 -3 -20c0 -21 12 -30 38 -30c53 0 125 84 138 141l51 217
h102l-75 -322c-1 -5 -1 -9 -1 -13c0 -12 6 -18 19 -18c21 0 62 37 86 103zM449 452h-36l-81 95l-123 -95h-47l151 171h55z" />
    <glyph glyph-name="udieresis" unicode="&#xfc;" horiz-adv-x="553" 
d="M520 139l20 -9c-27 -87 -98 -145 -158 -145c-44 0 -70 23 -70 60c0 8 1 18 2 28h-9c-53 -56 -101 -85 -156 -85c-57 0 -88 27 -88 73c0 11 2 25 6 43l60 262h-74v23h56c37 0 73 2 109 9h21l-74 -317c-2 -7 -3 -13 -3 -20c0 -21 12 -30 38 -30c53 0 125 84 138 141l51 217
h102l-75 -322c-1 -5 -1 -9 -1 -13c0 -12 6 -18 19 -18c21 0 62 37 86 103zM185 532c0 27 25 52 52 52c29 0 53 -24 53 -52c0 -31 -23 -54 -53 -54c-28 0 -52 23 -52 54zM365 532c0 27 25 52 52 52c29 0 53 -24 53 -52c0 -31 -23 -54 -53 -54c-28 0 -52 23 -52 54z" />
    <glyph glyph-name="ugrave" unicode="&#xf9;" horiz-adv-x="553" 
d="M520 139l20 -9c-27 -87 -98 -145 -158 -145c-44 0 -70 23 -70 60c0 8 1 18 2 28h-9c-53 -56 -101 -85 -156 -85c-57 0 -88 27 -88 73c0 11 2 25 6 43l60 262h-74v23h56c37 0 73 2 109 9h21l-74 -317c-2 -7 -3 -13 -3 -20c0 -21 12 -30 38 -30c53 0 125 84 138 141l51 217
h102l-75 -322c-1 -5 -1 -9 -1 -13c0 -12 6 -18 19 -18c21 0 62 37 86 103zM398 452h-39l-130 97c-19 14 -29 28 -29 42c0 22 17 37 37 37c13 0 28 -9 41 -25z" />
    <glyph glyph-name="underscore" unicode="_" 
d="M0 -166h500v-70h-500v70z" />
    <glyph glyph-name="v" unicode="v" horiz-adv-x="495" 
d="M37 245l-21 10c32 89 105 145 158 145c48 0 74 -24 74 -59c0 -17 -4 -33 -8 -50l-49 -210c-1 -6 -2 -11 -2 -16c0 -25 16 -40 44 -40c48 0 99 32 136 92s55 140 55 175c0 32 -25 26 -41 31c-21 7 -32 22 -32 43c0 25 18 44 48 44c40 0 58 -28 58 -86
c0 -63 -21 -146 -63 -217c-47 -80 -114 -121 -191 -121c-72 0 -114 36 -114 95c0 11 1 21 4 32l49 205c1 4 2 8 2 13c0 11 -7 17 -20 17c-21 0 -63 -37 -87 -103z" />
    <glyph glyph-name="w" unicode="w" horiz-adv-x="718" 
d="M91 104l48 214c1 5 1 9 1 13c0 12 -6 17 -18 17c-20 0 -58 -38 -81 -103l-19 10c30 91 97 145 146 145c44 0 69 -23 69 -59c0 -18 -5 -34 -8 -50l-46 -210c-4 -17 -4 -29 -4 -35c0 -15 11 -23 26 -23c52 0 131 121 199 366h93l-32 -144c-21 -96 -26 -154 -26 -163
c0 -36 21 -57 47 -57c35 0 72 34 110 102c36 64 51 136 51 164c0 32 -26 27 -42 32c-21 7 -33 21 -33 42c0 26 19 44 50 44c39 0 57 -29 57 -87c0 -45 -14 -115 -43 -178c-47 -102 -115 -158 -181 -158c-63 0 -99 43 -99 120c0 25 4 54 10 89c-63 -141 -114 -210 -197 -210
c-52 0 -82 28 -82 79c0 17 2 31 4 40z" />
    <glyph glyph-name="x" unicode="x" horiz-adv-x="507" 
d="M447 139l18 -9c-37 -97 -86 -144 -153 -144c-43 0 -63 22 -76 78l-17 77h-8c-68 -101 -98 -156 -153 -156c-30 0 -47 21 -47 47c0 25 17 43 42 43c29 0 39 -23 50 -23c15 0 47 43 105 125l-26 120c-6 27 -10 45 -30 45c-19 0 -32 -20 -52 -56l-25 -44l-18 10
c47 98 90 146 144 146c42 0 70 -27 79 -72l9 -46h9c55 80 88 118 125 118c26 0 45 -15 45 -44c0 -27 -15 -40 -44 -40c-22 0 -30 17 -43 17c-15 0 -27 -14 -43 -37l-40 -59l33 -159c5 -26 17 -39 31 -39c22 0 51 34 85 102z" />
    <glyph glyph-name="y" unicode="y" horiz-adv-x="498" 
d="M57 238l-20 8c43 103 77 152 123 152c43 0 66 -23 82 -76l56 -189h11l70 187c19 52 33 76 70 76c24 0 43 -20 43 -45c0 -27 -15 -43 -40 -43c-13 0 -23 10 -30 10c-8 0 -17 -7 -22 -22l-86 -232c-72 -191 -136 -298 -231 -298c-38 0 -62 23 -62 54c0 28 16 45 45 45
c48 0 31 -55 54 -55c17 0 33 15 55 42c41 51 59 101 59 126c0 12 -2 26 -6 40l-87 285c-5 18 -10 27 -23 27c-14 0 -27 -23 -48 -65z" />
    <glyph glyph-name="yacute" unicode="&#xfd;" horiz-adv-x="498" 
d="M57 238l-20 8c43 103 77 152 123 152c43 0 66 -23 82 -76l56 -189h11l70 187c19 52 33 76 70 76c24 0 43 -20 43 -45c0 -27 -15 -43 -40 -43c-13 0 -23 10 -30 10c-8 0 -17 -7 -22 -22l-86 -232c-72 -191 -136 -298 -231 -298c-38 0 -62 23 -62 54c0 28 16 45 45 45
c48 0 31 -55 54 -55c17 0 33 15 55 42c41 51 59 101 59 126c0 12 -2 26 -6 40l-87 285c-5 18 -10 27 -23 27c-14 0 -27 -23 -48 -65zM254 452h-43l143 145c21 21 40 31 55 31c23 0 39 -17 39 -40c0 -18 -12 -29 -37 -44z" />
    <glyph glyph-name="ydieresis" unicode="&#xff;" horiz-adv-x="498" 
d="M57 238l-20 8c43 103 77 152 123 152c43 0 66 -23 82 -76l56 -189h11l70 187c19 52 33 76 70 76c24 0 43 -20 43 -45c0 -27 -15 -43 -40 -43c-13 0 -23 10 -30 10c-8 0 -17 -7 -22 -22l-86 -232c-72 -191 -136 -298 -231 -298c-38 0 -62 23 -62 54c0 28 16 45 45 45
c48 0 31 -55 54 -55c17 0 33 15 55 42c41 51 59 101 59 126c0 12 -2 26 -6 40l-87 285c-5 18 -10 27 -23 27c-14 0 -27 -23 -48 -65zM168 532c0 27 25 52 52 52c29 0 53 -24 53 -52c0 -31 -23 -54 -53 -54c-28 0 -52 23 -52 54zM348 532c0 27 25 52 52 52
c29 0 53 -24 53 -52c0 -31 -23 -54 -53 -54c-28 0 -52 23 -52 54z" />
    <glyph glyph-name="yen" unicode="&#xa5;" horiz-adv-x="557" 
d="M293 632v-24h-97l112 -283h8l199 283h-95v24h192v-24h-61l-126 -180h137v-23h-153l-64 -91h195v-23h-212l-60 -267h92v-23h-286v23h93l58 267h-211v23h198l-37 91h-141v23h131l-73 180h-75v24h276z" />
    <glyph glyph-name="z" unicode="z" horiz-adv-x="442" 
d="M80 247l-23 8l68 145c61 -12 129 -44 211 -44c32 0 35 6 39 26c3 13 10 19 23 19c11 0 21 -8 21 -21c0 -15 -9 -25 -21 -36l-255 -227l3 -7c99 -2 158 -49 191 -49c15 0 27 9 27 20s-10 21 -23 21h-4c-15 0 -27 11 -27 29c0 20 13 34 33 34c31 0 49 -22 49 -61
c0 -66 -57 -118 -137 -118c-20 0 -42 5 -65 13l-86 31c-10 4 -19 9 -29 9c-7 0 -13 -7 -13 -15v-14c0 -15 -6 -23 -18 -23c-16 0 -28 8 -28 21c0 17 14 42 43 68l252 231c-57 -9 -100 -15 -130 -15c-28 0 -53 3 -76 12z" />
    <glyph glyph-name="zcaron" unicode="&#x17e;" horiz-adv-x="442" 
d="M80 247l-23 8l68 145c61 -12 129 -44 211 -44c32 0 35 6 39 26c3 13 10 19 23 19c11 0 21 -8 21 -21c0 -15 -9 -25 -21 -36l-255 -227l3 -7c99 -2 158 -49 191 -49c15 0 27 9 27 20s-10 21 -23 21h-4c-15 0 -27 11 -27 29c0 20 13 34 33 34c31 0 49 -22 49 -61
c0 -66 -57 -118 -137 -118c-20 0 -42 5 -65 13l-86 31c-10 4 -19 9 -29 9c-7 0 -13 -7 -13 -15v-14c0 -15 -6 -23 -18 -23c-16 0 -28 8 -28 21c0 17 14 42 43 68l252 231c-57 -9 -100 -15 -130 -15c-28 0 -53 3 -76 12zM157 623h36l81 -95l123 95h48l-151 -171h-56z" />
    <glyph glyph-name="zero" unicode="0" horiz-adv-x="509" 
d="M199 2c67 0 88 56 121 179c50 190 63 322 63 361c0 58 -18 85 -74 85c-66 0 -89 -54 -121 -178c-50 -192 -62 -323 -62 -362c0 -58 17 -85 73 -85zM311 648c95 0 165 -89 165 -242c0 -102 -30 -205 -79 -281c-61 -95 -132 -144 -199 -144c-93 0 -165 91 -165 242
c0 102 29 205 78 281c60 95 132 144 200 144z" />
  </font>
</defs>
</svg>
