<?xml version="1.0" standalone="no"?>
<!DOCTYPE svg PUBLIC "-//W3C//DTD SVG 1.1//EN" "http://www.w3.org/Graphics/SVG/1.1/DTD/svg11.dtd" >
<svg xmlns="http://www.w3.org/2000/svg" width="100%" height="100%">
<metadata>
Created by FontXChange 20110222 at Mon Feb 25 17:52:48 2019
 By Suzi Rubino
Copyright 1990 as an unpublished work by Bitstream Inc.  All rights reserved.  Confidential.
</metadata>
<defs>
<font id="BodoniBT-Bold" horiz-adv-x="500" >
  <font-face 
    font-family="BodoniBT"
    font-weight="700"
    font-stretch="normal"
    units-per-em="1000"
    panose-1="2 0 8 3 0 0 0 0 0 0"
    ascent="800"
    descent="-200"
    x-height="390"
    cap-height="650"
    bbox="-167 -236 1296 947"
    underline-thickness="84"
    underline-position="-109"
    stemh="24"
    stemv="135"
    unicode-range="U+0020-FB02"
  />
    <missing-glyph />
    <glyph glyph-name="space" unicode=" " horiz-adv-x="302" 
 />
    <glyph glyph-name="exclam" unicode="!" horiz-adv-x="329" 
d="M151 215v16c0 63 -5 122 -21 185c-13 53 -43 102 -43 156c0 58 30 91 78 91s77 -33 77 -88c0 -50 -25 -100 -42 -159c-17 -57 -22 -123 -22 -201h-27zM243 68c0 -44 -36 -78 -79 -78s-78 35 -78 78s35 79 78 79s79 -35 79 -79z" />
    <glyph glyph-name="quotedbl" unicode="&#x22;" horiz-adv-x="345" 
d="M99 416h-20l-39 225c-1 7 -1 12 -1 18c0 34 20 56 50 56c31 0 50 -20 50 -54c0 -6 0 -13 -1 -20zM265 416h-20l-39 225c-1 6 -2 13 -2 18c0 35 20 56 51 56s51 -20 51 -54c0 -6 -1 -13 -2 -20z" />
    <glyph glyph-name="numbersign" unicode="#" horiz-adv-x="769" 
d="M347 715h105l-72 -203h124l73 203h104l-72 -203h138l-36 -96h-136l-43 -122h143l-35 -96h-142l-72 -203h-105l72 203h-124l-73 -203h-105l72 203h-141l36 96h140l43 122h-148l36 96h146zM344 416l-44 -122h129l43 122h-128z" />
    <glyph glyph-name="dollar" unicode="$" horiz-adv-x="604" 
d="M259 24c31 0 59 1 82 4v224l-82 19v-247zM370 33c73 18 109 56 109 114c0 49 -35 79 -109 97v-211zM228 27v252c-98 22 -151 87 -151 181c0 87 57 160 151 187v56h32v-49c16 3 33 5 50 5c10 0 21 -1 31 -2v46h31v-49c93 -20 144 -74 144 -137c0 -39 -23 -63 -58 -63
c-37 0 -59 20 -59 55c0 53 44 55 44 73c0 15 -24 32 -71 42v-230c115 -30 172 -91 172 -184c0 -108 -59 -179 -172 -205v-98h-31v93c-21 -2 -43 -4 -67 -4h-15v-89h-31v90c-115 10 -171 57 -171 144c0 52 29 83 75 83c39 0 61 -24 61 -67c0 -28 -9 -42 -33 -58
c-14 -9 -28 -11 -28 -23c0 -17 34 -42 96 -49zM259 419l82 -18v227c-10 1 -21 2 -31 2c-18 0 -35 -2 -51 -5v-206zM228 428v190c-59 -16 -92 -54 -92 -104c0 -43 29 -69 92 -86z" />
    <glyph glyph-name="percent" unicode="%" horiz-adv-x="948" 
d="M249 -31l351 618c-39 -29 -82 -42 -134 -42c-20 0 -41 3 -65 9c1 -9 1 -18 1 -27c0 -59 -17 -112 -51 -161c-43 -62 -99 -95 -157 -95c-83 0 -141 53 -141 132c0 63 27 124 79 180c44 48 97 72 151 72s88 -21 108 -65c26 -11 51 -18 77 -18c80 0 139 33 188 106h48
l-405 -709h-50zM375 566c-23 9 -43 23 -60 43c-35 -5 -58 -34 -87 -84c-44 -77 -64 -135 -64 -168c0 -30 23 -52 56 -52c39 0 79 28 115 82c28 43 43 91 43 140c0 13 -1 26 -3 39zM684 -5c-87 0 -139 53 -139 134c0 44 19 97 58 149c49 65 113 100 172 100
c73 0 120 -46 120 -125c0 -60 -25 -129 -69 -184c-41 -50 -86 -74 -142 -74zM658 89c0 -40 19 -61 56 -61c36 0 74 26 109 79c30 45 46 102 46 153c0 50 -21 77 -54 77c-29 0 -53 -23 -81 -67c-55 -86 -76 -158 -76 -181z" />
    <glyph glyph-name="ampersand" unicode="&#x26;" horiz-adv-x="765" 
d="M253 350c-49 -20 -73 -49 -73 -90c0 -34 20 -84 60 -149c28 -45 66 -69 100 -69c28 0 63 13 95 40zM390 425c47 21 62 56 62 119c0 59 -24 87 -74 87c-47 0 -72 -19 -72 -51c0 -35 21 -70 55 -116zM489 0l-35 53c-63 -47 -137 -70 -220 -70c-127 0 -200 70 -200 175
c0 96 68 169 203 216c-32 47 -48 96 -48 138c0 83 76 150 187 150c117 0 188 -50 188 -124c0 -62 -52 -108 -156 -137l141 -204c46 62 65 114 65 141c0 26 -13 31 -51 31h-45v30h229v-30h-31c-46 0 -56 -17 -70 -54c-19 -50 -40 -98 -79 -144l97 -140h81v-31h-256z" />
    <glyph glyph-name="quoteright" unicode="&#x2019;" horiz-adv-x="302" 
d="M108 359c68 50 102 101 102 148c0 30 -4 45 -16 45c-10 0 -19 -49 -66 -49c-42 0 -67 27 -67 73c0 51 35 87 87 87c64 0 111 -50 111 -123c0 -76 -45 -143 -134 -202z" />
    <glyph glyph-name="parenleft" unicode="(" horiz-adv-x="370" 
d="M319 -230c-171 144 -255 288 -255 447s84 302 255 446v-22c-89 -85 -129 -196 -129 -342v-165c0 -146 40 -256 129 -341v-23z" />
    <glyph glyph-name="parenright" unicode=")" horiz-adv-x="370" 
d="M50 -230v23c89 85 128 195 128 341v165c0 146 -39 257 -128 342v22c171 -144 255 -287 255 -446s-84 -303 -255 -447z" />
    <glyph glyph-name="asterisk" unicode="*" 
d="M242 466c0 74 -45 117 -45 149c0 29 19 48 53 48c32 0 53 -20 53 -49c0 -31 -43 -72 -46 -147c25 12 49 35 70 68c20 30 30 51 63 51c26 0 51 -29 51 -57c0 -27 -24 -49 -50 -49c-53 0 -95 -10 -125 -27c28 -17 63 -26 103 -26c48 0 72 -19 72 -51c0 -29 -25 -57 -53 -57
c-29 0 -41 22 -61 52c-21 32 -43 54 -69 68c0 -74 45 -116 45 -148c0 -29 -18 -48 -53 -48c-33 0 -53 20 -53 49c0 31 43 71 46 146c-25 -12 -49 -34 -70 -67c-20 -30 -30 -52 -63 -52c-26 0 -51 29 -51 57c0 27 24 49 50 49c53 0 95 10 125 27c-28 17 -63 27 -103 27
c-48 0 -72 18 -72 50c0 29 25 58 53 58c29 0 41 -22 61 -52c21 -32 43 -55 69 -69z" />
    <glyph glyph-name="plus" unicode="+" horiz-adv-x="833" 
d="M367 596h99v-249h243v-97h-243v-250h-99v250h-243v97h243v249z" />
    <glyph glyph-name="comma" unicode="," horiz-adv-x="302" 
d="M108 -158c68 50 102 101 102 148c0 30 -4 44 -16 44c-10 0 -19 -48 -66 -48c-42 0 -67 26 -67 72c0 51 35 88 87 88c64 0 111 -51 111 -124c0 -76 -45 -142 -134 -201z" />
    <glyph glyph-name="hyphen" unicode="-" horiz-adv-x="376" 
d="M59 136v121h257v-121h-257z" />
    <glyph glyph-name="period" unicode="." horiz-adv-x="302" 
d="M71 69c0 44 36 80 80 80c43 0 79 -36 79 -80c0 -43 -35 -79 -79 -79c-43 0 -80 35 -80 79z" />
    <glyph glyph-name="slash" unicode="/" horiz-adv-x="273" 
d="M29 -93h-55l244 756h55z" />
    <glyph glyph-name="zero" unicode="0" horiz-adv-x="604" 
d="M302 636c-42 0 -67 -16 -77 -50c-14 -46 -15 -142 -15 -289v-24c0 -185 2 -256 92 -256c92 0 93 75 93 269v13c0 141 -2 225 -6 251c-10 60 -34 86 -87 86zM40 327c0 97 26 180 72 239c52 67 116 100 190 100c72 0 137 -34 189 -102c47 -61 74 -144 74 -241
c0 -92 -25 -168 -78 -235c-52 -66 -117 -101 -185 -101c-67 0 -134 35 -183 96c-49 62 -79 151 -79 244z" />
    <glyph glyph-name="one" unicode="1" horiz-adv-x="604" 
d="M106 0v30h125v566c0 28 -13 29 -68 29h-54v25c75 1 153 7 234 16h34v-636h117v-30h-388z" />
    <glyph glyph-name="two" unicode="2" horiz-adv-x="604" 
d="M38 0v90l180 140c98 76 141 149 141 241c0 99 -50 155 -134 155c-67 0 -113 -49 -113 -69c0 -9 7 -12 19 -12h6c53 0 84 -27 84 -71c0 -43 -28 -71 -71 -71c-54 0 -89 40 -89 99c0 89 90 164 234 164c146 0 232 -67 232 -172c0 -89 -65 -162 -197 -245l-181 -113v-7h287
c34 0 48 7 51 35l6 57h32l-10 -221h-477z" />
    <glyph glyph-name="three" unicode="3" horiz-adv-x="604" 
d="M316 355c147 -20 218 -72 218 -168c0 -114 -108 -199 -288 -199c-124 0 -198 60 -198 128c0 50 29 81 73 81c46 0 77 -30 77 -69c0 -58 -54 -65 -54 -81c0 -14 33 -29 91 -29c85 0 127 52 127 157c0 111 -49 162 -156 162c-18 0 -32 -2 -43 -2c-14 0 -21 7 -21 18
s8 18 22 18c7 0 18 -2 32 -2c102 0 141 45 141 150c0 82 -23 116 -92 116c-43 0 -67 -13 -67 -24c0 -9 44 -22 44 -69c0 -43 -27 -70 -70 -70c-39 0 -64 28 -64 68c0 70 70 125 186 125c139 0 222 -64 222 -148c0 -74 -62 -129 -180 -154v-8z" />
    <glyph glyph-name="four" unicode="4" horiz-adv-x="604" 
d="M196 0v30h87v152h-260v42c126 194 236 342 326 442h85v-453h107v74h22v-176h-22v71h-107v-152h77v-30h-315zM288 213l4 334h-4c-113 -143 -190 -256 -236 -334h236z" />
    <glyph glyph-name="five" unicode="5" horiz-adv-x="604" 
d="M128 364c50 20 99 30 148 30c159 0 260 -79 260 -197c0 -129 -107 -211 -297 -211c-115 0 -189 57 -189 130c0 44 29 77 73 77c43 0 74 -29 74 -71c0 -52 -49 -62 -49 -77s30 -32 81 -32c94 0 133 51 133 168c0 113 -49 168 -153 168c-49 0 -80 -16 -94 -16
c-8 0 -13 7 -13 19l7 245c1 35 18 54 44 54h216c64 0 87 1 91 43h23c-2 -133 -22 -159 -107 -159h-242z" />
    <glyph glyph-name="six" unicode="6" horiz-adv-x="604" 
d="M223 363c27 36 68 56 125 56c124 0 215 -89 215 -203c0 -61 -23 -112 -71 -157c-50 -47 -115 -72 -187 -72c-149 0 -260 118 -260 281c0 99 38 189 109 259c87 86 200 133 333 138v-28c-158 -12 -253 -110 -264 -274zM219 319c-5 -33 -7 -75 -7 -124
c0 -127 14 -179 96 -179c81 0 92 50 92 200c0 116 -5 168 -82 168c-37 0 -73 -22 -99 -65z" />
    <glyph glyph-name="seven" unicode="7" horiz-adv-x="604" 
d="M97 434h-30l72 219h411v-43l-106 -178c-54 -90 -87 -159 -87 -227c0 -58 37 -95 37 -138c0 -51 -36 -82 -93 -82c-58 0 -89 31 -89 87c0 64 56 140 125 251l126 203h-290c-30 0 -46 -9 -56 -37z" />
    <glyph glyph-name="eight" unicode="8" horiz-adv-x="604" 
d="M235 341v7c-113 24 -169 76 -169 155c0 94 91 163 233 163c147 0 240 -70 240 -163c0 -83 -55 -132 -173 -157v-6c131 -22 199 -82 199 -166c0 -114 -96 -187 -264 -187c-169 0 -264 70 -264 178c0 93 70 160 198 176zM305 637c-79 0 -81 -35 -81 -150
c0 -87 16 -129 76 -129c78 0 82 56 82 175c0 79 -12 104 -77 104zM301 323c-80 0 -98 -59 -98 -183c0 -97 21 -124 101 -124c89 0 92 41 92 166c0 95 -21 141 -95 141z" />
    <glyph glyph-name="nine" unicode="9" horiz-adv-x="604" 
d="M384 334c5 33 8 74 8 123c0 127 -14 180 -96 180c-81 0 -92 -50 -92 -200c0 -116 5 -169 82 -169c37 0 72 23 98 66zM381 290c-27 -36 -68 -56 -125 -56c-124 0 -215 89 -215 203c0 61 23 111 71 156c50 47 115 73 187 73c149 0 259 -118 259 -281
c0 -99 -37 -189 -108 -259c-87 -86 -200 -133 -333 -138v27c158 12 253 111 264 275z" />
    <glyph glyph-name="colon" unicode=":" horiz-adv-x="329" 
d="M85 69c0 44 36 80 80 80c43 0 79 -36 79 -80c0 -43 -35 -79 -79 -79c-43 0 -80 35 -80 79zM85 322c0 44 36 80 80 80c43 0 79 -36 79 -80c0 -43 -35 -80 -79 -80c-43 0 -80 36 -80 80z" />
    <glyph glyph-name="semicolon" unicode=";" horiz-adv-x="329" 
d="M85 322c0 44 36 80 80 80c43 0 79 -36 79 -80c0 -43 -36 -80 -80 -80c-43 0 -79 36 -79 80zM126 -158c68 50 102 101 102 148c0 30 -3 44 -15 44c-10 0 -20 -48 -67 -48c-42 0 -66 26 -66 72c0 51 35 88 87 88c64 0 110 -51 110 -124c0 -76 -44 -142 -133 -201z" />
    <glyph glyph-name="less" unicode="&#x3c;" horiz-adv-x="833" 
d="M704 583v-107l-436 -178l436 -178v-107l-575 237v97z" />
    <glyph glyph-name="equal" unicode="=" horiz-adv-x="833" 
d="M124 452h585v-97h-585v97zM124 242h585v-97h-585v97z" />
    <glyph glyph-name="greater" unicode="&#x3e;" horiz-adv-x="833" 
d="M129 583l575 -236v-97l-575 -237v107l437 178l-437 178v107z" />
    <glyph glyph-name="question" unicode="?" horiz-adv-x="440" 
d="M168 204c-14 42 -20 79 -20 107c0 43 22 94 59 132c50 51 95 79 95 125c0 40 -39 70 -98 70c-51 0 -83 -24 -83 -39c0 -7 14 -8 28 -15c19 -10 30 -30 30 -55c0 -37 -26 -63 -67 -63c-40 0 -65 28 -65 71c0 69 68 127 167 127c110 0 183 -65 183 -163
c0 -96 -63 -138 -163 -199c-32 -19 -47 -31 -47 -60c0 -9 1 -19 4 -32zM113 68c0 44 35 79 78 79s79 -36 79 -79s-36 -78 -79 -78s-78 34 -78 78z" />
    <glyph glyph-name="at" unicode="@" horiz-adv-x="986" 
d="M546 463c-42 0 -73 -30 -104 -92c-39 -77 -57 -143 -57 -194c0 -53 25 -84 62 -84c41 0 81 40 117 119c30 68 42 132 42 170c0 52 -22 81 -60 81zM574 156c-40 -65 -86 -96 -144 -96c-92 0 -148 63 -148 167c0 74 33 146 95 204c45 42 98 64 151 64c62 0 97 -29 108 -89
l24 80h93l-85 -302c-4 -16 -8 -31 -8 -46c0 -31 15 -49 37 -49c18 0 56 15 89 43c67 57 104 143 104 245c0 180 -136 301 -331 301c-88 0 -170 -24 -239 -73c-113 -79 -176 -205 -176 -354c0 -219 149 -356 379 -356c109 0 207 33 306 101l19 -25
c-98 -73 -207 -110 -325 -110c-126 0 -232 33 -305 87c-98 73 -153 184 -153 313c0 102 35 197 100 275c94 113 229 176 382 176c228 0 375 -134 375 -338c0 -106 -40 -198 -112 -263c-39 -35 -84 -53 -129 -53c-63 0 -102 35 -107 98z" />
    <glyph glyph-name="A" unicode="A" horiz-adv-x="659" 
d="M2 0v32h40c24 0 36 17 49 50l223 581h39l244 -631h58v-32h-315v32h79l-57 152h-198l-43 -111c-2 -4 -3 -13 -3 -23c0 -11 10 -18 29 -18h58v-32h-203zM175 216h176l-86 228z" />
    <glyph glyph-name="B" unicode="B" horiz-adv-x="713" 
d="M40 32h70v588h-70v30h363c140 0 219 -63 219 -155c0 -79 -63 -128 -186 -146v-8c141 -12 212 -67 212 -162c0 -109 -96 -179 -252 -179h-356v32zM272 357h62c99 0 116 26 116 132c0 118 -10 131 -122 131h-56v-263zM272 32h87c95 0 109 28 109 149
c0 118 -23 148 -123 148h-73v-297z" />
    <glyph glyph-name="C" unicode="C" horiz-adv-x="658" 
d="M600 195v-195h-32l-44 36c-38 -34 -91 -52 -156 -52c-89 0 -162 34 -226 105c-63 69 -94 147 -94 236s32 166 95 235c64 70 139 104 228 104c56 0 104 -16 148 -47l35 34h33l4 -180h-35c-42 113 -96 163 -187 163c-124 0 -129 -88 -129 -297c0 -119 2 -196 11 -231
c16 -64 50 -92 118 -92c90 0 172 72 194 181h37z" />
    <glyph glyph-name="D" unicode="D" horiz-adv-x="766" 
d="M282 32h82c59 0 96 4 124 38c34 42 40 113 40 217v46c0 106 -2 181 -27 228c-28 52 -68 59 -137 59h-82v-588zM38 32h79v588h-79v30h333c87 0 154 -14 215 -58c79 -57 128 -156 128 -267s-50 -211 -131 -269c-55 -39 -125 -56 -216 -56h-329v32z" />
    <glyph glyph-name="E" unicode="E" horiz-adv-x="659" 
d="M31 0v32h79v588h-68v30h542l2 -171h-33c-44 111 -80 141 -167 141h-111v-267c7 -1 15 -1 22 -1c70 0 105 35 116 119h33v-277h-33c-7 90 -42 127 -120 127c-6 0 -12 -1 -18 -1v-288h108c109 0 163 54 197 185h31l-7 -217h-573z" />
    <glyph glyph-name="F" unicode="F" horiz-adv-x="606" 
d="M35 0v32h78v588h-80v30h553l6 -189h-34c-32 119 -80 159 -180 159h-100v-267c8 -1 16 -1 23 -1c69 0 104 36 115 119h33v-277h-33c-7 90 -42 127 -119 127c-6 0 -12 -1 -19 -1v-288h95v-32h-338z" />
    <glyph glyph-name="G" unicode="G" horiz-adv-x="714" 
d="M694 219h-60v-8c0 -140 -97 -226 -261 -226c-65 0 -121 16 -169 49c-97 67 -150 169 -150 290c0 93 36 178 108 248c62 60 136 91 214 91c65 0 117 -17 156 -51l37 39h29l5 -188h-36c-34 112 -97 171 -181 171c-61 0 -99 -21 -119 -67s-20 -133 -20 -263
c0 -207 1 -289 118 -289c64 0 99 30 99 81v123h-85v31h315v-31z" />
    <glyph glyph-name="H" unicode="H" horiz-adv-x="768" 
d="M31 0v32h79v588h-79v29h322v-29h-78v-267h217v267h-78v29h322v-29h-79v-588h79v-32h-322v32h78v284h-217v-284h78v-32h-322z" />
    <glyph glyph-name="I" unicode="I" horiz-adv-x="383" 
d="M27 0v32h80v588h-80v30h328v-30h-80v-588h80v-32h-328z" />
    <glyph glyph-name="J" unicode="J" horiz-adv-x="440" 
d="M170 -17v637h-73v30h319v-30h-78v-483c0 -157 -96 -253 -232 -253c-76 0 -125 47 -125 106c0 44 31 76 69 76c42 0 68 -29 68 -72c0 -28 -18 -45 -18 -59c0 -9 9 -16 23 -16c26 0 47 23 47 64z" />
    <glyph glyph-name="K" unicode="K" horiz-adv-x="767" 
d="M37 32h80v588h-80v29h325v-29h-80v-588h80v-32h-325v32zM292 356l232 234c7 7 11 12 11 19c0 5 -6 11 -15 11h-67v29h240v-29h-40c-48 0 -69 -17 -102 -50l-137 -139l269 -399h78v-32h-347v32h79l-201 300v24z" />
    <glyph glyph-name="L" unicode="L" horiz-adv-x="605" 
d="M42 0v32h67v588h-67v30h324v-30h-90v-588h95c109 0 163 54 197 185h31l-7 -217h-550z" />
    <glyph glyph-name="M" unicode="M" horiz-adv-x="823" 
d="M21 0v32h48c25 0 39 17 39 48v540h-87v30h281l114 -375l121 375h266v-30h-84v-588h82v-32h-330v32h88v580h-2l-192 -612h-34l-189 618v-535c0 -38 12 -51 47 -51h43v-32h-211z" />
    <glyph glyph-name="N" unicode="N" horiz-adv-x="715" 
d="M27 0v32h50c29 0 35 12 35 42v512c0 27 -7 34 -43 34h-40v30h263l274 -374v296c0 40 -9 48 -48 48h-42v30h208v-30h-38c-34 0 -43 -12 -43 -48v-587h-27l-425 585v-502c0 -23 13 -36 37 -36h58v-32h-219z" />
    <glyph glyph-name="O" unicode="O" horiz-adv-x="769" 
d="M48 324c0 87 34 169 99 236c68 69 144 103 237 103s169 -34 237 -103c65 -67 100 -149 100 -236s-34 -170 -100 -237c-67 -69 -144 -102 -237 -102s-169 33 -237 102c-65 67 -99 150 -99 237zM242 324c0 -121 1 -202 19 -242c22 -49 59 -67 123 -67s101 18 123 67
c18 41 19 121 19 242s-1 201 -19 242c-22 49 -59 67 -123 67s-101 -18 -123 -67c-18 -40 -19 -121 -19 -242z" />
    <glyph glyph-name="P" unicode="P" horiz-adv-x="657" 
d="M274 620v-287h91c87 0 91 34 91 149c0 112 -8 138 -95 138h-87zM31 32h78v588h-78v30h336c182 0 271 -53 271 -166c0 -118 -92 -177 -276 -177h-88v-275h92v-32h-335v32z" />
    <glyph glyph-name="Q" unicode="Q" horiz-adv-x="769" 
d="M663 -177v-33c-41 -4 -79 -6 -111 -6c-181 0 -261 49 -261 181c0 3 0 14 1 32c-150 52 -244 183 -244 327c0 87 34 169 99 236c68 69 144 103 237 103s169 -34 237 -103c65 -67 100 -149 100 -236c0 -145 -96 -278 -244 -327c-2 -19 -3 -36 -3 -52
c0 -88 33 -126 127 -126c21 0 41 2 62 4zM242 324c0 -121 1 -202 19 -242c22 -49 59 -67 123 -67s101 18 123 67c18 41 19 121 19 242s-1 201 -19 242c-22 49 -59 67 -123 67s-101 -18 -123 -67c-18 -40 -19 -121 -19 -242z" />
    <glyph glyph-name="R" unicode="R" horiz-adv-x="713" 
d="M272 366h82c82 0 95 31 95 122c0 114 -3 132 -95 132h-82v-254zM31 32h76v588h-76v30h363c152 0 232 -52 232 -142c0 -92 -76 -150 -216 -157v-8c146 -20 194 -85 194 -232c0 -52 5 -77 42 -77c12 0 27 3 44 9l10 -27c-47 -21 -87 -30 -113 -30c-56 0 -101 18 -126 46
c-43 48 -40 110 -43 182c-4 88 -36 120 -129 120h-17v-302h85v-32h-326v32z" />
    <glyph glyph-name="S" unicode="S" horiz-adv-x="548" 
d="M50 -8v191h38c33 -111 100 -169 194 -169c87 0 148 53 148 122c0 38 -12 60 -44 81c-36 24 -90 31 -153 47c-122 31 -180 88 -180 195c0 121 83 204 206 204c50 0 93 -14 131 -42l36 29h31l4 -172h-33c-25 102 -86 156 -174 156c-76 0 -125 -43 -125 -96
c0 -68 59 -74 156 -96c150 -35 220 -91 220 -228c0 -132 -94 -229 -221 -229c-60 0 -108 12 -153 46l-45 -39h-36z" />
    <glyph glyph-name="T" unicode="T" horiz-adv-x="659" 
d="M166 0v32h80v588h-35c-89 0 -130 -51 -166 -180h-26l8 210h606l8 -210h-26c-34 126 -78 180 -164 180h-37v-588h80v-32h-328z" />
    <glyph glyph-name="U" unicode="U" horiz-adv-x="710" 
d="M106 176v444h-76v30h325v-30h-84v-441c0 -107 38 -158 132 -158c49 0 89 14 118 41c44 40 45 92 45 166v10v331c0 45 -7 51 -49 51h-32v30h206v-30h-32c-45 0 -56 -9 -56 -52v-327v-13c0 -67 -1 -119 -31 -161c-40 -57 -108 -82 -208 -82c-170 0 -258 67 -258 191z" />
    <glyph glyph-name="V" unicode="V" horiz-adv-x="659" 
d="M324 -15l-261 635h-55v30h306v-30h-75l166 -402l119 337c7 19 11 33 11 42c0 20 -13 23 -50 23h-40v30h207v-30h-28c-40 0 -52 -23 -69 -72l-201 -563h-30z" />
    <glyph glyph-name="W" unicode="W" horiz-adv-x="933" 
d="M406 182l55 123l-134 317h-102zM324 -15l-261 635h-55v30h683v-30h-29c-23 0 -31 -11 -40 -32l-64 -142l108 -251l131 361c7 19 9 33 9 39c0 20 -10 25 -33 25h-40v30h190v-30h-31c-36 0 -48 -24 -64 -67l-206 -568h-27l-117 280l-127 -280h-27zM541 483l61 139h-120z
" />
    <glyph glyph-name="X" unicode="X" horiz-adv-x="657" 
d="M1 0v32h48c34 0 42 11 61 39l150 220l-201 329h-58v30h316v-30h-67l112 -190l110 164c3 5 6 8 6 14c0 9 -7 12 -20 12h-62v30h221v-30h-43c-39 0 -49 -3 -70 -33l-125 -181l225 -374h53v-32h-313v32h71l-138 229l-123 -187c-6 -9 -9 -20 -9 -25c0 -11 9 -17 25 -17h56
v-32h-225z" />
    <glyph glyph-name="Y" unicode="Y" horiz-adv-x="659" 
d="M175 0v32h80v277l-190 311h-65v30h328v-30h-80l159 -264l112 210c9 17 14 28 14 35c0 13 -11 19 -33 19h-56v30h210v-30h-27c-40 0 -56 -21 -82 -70l-122 -228v-290h80v-32h-328z" />
    <glyph glyph-name="Z" unicode="Z" horiz-adv-x="547" 
d="M11 0v37l330 583h-104c-88 0 -141 -49 -162 -146h-32l12 176h467v-29l-332 -589h102c113 0 165 50 202 191h28l-6 -223h-505z" />
    <glyph glyph-name="bracketleft" unicode="[" horiz-adv-x="370" 
d="M94 -207v856h244v-32h-132v-792h132v-32h-244z" />
    <glyph glyph-name="backslash" unicode="\" horiz-adv-x="273" 
d="M244 -93l-244 756h55l245 -756h-56z" />
    <glyph glyph-name="bracketright" unicode="]" horiz-adv-x="370" 
d="M277 -207h-245v32h132v792h-132v32h245v-856z" />
    <glyph glyph-name="asciicircum" unicode="^" horiz-adv-x="1000" 
d="M442 714h115l240 -276h-55l-243 182l-243 -182h-55z" />
    <glyph glyph-name="underscore" unicode="_" 
d="M0 -136h500v-100h-500v100z" />
    <glyph glyph-name="quoteleft" unicode="&#x2018;" horiz-adv-x="302" 
d="M212 642c-68 -50 -102 -101 -102 -148c0 -30 3 -44 15 -44c10 0 20 48 67 48c42 0 67 -26 67 -72c0 -51 -35 -88 -87 -88c-64 0 -111 51 -111 124c0 76 45 142 134 201z" />
    <glyph glyph-name="a" unicode="a" horiz-adv-x="492" 
d="M295 200h-12c-78 0 -109 -19 -109 -76c0 -55 15 -79 55 -79c38 0 66 27 66 71v84zM298 58c-40 -48 -85 -68 -150 -68c-68 0 -105 36 -105 98c0 81 90 139 252 139v95c0 41 -12 54 -67 54c-34 0 -51 -8 -51 -23c0 -10 18 -24 18 -52c0 -38 -24 -59 -67 -59
c-38 0 -59 22 -59 61c0 62 65 99 185 99c56 0 98 -9 123 -22c39 -20 41 -45 41 -91v-202c0 -23 9 -34 31 -34c13 0 18 9 25 9c6 0 10 -5 10 -10c0 -17 -35 -62 -94 -62c-43 0 -78 25 -92 68z" />
    <glyph glyph-name="b" unicode="b" horiz-adv-x="553" 
d="M16 0v30h54v590h-54v30c63 2 126 6 190 12v-335c30 50 72 75 128 75c105 0 184 -87 184 -208c0 -117 -80 -206 -184 -206c-56 0 -98 24 -128 74v-62h-190zM206 157c0 -88 47 -140 105 -140c43 0 55 17 55 62v229c0 45 -11 65 -48 65c-66 0 -112 -53 -112 -141v-75z" />
    <glyph glyph-name="c" unicode="c" horiz-adv-x="493" 
d="M420 132l23 -8c-31 -89 -91 -134 -178 -134c-128 0 -221 92 -221 207c0 112 99 205 230 205c93 0 152 -48 152 -110c0 -37 -27 -64 -64 -64c-43 0 -68 27 -68 67c0 38 31 50 31 61c0 16 -17 23 -51 23c-74 0 -77 -38 -77 -122v-120c0 -83 8 -119 79 -119
c69 0 118 39 144 114z" />
    <glyph glyph-name="d" unicode="d" horiz-adv-x="553" 
d="M353 0v62c-30 -50 -73 -74 -129 -74c-104 0 -184 89 -184 206c0 121 79 208 184 208c56 0 99 -25 129 -75v293h-77v30c83 2 154 6 212 12v-632h54v-30h-189zM353 157v75c0 88 -46 141 -111 141c-42 0 -49 -22 -49 -73v-208c0 -52 8 -76 49 -76c65 0 111 53 111 141z" />
    <glyph glyph-name="e" unicode="e" horiz-adv-x="492" 
d="M438 132l23 -8c-33 -92 -96 -135 -197 -135c-140 0 -228 81 -228 202c0 119 94 211 226 211c120 0 194 -71 194 -185v-5h-262v-98c0 -70 16 -100 80 -100c80 0 135 40 164 118zM194 242h132v76c0 42 -20 60 -66 60c-44 0 -66 -19 -66 -60v-76z" />
    <glyph glyph-name="f" unicode="f" horiz-adv-x="328" 
d="M74 30v330h-63v30h63v21c0 148 92 252 208 252c72 0 117 -36 117 -86c0 -41 -23 -64 -63 -64c-35 0 -60 23 -60 56c0 30 26 41 26 52c0 7 -11 14 -29 14c-40 0 -64 -32 -64 -94c0 -45 3 -83 3 -113v-38h86v-30h-86v-330h70v-30h-266v30h58z" />
    <glyph glyph-name="g" unicode="g" horiz-adv-x="491" 
d="M74 -28c-40 20 -60 52 -60 94c0 53 34 92 93 103v5c-41 17 -64 50 -64 92c0 73 72 136 186 136c58 0 106 -15 144 -46c22 37 41 56 67 56c28 0 48 -18 48 -49c0 -25 -16 -43 -39 -43c-31 0 -38 24 -48 24c-4 0 -6 -2 -9 -6c19 -22 27 -42 27 -68
c0 -79 -69 -128 -190 -128c-42 0 -75 5 -99 5c-46 0 -69 -13 -69 -35c0 -27 30 -27 98 -27h170c91 0 131 -27 131 -111c0 -118 -86 -193 -243 -193c-134 0 -203 39 -203 107c0 34 19 58 60 78v6zM178 233c0 -48 11 -68 54 -68s54 20 54 68v78c0 48 -11 67 -54 67
s-54 -19 -54 -67v-78zM106 -37c-14 -18 -21 -37 -21 -58c0 -64 50 -100 143 -100c121 0 189 54 189 118c0 35 -23 40 -80 40h-231z" />
    <glyph glyph-name="h" unicode="h" horiz-adv-x="549" 
d="M9 30h60v593h-66v30c71 0 139 3 204 9v-362c38 69 86 100 159 100c94 0 115 -40 115 -125v-245h58v-30h-245v30h52v275c0 36 -12 52 -41 52c-47 0 -98 -64 -98 -141v-186h51v-30h-249v30z" />
    <glyph glyph-name="i" unicode="i" horiz-adv-x="275" 
d="M12 0v30h59v330h-65v30c72 2 140 6 203 12v-372h62v-30h-259zM68 559c0 39 32 70 70 70s69 -31 69 -70c0 -38 -31 -70 -70 -70s-69 32 -69 70z" />
    <glyph glyph-name="j" unicode="j" horiz-adv-x="287" 
d="M219 68c0 -185 -86 -287 -201 -287c-55 0 -90 32 -90 75c0 32 22 54 56 54c32 0 55 -22 55 -51c0 -13 -7 -23 -7 -31s8 -13 20 -13c28 0 30 34 30 98v447h-70v30c76 2 145 6 207 12v-334zM79 559c0 39 32 70 70 70s69 -31 69 -70c0 -38 -30 -70 -69 -70s-70 32 -70 70z
" />
    <glyph glyph-name="k" unicode="k" horiz-adv-x="547" 
d="M18 30h49v590h-49v30c54 2 115 6 185 12v-632h63v-30h-248v30zM208 215l174 146h-94v30h209v-30h-74l-103 -85l192 -246h41v-30h-253v30h50z" />
    <glyph glyph-name="l" unicode="l" horiz-adv-x="275" 
d="M7 30h58v590h-65v30c72 2 140 6 203 12v-632h63v-30h-259v30z" />
    <glyph glyph-name="m" unicode="m" horiz-adv-x="823" 
d="M25 30h54v331h-62v30c61 0 126 3 196 8v-99c37 69 85 100 156 100c73 0 112 -33 114 -97c37 67 85 97 157 97c45 0 77 -12 98 -37c15 -18 17 -42 17 -71v-29v-233h61v-30h-248v30h52v275c0 36 -12 52 -41 52c-46 0 -97 -62 -97 -141v-186h49v-30h-232v30h51v275
c0 36 -12 52 -41 52c-46 0 -95 -64 -95 -141v-186h49v-30h-238v30z" />
    <glyph glyph-name="n" unicode="n" horiz-adv-x="549" 
d="M16 30h60v332h-66v31c65 0 132 2 203 7v-99c38 69 86 100 159 100c104 0 115 -48 115 -142v-229h58v-30h-244v30h51v276c0 36 -12 53 -41 53c-46 0 -97 -65 -97 -142v-187h50v-30h-248v30z" />
    <glyph glyph-name="o" unicode="o" horiz-adv-x="547" 
d="M272 378c-76 0 -79 -50 -79 -182v-40c0 -101 5 -143 79 -143s78 45 78 168v58c0 97 -6 139 -78 139zM38 195c0 119 93 207 233 207s234 -87 234 -206s-94 -207 -234 -207s-233 87 -233 206z" />
    <glyph glyph-name="p" unicode="p" horiz-adv-x="553" 
d="M12 -219v30h56v549h-65v30c72 2 140 6 203 12v-75c30 50 72 75 128 75c105 0 184 -87 184 -208c0 -117 -80 -206 -184 -206c-56 0 -98 24 -128 74v-251h72v-30h-266zM366 91v206c0 52 -5 76 -50 76c-64 0 -110 -53 -110 -141v-75c0 -88 45 -141 110 -141
c43 0 50 25 50 75z" />
    <glyph glyph-name="q" unicode="q" horiz-adv-x="553" 
d="M541 -219h-266v30h72v251c-30 -50 -72 -74 -128 -74c-104 0 -185 89 -185 206c0 121 80 208 185 208c56 0 98 -25 128 -75v75c63 -6 131 -10 203 -12v-30h-65v-549h56v-30zM187 95c0 -57 6 -78 55 -78c58 0 105 52 105 140v75c0 88 -46 141 -112 141
c-43 0 -48 -24 -48 -80v-198z" />
    <glyph glyph-name="r" unicode="r" horiz-adv-x="438" 
d="M26 0v30h53v330h-54v30c63 2 126 6 189 12v-107c27 68 73 105 122 105c50 0 87 -35 87 -81c0 -41 -29 -72 -71 -72c-35 0 -64 29 -64 67c0 19 12 27 12 37c0 3 -3 6 -8 6c-23 0 -75 -69 -75 -150v-177h72v-30h-263z" />
    <glyph glyph-name="s" unicode="s" horiz-adv-x="383" 
d="M42 0l-1 145h26c23 -86 72 -130 143 -130c59 0 95 33 95 71c0 46 -45 42 -126 54c-94 14 -139 43 -139 122c0 87 56 140 141 140c35 0 68 -9 95 -23l21 18h20l3 -111h-26c-20 61 -58 92 -112 92c-56 0 -91 -26 -91 -54c0 -36 42 -37 126 -48c101 -13 142 -47 142 -137
c0 -92 -56 -150 -152 -150c-47 0 -85 12 -113 33l-28 -22h-24z" />
    <glyph glyph-name="t" unicode="t" horiz-adv-x="330" 
d="M76 89v272h-57v30h57v121c19 -2 38 -3 58 -3c25 0 50 2 76 5v-123h80v-30h-80v-272c0 -33 7 -44 32 -44s42 22 45 57h27c-4 -68 -59 -112 -139 -112c-87 0 -99 29 -99 99z" />
    <glyph glyph-name="u" unicode="u" horiz-adv-x="549" 
d="M479 402v-371h64v-30c-67 0 -133 -3 -201 -8v99c-39 -70 -87 -102 -159 -102c-45 0 -79 13 -99 38c-14 19 -16 43 -16 76v42v216h-65v30c73 1 140 4 200 10v-315c0 -36 12 -53 41 -53c47 0 97 66 97 143v185h-71v30c69 0 138 4 209 10z" />
    <glyph glyph-name="v" unicode="v" horiz-adv-x="493" 
d="M227 -14l-181 374h-42v30h240v-30h-50l97 -219l79 181c3 6 6 12 6 22s-9 16 -27 16h-43v30h161v-30h-27c-16 0 -25 -6 -35 -28l-151 -346h-27z" />
    <glyph glyph-name="w" unicode="w" horiz-adv-x="660" 
d="M207 -14l-150 374h-51v30h241v-30h-50l74 -198l98 228h29l102 -224l61 165c1 4 2 7 2 11c0 14 -7 18 -28 18h-34v30h151v-30h-25c-21 0 -29 -12 -38 -35l-126 -339h-21l-113 243l-102 -243h-20z" />
    <glyph glyph-name="x" unicode="x" horiz-adv-x="549" 
d="M18 0v30h29c29 0 49 6 68 27l102 111l-153 192h-46v30h259v-30h-50l78 -97l72 77c5 5 8 9 8 13c0 5 -5 7 -16 7h-39v30h164v-30h-24c-26 0 -46 -8 -64 -28l-84 -91l166 -211h40v-30h-255v30h54l-93 117l-81 -90c-5 -6 -9 -10 -9 -15c0 -7 9 -12 21 -12h32v-30h-179z" />
    <glyph glyph-name="y" unicode="y" horiz-adv-x="493" 
d="M219 -115c-30 -70 -64 -104 -109 -104c-41 0 -64 22 -64 61c0 33 25 59 59 59c43 0 47 -34 63 -34c12 0 18 10 26 29l44 103l-184 361h-42v30h239v-30h-49l98 -209l74 171c3 6 6 12 6 22s-9 16 -27 16h-38v30h156v-30h-27c-16 0 -26 -6 -35 -28z" />
    <glyph glyph-name="z" unicode="z" horiz-adv-x="440" 
d="M28 0v21l220 339h-68c-51 0 -75 -37 -107 -123h-27l5 153h350v-24l-219 -336h68c61 0 90 40 127 137h27l-7 -167h-369z" />
    <glyph glyph-name="braceleft" unicode="{" 
d="M416 740v-30c-86 -1 -102 -36 -102 -129v-65c0 -124 -14 -181 -122 -206c108 -24 122 -80 122 -205v-66c0 -93 16 -128 102 -129v-29c-154 0 -198 39 -198 169v94c0 103 -25 138 -131 148v37c106 10 131 45 131 148v94c0 130 44 169 198 169z" />
    <glyph glyph-name="bar" unicode="|" 
d="M200 764h101v-1000h-101v1000z" />
    <glyph glyph-name="braceright" unicode="}" 
d="M84 740c154 0 199 -39 199 -169v-94c0 -103 25 -138 131 -148v-37c-106 -10 -131 -45 -131 -148v-94c0 -128 -45 -169 -193 -169h-6v29c85 1 102 36 102 129v66c0 125 14 181 122 205c-108 25 -122 82 -122 206v65c0 93 -17 128 -102 129v30z" />
    <glyph glyph-name="asciitilde" unicode="~" horiz-adv-x="833" 
d="M747 392v-108c-65 -44 -124 -67 -185 -67c-30 0 -60 5 -90 15c-69 23 -130 49 -197 49c-59 0 -118 -27 -188 -77v108c70 47 133 70 189 70c58 0 102 -15 144 -29c48 -16 93 -36 144 -36c59 0 116 26 183 75z" />
    <glyph glyph-name="exclamdown" unicode="&#xa1;" horiz-adv-x="329" 
d="M177 438v-14c0 -64 6 -124 22 -187c13 -53 43 -102 43 -156c0 -58 -30 -91 -78 -91s-77 33 -77 88c0 50 25 100 42 159c17 57 22 123 22 201h26zM86 584c0 44 36 79 79 79s78 -36 78 -79s-36 -78 -79 -78s-78 34 -78 78z" />
    <glyph glyph-name="cent" unicode="&#xa2;" horiz-adv-x="604" 
d="M261 54l87 222c-1 6 -2 11 -2 16c0 40 31 53 31 65s-18 20 -53 20c-48 0 -73 -27 -73 -80v-176c0 -25 2 -47 10 -67zM474 131l22 -6c-22 -90 -85 -137 -186 -137c-10 0 -20 0 -30 1l-51 -134h-44l56 147c-89 34 -143 108 -143 188c0 115 94 213 227 213
c22 0 44 -4 66 -12l49 122h43l-54 -138c33 -18 50 -46 50 -80c0 -43 -24 -69 -68 -69c-14 0 -25 3 -35 13l-82 -216c15 -3 28 -4 41 -4h2c64 0 110 38 137 112z" />
    <glyph glyph-name="sterling" unicode="&#xa3;" horiz-adv-x="604" 
d="M233 79c-28 37 -58 56 -89 56c-38 0 -62 -23 -62 -61c0 -32 24 -55 63 -55c35 0 68 21 88 60zM71 331v46h85c-6 27 -9 52 -9 73c0 127 91 216 236 216c102 0 177 -64 177 -143c0 -48 -29 -77 -74 -77c-39 0 -67 26 -67 68c0 48 39 63 39 90c0 15 -27 32 -71 32
c-64 0 -99 -29 -99 -81c0 -44 29 -99 47 -178h110v-46h-103c2 -20 2 -35 2 -44c0 -48 -14 -99 -40 -156c31 -8 59 -12 84 -12c94 0 143 45 149 135h29v-15c0 -163 -64 -251 -179 -251c-48 0 -87 18 -128 55c-37 -38 -76 -56 -123 -56c-61 0 -102 38 -102 89
c0 55 42 92 107 92c30 0 61 -9 98 -25c-1 50 -39 105 -72 188h-96z" />
    <glyph glyph-name="fraction" unicode="&#x2044;" horiz-adv-x="167" 
d="M-118 -13h-49l451 679h49z" />
    <glyph glyph-name="yen" unicode="&#xa5;" horiz-adv-x="606" 
d="M295 652v-29h-81l150 -281l119 226c9 17 14 28 14 35c0 13 -11 20 -33 20h-56v30h209v-30h-26c-40 0 -56 -22 -82 -71l-61 -114h141v-30h-157l-45 -91h202v-30h-202v-255h80v-32h-307v32h80v255h-221v30h216l-55 91h-161v30h143l-112 185h-65v29h310z" />
    <glyph glyph-name="florin" unicode="&#x192;" horiz-adv-x="604" 
d="M484 355h-115v-76c0 -331 -57 -497 -225 -497c-62 0 -104 40 -104 87c0 35 24 61 62 61c35 0 57 -22 57 -56c0 -38 -25 -38 -25 -49c0 -7 7 -13 20 -13c75 0 77 111 77 323v33c0 76 2 137 7 187h-113v29h115c17 183 98 282 213 282c67 0 108 -33 108 -80
c0 -39 -24 -64 -64 -64c-33 0 -55 22 -55 53c0 35 25 41 25 50c0 7 -6 12 -18 12c-53 0 -79 -56 -79 -169v-84h114v-29z" />
    <glyph glyph-name="section" unicode="&#xa7;" 
d="M315 99c61 -51 92 -97 92 -145c0 -71 -65 -125 -176 -125c-92 0 -152 46 -152 105c0 40 26 67 66 67c32 0 56 -25 56 -56c0 -34 -31 -44 -31 -58c0 -17 23 -31 62 -31c54 0 85 28 85 70s-38 74 -98 125l-88 76c-57 49 -86 94 -86 139c0 70 54 120 140 125
c-60 52 -92 93 -92 143c0 77 61 129 165 129c88 0 146 -46 146 -105c0 -39 -24 -65 -62 -65c-35 0 -60 23 -60 52s31 43 31 59c0 15 -23 33 -56 33c-46 0 -75 -27 -75 -66c0 -44 38 -80 101 -134l87 -73c57 -48 85 -93 85 -142c0 -67 -52 -117 -140 -123zM127 303
c0 -32 21 -64 65 -102c53 -46 87 -74 115 -74c37 0 66 27 66 63c0 33 -22 62 -63 101c-50 48 -87 74 -119 74c-37 0 -64 -29 -64 -62z" />
    <glyph glyph-name="currency" unicode="&#xa4;" horiz-adv-x="606" 
d="M84 702l100 -99c33 24 71 38 119 38c45 0 85 -12 121 -38l99 99l51 -52l-99 -100c24 -34 37 -73 37 -118c0 -43 -12 -82 -37 -118l99 -100l-51 -51l-99 99c-33 -24 -72 -38 -120 -38c-46 0 -85 12 -120 38l-100 -99l-51 51l99 100c-25 35 -37 73 -37 118s13 84 37 118
l-99 100zM304 567c-74 0 -135 -62 -135 -135c0 -74 60 -134 135 -134c74 0 135 60 135 134c0 73 -61 135 -135 135z" />
    <glyph glyph-name="quotesingle" unicode="'" horiz-adv-x="178" 
d="M99 416h-20l-39 225c-1 6 -2 13 -2 18c0 35 20 56 51 56s50 -20 50 -54c0 -6 0 -13 -1 -20z" />
    <glyph glyph-name="quotedblleft" unicode="&#x201c;" horiz-adv-x="562" 
d="M212 642c-68 -50 -102 -101 -102 -148c0 -30 3 -44 15 -44c10 0 20 48 67 48c42 0 67 -26 67 -72c0 -51 -35 -88 -87 -88c-64 0 -111 51 -111 124c0 76 45 142 134 201zM472 642c-68 -50 -102 -101 -102 -148c0 -30 4 -44 16 -44c10 0 19 48 66 48c42 0 67 -26 67 -72
c0 -51 -35 -88 -87 -88c-64 0 -110 51 -110 124c0 76 44 142 133 201z" />
    <glyph glyph-name="guillemotleft" unicode="&#xab;" horiz-adv-x="488" 
d="M68 199c122 90 171 153 183 153c5 0 10 -5 10 -11c0 -12 -31 -59 -93 -142c62 -83 93 -131 93 -143c0 -6 -5 -11 -10 -11c-12 0 -61 64 -183 154zM224 199c122 90 171 153 183 153c5 0 11 -5 11 -11c0 -12 -32 -59 -94 -142c62 -83 94 -131 94 -143c0 -6 -6 -11 -11 -11
c-12 0 -61 64 -183 154z" />
    <glyph glyph-name="guilsinglleft" unicode="&#x2039;" horiz-adv-x="332" 
d="M68 199c122 90 171 153 183 153c5 0 10 -5 10 -11c0 -12 -31 -59 -93 -142c62 -83 93 -131 93 -143c0 -6 -5 -11 -10 -11c-12 0 -61 64 -183 154z" />
    <glyph glyph-name="guilsinglright" unicode="&#x203a;" horiz-adv-x="332" 
d="M264 199c-122 -90 -171 -154 -183 -154c-5 0 -11 5 -11 11c0 12 32 60 94 143c-62 83 -94 130 -94 142c0 6 6 11 11 11c12 0 61 -63 183 -153z" />
    <glyph glyph-name="fi" unicode="&#xfb01;" horiz-adv-x="558" 
d="M13 30h61v330h-66v30h66v19c0 155 88 253 233 253c93 0 146 -37 146 -91c0 -35 -26 -62 -64 -62c-37 0 -61 25 -61 61c0 21 11 37 11 49c0 11 -12 18 -32 18c-69 0 -96 -53 -96 -168c0 -23 1 -37 1 -43v-36h104c65 0 123 3 175 12v-372h54v-30h-246v30h54v330h-142v-330
h49v-30h-247v30z" />
    <glyph glyph-name="fl" unicode="&#xfb02;" horiz-adv-x="563" 
d="M16 30h58v330h-64v30h64v21c0 149 88 251 224 251c50 0 92 -10 125 -10c17 0 39 3 68 7v-629h57v-30h-244v30h53v486h-2c-29 0 -48 18 -48 46c0 36 26 45 26 56c0 8 -13 16 -35 16c-65 0 -87 -59 -87 -184c0 -19 0 -39 1 -60h85v-30h-86v-330h51v-30h-246v30z" />
    <glyph glyph-name="endash" unicode="&#x2013;" 
d="M0 156v84h500v-84h-500z" />
    <glyph glyph-name="dagger" unicode="&#x2020;" 
d="M237 -184c-2 149 -17 286 -50 418c33 54 50 111 50 168v10c-62 -2 -99 -43 -141 -43c-34 0 -56 20 -56 53c0 32 24 55 58 55c43 0 83 -39 139 -40v11c0 81 -43 129 -43 161s23 54 56 54c36 0 57 -23 57 -53c0 -25 -43 -77 -43 -167v-6h2c59 0 96 40 137 40
c36 0 56 -20 56 -54c0 -36 -21 -55 -56 -55c-42 0 -77 38 -140 43c4 -75 20 -134 51 -177c-30 -104 -47 -243 -47 -418h-30z" />
    <glyph glyph-name="daggerdbl" unicode="&#x2021;" 
d="M187 234c33 54 50 111 50 168v10c-62 -2 -99 -43 -141 -43c-34 0 -56 20 -56 53c0 32 24 55 58 55c43 0 83 -39 139 -40v11c0 81 -43 129 -43 161s23 54 56 54c36 0 57 -23 57 -53c0 -25 -43 -77 -43 -167v-6h2c59 0 96 40 137 40c36 0 56 -20 56 -54
c0 -36 -21 -55 -56 -55c-42 0 -77 38 -140 43c4 -75 20 -134 51 -177c-34 -50 -51 -108 -51 -172v-5c62 2 99 43 141 43c34 0 55 -20 55 -53c0 -32 -24 -55 -58 -55c-43 0 -82 39 -138 40v-11c0 -81 43 -129 43 -161s-23 -54 -56 -54c-36 0 -58 23 -58 53c0 25 44 77 44 167
v6h-2c-59 0 -97 -39 -137 -39c-36 0 -57 19 -57 53c0 36 22 55 57 55c42 0 77 -38 140 -43c-4 72 -19 129 -50 176z" />
    <glyph glyph-name="periodcentered" unicode="&#xb7;" horiz-adv-x="302" 
d="M71 329c0 44 36 80 80 80c43 0 79 -36 79 -80c0 -43 -35 -79 -79 -79c-43 0 -80 35 -80 79z" />
    <glyph glyph-name="paragraph" unicode="&#xb6;" 
d="M480 722v-54h-55v-668h-74v668h-78v-668h-74v383c-111 4 -179 73 -179 169c0 100 73 170 191 170h269z" />
    <glyph glyph-name="bullet" unicode="&#x2022;" horiz-adv-x="590" 
d="M150 372c0 80 65 144 145 144c79 0 144 -64 144 -144c0 -79 -65 -145 -145 -145s-144 65 -144 145z" />
    <glyph glyph-name="quotesinglbase" unicode="&#x201a;" horiz-adv-x="302" 
d="M108 -158c68 50 102 101 102 148c0 30 -4 44 -16 44c-10 0 -19 -48 -66 -48c-42 0 -67 26 -67 72c0 51 35 88 87 88c64 0 111 -51 111 -124c0 -76 -45 -142 -134 -201z" />
    <glyph glyph-name="quotedblbase" unicode="&#x201e;" horiz-adv-x="562" 
d="M108 -158c68 50 102 101 102 148c0 30 -4 44 -16 44c-10 0 -19 -48 -66 -48c-42 0 -67 26 -67 72c0 51 35 88 87 88c64 0 111 -51 111 -124c0 -76 -45 -142 -134 -201zM368 -158c68 50 102 101 102 148c0 30 -3 44 -15 44c-10 0 -20 -48 -67 -48c-42 0 -67 26 -67 72
c0 51 36 88 88 88c64 0 110 -51 110 -124c0 -76 -45 -142 -134 -201z" />
    <glyph glyph-name="quotedblright" unicode="&#x201d;" horiz-adv-x="562" 
d="M368 359c68 50 102 101 102 148c0 30 -3 45 -15 45c-10 0 -20 -49 -67 -49c-42 0 -67 26 -67 72c0 51 36 88 88 88c64 0 110 -50 110 -123c0 -76 -45 -143 -134 -202zM108 359c68 50 102 101 102 148c0 30 -4 45 -16 45c-10 0 -19 -49 -66 -49c-42 0 -67 26 -67 72
c0 51 35 88 87 88c64 0 111 -50 111 -123c0 -76 -45 -143 -134 -202z" />
    <glyph glyph-name="guillemotright" unicode="&#xbb;" horiz-adv-x="488" 
d="M420 199c-122 -90 -171 -154 -183 -154c-5 0 -10 5 -10 11c0 12 31 60 93 143c-62 83 -93 130 -93 142c0 6 5 11 10 11c12 0 61 -63 183 -153zM264 199c-122 -90 -171 -154 -183 -154c-5 0 -11 5 -11 11c0 12 32 60 94 143c-62 83 -94 130 -94 142c0 6 6 11 11 11
c12 0 61 -63 183 -153z" />
    <glyph glyph-name="ellipsis" unicode="&#x2026;" horiz-adv-x="1000" 
d="M87 69c0 44 36 80 80 80c43 0 79 -36 79 -80c0 -43 -35 -79 -79 -79c-43 0 -80 35 -80 79zM420 69c0 44 36 80 80 80c43 0 79 -36 79 -80c0 -43 -35 -79 -79 -79c-43 0 -80 35 -80 79zM754 69c0 44 36 80 80 80c43 0 79 -36 79 -80c0 -43 -35 -79 -79 -79
c-43 0 -80 35 -80 79z" />
    <glyph glyph-name="perthousand" unicode="&#x2030;" horiz-adv-x="1351" 
d="M600 587c-39 -29 -82 -42 -134 -42c-19 0 -41 2 -65 9c1 -9 1 -18 1 -27c0 -59 -17 -112 -51 -161c-43 -62 -99 -95 -157 -95c-84 0 -141 53 -141 135c0 59 27 121 79 177c44 47 97 72 151 72c53 0 88 -21 108 -65c27 -11 51 -18 76 -18c80 0 140 34 189 106h48
l-405 -709h-50zM315 609c-35 -6 -58 -35 -87 -84c-44 -77 -64 -135 -64 -168c0 -30 23 -52 56 -52c39 0 79 28 115 82c28 43 43 92 43 140c0 13 -1 26 -3 39c-24 10 -43 23 -60 43zM545 127c0 48 20 100 59 152c48 64 112 99 171 99c73 0 120 -46 120 -125
c0 -60 -25 -129 -69 -184c-41 -50 -86 -74 -142 -74c-86 0 -139 52 -139 132zM815 337c-35 0 -63 -33 -99 -97c-40 -71 -58 -125 -58 -157c0 -35 21 -55 56 -55c36 0 74 26 109 79c30 45 46 102 46 153c0 49 -21 77 -54 77zM946 127c0 48 20 100 59 152c48 64 113 99 172 99
c73 0 119 -46 119 -125c0 -59 -25 -129 -69 -184c-41 -50 -86 -74 -142 -74c-86 0 -139 52 -139 132zM1217 337c-35 0 -63 -33 -99 -97c-40 -71 -59 -125 -59 -157c0 -35 23 -55 57 -55c36 0 74 26 109 79c30 45 46 102 46 153c0 50 -21 77 -54 77z" />
    <glyph glyph-name="questiondown" unicode="&#xbf;" horiz-adv-x="440" 
d="M275 448c14 -42 20 -78 20 -106c0 -43 -22 -95 -59 -133c-50 -51 -95 -78 -95 -124c0 -40 39 -70 98 -70c51 0 83 24 83 39c0 7 -14 8 -28 15c-19 10 -30 30 -30 55c0 37 26 62 67 62c40 0 65 -27 65 -70c0 -69 -68 -127 -167 -127c-110 0 -182 65 -182 163
c0 96 62 138 162 199c32 19 47 31 47 60c0 9 -1 19 -4 32zM330 584c0 -44 -35 -78 -78 -78s-79 35 -79 78s36 79 79 79s78 -35 78 -79z" />
    <glyph glyph-name="grave" unicode="`" 
d="M354 456h-46l-170 88c-31 16 -46 30 -46 54c0 27 20 48 48 48c26 0 46 -16 71 -42z" />
    <glyph glyph-name="acute" unicode="&#xb4;" 
d="M146 456l143 148c25 26 45 43 71 43c28 0 48 -21 48 -48c0 -24 -15 -38 -46 -54l-170 -89h-46z" />
    <glyph glyph-name="circumflex" unicode="&#x2c6;" 
d="M95 456l114 181h82l113 -181h-43l-111 91l-111 -91h-44z" />
    <glyph glyph-name="tilde" unicode="&#x2dc;" 
d="M134 472h-37c15 85 49 126 108 126c12 0 24 -2 37 -5l57 -15c9 -2 15 -3 20 -3c24 0 39 15 47 46h37c-14 -84 -53 -126 -107 -126c-10 0 -21 1 -32 4l-55 14c-13 3 -21 5 -27 5c-25 0 -41 -15 -48 -46z" />
    <glyph glyph-name="macron" unicode="&#xaf;" 
d="M110 508v76h280v-76h-280z" />
    <glyph glyph-name="breve" unicode="&#x2d8;" 
d="M94 621h40c12 -47 47 -64 116 -64s104 17 115 64l40 -1c-14 -97 -69 -148 -155 -148c-87 0 -142 52 -156 149z" />
    <glyph glyph-name="dotaccent" unicode="&#x2d9;" 
d="M184 547c0 35 31 66 66 66c37 0 67 -29 67 -66c0 -38 -29 -67 -67 -67c-36 0 -66 31 -66 67z" />
    <glyph glyph-name="dieresis" unicode="&#xa8;" 
d="M97 547c0 33 30 63 64 63c35 0 63 -28 63 -63c0 -38 -26 -65 -63 -65c-36 0 -64 29 -64 65zM275 547c0 33 30 63 64 63c35 0 64 -28 64 -63c0 -38 -27 -65 -64 -65c-36 0 -64 29 -64 65z" />
    <glyph glyph-name="ring" unicode="&#x2da;" 
d="M125 573c0 70 55 125 125 125s126 -55 126 -125c0 -71 -55 -126 -126 -126s-125 55 -125 126zM188 572c0 -35 28 -62 63 -62s62 27 62 62s-27 63 -62 63s-63 -28 -63 -63z" />
    <glyph glyph-name="cedilla" unicode="&#xb8;" 
d="M106 -186l22 48c45 -25 84 -39 118 -39c24 0 43 17 43 41c0 26 -15 39 -45 39c-9 0 -19 -1 -31 -3v100h38v-57c11 2 21 3 31 3c56 0 92 -33 92 -84c0 -56 -41 -90 -113 -90c-42 0 -93 14 -155 42z" />
    <glyph glyph-name="hungarumlaut" unicode="&#x2dd;" 
d="M144 456l72 135c20 37 36 56 63 56c23 0 39 -18 39 -41c0 -15 -10 -31 -29 -50l-103 -100h-42zM269 456l106 142c23 31 38 48 65 48c23 0 40 -17 40 -41c0 -18 -13 -34 -37 -52l-132 -97h-42z" />
    <glyph glyph-name="ogonek" unicode="&#x2db;" 
d="M325 15c-54 -43 -81 -82 -81 -127c0 -35 15 -55 42 -55c22 0 41 11 56 34l16 -9c-27 -56 -65 -84 -114 -84s-81 30 -81 75c0 54 45 110 135 166h27z" />
    <glyph glyph-name="caron" unicode="&#x2c7;" 
d="M95 637h44l111 -91l111 91h43l-113 -181h-82z" />
    <glyph glyph-name="emdash" unicode="&#x2014;" horiz-adv-x="1000" 
d="M0 156v84h1000v-84h-1000z" />
    <glyph glyph-name="AE" unicode="&#xc6;" horiz-adv-x="985" 
d="M21 32h33c22 0 32 9 43 31l220 436c11 21 16 44 16 59c0 43 -29 61 -89 61h-14v30h674l7 -172h-33c-37 96 -99 146 -173 146h-106v-272h13c78 0 118 36 124 116h31v-269h-31c-11 86 -42 122 -114 122c-7 0 -15 0 -23 -1v-287h116c116 0 165 46 191 184h30l-6 -216h-580
v32h86v248h-193l-105 -206c-2 -5 -5 -15 -5 -23c0 -12 9 -19 25 -19h45v-32h-182v32zM259 313h177v310h-19z" />
    <glyph glyph-name="ordfeminine" unicode="&#xaa;" horiz-adv-x="369" 
d="M221 516h-9c-58 0 -81 -13 -81 -53c0 -39 11 -56 41 -56c28 0 49 19 49 50v59zM224 417c-30 -34 -64 -48 -113 -48c-51 0 -79 25 -79 69c0 56 68 97 189 97v66c0 29 -9 38 -50 38c-25 0 -38 -5 -38 -16c0 -7 13 -17 13 -36c0 -27 -18 -42 -50 -42c-28 0 -44 16 -44 43
c0 43 49 69 139 69c42 0 73 -6 92 -15c29 -14 31 -32 31 -64v-141c0 -16 6 -24 23 -24c10 0 13 6 19 6c4 0 7 -3 7 -7c0 -12 -26 -43 -70 -43c-33 0 -59 17 -69 48z" />
    <glyph glyph-name="Lslash" unicode="&#x141;" horiz-adv-x="609" 
d="M46 0v32h67v217l-124 -87v42l124 87v329h-67v30h324v-30h-89v-258l150 105v-43l-150 -104v-288h94c109 0 164 54 198 185h30l-6 -217h-551z" />
    <glyph glyph-name="Oslash" unicode="&#xd8;" horiz-adv-x="769" 
d="M137 -66h-46l81 124c-84 68 -127 155 -127 260c0 86 36 174 102 242c68 70 147 104 242 104c55 0 106 -13 156 -40l62 94h46l-75 -115c95 -69 143 -163 143 -279c0 -87 -35 -170 -100 -237c-67 -69 -144 -102 -237 -102c-69 0 -126 15 -181 50zM244 166l262 398
c-1 49 -36 71 -110 71c-59 0 -98 -14 -121 -45c-31 -42 -33 -115 -33 -226v-40c0 -65 0 -118 2 -158zM253 111c2 -65 44 -97 125 -97c120 0 148 60 148 217v93c0 58 0 122 -7 191z" />
    <glyph glyph-name="OE" unicode="&#x152;" horiz-adv-x="983" 
d="M480 213v270c0 99 -20 137 -116 137c-72 0 -117 -24 -134 -71c-18 -48 -20 -132 -20 -253v-48c0 -69 1 -123 16 -162c14 -38 56 -56 127 -56c118 0 127 49 127 183zM970 216l-5 -215h-623c-88 0 -155 24 -218 79c-69 61 -106 146 -106 243c0 102 44 192 123 252
c66 51 133 75 210 75h594l5 -175h-34c-33 106 -87 147 -194 147h-75v-270h15c71 0 111 34 120 115h33v-270h-33c-12 88 -44 122 -119 122h-16v-286h107c112 0 160 46 188 183h28z" />
    <glyph glyph-name="ordmasculine" unicode="&#xba;" horiz-adv-x="410" 
d="M204 641c-57 0 -59 -35 -59 -128v-28c0 -71 4 -100 59 -100c56 0 59 32 59 118v40c0 68 -5 98 -59 98zM29 512c0 84 69 145 174 145s176 -61 176 -144s-71 -145 -176 -145s-174 61 -174 144z" />
    <glyph glyph-name="ae" unicode="&#xe6;" horiz-adv-x="714" 
d="M287 204h-11c-78 0 -113 -22 -113 -80c0 -45 25 -74 61 -74c44 0 63 25 63 74v80zM657 134l23 -7c-24 -87 -91 -139 -183 -139c-85 0 -146 25 -193 83c-41 -54 -96 -82 -154 -82c-71 0 -113 37 -113 98c0 83 86 136 250 143v103c0 32 -19 45 -64 45
c-32 0 -49 -11 -49 -21s16 -23 16 -50c0 -41 -24 -64 -66 -64c-37 0 -62 24 -62 61c0 56 58 96 161 96c66 0 115 -13 149 -44c34 31 73 45 120 45c104 0 184 -75 186 -184h-267v-109c0 -65 19 -94 85 -94c79 0 138 44 161 120zM413 245h130v52c0 56 -5 79 -62 79
c-55 0 -68 -22 -68 -77v-54z" />
    <glyph glyph-name="dotlessi" unicode="&#x131;" horiz-adv-x="275" 
d="M12 0v30h59v330h-65v30c72 2 140 6 203 12v-372h62v-30h-259z" />
    <glyph glyph-name="lslash" unicode="&#x142;" horiz-adv-x="289" 
d="M14 30h58v220l-90 -64v39l90 65v330h-65v30c72 2 140 6 203 12v-315l87 62v-39l-87 -62v-278h62v-30h-258v30z" />
    <glyph glyph-name="oslash" unicode="&#xf8;" horiz-adv-x="547" 
d="M119 -104h-42l71 123c-75 40 -110 96 -110 177c0 119 97 206 234 206c32 0 63 -5 94 -15l56 93h42l-63 -109c70 -39 104 -94 104 -168c0 -125 -92 -214 -234 -214c-31 0 -60 5 -89 16zM196 98l144 244c-1 22 -24 37 -66 37c-66 0 -80 -35 -80 -120v-68v-41
c0 -19 0 -36 2 -52zM208 46c9 -19 30 -27 63 -27c62 0 79 33 79 115v70c0 34 -1 60 -2 79z" />
    <glyph glyph-name="oe" unicode="&#x153;" horiz-adv-x="770" 
d="M403 47c-21 -34 -75 -58 -141 -58c-138 0 -235 90 -235 208c0 114 98 205 234 205c59 0 101 -14 142 -54c39 33 83 53 140 53c115 0 191 -68 191 -172v-12h-263v-90c0 -75 20 -109 88 -109c70 0 128 42 157 117l24 -10c-33 -88 -101 -136 -189 -136
c-62 0 -110 19 -148 58zM471 247h130v71c0 39 -19 57 -63 57c-42 0 -67 -21 -67 -57v-71zM189 273v-139c0 -84 14 -119 80 -119c62 0 81 30 81 106v140c0 84 -15 118 -81 118c-62 0 -80 -30 -80 -106z" />
    <glyph glyph-name="germandbls" unicode="&#xdf;" horiz-adv-x="548" 
d="M11 28h56v451c0 117 79 183 213 183c127 0 206 -64 206 -153c0 -79 -50 -122 -157 -146c131 -23 193 -82 193 -188c0 -111 -70 -185 -174 -185c-74 0 -116 34 -116 89c0 34 21 56 51 56c26 0 47 -21 47 -47c0 -36 -30 -45 -30 -58c0 -6 12 -14 31 -14c35 0 43 29 43 96
v113c0 63 -7 98 -42 115c-11 5 -33 8 -66 9c-15 1 -22 2 -22 14c0 9 7 13 21 13h8c64 0 76 14 76 80v99c0 59 -14 85 -71 85c-64 0 -78 -40 -78 -128v-512h-189v28z" />
    <glyph glyph-name="Aacute" unicode="&#xc1;" horiz-adv-x="659" 
d="M2 0v32h40c24 0 36 17 49 50l223 581h39l244 -631h58v-32h-315v32h79l-57 152h-198l-43 -111c-2 -4 -3 -13 -3 -23c0 -11 10 -18 29 -18h58v-32h-203zM175 216h176l-86 228zM227 718l143 148c25 26 45 43 71 43c28 0 48 -21 48 -48c0 -24 -15 -38 -46 -54l-170 -89h-46z
" />
    <glyph glyph-name="Acircumflex" unicode="&#xc2;" horiz-adv-x="659" 
d="M2 0v32h40c24 0 36 17 49 50l223 581h39l244 -631h58v-32h-315v32h79l-57 152h-198l-43 -111c-2 -4 -3 -13 -3 -23c0 -11 10 -18 29 -18h58v-32h-203zM175 216h176l-86 228zM176 718l114 181h82l113 -181h-43l-111 91l-111 -91h-44z" />
    <glyph glyph-name="Adieresis" unicode="&#xc4;" horiz-adv-x="659" 
d="M2 0v32h40c24 0 36 17 49 50l223 581h39l244 -631h58v-32h-315v32h79l-57 152h-198l-43 -111c-2 -4 -3 -13 -3 -23c0 -11 10 -18 29 -18h58v-32h-203zM175 216h176l-86 228zM178 809c0 33 30 63 64 63c35 0 63 -28 63 -63c0 -38 -26 -65 -63 -65c-36 0 -64 29 -64 65z
M356 809c0 33 30 63 64 63c35 0 64 -28 64 -63c0 -38 -27 -65 -64 -65c-36 0 -64 29 -64 65z" />
    <glyph glyph-name="Agrave" unicode="&#xc0;" horiz-adv-x="659" 
d="M2 0v32h40c24 0 36 17 49 50l223 581h39l244 -631h58v-32h-315v32h79l-57 152h-198l-43 -111c-2 -4 -3 -13 -3 -23c0 -11 10 -18 29 -18h58v-32h-203zM175 216h176l-86 228zM435 718h-46l-170 88c-31 16 -46 30 -46 54c0 27 20 48 48 48c26 0 46 -16 71 -42z" />
    <glyph glyph-name="Aring" unicode="&#xc5;" horiz-adv-x="659" 
d="M2 0v32h40c24 0 36 17 49 50l223 581h39l244 -631h58v-32h-315v32h79l-57 152h-198l-43 -111c-2 -4 -3 -13 -3 -23c0 -11 10 -18 29 -18h58v-32h-203zM175 216h176l-86 228zM203 822c0 70 55 125 125 125s127 -55 127 -125c0 -71 -56 -126 -127 -126s-125 55 -125 126z
M266 821c0 -35 28 -62 63 -62s62 27 62 62s-27 63 -62 63s-63 -28 -63 -63z" />
    <glyph glyph-name="Atilde" unicode="&#xc3;" horiz-adv-x="659" 
d="M2 0v32h40c24 0 36 17 49 50l223 581h39l244 -631h58v-32h-315v32h79l-57 152h-198l-43 -111c-2 -4 -3 -13 -3 -23c0 -11 10 -18 29 -18h58v-32h-203zM175 216h176l-86 228zM215 734h-37c15 85 49 126 108 126c12 0 24 -2 37 -5l57 -15c9 -2 15 -3 20 -3
c24 0 39 15 47 46h37c-14 -84 -53 -126 -107 -126c-10 0 -21 1 -32 4l-55 14c-13 3 -21 5 -27 5c-25 0 -41 -15 -48 -46z" />
    <glyph glyph-name="Ccedilla" unicode="&#xc7;" horiz-adv-x="658" 
d="M600 195v-195h-32l-44 36c-38 -34 -91 -52 -156 -52c-89 0 -162 34 -226 105c-63 69 -94 147 -94 236s32 166 95 235c64 70 139 104 228 104c56 0 104 -16 148 -47l35 34h33l4 -180h-35c-42 113 -96 163 -187 163c-124 0 -129 -88 -129 -297c0 -119 2 -196 11 -231
c16 -64 50 -92 118 -92c90 0 172 72 194 181h37zM228 -186l22 48c45 -25 84 -39 118 -39c24 0 43 17 43 41c0 26 -15 39 -45 39c-9 0 -19 -1 -31 -3v100h38v-57c11 2 21 3 31 3c56 0 92 -33 92 -84c0 -56 -41 -90 -113 -90c-42 0 -93 14 -155 42z" />
    <glyph glyph-name="Eacute" unicode="&#xc9;" horiz-adv-x="659" 
d="M31 0v32h79v588h-68v30h542l2 -171h-33c-44 111 -80 141 -167 141h-111v-267c7 -1 15 -1 22 -1c70 0 105 35 116 119h33v-277h-33c-7 90 -42 127 -120 127c-6 0 -12 -1 -18 -1v-288h108c109 0 163 54 197 185h31l-7 -217h-573zM226 718l143 148c25 26 45 43 71 43
c28 0 48 -21 48 -48c0 -24 -15 -38 -46 -54l-170 -89h-46z" />
    <glyph glyph-name="Ecircumflex" unicode="&#xca;" horiz-adv-x="659" 
d="M31 0v32h79v588h-68v30h542l2 -171h-33c-44 111 -80 141 -167 141h-111v-267c7 -1 15 -1 22 -1c70 0 105 35 116 119h33v-277h-33c-7 90 -42 127 -120 127c-6 0 -12 -1 -18 -1v-288h108c109 0 163 54 197 185h31l-7 -217h-573zM175 718l114 181h82l113 -181h-43l-111 91
l-111 -91h-44z" />
    <glyph glyph-name="Edieresis" unicode="&#xcb;" horiz-adv-x="659" 
d="M31 0v32h79v588h-68v30h542l2 -171h-33c-44 111 -80 141 -167 141h-111v-267c7 -1 15 -1 22 -1c70 0 105 35 116 119h33v-277h-33c-7 90 -42 127 -120 127c-6 0 -12 -1 -18 -1v-288h108c109 0 163 54 197 185h31l-7 -217h-573zM177 809c0 33 30 63 64 63
c35 0 63 -28 63 -63c0 -38 -26 -65 -63 -65c-36 0 -64 29 -64 65zM355 809c0 33 30 63 64 63c35 0 64 -28 64 -63c0 -38 -27 -65 -64 -65c-36 0 -64 29 -64 65z" />
    <glyph glyph-name="Egrave" unicode="&#xc8;" horiz-adv-x="659" 
d="M31 0v32h79v588h-68v30h542l2 -171h-33c-44 111 -80 141 -167 141h-111v-267c7 -1 15 -1 22 -1c70 0 105 35 116 119h33v-277h-33c-7 90 -42 127 -120 127c-6 0 -12 -1 -18 -1v-288h108c109 0 163 54 197 185h31l-7 -217h-573zM434 718h-46l-170 88c-31 16 -46 30 -46 54
c0 27 20 48 48 48c26 0 46 -16 71 -42z" />
    <glyph glyph-name="Iacute" unicode="&#xcd;" horiz-adv-x="383" 
d="M27 0v32h80v588h-80v30h328v-30h-80v-588h80v-32h-328zM88 718l143 148c25 26 45 43 71 43c28 0 48 -21 48 -48c0 -24 -15 -38 -46 -54l-170 -89h-46z" />
    <glyph glyph-name="Icircumflex" unicode="&#xce;" horiz-adv-x="383" 
d="M27 0v32h80v588h-80v30h328v-30h-80v-588h80v-32h-328zM37 718l114 181h82l113 -181h-43l-111 91l-111 -91h-44z" />
    <glyph glyph-name="Idieresis" unicode="&#xcf;" horiz-adv-x="383" 
d="M27 0v32h80v588h-80v30h328v-30h-80v-588h80v-32h-328zM39 809c0 33 30 63 64 63c35 0 63 -28 63 -63c0 -38 -26 -65 -63 -65c-36 0 -64 29 -64 65zM217 809c0 33 30 63 64 63c35 0 64 -28 64 -63c0 -38 -27 -65 -64 -65c-36 0 -64 29 -64 65z" />
    <glyph glyph-name="Igrave" unicode="&#xcc;" horiz-adv-x="383" 
d="M27 0v32h80v588h-80v30h328v-30h-80v-588h80v-32h-328zM296 718h-46l-170 88c-31 16 -46 30 -46 54c0 27 20 48 48 48c26 0 46 -16 71 -42z" />
    <glyph glyph-name="Ntilde" unicode="&#xd1;" horiz-adv-x="715" 
d="M27 0v32h50c29 0 35 12 35 42v512c0 27 -7 34 -43 34h-40v30h263l274 -374v296c0 40 -9 48 -48 48h-42v30h208v-30h-38c-34 0 -43 -12 -43 -48v-587h-27l-425 585v-502c0 -23 13 -36 37 -36h58v-32h-219zM250 734h-37c15 85 49 126 108 126c12 0 24 -2 37 -5l57 -15
c9 -2 15 -3 20 -3c24 0 39 15 47 46h37c-14 -84 -53 -126 -107 -126c-10 0 -21 1 -32 4l-55 14c-13 3 -21 5 -27 5c-25 0 -41 -15 -48 -46z" />
    <glyph glyph-name="Oacute" unicode="&#xd3;" horiz-adv-x="769" 
d="M48 324c0 87 34 169 99 236c68 69 144 103 237 103s169 -34 237 -103c65 -67 100 -149 100 -236s-34 -170 -100 -237c-67 -69 -144 -102 -237 -102s-169 33 -237 102c-65 67 -99 150 -99 237zM242 324c0 -121 1 -202 19 -242c22 -49 59 -67 123 -67s101 18 123 67
c18 41 19 121 19 242s-1 201 -19 242c-22 49 -59 67 -123 67s-101 -18 -123 -67c-18 -40 -19 -121 -19 -242zM281 718l143 148c25 26 45 43 71 43c28 0 48 -21 48 -48c0 -24 -15 -38 -46 -54l-170 -89h-46z" />
    <glyph glyph-name="Ocircumflex" unicode="&#xd4;" horiz-adv-x="769" 
d="M48 324c0 87 34 169 99 236c68 69 144 103 237 103s169 -34 237 -103c65 -67 100 -149 100 -236s-34 -170 -100 -237c-67 -69 -144 -102 -237 -102s-169 33 -237 102c-65 67 -99 150 -99 237zM242 324c0 -121 1 -202 19 -242c22 -49 59 -67 123 -67s101 18 123 67
c18 41 19 121 19 242s-1 201 -19 242c-22 49 -59 67 -123 67s-101 -18 -123 -67c-18 -40 -19 -121 -19 -242zM230 718l114 181h82l113 -181h-43l-111 91l-111 -91h-44z" />
    <glyph glyph-name="Odieresis" unicode="&#xd6;" horiz-adv-x="769" 
d="M48 324c0 87 34 169 99 236c68 69 144 103 237 103s169 -34 237 -103c65 -67 100 -149 100 -236s-34 -170 -100 -237c-67 -69 -144 -102 -237 -102s-169 33 -237 102c-65 67 -99 150 -99 237zM242 324c0 -121 1 -202 19 -242c22 -49 59 -67 123 -67s101 18 123 67
c18 41 19 121 19 242s-1 201 -19 242c-22 49 -59 67 -123 67s-101 -18 -123 -67c-18 -40 -19 -121 -19 -242zM232 809c0 33 30 63 64 63c35 0 63 -28 63 -63c0 -38 -26 -65 -63 -65c-36 0 -64 29 -64 65zM410 809c0 33 30 63 64 63c35 0 64 -28 64 -63
c0 -38 -27 -65 -64 -65c-36 0 -64 29 -64 65z" />
    <glyph glyph-name="Ograve" unicode="&#xd2;" horiz-adv-x="769" 
d="M48 324c0 87 34 169 99 236c68 69 144 103 237 103s169 -34 237 -103c65 -67 100 -149 100 -236s-34 -170 -100 -237c-67 -69 -144 -102 -237 -102s-169 33 -237 102c-65 67 -99 150 -99 237zM242 324c0 -121 1 -202 19 -242c22 -49 59 -67 123 -67s101 18 123 67
c18 41 19 121 19 242s-1 201 -19 242c-22 49 -59 67 -123 67s-101 -18 -123 -67c-18 -40 -19 -121 -19 -242zM489 718h-46l-170 88c-31 16 -46 30 -46 54c0 27 20 48 48 48c26 0 46 -16 71 -42z" />
    <glyph glyph-name="Otilde" unicode="&#xd5;" horiz-adv-x="769" 
d="M48 324c0 87 34 169 99 236c68 69 144 103 237 103s169 -34 237 -103c65 -67 100 -149 100 -236s-34 -170 -100 -237c-67 -69 -144 -102 -237 -102s-169 33 -237 102c-65 67 -99 150 -99 237zM242 324c0 -121 1 -202 19 -242c22 -49 59 -67 123 -67s101 18 123 67
c18 41 19 121 19 242s-1 201 -19 242c-22 49 -59 67 -123 67s-101 -18 -123 -67c-18 -40 -19 -121 -19 -242zM269 734h-37c15 85 49 126 108 126c12 0 24 -2 37 -5l57 -15c9 -2 15 -3 20 -3c24 0 39 15 47 46h37c-14 -84 -53 -126 -107 -126c-10 0 -21 1 -32 4l-55 14
c-13 3 -21 5 -27 5c-25 0 -41 -15 -48 -46z" />
    <glyph glyph-name="Scaron" unicode="&#x160;" horiz-adv-x="548" 
d="M50 -8v191h38c33 -111 100 -169 194 -169c87 0 148 53 148 122c0 38 -12 60 -44 81c-36 24 -90 31 -153 47c-122 31 -180 88 -180 195c0 121 83 204 206 204c50 0 93 -14 131 -42l36 29h31l4 -172h-33c-25 102 -86 156 -174 156c-76 0 -125 -43 -125 -96
c0 -68 59 -74 156 -96c150 -35 220 -91 220 -228c0 -132 -94 -229 -221 -229c-60 0 -108 12 -153 46l-45 -39h-36zM119 899h44l111 -91l111 91h43l-113 -181h-82z" />
    <glyph glyph-name="Uacute" unicode="&#xda;" horiz-adv-x="710" 
d="M106 176v444h-76v30h325v-30h-84v-441c0 -107 38 -158 132 -158c49 0 89 14 118 41c44 40 45 92 45 166v10v331c0 45 -7 51 -49 51h-32v30h206v-30h-32c-45 0 -56 -9 -56 -52v-327v-13c0 -67 -1 -119 -31 -161c-40 -57 -108 -82 -208 -82c-170 0 -258 67 -258 191z
M288 718l143 148c25 26 45 43 71 43c28 0 48 -21 48 -48c0 -24 -15 -38 -46 -54l-170 -89h-46z" />
    <glyph glyph-name="Ucircumflex" unicode="&#xdb;" horiz-adv-x="710" 
d="M106 176v444h-76v30h325v-30h-84v-441c0 -107 38 -158 132 -158c49 0 89 14 118 41c44 40 45 92 45 166v10v331c0 45 -7 51 -49 51h-32v30h206v-30h-32c-45 0 -56 -9 -56 -52v-327v-13c0 -67 -1 -119 -31 -161c-40 -57 -108 -82 -208 -82c-170 0 -258 67 -258 191z
M237 718l114 181h82l113 -181h-43l-111 91l-111 -91h-44z" />
    <glyph glyph-name="Udieresis" unicode="&#xdc;" horiz-adv-x="710" 
d="M106 176v444h-76v30h325v-30h-84v-441c0 -107 38 -158 132 -158c49 0 89 14 118 41c44 40 45 92 45 166v10v331c0 45 -7 51 -49 51h-32v30h206v-30h-32c-45 0 -56 -9 -56 -52v-327v-13c0 -67 -1 -119 -31 -161c-40 -57 -108 -82 -208 -82c-170 0 -258 67 -258 191z
M239 809c0 33 30 63 64 63c35 0 63 -28 63 -63c0 -38 -26 -65 -63 -65c-36 0 -64 29 -64 65zM417 809c0 33 30 63 64 63c35 0 64 -28 64 -63c0 -38 -27 -65 -64 -65c-36 0 -64 29 -64 65z" />
    <glyph glyph-name="Ugrave" unicode="&#xd9;" horiz-adv-x="710" 
d="M106 176v444h-76v30h325v-30h-84v-441c0 -107 38 -158 132 -158c49 0 89 14 118 41c44 40 45 92 45 166v10v331c0 45 -7 51 -49 51h-32v30h206v-30h-32c-45 0 -56 -9 -56 -52v-327v-13c0 -67 -1 -119 -31 -161c-40 -57 -108 -82 -208 -82c-170 0 -258 67 -258 191z
M496 718h-46l-170 88c-31 16 -46 30 -46 54c0 27 20 48 48 48c26 0 46 -16 71 -42z" />
    <glyph glyph-name="Ydieresis" unicode="&#x178;" horiz-adv-x="659" 
d="M175 0v32h80v277l-190 311h-65v30h328v-30h-80l159 -264l112 210c9 17 14 28 14 35c0 13 -11 19 -33 19h-56v30h210v-30h-27c-40 0 -56 -21 -82 -70l-122 -228v-290h80v-32h-328zM177 809c0 33 30 63 64 63c35 0 63 -28 63 -63c0 -38 -26 -65 -63 -65
c-36 0 -64 29 -64 65zM355 809c0 33 30 63 64 63c35 0 64 -28 64 -63c0 -38 -27 -65 -64 -65c-36 0 -64 29 -64 65z" />
    <glyph glyph-name="Zcaron" unicode="&#x17d;" horiz-adv-x="547" 
d="M11 0v37l330 583h-104c-88 0 -141 -49 -162 -146h-32l12 176h467v-29l-332 -589h102c113 0 165 50 202 191h28l-6 -223h-505zM119 899h44l111 -91l111 91h43l-113 -181h-82z" />
    <glyph glyph-name="aacute" unicode="&#xe1;" horiz-adv-x="492" 
d="M295 200h-12c-78 0 -109 -19 -109 -76c0 -55 15 -79 55 -79c38 0 66 27 66 71v84zM298 58c-40 -48 -85 -68 -150 -68c-68 0 -105 36 -105 98c0 81 90 139 252 139v95c0 41 -12 54 -67 54c-34 0 -51 -8 -51 -23c0 -10 18 -24 18 -52c0 -38 -24 -59 -67 -59
c-38 0 -59 22 -59 61c0 62 65 99 185 99c56 0 98 -9 123 -22c39 -20 41 -45 41 -91v-202c0 -23 9 -34 31 -34c13 0 18 9 25 9c6 0 10 -5 10 -10c0 -17 -35 -62 -94 -62c-43 0 -78 25 -92 68zM149 456l143 148c25 26 45 43 71 43c28 0 48 -21 48 -48c0 -24 -15 -38 -46 -54
l-170 -89h-46z" />
    <glyph glyph-name="acircumflex" unicode="&#xe2;" horiz-adv-x="492" 
d="M295 200h-12c-78 0 -109 -19 -109 -76c0 -55 15 -79 55 -79c38 0 66 27 66 71v84zM298 58c-40 -48 -85 -68 -150 -68c-68 0 -105 36 -105 98c0 81 90 139 252 139v95c0 41 -12 54 -67 54c-34 0 -51 -8 -51 -23c0 -10 18 -24 18 -52c0 -38 -24 -59 -67 -59
c-38 0 -59 22 -59 61c0 62 65 99 185 99c56 0 98 -9 123 -22c39 -20 41 -45 41 -91v-202c0 -23 9 -34 31 -34c13 0 18 9 25 9c6 0 10 -5 10 -10c0 -17 -35 -62 -94 -62c-43 0 -78 25 -92 68zM98 456l114 181h82l113 -181h-43l-111 91l-111 -91h-44z" />
    <glyph glyph-name="adieresis" unicode="&#xe4;" horiz-adv-x="492" 
d="M295 200h-12c-78 0 -109 -19 -109 -76c0 -55 15 -79 55 -79c38 0 66 27 66 71v84zM298 58c-40 -48 -85 -68 -150 -68c-68 0 -105 36 -105 98c0 81 90 139 252 139v95c0 41 -12 54 -67 54c-34 0 -51 -8 -51 -23c0 -10 18 -24 18 -52c0 -38 -24 -59 -67 -59
c-38 0 -59 22 -59 61c0 62 65 99 185 99c56 0 98 -9 123 -22c39 -20 41 -45 41 -91v-202c0 -23 9 -34 31 -34c13 0 18 9 25 9c6 0 10 -5 10 -10c0 -17 -35 -62 -94 -62c-43 0 -78 25 -92 68zM100 547c0 33 30 63 64 63c35 0 63 -28 63 -63c0 -38 -26 -65 -63 -65
c-36 0 -64 29 -64 65zM278 547c0 33 30 63 64 63c35 0 64 -28 64 -63c0 -38 -27 -65 -64 -65c-36 0 -64 29 -64 65z" />
    <glyph glyph-name="agrave" unicode="&#xe0;" horiz-adv-x="492" 
d="M295 200h-12c-78 0 -109 -19 -109 -76c0 -55 15 -79 55 -79c38 0 66 27 66 71v84zM298 58c-40 -48 -85 -68 -150 -68c-68 0 -105 36 -105 98c0 81 90 139 252 139v95c0 41 -12 54 -67 54c-34 0 -51 -8 -51 -23c0 -10 18 -24 18 -52c0 -38 -24 -59 -67 -59
c-38 0 -59 22 -59 61c0 62 65 99 185 99c56 0 98 -9 123 -22c39 -20 41 -45 41 -91v-202c0 -23 9 -34 31 -34c13 0 18 9 25 9c6 0 10 -5 10 -10c0 -17 -35 -62 -94 -62c-43 0 -78 25 -92 68zM357 456h-46l-170 88c-31 16 -46 30 -46 54c0 27 20 48 48 48c26 0 46 -16 71 -42
z" />
    <glyph glyph-name="aring" unicode="&#xe5;" horiz-adv-x="492" 
d="M298 58c-40 -48 -85 -68 -150 -68c-68 0 -105 36 -105 98c0 81 90 139 252 139v95c0 41 -12 54 -67 54c-34 0 -51 -8 -51 -23c0 -10 18 -24 18 -52c0 -38 -24 -59 -67 -59c-38 0 -59 22 -59 61c0 62 65 99 185 99c56 0 98 -9 123 -22c39 -20 41 -45 41 -91v-202
c0 -23 9 -34 31 -34c13 0 18 9 25 9c6 0 10 -5 10 -10c0 -17 -35 -62 -94 -62c-43 0 -78 25 -92 68zM295 200h-12c-78 0 -109 -19 -109 -76c0 -55 15 -79 55 -79c38 0 66 27 66 71v84zM122 573c0 70 56 125 126 125s126 -55 126 -125c0 -71 -55 -126 -126 -126
s-126 55 -126 126zM186 572c0 -35 27 -62 62 -62s62 27 62 62s-27 63 -62 63s-62 -28 -62 -63z" />
    <glyph glyph-name="atilde" unicode="&#xe3;" horiz-adv-x="492" 
d="M295 200h-12c-78 0 -109 -19 -109 -76c0 -55 15 -79 55 -79c38 0 66 27 66 71v84zM298 58c-40 -48 -85 -68 -150 -68c-68 0 -105 36 -105 98c0 81 90 139 252 139v95c0 41 -12 54 -67 54c-34 0 -51 -8 -51 -23c0 -10 18 -24 18 -52c0 -38 -24 -59 -67 -59
c-38 0 -59 22 -59 61c0 62 65 99 185 99c56 0 98 -9 123 -22c39 -20 41 -45 41 -91v-202c0 -23 9 -34 31 -34c13 0 18 9 25 9c6 0 10 -5 10 -10c0 -17 -35 -62 -94 -62c-43 0 -78 25 -92 68zM137 472h-37c15 85 49 126 108 126c12 0 24 -2 37 -5l57 -15c9 -2 15 -3 20 -3
c24 0 39 15 47 46h37c-14 -84 -53 -126 -107 -126c-10 0 -21 1 -32 4l-55 14c-13 3 -21 5 -27 5c-25 0 -41 -15 -48 -46z" />
    <glyph glyph-name="ccedilla" unicode="&#xe7;" horiz-adv-x="493" 
d="M420 132l23 -8c-31 -89 -91 -134 -178 -134c-128 0 -221 92 -221 207c0 112 99 205 230 205c93 0 152 -48 152 -110c0 -37 -27 -64 -64 -64c-43 0 -68 27 -68 67c0 38 31 50 31 61c0 16 -17 23 -51 23c-74 0 -77 -38 -77 -122v-120c0 -83 8 -119 79 -119
c69 0 118 39 144 114zM103 -186l22 48c45 -25 84 -39 118 -39c24 0 43 17 43 41c0 26 -15 39 -45 39c-9 0 -19 -1 -31 -3v100h38v-57c11 2 21 3 31 3c56 0 92 -33 92 -84c0 -56 -41 -90 -113 -90c-42 0 -93 14 -155 42z" />
    <glyph glyph-name="eacute" unicode="&#xe9;" horiz-adv-x="492" 
d="M438 132l23 -8c-33 -92 -96 -135 -197 -135c-140 0 -228 81 -228 202c0 119 94 211 226 211c120 0 194 -71 194 -185v-5h-262v-98c0 -70 16 -100 80 -100c80 0 135 40 164 118zM194 242h132v76c0 42 -20 60 -66 60c-44 0 -66 -19 -66 -60v-76zM151 456l143 148
c25 26 45 43 71 43c28 0 48 -21 48 -48c0 -24 -15 -38 -46 -54l-170 -89h-46z" />
    <glyph glyph-name="ecircumflex" unicode="&#xea;" horiz-adv-x="492" 
d="M438 132l23 -8c-33 -92 -96 -135 -197 -135c-140 0 -228 81 -228 202c0 119 94 211 226 211c120 0 194 -71 194 -185v-5h-262v-98c0 -70 16 -100 80 -100c80 0 135 40 164 118zM194 242h132v76c0 42 -20 60 -66 60c-44 0 -66 -19 -66 -60v-76zM100 456l114 181h82
l113 -181h-43l-111 91l-111 -91h-44z" />
    <glyph glyph-name="edieresis" unicode="&#xeb;" horiz-adv-x="492" 
d="M438 132l23 -8c-33 -92 -96 -135 -197 -135c-140 0 -228 81 -228 202c0 119 94 211 226 211c120 0 194 -71 194 -185v-5h-262v-98c0 -70 16 -100 80 -100c80 0 135 40 164 118zM194 242h132v76c0 42 -20 60 -66 60c-44 0 -66 -19 -66 -60v-76zM102 547c0 33 30 63 64 63
c35 0 63 -28 63 -63c0 -38 -26 -65 -63 -65c-36 0 -64 29 -64 65zM280 547c0 33 30 63 64 63c35 0 64 -28 64 -63c0 -38 -27 -65 -64 -65c-36 0 -64 29 -64 65z" />
    <glyph glyph-name="egrave" unicode="&#xe8;" horiz-adv-x="492" 
d="M438 132l23 -8c-33 -92 -96 -135 -197 -135c-140 0 -228 81 -228 202c0 119 94 211 226 211c120 0 194 -71 194 -185v-5h-262v-98c0 -70 16 -100 80 -100c80 0 135 40 164 118zM194 242h132v76c0 42 -20 60 -66 60c-44 0 -66 -19 -66 -60v-76zM359 456h-46l-170 88
c-31 16 -46 30 -46 54c0 27 20 48 48 48c26 0 46 -16 71 -42z" />
    <glyph glyph-name="iacute" unicode="&#xed;" horiz-adv-x="275" 
d="M12 0v30h59v330h-65v30c72 2 140 6 203 12v-372h62v-30h-259zM20 456l143 148c25 26 45 43 71 43c28 0 48 -21 48 -48c0 -24 -15 -38 -46 -54l-170 -89h-46z" />
    <glyph glyph-name="icircumflex" unicode="&#xee;" horiz-adv-x="275" 
d="M12 0v30h59v330h-65v30c72 2 140 6 203 12v-372h62v-30h-259zM-31 456l114 181h82l113 -181h-43l-111 91l-111 -91h-44z" />
    <glyph glyph-name="idieresis" unicode="&#xef;" horiz-adv-x="275" 
d="M12 0v30h59v330h-65v30c72 2 140 6 203 12v-372h62v-30h-259zM-29 547c0 33 30 63 64 63c35 0 63 -28 63 -63c0 -38 -26 -65 -63 -65c-36 0 -64 29 -64 65zM149 547c0 33 30 63 64 63c35 0 64 -28 64 -63c0 -38 -27 -65 -64 -65c-36 0 -64 29 -64 65z" />
    <glyph glyph-name="igrave" unicode="&#xec;" horiz-adv-x="275" 
d="M12 0v30h59v330h-65v30c72 2 140 6 203 12v-372h62v-30h-259zM228 456h-46l-170 88c-31 16 -46 30 -46 54c0 27 20 48 48 48c26 0 46 -16 71 -42z" />
    <glyph glyph-name="ntilde" unicode="&#xf1;" horiz-adv-x="549" 
d="M16 30h60v332h-66v31c65 0 132 2 203 7v-99c38 69 86 100 159 100c104 0 115 -48 115 -142v-229h58v-30h-244v30h51v276c0 36 -12 53 -41 53c-46 0 -97 -65 -97 -142v-187h50v-30h-248v30zM159 472h-37c15 85 49 126 108 126c12 0 24 -2 37 -5l57 -15c9 -2 15 -3 20 -3
c24 0 39 15 47 46h37c-14 -84 -53 -126 -107 -126c-10 0 -21 1 -32 4l-55 14c-13 3 -21 5 -27 5c-25 0 -41 -15 -48 -46z" />
    <glyph glyph-name="oacute" unicode="&#xf3;" horiz-adv-x="547" 
d="M272 378c-76 0 -79 -50 -79 -182v-40c0 -101 5 -143 79 -143s78 45 78 168v58c0 97 -6 139 -78 139zM38 195c0 119 93 207 233 207s234 -87 234 -206s-94 -207 -234 -207s-233 87 -233 206zM170 456l143 148c25 26 45 43 71 43c28 0 48 -21 48 -48c0 -24 -15 -38 -46 -54
l-170 -89h-46z" />
    <glyph glyph-name="ocircumflex" unicode="&#xf4;" horiz-adv-x="547" 
d="M272 378c-76 0 -79 -50 -79 -182v-40c0 -101 5 -143 79 -143s78 45 78 168v58c0 97 -6 139 -78 139zM38 195c0 119 93 207 233 207s234 -87 234 -206s-94 -207 -234 -207s-233 87 -233 206zM119 456l114 181h82l113 -181h-43l-111 91l-111 -91h-44z" />
    <glyph glyph-name="odieresis" unicode="&#xf6;" horiz-adv-x="547" 
d="M272 378c-76 0 -79 -50 -79 -182v-40c0 -101 5 -143 79 -143s78 45 78 168v58c0 97 -6 139 -78 139zM38 195c0 119 93 207 233 207s234 -87 234 -206s-94 -207 -234 -207s-233 87 -233 206zM121 547c0 33 30 63 64 63c35 0 63 -28 63 -63c0 -38 -26 -65 -63 -65
c-36 0 -64 29 -64 65zM299 547c0 33 30 63 64 63c35 0 64 -28 64 -63c0 -38 -27 -65 -64 -65c-36 0 -64 29 -64 65z" />
    <glyph glyph-name="ograve" unicode="&#xf2;" horiz-adv-x="547" 
d="M272 378c-76 0 -79 -50 -79 -182v-40c0 -101 5 -143 79 -143s78 45 78 168v58c0 97 -6 139 -78 139zM38 195c0 119 93 207 233 207s234 -87 234 -206s-94 -207 -234 -207s-233 87 -233 206zM378 456h-46l-170 88c-31 16 -46 30 -46 54c0 27 20 48 48 48
c26 0 46 -16 71 -42z" />
    <glyph glyph-name="otilde" unicode="&#xf5;" horiz-adv-x="547" 
d="M272 378c-76 0 -79 -50 -79 -182v-40c0 -101 5 -143 79 -143s78 45 78 168v58c0 97 -6 139 -78 139zM38 195c0 119 93 207 233 207s234 -87 234 -206s-94 -207 -234 -207s-233 87 -233 206zM158 472h-37c15 85 49 126 108 126c12 0 24 -2 37 -5l57 -15c9 -2 15 -3 20 -3
c24 0 39 15 47 46h37c-14 -84 -53 -126 -107 -126c-10 0 -21 1 -32 4l-55 14c-13 3 -21 5 -27 5c-25 0 -41 -15 -48 -46z" />
    <glyph glyph-name="scaron" unicode="&#x161;" horiz-adv-x="383" 
d="M42 0l-1 145h26c23 -86 72 -130 143 -130c59 0 95 33 95 71c0 46 -45 42 -126 54c-94 14 -139 43 -139 122c0 87 56 140 141 140c35 0 68 -9 95 -23l21 18h20l3 -111h-26c-20 61 -58 92 -112 92c-56 0 -91 -26 -91 -54c0 -36 42 -37 126 -48c101 -13 142 -47 142 -137
c0 -92 -56 -150 -152 -150c-47 0 -85 12 -113 33l-28 -22h-24zM37 637h44l111 -91l111 91h43l-113 -181h-82z" />
    <glyph glyph-name="uacute" unicode="&#xfa;" horiz-adv-x="549" 
d="M479 402v-371h64v-30c-67 0 -133 -3 -201 -8v99c-39 -70 -87 -102 -159 -102c-45 0 -79 13 -99 38c-14 19 -16 43 -16 76v42v216h-65v30c73 1 140 4 200 10v-315c0 -36 12 -53 41 -53c47 0 97 66 97 143v185h-71v30c69 0 138 4 209 10zM154 456l143 148
c25 26 45 43 71 43c28 0 48 -21 48 -48c0 -24 -15 -38 -46 -54l-170 -89h-46z" />
    <glyph glyph-name="ucircumflex" unicode="&#xfb;" horiz-adv-x="549" 
d="M479 402v-371h64v-30c-67 0 -133 -3 -201 -8v99c-39 -70 -87 -102 -159 -102c-45 0 -79 13 -99 38c-14 19 -16 43 -16 76v42v216h-65v30c73 1 140 4 200 10v-315c0 -36 12 -53 41 -53c47 0 97 66 97 143v185h-71v30c69 0 138 4 209 10zM103 456l114 181h82l113 -181h-43
l-111 91l-111 -91h-44z" />
    <glyph glyph-name="udieresis" unicode="&#xfc;" horiz-adv-x="549" 
d="M479 402v-371h64v-30c-67 0 -133 -3 -201 -8v99c-39 -70 -87 -102 -159 -102c-45 0 -79 13 -99 38c-14 19 -16 43 -16 76v42v216h-65v30c73 1 140 4 200 10v-315c0 -36 12 -53 41 -53c47 0 97 66 97 143v185h-71v30c69 0 138 4 209 10zM105 547c0 33 30 63 64 63
c35 0 63 -28 63 -63c0 -38 -26 -65 -63 -65c-36 0 -64 29 -64 65zM283 547c0 33 30 63 64 63c35 0 64 -28 64 -63c0 -38 -27 -65 -64 -65c-36 0 -64 29 -64 65z" />
    <glyph glyph-name="ugrave" unicode="&#xf9;" horiz-adv-x="549" 
d="M479 402v-371h64v-30c-67 0 -133 -3 -201 -8v99c-39 -70 -87 -102 -159 -102c-45 0 -79 13 -99 38c-14 19 -16 43 -16 76v42v216h-65v30c73 1 140 4 200 10v-315c0 -36 12 -53 41 -53c47 0 97 66 97 143v185h-71v30c69 0 138 4 209 10zM362 456h-46l-170 88
c-31 16 -46 30 -46 54c0 27 20 48 48 48c26 0 46 -16 71 -42z" />
    <glyph glyph-name="ydieresis" unicode="&#xff;" horiz-adv-x="493" 
d="M219 -115c-30 -70 -64 -104 -109 -104c-41 0 -64 22 -64 61c0 33 25 59 59 59c43 0 47 -34 63 -34c12 0 18 10 26 29l44 103l-184 361h-42v30h239v-30h-49l98 -209l74 171c3 6 6 12 6 22s-9 16 -27 16h-38v30h156v-30h-27c-16 0 -26 -6 -35 -28zM94 547c0 33 30 63 64 63
c35 0 63 -28 63 -63c0 -38 -26 -65 -63 -65c-36 0 -64 29 -64 65zM272 547c0 33 30 63 64 63c35 0 64 -28 64 -63c0 -38 -27 -65 -64 -65c-36 0 -64 29 -64 65z" />
    <glyph glyph-name="zcaron" unicode="&#x17e;" horiz-adv-x="440" 
d="M28 0v21l220 339h-68c-51 0 -75 -37 -107 -123h-27l5 153h350v-24l-219 -336h68c61 0 90 40 127 137h27l-7 -167h-369zM65 637h44l111 -91l111 91h43l-113 -181h-82z" />
    <glyph glyph-name="trademark" unicode="&#x2122;" horiz-adv-x="822" 
d="M116 710h220l6 -94h-16c-5 51 -24 74 -64 74h-3v-205c0 -15 6 -23 17 -25l15 -2v-16h-130v16l15 2c11 2 17 10 17 25v205h-5c-39 0 -57 -23 -62 -74h-16zM370 710h103l64 -180l63 180h97v-13l-13 -2c-13 -2 -18 -10 -18 -25v-185c0 -15 5 -23 18 -25l13 -2v-16h-124v16
l15 2c12 2 18 10 18 25v178l-76 -222h-18l-81 226v-182c0 -15 6 -23 18 -25l17 -2v-16h-96v16l17 2c12 2 18 10 18 25v182c0 15 -6 23 -18 25l-17 2v16z" />
    <glyph glyph-name="copyright" unicode="&#xa9;" horiz-adv-x="822" 
d="M412 690c93 0 184 -39 251 -105c66 -66 106 -160 106 -254c0 -93 -38 -184 -106 -253c-67 -68 -156 -104 -252 -104s-183 36 -252 104c-68 68 -105 157 -105 253c0 95 36 185 104 253c67 67 159 106 254 106zM412 639c-82 0 -159 -32 -217 -91s-89 -135 -89 -217
c0 -83 31 -159 89 -217c59 -59 133 -89 216 -89c82 0 158 31 215 89c58 59 90 137 90 217c0 82 -32 162 -89 218c-57 57 -136 90 -215 90zM550 538h22v-159h-23c-21 87 -69 133 -129 133c-77 0 -114 -58 -114 -178c0 -121 42 -184 120 -184c51 0 96 28 133 85l22 -14
c-41 -70 -99 -105 -170 -105c-122 0 -211 92 -211 208c0 126 90 216 208 216c66 0 96 -32 114 -32c15 0 24 9 28 30z" />
    <glyph glyph-name="logicalnot" unicode="&#xac;" horiz-adv-x="833" 
d="M124 422h585v-245h-97v149h-488v96z" />
    <glyph glyph-name="registered" unicode="&#xae;" horiz-adv-x="822" 
d="M412 690c95 0 190 -41 257 -110c63 -65 99 -156 99 -255c0 -89 -41 -184 -113 -254c-65 -63 -151 -97 -244 -97c-71 0 -138 20 -196 59c-102 68 -161 176 -161 298c0 95 37 185 104 253c66 67 158 106 254 106zM412 639c-82 0 -160 -33 -217 -91
c-58 -59 -89 -135 -89 -217c0 -83 31 -159 89 -217c59 -59 133 -89 216 -89c82 0 158 31 215 89c58 59 90 137 90 217c0 81 -33 162 -90 218c-57 57 -135 90 -214 90zM227 536h197c101 0 157 -44 157 -97c0 -58 -42 -86 -136 -102c61 -14 96 -44 107 -95
c9 -38 -2 -77 27 -77c18 0 28 19 28 57v6h25v-11c0 -57 -29 -88 -84 -88c-32 0 -55 10 -68 27c-20 28 -13 64 -19 98c-9 52 -35 75 -81 75h-9v-120c0 -31 11 -40 48 -45v-25h-192v25c39 2 52 12 52 45v255c0 33 -13 43 -52 46v26zM371 353c7 -1 14 -1 21 -1
c62 0 94 29 94 88c0 36 -29 71 -73 71c-28 0 -42 -10 -42 -32v-126z" />
    <glyph glyph-name="minus" unicode="&#x2212;" horiz-adv-x="833" 
d="M124 348h585v-99h-585v99z" />
    <glyph glyph-name="Eth" unicode="&#xd0;" horiz-adv-x="771" 
d="M43 32h78v286h-124v38h124v264h-78v30h332c87 0 155 -14 216 -58c79 -57 127 -156 127 -267s-49 -211 -130 -269c-55 -39 -125 -56 -216 -56h-329v32zM286 32h83c59 0 96 4 124 38c34 42 40 113 40 217v46c0 106 -2 181 -27 228c-28 52 -68 59 -137 59h-83v-264h127v-38
h-127v-286z" />
    <glyph glyph-name="Thorn" unicode="&#xde;" horiz-adv-x="657" 
d="M274 474v-287h91c87 0 91 34 91 149c0 112 -8 138 -95 138h-87zM367 504c182 0 271 -53 271 -166c0 -118 -92 -178 -276 -178h-88v-128h92v-32h-335v32h79v588h-79v30h322v-30h-79v-116h93z" />
    <glyph glyph-name="Yacute" unicode="&#xdd;" horiz-adv-x="659" 
d="M175 0v32h80v277l-190 311h-65v30h328v-30h-80l159 -264l112 210c9 17 14 28 14 35c0 13 -11 19 -33 19h-56v30h210v-30h-27c-40 0 -56 -21 -82 -70l-122 -228v-290h80v-32h-328zM226 718l143 148c25 26 45 43 71 43c28 0 48 -21 48 -48c0 -24 -15 -38 -46 -54l-170 -89
h-46z" />
    <glyph glyph-name="brokenbar" unicode="&#xa6;" 
d="M200 699h101v-370h-101v370zM200 199h101v-370h-101v370z" />
    <glyph glyph-name="degree" unicode="&#xb0;" horiz-adv-x="329" 
d="M165 715c82 0 148 -67 148 -149c0 -81 -66 -148 -149 -148c-82 0 -147 65 -147 148s66 149 148 149zM165 652c-47 0 -86 -38 -86 -85c0 -48 38 -86 86 -86s85 40 85 86c0 47 -38 85 -85 85z" />
    <glyph glyph-name="divide" unicode="&#xf7;" horiz-adv-x="833" 
d="M417 564c40 0 74 -33 74 -74c0 -40 -32 -74 -74 -74c-41 0 -74 33 -74 74c0 42 34 74 74 74zM124 347h585v-97h-585v97zM417 180c40 0 74 -33 74 -74c0 -39 -33 -73 -74 -73s-74 32 -74 73c0 42 34 74 74 74z" />
    <glyph glyph-name="eth" unicode="&#xf0;" horiz-adv-x="547" 
d="M272 378c-76 0 -79 -49 -79 -181v-41c0 -101 6 -143 79 -143c74 0 78 46 78 169v57c0 97 -6 139 -78 139zM341 400c-12 46 -40 90 -84 135l-145 -64l-17 39l127 56c-27 25 -69 46 -127 65l6 31c80 -14 144 -35 193 -63l122 53l16 -38l-97 -43c113 -90 171 -209 171 -346
c0 -152 -88 -236 -235 -236c-140 0 -233 87 -233 206c0 124 93 208 251 208c17 0 34 -1 52 -3z" />
    <glyph glyph-name="mu" unicode="&#x3bc;" horiz-adv-x="587" 
d="M87 102c-28 -211 -18 -309 -90 -309c-35 0 -56 21 -56 56c0 48 47 155 85 333l53 250h125l-48 -224c-7 -32 -11 -56 -11 -72c0 -38 21 -61 56 -61c47 0 75 35 90 107l53 250h125l-56 -260c-5 -23 -8 -40 -8 -54c0 -31 11 -43 36 -43s41 10 54 38c16 35 19 58 37 58
c10 0 16 -7 16 -19c0 -16 -8 -56 -29 -93c-26 -47 -63 -71 -115 -71c-56 0 -84 31 -90 97c-26 -68 -61 -97 -121 -97s-99 40 -106 114z" />
    <glyph glyph-name="multiply" unicode="&#xd7;" horiz-adv-x="833" 
d="M203 587l220 -220l220 220l69 -68l-220 -221l220 -220l-69 -68l-220 220l-220 -220l-68 68l220 220l-220 221z" />
    <glyph glyph-name="onehalf" unicode="&#xbd;" horiz-adv-x="928" 
d="M67 287v17h79v317c0 15 -8 16 -43 16h-34v14c47 1 96 4 147 9h22v-356h73v-17h-244zM263 -13h-49l451 679h49zM572 0v50l113 79c62 42 89 83 89 135c0 55 -31 87 -84 87c-42 0 -71 -28 -71 -39c0 -5 4 -7 12 -7h3c34 0 53 -15 53 -40c0 -24 -17 -39 -45 -39
c-34 0 -56 22 -56 55c0 50 57 92 148 92c92 0 146 -38 146 -96c0 -50 -41 -91 -124 -138l-114 -63v-4h181c21 0 30 4 32 20l4 32h20l-7 -124h-300z" />
    <glyph glyph-name="onequarter" unicode="&#xbc;" horiz-adv-x="928" 
d="M67 287v17h79v317c0 15 -8 16 -43 16h-34v14c47 1 96 4 147 9h22v-356h73v-17h-244zM263 -13h-49l451 679h49zM671 0v17h55v85h-164v23c80 109 149 192 206 248h53v-254h68v42h14v-99h-14v40h-68v-85h49v-17h-199zM729 119l3 187h-3c-71 -80 -119 -143 -148 -187h148z
" />
    <glyph glyph-name="onesuperior" unicode="&#xb9;" horiz-adv-x="399" 
d="M70 261v18h82v340c0 16 -9 17 -45 17h-35v15c49 1 101 4 154 10h22v-382h78v-18h-256z" />
    <glyph glyph-name="plusminus" unicode="&#xb1;" horiz-adv-x="833" 
d="M367 597h99v-159h243v-97h-243v-159h-99v159h-243v97h243v159zM124 96h585v-97h-585v97z" />
    <glyph glyph-name="thorn" unicode="&#xfe;" horiz-adv-x="553" 
d="M12 -219v30h56v809h-65v30c72 2 140 6 203 12v-335c31 51 72 75 132 75c99 0 180 -88 180 -208c0 -117 -81 -206 -180 -206c-60 0 -101 23 -132 74v-251h72v-30h-266zM366 91v206c0 52 -6 76 -51 76c-63 0 -109 -53 -109 -141v-75c0 -88 46 -141 110 -141
c43 0 50 25 50 75z" />
    <glyph glyph-name="threequarters" unicode="&#xbe;" horiz-adv-x="928" 
d="M199 486c93 -11 137 -41 137 -94c0 -64 -68 -112 -181 -112c-78 0 -125 34 -125 72c0 28 19 45 46 45c29 0 49 -16 49 -38c0 -33 -34 -37 -34 -46c0 -8 21 -16 57 -16c54 0 80 29 80 88c0 62 -31 91 -98 91c-12 0 -20 -1 -27 -1c-9 0 -14 4 -14 10s5 10 14 10
c5 0 12 -1 20 -1c65 0 89 25 89 84c0 46 -14 65 -58 65c-27 0 -42 -8 -42 -14c0 -5 28 -12 28 -38c0 -25 -17 -40 -44 -40c-25 0 -41 16 -41 38c0 40 45 70 118 70c87 0 139 -35 139 -82c0 -42 -39 -73 -113 -87v-4zM263 -13h-49l451 679h49zM671 0v17h55v85h-164v23
c80 109 149 192 206 248h53v-254h68v42h14v-99h-14v40h-68v-85h49v-17h-199zM729 119l3 187h-3c-71 -80 -119 -143 -148 -187h148z" />
    <glyph glyph-name="threesuperior" unicode="&#xb3;" horiz-adv-x="399" 
d="M209 474c97 -12 143 -43 143 -101c0 -68 -71 -119 -190 -119c-81 0 -130 36 -130 77c0 30 19 48 48 48c30 0 51 -18 51 -41c0 -35 -36 -39 -36 -49c0 -8 22 -17 60 -17c56 0 84 31 84 94c0 67 -32 97 -103 97c-12 0 -21 -1 -28 -1c-10 0 -14 4 -14 11c0 6 5 11 14 11
c5 0 12 -2 21 -2c68 0 93 27 93 90c0 50 -15 70 -60 70c-29 0 -45 -8 -45 -14s30 -14 30 -42c0 -26 -18 -42 -47 -42c-25 0 -42 17 -42 41c0 42 46 75 123 75c92 0 146 -38 146 -89c0 -44 -41 -77 -118 -92v-5z" />
    <glyph glyph-name="twosuperior" unicode="&#xb2;" horiz-adv-x="399" 
d="M25 261v54l119 84c65 46 93 89 93 145c0 59 -33 93 -88 93c-45 0 -75 -30 -75 -42c0 -5 5 -7 12 -7h4c35 0 56 -16 56 -43c0 -25 -19 -42 -47 -42c-36 0 -59 24 -59 59c0 54 60 99 155 99c96 0 153 -41 153 -104c0 -53 -43 -97 -130 -147l-120 -67v-5h190
c22 0 31 5 33 21l4 35h22l-7 -133h-315z" />
    <glyph glyph-name="yacute" unicode="&#xfd;" horiz-adv-x="493" 
d="M219 -115c-30 -70 -64 -104 -109 -104c-41 0 -64 22 -64 61c0 33 25 59 59 59c43 0 47 -34 63 -34c12 0 18 10 26 29l44 103l-184 361h-42v30h239v-30h-49l98 -209l74 171c3 6 6 12 6 22s-9 16 -27 16h-38v30h156v-30h-27c-16 0 -26 -6 -35 -28zM143 456l143 148
c25 26 45 43 71 43c28 0 48 -21 48 -48c0 -24 -15 -38 -46 -54l-170 -89h-46z" />
  </font>
</defs>
</svg>
