<?xml version="1.0" standalone="no"?>
<!DOCTYPE svg PUBLIC "-//W3C//DTD SVG 1.1//EN" "http://www.w3.org/Graphics/SVG/1.1/DTD/svg11.dtd" >
<svg xmlns="http://www.w3.org/2000/svg" width="100%" height="100%">
<metadata>
Created by FontXChange 20110222 at Mon Feb 25 17:52:46 2019
 By Suzi Rubino
Copyright 1990-1992 as an unpublished work by Bitstream Inc.  All rights reserved.  Confidential.
</metadata>
<defs>
<font id="BodoniBT-BoldItalic" horiz-adv-x="500" >
  <font-face 
    font-family="BodoniBT"
    font-weight="700"
    font-stretch="normal"
    units-per-em="1000"
    panose-1="2 0 8 3 0 0 0 0 0 0"
    ascent="800"
    descent="-200"
    x-height="401"
    cap-height="653"
    bbox="-236 -236 1334 950"
    underline-thickness="85"
    underline-position="-107"
    slope="-12"
    stemh="23"
    stemv="120"
    unicode-range="U+0020-FB02"
  />
    <missing-glyph />
    <glyph glyph-name="A" unicode="A" horiz-adv-x="603" 
d="M-69 0v32c45 2 71 27 102 78l341 556h39l59 -634h75v-32h-309v32h73l-13 154h-176l-73 -119c-4 -6 -6 -12 -6 -17c0 -11 10 -18 23 -18h41v-32h-176zM142 221h155l-19 225z" />
    <glyph glyph-name="AE" unicode="&#xc6;" horiz-adv-x="934" 
d="M812 221h39l-54 -221h-538v32h77l56 261h-179l-143 -224c-5 -8 -8 -15 -8 -19c0 -11 12 -18 28 -18h38v-32h-165v32c41 0 59 18 81 53l277 438c10 16 15 31 15 45c0 34 -24 55 -68 55h-31v30h658l-29 -183h-34c0 11 1 18 1 20c0 87 -48 133 -142 133h-62l-56 -261h21
c58 0 94 34 117 107h36l-56 -269h-38c1 13 2 25 2 36c0 65 -21 90 -88 92l-63 -296h75c98 0 178 64 233 189zM234 323h164l65 300h-35z" />
    <glyph glyph-name="Aacute" unicode="&#xc1;" horiz-adv-x="603" 
d="M-69 0v32c45 2 71 27 102 78l341 556h39l59 -634h75v-32h-309v32h73l-13 154h-176l-73 -119c-4 -6 -6 -12 -6 -17c0 -11 10 -18 23 -18h41v-32h-176zM142 221h155l-19 225zM360 720h-54l161 159c21 21 37 32 59 32c23 0 44 -22 44 -47c0 -19 -12 -35 -36 -48z" />
    <glyph glyph-name="Acircumflex" unicode="&#xc2;" horiz-adv-x="603" 
d="M-69 0v32c45 2 71 27 102 78l341 556h39l59 -634h75v-32h-309v32h73l-13 154h-176l-73 -119c-4 -6 -6 -12 -6 -17c0 -11 10 -18 23 -18h41v-32h-176zM142 221h155l-19 225zM548 720h-42l-86 91l-127 -91h-54l154 180h75z" />
    <glyph glyph-name="Adieresis" unicode="&#xc4;" horiz-adv-x="603" 
d="M-69 0v32c45 2 71 27 102 78l341 556h39l59 -634h75v-32h-309v32h73l-13 154h-176l-73 -119c-4 -6 -6 -12 -6 -17c0 -11 10 -18 23 -18h41v-32h-176zM142 221h155l-19 225zM268 810c0 33 29 63 63 63c35 0 63 -29 63 -63c0 -37 -27 -63 -63 -63c-35 0 -63 27 -63 63z
M443 810c0 33 30 63 64 63c35 0 62 -29 62 -63c0 -37 -26 -63 -62 -63c-35 0 -64 27 -64 63z" />
    <glyph glyph-name="Agrave" unicode="&#xc0;" horiz-adv-x="603" 
d="M-69 0v32c45 2 71 27 102 78l341 556h39l59 -634h75v-32h-309v32h73l-13 154h-176l-73 -119c-4 -6 -6 -12 -6 -17c0 -11 10 -18 23 -18h41v-32h-176zM142 221h155l-19 225zM502 720h-54l-139 99c-20 15 -33 27 -33 46c0 27 19 46 44 46c19 0 34 -11 52 -32z" />
    <glyph glyph-name="Aring" unicode="&#xc5;" horiz-adv-x="603" 
d="M-69 0v32c45 2 71 27 102 78l341 556h39l59 -634h75v-32h-309v32h73l-13 154h-176l-73 -119c-4 -6 -6 -12 -6 -17c0 -11 10 -18 23 -18h41v-32h-176zM142 221h155l-19 225zM284 824c0 70 56 126 126 126s126 -56 126 -126c0 -71 -56 -126 -126 -126s-126 55 -126 126z
M344 823c0 -36 29 -65 66 -65c36 0 66 29 66 65c0 38 -30 66 -66 66c-37 0 -66 -28 -66 -66z" />
    <glyph glyph-name="Atilde" unicode="&#xc3;" horiz-adv-x="603" 
d="M-69 0v32c45 2 71 27 102 78l341 556h39l59 -634h75v-32h-309v32h73l-13 154h-176l-73 -119c-4 -6 -6 -12 -6 -17c0 -11 10 -18 23 -18h41v-32h-176zM142 221h155l-19 225zM571 883c-19 -82 -48 -121 -99 -121c-9 0 -20 0 -31 3l-50 12c-16 4 -28 6 -34 6
c-29 0 -45 -14 -58 -46h-33c20 84 46 124 98 124c10 0 24 -2 41 -6l56 -13c7 -2 14 -2 22 -2c28 0 43 12 55 43h33z" />
    <glyph glyph-name="B" unicode="B" horiz-adv-x="714" 
d="M-23 0v32h79l127 591h-74v30h287c173 0 261 -43 261 -144c0 -91 -77 -156 -213 -163v-7c116 -12 179 -67 179 -156c0 -112 -93 -183 -256 -183h-390zM218 32h104c49 0 75 10 93 41c11 18 39 111 39 186c0 46 -30 65 -99 65h-75zM287 356h63c46 0 75 3 97 28
c16 19 45 102 45 176c0 49 -17 63 -74 63h-74z" />
    <glyph glyph-name="C" unicode="C" horiz-adv-x="660" 
d="M536 195l36 -9l-47 -192h-24l-30 43c-46 -36 -102 -53 -170 -53c-159 0 -257 103 -257 249c0 118 53 236 150 327c75 71 156 107 231 107c54 0 96 -15 127 -49l51 38h24l-35 -192h-37c-9 115 -54 175 -129 175c-62 0 -100 -35 -128 -109c-16 -44 -37 -114 -57 -210
c-19 -92 -27 -159 -27 -201c0 -71 23 -104 98 -104c97 0 167 59 224 180z" />
    <glyph glyph-name="Ccedilla" unicode="&#xc7;" horiz-adv-x="660" 
d="M536 195l36 -9l-47 -192h-24l-30 43c-46 -36 -102 -53 -170 -53c-159 0 -257 103 -257 249c0 118 53 236 150 327c75 71 156 107 231 107c54 0 96 -15 127 -49l51 38h24l-35 -192h-37c-9 115 -54 175 -129 175c-62 0 -100 -35 -128 -109c-16 -44 -37 -114 -57 -210
c-19 -92 -27 -159 -27 -201c0 -71 23 -104 98 -104c97 0 167 59 224 180zM128 -186l23 48c46 -25 84 -39 118 -39c22 0 43 15 43 40c0 26 -15 40 -45 40c-11 0 -26 -2 -47 -6l33 103h37l-18 -57c18 2 30 3 36 3c52 0 88 -34 88 -84c0 -57 -41 -91 -114 -91
c-41 0 -92 15 -154 43z" />
    <glyph glyph-name="D" unicode="D" horiz-adv-x="771" 
d="M-23 0v32h80l126 591h-73v30h314c79 0 139 -9 192 -49c65 -48 106 -134 106 -230c0 -201 -163 -374 -396 -374h-349zM221 32h96c85 0 136 26 171 116c16 41 27 101 43 179c15 77 25 139 25 185c0 82 -43 111 -135 111h-74z" />
    <glyph glyph-name="E" unicode="E" horiz-adv-x="663" 
d="M-23 0v32h80l126 591h-73v30h512l-28 -182h-36c-2 120 -36 152 -142 152h-71l-56 -262h10c72 0 108 32 135 111h38l-59 -274h-37c1 17 2 32 2 44c0 55 -30 85 -88 85h-8l-63 -295h65c124 0 197 50 257 189h36l-51 -221h-549z" />
    <glyph glyph-name="Eacute" unicode="&#xc9;" horiz-adv-x="663" 
d="M-23 0v32h80l126 591h-73v30h512l-28 -182h-36c-2 120 -36 152 -142 152h-71l-56 -262h10c72 0 108 32 135 111h38l-59 -274h-37c1 17 2 32 2 44c0 55 -30 85 -88 85h-8l-63 -295h65c124 0 197 50 257 189h36l-51 -221h-549zM363 720h-54l161 159c21 21 37 32 59 32
c23 0 44 -22 44 -47c0 -19 -12 -35 -36 -48z" />
    <glyph glyph-name="Ecircumflex" unicode="&#xca;" horiz-adv-x="663" 
d="M-23 0v32h80l126 591h-73v30h512l-28 -182h-36c-2 120 -36 152 -142 152h-71l-56 -262h10c72 0 108 32 135 111h38l-59 -274h-37c1 17 2 32 2 44c0 55 -30 85 -88 85h-8l-63 -295h65c124 0 197 50 257 189h36l-51 -221h-549zM551 720h-42l-86 91l-127 -91h-54l154 180h75
z" />
    <glyph glyph-name="Edieresis" unicode="&#xcb;" horiz-adv-x="663" 
d="M-23 0v32h80l126 591h-73v30h512l-28 -182h-36c-2 120 -36 152 -142 152h-71l-56 -262h10c72 0 108 32 135 111h38l-59 -274h-37c1 17 2 32 2 44c0 55 -30 85 -88 85h-8l-63 -295h65c124 0 197 50 257 189h36l-51 -221h-549zM271 810c0 33 29 63 63 63
c35 0 63 -29 63 -63c0 -37 -27 -63 -63 -63c-35 0 -63 27 -63 63zM446 810c0 33 30 63 64 63c35 0 62 -29 62 -63c0 -37 -26 -63 -62 -63c-35 0 -64 27 -64 63z" />
    <glyph glyph-name="Egrave" unicode="&#xc8;" horiz-adv-x="663" 
d="M-23 0v32h80l126 591h-73v30h512l-28 -182h-36c-2 120 -36 152 -142 152h-71l-56 -262h10c72 0 108 32 135 111h38l-59 -274h-37c1 17 2 32 2 44c0 55 -30 85 -88 85h-8l-63 -295h65c124 0 197 50 257 189h36l-51 -221h-549zM505 720h-54l-139 99c-20 15 -33 27 -33 46
c0 27 19 46 44 46c19 0 34 -11 52 -32z" />
    <glyph glyph-name="Eth" unicode="&#xd0;" horiz-adv-x="775" 
d="M-18 0v32h80l60 282h-114v37h122l57 272h-73v30h314c79 0 140 -9 193 -49c65 -48 105 -134 105 -230c0 -201 -162 -374 -395 -374h-349zM225 32h96c85 0 136 26 171 116c16 41 28 101 44 179c15 77 25 139 25 185c0 82 -44 111 -136 111h-74l-58 -272h129v-37h-137z" />
    <glyph glyph-name="F" unicode="F" horiz-adv-x="618" 
d="M-23 0v32h80l126 591h-73v30h515l-30 -197h-35v35c0 89 -43 132 -136 132h-75l-57 -268c5 0 10 -1 15 -1c66 0 104 34 129 111h37l-58 -275h-37c2 11 3 21 3 29c0 74 -24 101 -93 101h-4l-61 -288h86v-32h-332z" />
    <glyph glyph-name="G" unicode="G" horiz-adv-x="718" 
d="M619 202c-36 -149 -132 -219 -299 -219c-173 0 -275 94 -275 247c0 95 37 196 104 279c83 102 187 157 284 157c48 0 92 -17 136 -50l47 37h23l-30 -186h-37c-12 113 -61 171 -141 171c-68 0 -104 -45 -138 -137c-54 -148 -78 -313 -78 -386c0 -72 29 -105 99 -105
c86 0 111 52 131 192h-89v33h341v-33h-78z" />
    <glyph glyph-name="H" unicode="H" horiz-adv-x="773" 
d="M57 32l126 591h-73v30h315v-30h-78l-57 -270h199l57 270h-72v30h315v-30h-79l-126 -591h73v-32h-316v32h80l60 283h-199l-61 -283h71v-32h-315v32h80z" />
    <glyph glyph-name="I" unicode="I" horiz-adv-x="412" 
d="M-25 0v32h80l125 591h-73v30h318v-30h-78l-126 -591h72v-32h-318z" />
    <glyph glyph-name="Iacute" unicode="&#xcd;" horiz-adv-x="412" 
d="M-25 0v32h80l125 591h-73v30h318v-30h-78l-126 -591h72v-32h-318zM244 720h-54l161 159c21 21 37 32 59 32c23 0 44 -22 44 -47c0 -19 -12 -35 -36 -48z" />
    <glyph glyph-name="Icircumflex" unicode="&#xce;" horiz-adv-x="412" 
d="M-25 0v32h80l125 591h-73v30h318v-30h-78l-126 -591h72v-32h-318zM432 720h-42l-86 91l-127 -91h-54l154 180h75z" />
    <glyph glyph-name="Idieresis" unicode="&#xcf;" horiz-adv-x="412" 
d="M-25 0v32h80l125 591h-73v30h318v-30h-78l-126 -591h72v-32h-318zM152 810c0 33 29 63 63 63c35 0 63 -29 63 -63c0 -37 -27 -63 -63 -63c-35 0 -63 27 -63 63zM327 810c0 33 30 63 64 63c35 0 62 -29 62 -63c0 -37 -26 -63 -62 -63c-35 0 -64 27 -64 63z" />
    <glyph glyph-name="Igrave" unicode="&#xcc;" horiz-adv-x="412" 
d="M-25 0v32h80l125 591h-73v30h318v-30h-78l-126 -591h72v-32h-318zM386 720h-54l-139 99c-20 15 -33 27 -33 46c0 27 19 46 44 46c19 0 34 -11 52 -32z" />
    <glyph glyph-name="J" unicode="J" horiz-adv-x="441" 
d="M107 32l125 591h-91l6 30h330l-6 -30h-72l-112 -525c-31 -147 -129 -229 -253 -229c-90 0 -141 44 -141 106c0 46 27 74 75 74c39 0 66 -27 66 -70c0 -40 -30 -52 -30 -66c0 -8 10 -15 24 -15c44 0 60 44 79 134z" />
    <glyph glyph-name="K" unicode="K" horiz-adv-x="714" 
d="M-25 0v32h78l127 591h-72v30h314v-30h-78l-126 -591h76v-32h-319zM291 347l275 239c9 8 15 15 15 21c0 11 -8 16 -26 16h-51v30h227v-30h-8c-53 0 -88 -20 -128 -55l-170 -147l187 -389h70v-32h-320v32h79z" />
    <glyph glyph-name="L" unicode="L" horiz-adv-x="595" 
d="M-29 0v32h79l125 591h-72v30h316v-30h-79l-125 -591h38c124 0 197 50 257 189h37l-51 -221h-525z" />
    <glyph glyph-name="Lslash" unicode="&#x141;" horiz-adv-x="600" 
d="M-25 0v32h79l45 212l-118 -66v40l128 72l70 333h-72v30h316v-30h-79l-57 -271l166 95v-41l-176 -99l-58 -275h38c124 0 197 50 257 189h37l-51 -221h-525z" />
    <glyph glyph-name="M" unicode="M" horiz-adv-x="830" 
d="M-25 0v32c4 0 8 1 13 1c51 0 68 25 77 68l97 463c2 12 3 19 3 22c0 27 -21 37 -65 37h-6v30h251l50 -410l215 410h235v-30h-72l-126 -591h72v-32h-305v32h72l113 530l-293 -562h-35l-73 573l-92 -449c-4 -19 -8 -36 -8 -50c0 -30 19 -42 59 -42h10v-32h-192z" />
    <glyph glyph-name="N" unicode="N" horiz-adv-x="714" 
d="M-22 0v32c6 0 12 1 18 1c54 0 62 29 74 83l97 451c1 6 2 11 2 16c0 32 -24 40 -74 40v30h225l218 -418l69 326c2 11 3 20 3 27c0 29 -19 34 -69 35v30h191v-30h-14c-43 0 -64 -24 -75 -74l-120 -564h-36l-288 561l-95 -443c-3 -12 -4 -25 -4 -35c0 -27 16 -36 55 -36h13
v-32h-190z" />
    <glyph glyph-name="Ntilde" unicode="&#xd1;" horiz-adv-x="714" 
d="M-22 0v32c6 0 12 1 18 1c54 0 62 29 74 83l97 451c1 6 2 11 2 16c0 32 -24 40 -74 40v30h225l218 -418l69 326c2 11 3 20 3 27c0 29 -19 34 -69 35v30h191v-30h-14c-43 0 -64 -24 -75 -74l-120 -564h-36l-288 561l-95 -443c-3 -12 -4 -25 -4 -35c0 -27 16 -36 55 -36h13
v-32h-190zM611 883c-19 -82 -48 -121 -99 -121c-9 0 -20 0 -31 3l-50 12c-16 4 -28 6 -34 6c-29 0 -45 -14 -58 -46h-33c20 84 46 124 98 124c10 0 24 -2 41 -6l56 -13c7 -2 14 -2 22 -2c28 0 43 12 55 43h33z" />
    <glyph glyph-name="O" unicode="O" horiz-adv-x="774" 
d="M458 638c-103 0 -134 -44 -170 -152c-20 -61 -35 -127 -50 -198c-20 -96 -30 -159 -30 -187c0 -63 27 -89 106 -89c91 0 124 41 157 131c24 65 39 135 54 209c19 93 31 162 31 208c0 54 -28 78 -98 78zM47 247c0 95 44 201 123 285c82 87 186 134 291 134
c157 0 258 -99 258 -255c0 -111 -49 -223 -140 -311c-78 -75 -178 -116 -279 -116c-152 0 -253 98 -253 263z" />
    <glyph glyph-name="OE" unicode="&#x152;" horiz-adv-x="1016" 
d="M902 220h38l-49 -220h-577c-162 0 -268 100 -268 243c0 115 70 246 178 326c76 56 162 83 264 83h496l-28 -183h-36c0 6 1 9 1 10c0 109 -37 139 -147 139h-42l-56 -258c5 0 9 -1 13 -1c57 0 97 36 119 107h40l-58 -264h-40c1 13 2 26 2 38c0 59 -25 86 -81 86l-64 -291
h97c99 0 141 37 198 185zM475 207l61 285c7 32 10 56 10 71c0 32 -31 58 -88 58c-82 0 -126 -37 -163 -128c-17 -42 -33 -102 -51 -179s-31 -134 -31 -173c0 -78 38 -113 123 -113c91 0 114 62 139 179z" />
    <glyph glyph-name="Oacute" unicode="&#xd3;" horiz-adv-x="774" 
d="M458 638c-103 0 -134 -44 -170 -152c-20 -61 -35 -127 -50 -198c-20 -96 -30 -159 -30 -187c0 -63 27 -89 106 -89c91 0 124 41 157 131c24 65 39 135 54 209c19 93 31 162 31 208c0 54 -28 78 -98 78zM47 247c0 95 44 201 123 285c82 87 186 134 291 134
c157 0 258 -99 258 -255c0 -111 -49 -223 -140 -311c-78 -75 -178 -116 -279 -116c-152 0 -253 98 -253 263zM435 720h-54l161 159c21 21 37 32 59 32c23 0 44 -22 44 -47c0 -19 -12 -35 -36 -48z" />
    <glyph glyph-name="Ocircumflex" unicode="&#xd4;" horiz-adv-x="774" 
d="M458 638c-103 0 -134 -44 -170 -152c-20 -61 -35 -127 -50 -198c-20 -96 -30 -159 -30 -187c0 -63 27 -89 106 -89c91 0 124 41 157 131c24 65 39 135 54 209c19 93 31 162 31 208c0 54 -28 78 -98 78zM47 247c0 95 44 201 123 285c82 87 186 134 291 134
c157 0 258 -99 258 -255c0 -111 -49 -223 -140 -311c-78 -75 -178 -116 -279 -116c-152 0 -253 98 -253 263zM623 720h-42l-86 91l-127 -91h-54l154 180h75z" />
    <glyph glyph-name="Odieresis" unicode="&#xd6;" horiz-adv-x="774" 
d="M458 638c-103 0 -134 -44 -170 -152c-20 -61 -35 -127 -50 -198c-20 -96 -30 -159 -30 -187c0 -63 27 -89 106 -89c91 0 124 41 157 131c24 65 39 135 54 209c19 93 31 162 31 208c0 54 -28 78 -98 78zM47 247c0 95 44 201 123 285c82 87 186 134 291 134
c157 0 258 -99 258 -255c0 -111 -49 -223 -140 -311c-78 -75 -178 -116 -279 -116c-152 0 -253 98 -253 263zM343 810c0 33 29 63 63 63c35 0 63 -29 63 -63c0 -37 -27 -63 -63 -63c-35 0 -63 27 -63 63zM518 810c0 33 30 63 64 63c35 0 62 -29 62 -63
c0 -37 -26 -63 -62 -63c-35 0 -64 27 -64 63z" />
    <glyph glyph-name="Ograve" unicode="&#xd2;" horiz-adv-x="774" 
d="M458 638c-103 0 -134 -44 -170 -152c-20 -61 -35 -127 -50 -198c-20 -96 -30 -159 -30 -187c0 -63 27 -89 106 -89c91 0 124 41 157 131c24 65 39 135 54 209c19 93 31 162 31 208c0 54 -28 78 -98 78zM47 247c0 95 44 201 123 285c82 87 186 134 291 134
c157 0 258 -99 258 -255c0 -111 -49 -223 -140 -311c-78 -75 -178 -116 -279 -116c-152 0 -253 98 -253 263zM577 720h-54l-139 99c-20 15 -33 27 -33 46c0 27 19 46 44 46c19 0 34 -11 52 -32z" />
    <glyph glyph-name="Oslash" unicode="&#xd8;" horiz-adv-x="774" 
d="M207 102l337 501c-20 21 -53 31 -98 31c-87 0 -129 -52 -160 -155c-49 -160 -73 -289 -79 -377zM216 52c20 -22 56 -36 101 -36c102 0 143 65 176 196c46 183 63 300 63 345zM116 -98h-45l83 132c-74 58 -107 119 -107 206c0 107 47 215 137 303c81 80 180 122 270 122
c33 0 72 -7 117 -19l61 87h44l-70 -103c74 -41 115 -118 115 -216c0 -110 -51 -224 -142 -310c-81 -76 -178 -117 -271 -117c-41 0 -78 9 -116 27z" />
    <glyph glyph-name="Otilde" unicode="&#xd5;" horiz-adv-x="774" 
d="M458 638c-103 0 -134 -44 -170 -152c-20 -61 -35 -127 -50 -198c-20 -96 -30 -159 -30 -187c0 -63 27 -89 106 -89c91 0 124 41 157 131c24 65 39 135 54 209c19 93 31 162 31 208c0 54 -28 78 -98 78zM47 247c0 95 44 201 123 285c82 87 186 134 291 134
c157 0 258 -99 258 -255c0 -111 -49 -223 -140 -311c-78 -75 -178 -116 -279 -116c-152 0 -253 98 -253 263zM646 883c-19 -82 -48 -121 -99 -121c-9 0 -20 0 -31 3l-50 12c-16 4 -28 6 -34 6c-29 0 -45 -14 -58 -46h-33c20 84 46 124 98 124c10 0 24 -2 41 -6l56 -13
c7 -2 14 -2 22 -2c28 0 43 12 55 43h33z" />
    <glyph glyph-name="P" unicode="P" horiz-adv-x="659" 
d="M51 32l126 591h-72v30h313c147 0 226 -58 226 -160c0 -112 -95 -192 -291 -192h-81l-57 -269h86v-32h-329v32h79zM279 331h60c46 0 75 7 92 36c18 30 43 120 43 186c0 59 -18 70 -77 70h-56z" />
    <glyph glyph-name="Q" unicode="Q" horiz-adv-x="774" 
d="M458 638c-111 0 -134 -45 -171 -154c-22 -64 -36 -132 -50 -200c-20 -95 -30 -157 -30 -185c0 -63 26 -87 96 -87c112 0 137 41 169 131c28 79 42 151 55 216c19 94 30 161 30 201c0 54 -29 78 -99 78zM220 -8c-115 35 -175 120 -175 245c0 104 43 210 124 295
c82 87 186 134 292 134c157 0 258 -100 258 -256c0 -182 -127 -358 -321 -416c-2 -21 -4 -41 -4 -58c0 -74 31 -111 95 -111c55 0 82 6 83 7v-34c-41 -10 -85 -15 -128 -15c-143 0 -224 68 -224 175v34z" />
    <glyph glyph-name="R" unicode="R" horiz-adv-x="715" 
d="M51 32l125 591h-72v30h299c171 0 254 -34 254 -144c0 -95 -81 -148 -243 -159v-10c108 -25 147 -64 157 -160c9 -90 -5 -142 49 -142c10 0 26 2 45 10v-32c-34 -21 -71 -30 -115 -30c-101 0 -157 61 -157 181c0 30 1 53 1 69c0 68 -24 98 -84 98h-33l-64 -302h78v-32
h-319v32h79zM284 367h65c43 0 74 10 91 28c22 23 47 111 47 170c0 43 -20 58 -64 58h-85z" />
    <glyph glyph-name="S" unicode="S" horiz-adv-x="551" 
d="M-4 -6l31 203h36c8 -116 74 -181 169 -181c90 0 143 44 143 124c0 72 -56 92 -126 126c-102 49 -159 93 -159 188c0 117 82 212 203 212c52 0 97 -17 138 -49l45 35h22l-23 -179h-40c-2 103 -57 162 -148 162c-66 0 -109 -39 -109 -88c0 -58 58 -81 137 -118
c109 -51 160 -108 160 -197c0 -137 -97 -248 -243 -248c-58 0 -106 16 -155 51l-58 -41h-23z" />
    <glyph glyph-name="Scaron" unicode="&#x160;" horiz-adv-x="551" 
d="M-4 -6l31 203h36c8 -116 74 -181 169 -181c90 0 143 44 143 124c0 72 -56 92 -126 126c-102 49 -159 93 -159 188c0 117 82 212 203 212c52 0 97 -17 138 -49l45 35h22l-23 -179h-40c-2 103 -57 162 -148 162c-66 0 -109 -39 -109 -88c0 -58 58 -81 137 -118
c109 -51 160 -108 160 -197c0 -137 -97 -248 -243 -248c-58 0 -106 16 -155 51l-58 -41h-23zM236 900h41l87 -91l127 91h54l-154 -180h-75z" />
    <glyph glyph-name="T" unicode="T" horiz-adv-x="603" 
d="M147 32l126 591c-96 -1 -163 -56 -212 -172h-33l44 202h563l-16 -197h-32c-12 108 -54 167 -140 167h-7l-125 -591h85v-32h-337v32h84z" />
    <glyph glyph-name="Thorn" unicode="&#xde;" horiz-adv-x="659" 
d="M51 32l126 591h-72v30h308v-30h-72l-24 -114h70c146 0 227 -58 227 -160c0 -112 -96 -192 -292 -192h-80l-27 -125h86v-32h-329v32h79zM248 188h61c46 0 75 7 92 36c18 29 42 120 42 186c0 60 -19 69 -77 69h-56z" />
    <glyph glyph-name="U" unicode="U" horiz-adv-x="715" 
d="M91 252l81 371h-74v30h316v-30h-78l-89 -411c-10 -44 -12 -75 -12 -91c0 -65 40 -100 109 -100c109 0 158 55 182 166l76 350c5 22 6 37 6 44c0 31 -19 42 -65 42h-6v30h191v-30h-3c-60 0 -74 -26 -87 -87l-78 -358c-29 -132 -101 -192 -255 -192
c-148 0 -229 60 -229 162c0 18 4 53 15 104z" />
    <glyph glyph-name="Uacute" unicode="&#xda;" horiz-adv-x="715" 
d="M91 252l81 371h-74v30h316v-30h-78l-89 -411c-10 -44 -12 -75 -12 -91c0 -65 40 -100 109 -100c109 0 158 55 182 166l76 350c5 22 6 37 6 44c0 31 -19 42 -65 42h-6v30h191v-30h-3c-60 0 -74 -26 -87 -87l-78 -358c-29 -132 -101 -192 -255 -192
c-148 0 -229 60 -229 162c0 18 4 53 15 104zM410 720h-54l161 159c21 21 37 32 59 32c23 0 44 -22 44 -47c0 -19 -12 -35 -36 -48z" />
    <glyph glyph-name="Ucircumflex" unicode="&#xdb;" horiz-adv-x="715" 
d="M91 252l81 371h-74v30h316v-30h-78l-89 -411c-10 -44 -12 -75 -12 -91c0 -65 40 -100 109 -100c109 0 158 55 182 166l76 350c5 22 6 37 6 44c0 31 -19 42 -65 42h-6v30h191v-30h-3c-60 0 -74 -26 -87 -87l-78 -358c-29 -132 -101 -192 -255 -192
c-148 0 -229 60 -229 162c0 18 4 53 15 104zM598 720h-42l-86 91l-127 -91h-54l154 180h75z" />
    <glyph glyph-name="Udieresis" unicode="&#xdc;" horiz-adv-x="715" 
d="M91 252l81 371h-74v30h316v-30h-78l-89 -411c-10 -44 -12 -75 -12 -91c0 -65 40 -100 109 -100c109 0 158 55 182 166l76 350c5 22 6 37 6 44c0 31 -19 42 -65 42h-6v30h191v-30h-3c-60 0 -74 -26 -87 -87l-78 -358c-29 -132 -101 -192 -255 -192
c-148 0 -229 60 -229 162c0 18 4 53 15 104zM318 810c0 33 29 63 63 63c35 0 63 -29 63 -63c0 -37 -27 -63 -63 -63c-35 0 -63 27 -63 63zM493 810c0 33 30 63 64 63c35 0 62 -29 62 -63c0 -37 -26 -63 -62 -63c-35 0 -64 27 -64 63z" />
    <glyph glyph-name="Ugrave" unicode="&#xd9;" horiz-adv-x="715" 
d="M91 252l81 371h-74v30h316v-30h-78l-89 -411c-10 -44 -12 -75 -12 -91c0 -65 40 -100 109 -100c109 0 158 55 182 166l76 350c5 22 6 37 6 44c0 31 -19 42 -65 42h-6v30h191v-30h-3c-60 0 -74 -26 -87 -87l-78 -358c-29 -132 -101 -192 -255 -192
c-148 0 -229 60 -229 162c0 18 4 53 15 104zM552 720h-54l-139 99c-20 15 -33 27 -33 46c0 27 19 46 44 46c19 0 34 -11 52 -32z" />
    <glyph glyph-name="V" unicode="V" horiz-adv-x="581" 
d="M166 -15l-60 638h-76v30h308v-30h-72l36 -409l210 345c11 18 18 31 18 41c0 15 -10 23 -30 23h-37v30h179v-30h-3c-40 0 -61 -22 -87 -65l-349 -573h-37z" />
    <glyph glyph-name="W" unicode="W" horiz-adv-x="854" 
d="M161 -15l-55 638h-69v30h688v-30h-4c-38 0 -61 -16 -85 -50l-104 -141l18 -247l259 404c3 5 6 15 6 19c0 12 -15 15 -46 15v30h146v-30c-44 -2 -56 -20 -73 -47l-380 -591h-36l-22 290l-209 -290h-34zM529 480l82 111c6 8 8 14 8 18c0 8 -8 14 -21 14h-81zM289 171
l111 150l-23 302h-120z" />
    <glyph glyph-name="X" unicode="X" horiz-adv-x="659" 
d="M-21 0v32c52 0 79 19 111 59l170 210l-138 322h-77v30h321v-30h-74l83 -197l131 161c6 8 10 15 10 23s-10 13 -28 13h-40v30h205v-30c-4 0 -9 -1 -15 -1c-51 0 -75 -16 -113 -62l-134 -165l151 -363h72v-32h-320v32h77l-98 234l-152 -188c-8 -9 -14 -16 -14 -28
s12 -18 37 -18h37v-32h-202z" />
    <glyph glyph-name="Y" unicode="Y" horiz-adv-x="604" 
d="M67 0v32h85l56 265l-123 326h-59v30h311v-30h-83l107 -287l149 232c9 15 14 26 14 34c0 15 -13 21 -40 21h-32v30h188v-30c-60 -2 -73 -29 -100 -70l-165 -255l-57 -266h89v-32h-340z" />
    <glyph glyph-name="Yacute" unicode="&#xdd;" horiz-adv-x="604" 
d="M67 0v32h85l56 265l-123 326h-59v30h311v-30h-83l107 -287l149 232c9 15 14 26 14 34c0 15 -13 21 -40 21h-32v30h188v-30c-60 -2 -73 -29 -100 -70l-165 -255l-57 -266h89v-32h-340zM340 720h-54l161 159c21 21 37 32 59 32c23 0 44 -22 44 -47c0 -19 -12 -35 -36 -48z
" />
    <glyph glyph-name="Ydieresis" unicode="&#x178;" horiz-adv-x="604" 
d="M67 0v32h85l56 265l-123 326h-59v30h311v-30h-83l107 -287l149 232c9 15 14 26 14 34c0 15 -13 21 -40 21h-32v30h188v-30c-60 -2 -73 -29 -100 -70l-165 -255l-57 -266h89v-32h-340zM248 810c0 33 29 63 63 63c35 0 63 -29 63 -63c0 -37 -27 -63 -63 -63
c-35 0 -63 27 -63 63zM423 810c0 33 30 63 64 63c35 0 62 -29 62 -63c0 -37 -26 -63 -62 -63c-35 0 -64 27 -64 63z" />
    <glyph glyph-name="Z" unicode="Z" horiz-adv-x="604" 
d="M-15 0v32l412 591h-59c-110 0 -177 -38 -240 -151h-36l61 181h464v-30l-411 -591h66c118 0 191 54 272 185h34l-71 -217h-492z" />
    <glyph glyph-name="Zcaron" unicode="&#x17d;" horiz-adv-x="604" 
d="M-15 0v32l412 591h-59c-110 0 -177 -38 -240 -151h-36l61 181h464v-30l-411 -591h66c118 0 191 54 272 185h34l-71 -217h-492zM262 900h41l87 -91l127 91h54l-154 -180h-75z" />
    <glyph glyph-name="a" unicode="a" horiz-adv-x="551" 
d="M385 83c-3 -12 -4 -21 -4 -27c0 -12 4 -19 13 -19c25 0 55 36 87 107l21 -9c-37 -94 -89 -143 -147 -143c-47 0 -75 31 -75 85c0 5 1 9 1 14c-36 -70 -81 -104 -139 -104c-78 0 -138 63 -138 158c0 131 119 257 229 257c56 0 93 -28 101 -77l18 66h111zM255 372
c-37 0 -58 -37 -80 -104c-37 -114 -47 -190 -47 -206c0 -29 16 -44 39 -44c33 0 72 31 101 94c31 67 46 138 46 179c0 54 -21 81 -59 81z" />
    <glyph glyph-name="aacute" unicode="&#xe1;" horiz-adv-x="551" 
d="M385 83c-3 -12 -4 -21 -4 -27c0 -12 4 -19 13 -19c25 0 55 36 87 107l21 -9c-37 -94 -89 -143 -147 -143c-47 0 -75 31 -75 85c0 5 1 9 1 14c-36 -70 -81 -104 -139 -104c-78 0 -138 63 -138 158c0 131 119 257 229 257c56 0 93 -28 101 -77l18 66h111zM255 372
c-37 0 -58 -37 -80 -104c-37 -114 -47 -190 -47 -206c0 -29 16 -44 39 -44c33 0 72 31 101 94c31 67 46 138 46 179c0 54 -21 81 -59 81zM263 456h-54l161 159c21 21 37 32 59 32c23 0 44 -22 44 -47c0 -19 -12 -35 -36 -48z" />
    <glyph glyph-name="acircumflex" unicode="&#xe2;" horiz-adv-x="551" 
d="M385 83c-3 -12 -4 -21 -4 -27c0 -12 4 -19 13 -19c25 0 55 36 87 107l21 -9c-37 -94 -89 -143 -147 -143c-47 0 -75 31 -75 85c0 5 1 9 1 14c-36 -70 -81 -104 -139 -104c-78 0 -138 63 -138 158c0 131 119 257 229 257c56 0 93 -28 101 -77l18 66h111zM255 372
c-37 0 -58 -37 -80 -104c-37 -114 -47 -190 -47 -206c0 -29 16 -44 39 -44c33 0 72 31 101 94c31 67 46 138 46 179c0 54 -21 81 -59 81zM451 456h-42l-86 91l-127 -91h-54l154 180h75z" />
    <glyph glyph-name="acute" unicode="&#xb4;" 
d="M228 456h-54l161 159c21 21 37 32 59 32c23 0 44 -22 44 -47c0 -19 -12 -35 -36 -48z" />
    <glyph glyph-name="adieresis" unicode="&#xe4;" horiz-adv-x="551" 
d="M385 83c-3 -12 -4 -21 -4 -27c0 -12 4 -19 13 -19c25 0 55 36 87 107l21 -9c-37 -94 -89 -143 -147 -143c-47 0 -75 31 -75 85c0 5 1 9 1 14c-36 -70 -81 -104 -139 -104c-78 0 -138 63 -138 158c0 131 119 257 229 257c56 0 93 -28 101 -77l18 66h111zM255 372
c-37 0 -58 -37 -80 -104c-37 -114 -47 -190 -47 -206c0 -29 16 -44 39 -44c33 0 72 31 101 94c31 67 46 138 46 179c0 54 -21 81 -59 81zM171 546c0 33 29 63 63 63c35 0 63 -29 63 -63c0 -37 -27 -63 -63 -63c-35 0 -63 27 -63 63zM346 546c0 33 30 63 64 63
c35 0 62 -29 62 -63c0 -37 -26 -63 -62 -63c-35 0 -64 27 -64 63z" />
    <glyph glyph-name="ae" unicode="&#xe6;" horiz-adv-x="731" 
d="M417 194c10 -2 19 -2 28 -2c82 0 126 47 126 124c0 39 -21 59 -52 59c-51 0 -75 -59 -102 -181zM255 374c-33 0 -47 -26 -68 -78c-46 -111 -60 -215 -60 -229c0 -32 14 -47 43 -47c32 0 64 22 88 66c28 51 52 148 52 204c0 55 -24 84 -55 84zM641 119l18 -19
c-63 -77 -132 -113 -216 -113c-76 0 -125 31 -157 100c-35 -66 -88 -101 -147 -101c-79 0 -134 65 -134 156c0 62 24 123 68 174c49 57 110 86 162 86c51 0 79 -22 94 -71l16 60h91l-16 -61c40 49 76 72 126 72c72 0 122 -46 122 -112c0 -81 -69 -127 -199 -127
c-9 0 -30 2 -61 4c-11 -41 -18 -71 -18 -90c0 -40 24 -61 69 -61c60 0 125 34 182 103z" />
    <glyph glyph-name="agrave" unicode="&#xe0;" horiz-adv-x="551" 
d="M385 83c-3 -12 -4 -21 -4 -27c0 -12 4 -19 13 -19c25 0 55 36 87 107l21 -9c-37 -94 -89 -143 -147 -143c-47 0 -75 31 -75 85c0 5 1 9 1 14c-36 -70 -81 -104 -139 -104c-78 0 -138 63 -138 158c0 131 119 257 229 257c56 0 93 -28 101 -77l18 66h111zM255 372
c-37 0 -58 -37 -80 -104c-37 -114 -47 -190 -47 -206c0 -29 16 -44 39 -44c33 0 72 31 101 94c31 67 46 138 46 179c0 54 -21 81 -59 81zM405 456h-54l-139 99c-20 15 -33 27 -33 46c0 27 19 46 44 46c19 0 34 -11 52 -32z" />
    <glyph glyph-name="ampersand" unicode="&#x26;" horiz-adv-x="767" 
d="M402 56c-61 -47 -118 -71 -184 -71c-118 0 -196 72 -196 178c0 94 75 168 222 215c-13 46 -23 83 -23 115c0 102 86 173 222 173c94 0 151 -41 151 -100c0 -69 -67 -115 -202 -161c24 -62 52 -129 85 -200c68 115 89 204 176 204c50 0 81 -31 81 -72
c0 -35 -25 -62 -59 -62c-40 0 -63 25 -63 57c0 9 3 16 3 20s-2 7 -6 7c-33 0 -50 -78 -116 -184c36 -84 76 -127 124 -127c33 0 67 22 103 65l18 -20c-48 -74 -105 -108 -187 -108c-68 0 -118 23 -149 71zM384 426c73 34 106 82 106 156c0 37 -23 58 -65 58
c-47 0 -78 -29 -78 -73c0 -28 13 -75 37 -141zM252 354c-53 -18 -77 -54 -77 -115c0 -114 51 -200 119 -200c29 0 60 13 90 39c-53 76 -98 169 -132 276z" />
    <glyph glyph-name="aring" unicode="&#xe5;" horiz-adv-x="551" 
d="M385 83c-3 -12 -4 -21 -4 -27c0 -12 4 -19 13 -19c25 0 55 36 87 107l21 -9c-37 -94 -89 -143 -147 -143c-47 0 -75 31 -75 85c0 5 1 9 1 14c-36 -70 -81 -104 -139 -104c-78 0 -138 63 -138 158c0 131 119 257 229 257c56 0 93 -28 101 -77l18 66h111zM255 372
c-37 0 -58 -37 -80 -104c-37 -114 -47 -190 -47 -206c0 -29 16 -44 39 -44c33 0 72 31 101 94c31 67 46 138 46 179c0 54 -21 81 -59 81zM238 559c0 -36 29 -65 66 -65c36 0 65 29 65 65c0 38 -29 66 -65 66c-37 0 -66 -28 -66 -66zM178 560c0 70 56 126 126 126
s126 -56 126 -126c0 -71 -56 -126 -126 -126s-126 55 -126 126z" />
    <glyph glyph-name="asciicircum" unicode="^" horiz-adv-x="1000" 
d="M442 714h115l240 -276h-55l-243 182l-243 -182h-55z" />
    <glyph glyph-name="asciitilde" unicode="~" horiz-adv-x="833" 
d="M747 392v-108c-65 -44 -124 -67 -185 -67c-30 0 -60 5 -90 15c-69 23 -130 49 -197 49c-59 0 -118 -27 -188 -77v108c70 47 133 70 189 70c58 0 102 -15 144 -29c48 -16 93 -36 144 -36c59 0 116 26 183 75z" />
    <glyph glyph-name="asterisk" unicode="*" 
d="M282 441c0 -75 45 -115 45 -148c0 -29 -18 -48 -53 -48c-34 0 -53 20 -53 49c0 31 43 72 46 147c-78 -42 -76 -119 -133 -119c-27 0 -51 29 -51 56c0 28 25 50 50 50c52 0 96 9 125 26c-28 17 -64 27 -104 27c-48 0 -72 19 -72 51c0 27 24 57 53 57c51 0 55 -75 131 -120
c0 75 -46 115 -46 148c0 28 19 49 53 49c32 0 53 -21 53 -50c0 -31 -42 -72 -45 -147c78 42 76 120 133 120c27 0 51 -30 51 -57c0 -28 -25 -49 -50 -49c-52 0 -96 -10 -125 -27c28 -17 63 -27 103 -27c48 0 72 -19 72 -51c0 -27 -24 -57 -53 -57c-51 0 -54 75 -130 120z
" />
    <glyph glyph-name="at" unicode="@" horiz-adv-x="986" 
d="M546 463c-42 0 -73 -30 -104 -92c-39 -77 -57 -143 -57 -194c0 -53 25 -84 62 -84c41 0 81 40 117 119c30 68 42 132 42 170c0 52 -22 81 -60 81zM574 156c-40 -65 -86 -96 -144 -96c-92 0 -148 63 -148 167c0 74 33 146 95 204c45 42 98 64 151 64c62 0 97 -29 108 -89
l24 80h93l-85 -302c-4 -16 -8 -31 -8 -46c0 -31 15 -49 37 -49c18 0 56 15 89 43c67 57 104 143 104 245c0 180 -136 301 -331 301c-88 0 -170 -24 -239 -73c-113 -79 -176 -205 -176 -354c0 -219 149 -356 379 -356c109 0 207 33 306 101l19 -25
c-98 -73 -207 -110 -325 -110c-126 0 -232 33 -305 87c-98 73 -153 184 -153 313c0 102 35 197 100 275c94 113 229 176 382 176c228 0 375 -134 375 -338c0 -106 -40 -198 -112 -263c-39 -35 -84 -53 -129 -53c-63 0 -102 35 -107 98z" />
    <glyph glyph-name="atilde" unicode="&#xe3;" horiz-adv-x="551" 
d="M385 83c-3 -12 -4 -21 -4 -27c0 -12 4 -19 13 -19c25 0 55 36 87 107l21 -9c-37 -94 -89 -143 -147 -143c-47 0 -75 31 -75 85c0 5 1 9 1 14c-36 -70 -81 -104 -139 -104c-78 0 -138 63 -138 158c0 131 119 257 229 257c56 0 93 -28 101 -77l18 66h111zM255 372
c-37 0 -58 -37 -80 -104c-37 -114 -47 -190 -47 -206c0 -29 16 -44 39 -44c33 0 72 31 101 94c31 67 46 138 46 179c0 54 -21 81 -59 81zM474 619c-19 -82 -48 -121 -99 -121c-9 0 -20 0 -31 3l-50 12c-16 4 -28 6 -34 6c-29 0 -45 -14 -58 -46h-33c20 84 46 124 98 124
c10 0 24 -2 41 -6l56 -13c7 -2 14 -2 22 -2c28 0 43 12 55 43h33z" />
    <glyph glyph-name="b" unicode="b" horiz-adv-x="546" 
d="M31 170l106 455h-80v28h26c63 0 127 3 193 10l-76 -330c34 47 74 70 123 70c84 0 145 -67 145 -153c0 -144 -122 -263 -285 -263c-101 0 -159 51 -159 122c0 20 2 40 7 61zM170 229l-31 -135c-3 -13 -6 -26 -6 -37c0 -31 21 -47 59 -47c61 0 79 37 99 105
c38 128 46 213 46 222c0 24 -12 37 -30 37c-64 0 -121 -75 -137 -145z" />
    <glyph glyph-name="backslash" unicode="\" horiz-adv-x="273" 
d="M106 666l118 -759h-53l-119 759h54z" />
    <glyph glyph-name="bar" unicode="|" 
d="M200 764h101v-1000h-101v1000z" />
    <glyph glyph-name="braceleft" unicode="{" 
d="M416 740v-30c-86 -1 -102 -36 -102 -129v-65c0 -124 -14 -181 -122 -206c108 -24 122 -80 122 -205v-66c0 -93 16 -128 102 -129v-29c-154 0 -198 39 -198 169v94c0 103 -25 138 -131 148v37c106 10 131 45 131 148v94c0 130 44 169 198 169z" />
    <glyph glyph-name="braceright" unicode="}" 
d="M84 740c154 0 199 -39 199 -169v-94c0 -103 25 -138 131 -148v-37c-106 -10 -131 -45 -131 -148v-94c0 -128 -45 -169 -193 -169h-6v29c85 1 102 36 102 129v66c0 125 14 181 122 205c-108 25 -122 82 -122 206v65c0 93 -17 128 -102 129v30z" />
    <glyph glyph-name="bracketleft" unicode="[" horiz-adv-x="370" 
d="M420 653l-7 -31h-136l-177 -797h137l-7 -31h-245l190 859h245z" />
    <glyph glyph-name="bracketright" unicode="]" horiz-adv-x="370" 
d="M-106 -206l7 31h136l177 797h-136l6 31h245l-190 -859h-245z" />
    <glyph glyph-name="breve" unicode="&#x2d8;" 
d="M146 620h39c4 -42 34 -64 88 -64s102 22 143 64l42 -1c-60 -99 -118 -146 -197 -146c-77 0 -114 48 -115 147z" />
    <glyph glyph-name="brokenbar" unicode="&#xa6;" 
d="M200 699h101v-370h-101v370zM200 199h101v-370h-101v370z" />
    <glyph glyph-name="bullet" unicode="&#x2022;" horiz-adv-x="590" 
d="M150 372c0 80 65 144 145 144c79 0 144 -64 144 -144c0 -79 -65 -145 -145 -145s-144 65 -144 145z" />
    <glyph glyph-name="c" unicode="c" horiz-adv-x="492" 
d="M378 117l17 -13c-53 -79 -119 -117 -204 -117c-111 0 -177 67 -177 161c0 130 133 253 279 253c76 0 125 -39 125 -89c0 -40 -24 -66 -64 -66c-34 0 -56 24 -56 51c0 24 9 41 9 57c0 12 -11 22 -28 22c-37 0 -55 -22 -77 -79c-37 -98 -53 -206 -53 -235
c0 -28 19 -46 55 -46c66 0 128 35 174 101z" />
    <glyph glyph-name="caron" unicode="&#x2c7;" 
d="M150 636h41l87 -91l127 91h54l-154 -180h-75z" />
    <glyph glyph-name="ccedilla" unicode="&#xe7;" horiz-adv-x="492" 
d="M378 117l17 -13c-53 -79 -119 -117 -204 -117c-111 0 -177 67 -177 161c0 130 133 253 279 253c76 0 125 -39 125 -89c0 -40 -24 -66 -64 -66c-34 0 -56 24 -56 51c0 24 9 41 9 57c0 12 -11 22 -28 22c-37 0 -55 -22 -77 -79c-37 -98 -53 -206 -53 -235
c0 -28 19 -46 55 -46c66 0 128 35 174 101zM16 -186l23 48c46 -25 84 -39 118 -39c22 0 43 15 43 40c0 26 -15 40 -45 40c-11 0 -26 -2 -47 -6l33 103h37l-18 -57c18 2 30 3 36 3c52 0 88 -34 88 -84c0 -57 -41 -91 -114 -91c-41 0 -92 15 -154 43z" />
    <glyph glyph-name="cedilla" unicode="&#xb8;" 
d="M27 -186l23 48c46 -25 84 -39 118 -39c22 0 43 15 43 40c0 26 -15 40 -45 40c-11 0 -26 -2 -47 -6l33 103h37l-18 -57c18 2 30 3 36 3c52 0 88 -34 88 -84c0 -57 -41 -91 -114 -91c-41 0 -92 15 -154 43z" />
    <glyph glyph-name="cent" unicode="&#xa2;" horiz-adv-x="606" 
d="M428 118l18 -14c-49 -76 -129 -119 -199 -119c-3 0 -8 1 -13 1l-60 -123h-41l61 127c-79 19 -129 84 -129 161c0 66 33 128 98 182c54 45 116 68 175 68c19 0 36 -2 54 -8l55 114h42l-62 -128c26 -14 42 -36 42 -67c0 -39 -22 -65 -62 -65c-16 0 -27 3 -38 13l-120 -244
c4 0 7 1 8 1c63 0 132 37 171 101zM212 27l138 280v5c0 20 11 29 11 37c0 17 -12 25 -36 25c-32 0 -50 -24 -70 -78c-44 -123 -56 -213 -56 -236c0 -13 2 -21 13 -33z" />
    <glyph glyph-name="circumflex" unicode="&#x2c6;" 
d="M416 456h-42l-86 91l-127 -91h-54l154 180h75z" />
    <glyph glyph-name="colon" unicode=":" horiz-adv-x="329" 
d="M30 66c0 43 35 79 79 79c43 0 78 -36 78 -79s-36 -79 -79 -79s-78 35 -78 79zM80 324c0 43 35 78 79 78c43 0 78 -35 78 -78s-35 -79 -78 -79s-79 35 -79 79z" />
    <glyph glyph-name="comma" unicode="," horiz-adv-x="303" 
d="M27 -180l-11 21c101 48 151 99 151 162c0 14 -2 24 -12 35c-6 -31 -30 -50 -61 -50c-40 0 -74 28 -74 75c0 51 34 82 83 82c64 0 107 -50 107 -120c0 -83 -63 -157 -183 -205z" />
    <glyph glyph-name="copyright" unicode="&#xa9;" horiz-adv-x="822" 
d="M412 690c93 0 184 -39 251 -105c66 -66 106 -160 106 -254c0 -93 -38 -184 -106 -253c-67 -68 -156 -104 -252 -104s-183 36 -252 104c-68 68 -105 157 -105 253c0 95 36 185 104 253c67 67 159 106 254 106zM412 639c-82 0 -159 -32 -217 -91s-89 -135 -89 -217
c0 -83 31 -159 89 -217c59 -59 133 -89 216 -89c82 0 158 31 215 89c58 59 90 137 90 217c0 82 -32 162 -89 218c-57 57 -136 90 -215 90zM550 538h22v-159h-23c-21 87 -69 133 -129 133c-77 0 -114 -58 -114 -178c0 -121 42 -184 120 -184c51 0 96 28 133 85l22 -14
c-41 -70 -99 -105 -170 -105c-122 0 -211 92 -211 208c0 126 90 216 208 216c66 0 96 -32 114 -32c15 0 24 9 28 30z" />
    <glyph glyph-name="currency" unicode="&#xa4;" horiz-adv-x="606" 
d="M84 702l100 -99c33 24 71 38 119 38c45 0 85 -12 121 -38l99 99l51 -52l-99 -100c24 -34 37 -73 37 -118c0 -43 -12 -82 -37 -118l99 -100l-51 -51l-99 99c-33 -24 -72 -38 -120 -38c-46 0 -85 12 -120 38l-100 -99l-51 51l99 100c-25 35 -37 73 -37 118s13 84 37 118
l-99 100zM304 567c-74 0 -135 -62 -135 -135c0 -74 60 -134 135 -134c74 0 135 60 135 134c0 73 -61 135 -135 135z" />
    <glyph glyph-name="d" unicode="d" horiz-adv-x="566" 
d="M296 85c-40 -66 -87 -98 -144 -98c-84 0 -141 66 -141 156c0 52 24 117 68 169c49 58 113 89 169 89c50 0 84 -25 94 -69l68 293h-80v28h27c65 0 129 3 191 10l-134 -571c-5 -20 -8 -34 -8 -45c0 -14 5 -20 16 -20c20 0 56 34 86 106l20 -9c-31 -89 -86 -137 -154 -137
c-52 0 -79 27 -79 83c0 5 1 10 1 15zM262 377c-40 0 -58 -43 -80 -115c-37 -117 -45 -204 -45 -212c0 -23 13 -35 37 -35c71 0 154 126 154 264c0 65 -26 98 -66 98z" />
    <glyph glyph-name="dagger" unicode="&#x2020;" 
d="M123 -176c35 187 48 312 48 372c0 13 -1 31 -2 53c44 51 73 109 84 173c-58 -1 -92 -41 -131 -41c-33 0 -56 20 -56 52c0 34 21 55 50 55c43 0 84 -36 142 -41c5 25 7 48 7 70c0 43 -10 76 -10 100c0 29 18 49 49 49c38 0 58 -17 58 -45c0 -49 -60 -86 -75 -175
c64 4 101 39 136 39c31 0 53 -20 53 -51s-18 -52 -47 -52c-38 0 -76 38 -145 38h-3c-3 -27 -4 -51 -4 -73c0 -35 4 -66 19 -97c-65 -130 -107 -272 -143 -426h-30z" />
    <glyph glyph-name="daggerdbl" unicode="&#x2021;" 
d="M163 249c44 51 72 109 83 173c-58 -1 -91 -41 -130 -41c-33 0 -57 20 -57 52c0 34 21 55 50 55c43 0 84 -36 142 -41c5 25 7 48 7 70c0 43 -9 76 -9 100c0 29 18 49 49 49c38 0 58 -17 58 -45c0 -49 -60 -86 -75 -175c64 4 101 39 136 39c31 0 53 -20 53 -51
s-18 -52 -47 -52c-38 0 -76 38 -145 38h-3c-3 -27 -5 -51 -5 -73c0 -35 4 -66 19 -97c-46 -61 -74 -119 -84 -178c58 1 92 41 131 41c33 0 56 -21 56 -53c0 -34 -21 -54 -50 -54c-43 0 -84 36 -142 41c-5 -25 -7 -49 -7 -71c0 -43 10 -75 10 -99c0 -29 -18 -49 -49 -49
c-38 0 -58 17 -58 45c0 49 60 85 75 174c-64 -4 -101 -39 -136 -39c-31 0 -53 21 -53 52s17 52 46 52c38 0 76 -39 145 -39h3c3 29 5 53 5 72c0 37 -5 71 -18 104z" />
    <glyph glyph-name="degree" unicode="&#xb0;" horiz-adv-x="329" 
d="M165 715c82 0 148 -67 148 -149c0 -81 -66 -148 -149 -148c-82 0 -147 65 -147 148s66 149 148 149zM165 652c-47 0 -86 -38 -86 -85c0 -48 38 -86 86 -86s85 40 85 86c0 47 -38 85 -85 85z" />
    <glyph glyph-name="dieresis" unicode="&#xa8;" 
d="M136 546c0 33 29 63 63 63c35 0 63 -29 63 -63c0 -37 -27 -63 -63 -63c-35 0 -63 27 -63 63zM311 546c0 33 30 63 64 63c35 0 62 -29 62 -63c0 -37 -26 -63 -62 -63c-35 0 -64 27 -64 63z" />
    <glyph glyph-name="divide" unicode="&#xf7;" horiz-adv-x="833" 
d="M417 564c40 0 74 -33 74 -74c0 -40 -32 -74 -74 -74c-41 0 -74 33 -74 74c0 42 34 74 74 74zM124 347h585v-97h-585v97zM417 180c40 0 74 -33 74 -74c0 -39 -33 -73 -74 -73s-74 32 -74 73c0 42 34 74 74 74z" />
    <glyph glyph-name="dollar" unicode="$" horiz-adv-x="606" 
d="M174 38l56 260c-80 28 -125 85 -125 159c0 94 75 176 201 193l13 60h29l-11 -57c10 1 19 1 28 1c16 0 31 -1 45 -3l12 59h30l-13 -65c69 -15 113 -65 113 -120c0 -35 -27 -63 -58 -63c-29 0 -54 22 -54 53c0 45 39 52 39 69c0 12 -16 25 -47 33l-47 -220
c83 -28 129 -89 129 -172c0 -115 -83 -209 -214 -223l-24 -113h-29l23 111c-16 -1 -27 -1 -32 -1c-12 0 -26 2 -41 4l-25 -114h-29l25 118c-83 14 -135 71 -135 129c0 45 30 78 69 78c37 0 61 -24 61 -61c0 -42 -32 -61 -47 -61c-2 0 -9 -7 -9 -14c0 -15 24 -34 67 -40z
M307 34c81 9 130 63 130 126c0 50 -28 86 -80 102zM203 32c16 -2 30 -4 42 -4c6 0 16 0 31 1l52 241c-25 6 -48 13 -69 19zM287 422c24 -5 47 -11 70 -17l47 219c-18 1 -35 2 -53 2h-20zM259 429l41 193c-78 -14 -117 -49 -117 -105c0 -44 28 -77 76 -88z" />
    <glyph glyph-name="dotaccent" unicode="&#x2d9;" 
d="M221 547c0 34 31 65 66 65c36 0 66 -29 66 -65c0 -38 -28 -67 -66 -67c-37 0 -66 30 -66 67z" />
    <glyph glyph-name="dotlessi" unicode="&#x131;" horiz-adv-x="294" 
d="M15 111l59 249h-69v28c69 1 140 6 210 14l-74 -322c-4 -18 -5 -29 -5 -31c0 -11 5 -16 16 -16c25 0 55 38 89 113l21 -9c-40 -100 -87 -145 -166 -145c-58 0 -88 26 -88 70c0 9 2 27 7 49z" />
    <glyph glyph-name="e" unicode="e" horiz-adv-x="493" 
d="M162 173c-14 -56 -19 -93 -19 -108c0 -34 17 -49 56 -49c69 0 141 40 200 115l17 -14c-68 -87 -139 -130 -223 -130c-117 0 -187 69 -187 158c0 57 27 120 79 171c56 55 129 86 201 86c88 0 141 -46 141 -106c0 -78 -74 -127 -202 -127c-20 0 -41 2 -63 4zM167 197
c13 -1 25 -3 37 -3c79 0 119 47 119 130c0 36 -17 53 -54 53c-51 0 -71 -58 -102 -180z" />
    <glyph glyph-name="eacute" unicode="&#xe9;" horiz-adv-x="493" 
d="M162 173c-14 -56 -19 -93 -19 -108c0 -34 17 -49 56 -49c69 0 141 40 200 115l17 -14c-68 -87 -139 -130 -223 -130c-117 0 -187 69 -187 158c0 57 27 120 79 171c56 55 129 86 201 86c88 0 141 -46 141 -106c0 -78 -74 -127 -202 -127c-20 0 -41 2 -63 4zM167 197
c13 -1 25 -3 37 -3c79 0 119 47 119 130c0 36 -17 53 -54 53c-51 0 -71 -58 -102 -180zM241 456h-54l161 159c21 21 37 32 59 32c23 0 44 -22 44 -47c0 -19 -12 -35 -36 -48z" />
    <glyph glyph-name="ecircumflex" unicode="&#xea;" horiz-adv-x="493" 
d="M162 173c-14 -56 -19 -93 -19 -108c0 -34 17 -49 56 -49c69 0 141 40 200 115l17 -14c-68 -87 -139 -130 -223 -130c-117 0 -187 69 -187 158c0 57 27 120 79 171c56 55 129 86 201 86c88 0 141 -46 141 -106c0 -78 -74 -127 -202 -127c-20 0 -41 2 -63 4zM167 197
c13 -1 25 -3 37 -3c79 0 119 47 119 130c0 36 -17 53 -54 53c-51 0 -71 -58 -102 -180zM429 456h-42l-86 91l-127 -91h-54l154 180h75z" />
    <glyph glyph-name="edieresis" unicode="&#xeb;" horiz-adv-x="493" 
d="M162 173c-14 -56 -19 -93 -19 -108c0 -34 17 -49 56 -49c69 0 141 40 200 115l17 -14c-68 -87 -139 -130 -223 -130c-117 0 -187 69 -187 158c0 57 27 120 79 171c56 55 129 86 201 86c88 0 141 -46 141 -106c0 -78 -74 -127 -202 -127c-20 0 -41 2 -63 4zM167 197
c13 -1 25 -3 37 -3c79 0 119 47 119 130c0 36 -17 53 -54 53c-51 0 -71 -58 -102 -180zM149 546c0 33 29 63 63 63c35 0 63 -29 63 -63c0 -37 -27 -63 -63 -63c-35 0 -63 27 -63 63zM324 546c0 33 30 63 64 63c35 0 62 -29 62 -63c0 -37 -26 -63 -62 -63
c-35 0 -64 27 -64 63z" />
    <glyph glyph-name="egrave" unicode="&#xe8;" horiz-adv-x="493" 
d="M162 173c-14 -56 -19 -93 -19 -108c0 -34 17 -49 56 -49c69 0 141 40 200 115l17 -14c-68 -87 -139 -130 -223 -130c-117 0 -187 69 -187 158c0 57 27 120 79 171c56 55 129 86 201 86c88 0 141 -46 141 -106c0 -78 -74 -127 -202 -127c-20 0 -41 2 -63 4zM167 197
c13 -1 25 -3 37 -3c79 0 119 47 119 130c0 36 -17 53 -54 53c-51 0 -71 -58 -102 -180zM383 456h-54l-139 99c-20 15 -33 27 -33 46c0 27 19 46 44 46c19 0 34 -11 52 -32z" />
    <glyph glyph-name="eight" unicode="8" horiz-adv-x="606" 
d="M367 341v-7c108 -24 160 -69 160 -148c0 -113 -104 -198 -285 -198c-149 0 -227 58 -227 159c0 100 79 171 232 194v7c-90 18 -135 62 -135 131c0 100 104 185 253 185c127 0 202 -61 202 -144c0 -85 -73 -158 -200 -179zM363 639c-42 0 -65 -19 -80 -60
c-16 -43 -27 -108 -27 -153c0 -49 19 -72 59 -72c37 0 57 15 77 63c19 45 35 124 35 166c0 36 -23 56 -64 56zM300 323c-47 0 -78 -22 -97 -68c-22 -52 -37 -127 -37 -178c0 -43 20 -62 72 -62c49 0 81 18 97 53c24 53 40 128 40 177c0 51 -26 78 -75 78z" />
    <glyph glyph-name="ellipsis" unicode="&#x2026;" horiz-adv-x="1000" 
d="M45 66c0 43 35 79 79 79c43 0 78 -36 78 -79s-36 -79 -79 -79s-78 35 -78 79zM378 66c0 43 35 79 79 79c43 0 78 -36 78 -79s-36 -79 -79 -79s-78 35 -78 79zM712 66c0 43 35 79 79 79c43 0 78 -36 78 -79s-36 -79 -79 -79s-78 35 -78 79z" />
    <glyph glyph-name="emdash" unicode="&#x2014;" horiz-adv-x="1000" 
d="M978 241l-18 -85h-1000l18 85h1000z" />
    <glyph glyph-name="endash" unicode="&#x2013;" 
d="M-40 156l18 85h500l-18 -85h-500z" />
    <glyph glyph-name="equal" unicode="=" horiz-adv-x="833" 
d="M124 452h585v-97h-585v97zM124 242h585v-97h-585v97z" />
    <glyph glyph-name="eth" unicode="&#xf0;" horiz-adv-x="546" 
d="M283 378c-58 0 -75 -27 -93 -86c-35 -112 -45 -203 -45 -226c0 -38 19 -55 60 -55c50 0 71 23 88 77c38 123 47 213 47 235c0 37 -18 55 -57 55zM349 590l118 52l14 -41l-101 -45c66 -81 101 -184 101 -287c0 -169 -129 -282 -290 -282c-111 0 -183 70 -183 165
c0 126 127 249 282 249c7 0 24 -1 51 -4v10c0 16 -9 65 -36 116l-144 -64l-13 39l139 63c-20 30 -45 54 -75 72l23 30c53 -20 87 -48 114 -73z" />
    <glyph glyph-name="exclam" unicode="!" horiz-adv-x="329" 
d="M116 201c16 75 23 148 23 219c0 55 -5 97 -5 126c0 79 29 120 84 120c45 0 77 -32 77 -76c0 -55 -42 -101 -79 -173c-26 -51 -51 -125 -71 -221zM26 66c0 43 35 79 79 79c43 0 78 -36 78 -79s-35 -79 -78 -79s-79 35 -79 79z" />
    <glyph glyph-name="exclamdown" unicode="&#xa1;" horiz-adv-x="329" 
d="M298 587c0 -43 -35 -79 -79 -79c-43 0 -78 36 -78 79s35 79 78 79s79 -35 79 -79zM209 451c-16 -75 -24 -148 -24 -219c0 -55 6 -96 6 -125c0 -79 -30 -120 -85 -120c-45 0 -77 32 -77 76c0 55 42 101 79 173c26 51 51 124 71 220z" />
    <glyph glyph-name="f" unicode="f" horiz-adv-x="326" 
d="M5 360v28h97c52 182 145 275 253 275c63 0 103 -41 103 -88c0 -35 -22 -59 -55 -59c-36 0 -59 20 -59 51c0 28 18 41 18 53c0 13 -6 17 -22 17c-60 0 -83 -84 -111 -249h103v-28h-108c-36 -172 -60 -293 -86 -360c-55 -142 -144 -215 -228 -215c-69 0 -108 40 -108 88
c0 35 21 59 54 59c36 0 60 -20 60 -51c0 -28 -18 -41 -18 -53c0 -13 6 -17 22 -17c90 0 87 183 174 549h-89z" />
    <glyph glyph-name="fi" unicode="&#xfb01;" horiz-adv-x="597" 
d="M3 360v28h98c47 182 149 275 292 275c80 0 125 -35 125 -85c0 -34 -23 -59 -61 -59c-33 0 -54 22 -54 52c0 20 14 31 14 43c0 13 -13 20 -37 20c-67 0 -113 -58 -136 -170l-16 -76h103c54 0 115 5 183 14l-73 -318c-4 -16 -5 -27 -5 -33c0 -7 6 -13 16 -13
c28 0 62 36 90 107l22 -10c-35 -96 -90 -142 -173 -142c-56 0 -86 28 -86 69c0 7 2 29 9 57l59 241h-151c-36 -173 -60 -294 -85 -360c-55 -142 -144 -215 -228 -215c-69 0 -109 40 -109 88c0 35 22 59 55 59c36 0 59 -20 59 -51c0 -28 -18 -41 -18 -53c0 -13 7 -17 23 -17
c90 0 87 182 174 549h-90z" />
    <glyph glyph-name="five" unicode="5" horiz-adv-x="606" 
d="M105 353l77 258c10 33 32 48 68 48h242c23 0 29 7 44 33h27c-42 -136 -70 -150 -162 -150h-205l-57 -181c63 20 119 34 173 34c131 0 209 -73 209 -176c0 -120 -125 -232 -311 -232c-112 0 -175 53 -175 122c0 50 32 82 73 82c43 0 72 -27 72 -64c0 -58 -56 -58 -56 -83
c0 -16 26 -28 73 -28c96 0 158 88 158 230c0 70 -39 105 -116 105c-64 0 -104 -23 -119 -23c-11 0 -17 5 -17 15c0 3 1 6 2 10z" />
    <glyph glyph-name="fl" unicode="&#xfb02;" horiz-adv-x="613" 
d="M4 360v28h97c39 178 148 275 281 275c27 0 51 -4 76 -14l124 14l-132 -580c-3 -14 -6 -22 -6 -24c0 -14 4 -21 15 -21c28 0 62 36 90 106l21 -10c-33 -93 -89 -141 -165 -141c-55 0 -88 28 -88 75c0 17 4 34 8 51l96 413c-15 5 -24 18 -24 35c0 21 16 33 16 46
s-12 21 -32 21c-72 0 -116 -56 -138 -170l-15 -76h91v-28h-97c-36 -172 -59 -293 -85 -360c-55 -142 -144 -215 -228 -215c-69 0 -109 40 -109 88c0 35 22 59 55 59c36 0 59 -20 59 -51c0 -28 -18 -41 -18 -53c0 -13 7 -17 23 -17c90 0 87 183 174 549h-89z" />
    <glyph glyph-name="florin" unicode="&#x192;" horiz-adv-x="606" 
d="M128 356v28h110c50 185 147 282 265 282c71 0 113 -41 113 -92c0 -36 -23 -61 -57 -61c-38 0 -64 20 -64 53c0 29 19 41 19 56c0 11 -8 17 -22 17c-63 0 -83 -83 -110 -255h114v-28h-119c-33 -169 -54 -293 -85 -369c-54 -133 -140 -203 -239 -203c-71 0 -113 41 -113 92
c0 36 23 61 57 61c38 0 63 -20 63 -53c0 -29 -18 -41 -18 -56c0 -11 7 -16 21 -16c94 0 86 179 168 544h-103z" />
    <glyph glyph-name="four" unicode="4" horiz-adv-x="606" 
d="M239 30l34 152h-254v51c127 151 269 292 426 431h89l-102 -446h100l17 72h27l-42 -185h-27l17 77h-100l-35 -152h87v-30h-319v30h82zM47 215h237l77 331c-117 -104 -219 -214 -314 -331z" />
    <glyph glyph-name="fraction" unicode="&#x2044;" horiz-adv-x="167" 
d="M274 666h54l-447 -679h-53z" />
    <glyph glyph-name="g" unicode="g" horiz-adv-x="493" 
d="M397 324c7 64 32 97 69 97c26 0 41 -17 41 -41c0 -25 -14 -41 -37 -41c-18 0 -24 12 -35 12c-17 0 -17 -28 -24 -69c-16 -99 -92 -150 -202 -150c-45 0 -84 10 -123 34c-27 -14 -41 -30 -41 -47c0 -23 32 -33 99 -35l120 -4c83 -2 127 -22 127 -99
c0 -96 -99 -197 -274 -197c-115 0 -179 44 -179 107c0 43 31 74 94 94c-36 22 -53 48 -53 84c0 49 28 80 87 115c-19 20 -27 39 -27 65c0 83 84 153 200 153c73 0 123 -24 158 -78zM140 -35c-23 1 -48 2 -75 9c-34 -15 -53 -45 -53 -78c0 -50 42 -85 117 -85
c118 0 204 60 204 111c0 44 -31 39 -109 41zM248 377c-28 0 -41 -8 -52 -30c-19 -40 -36 -130 -36 -155c0 -22 16 -34 46 -34c29 0 41 10 52 38c19 45 32 123 32 143c0 24 -16 38 -42 38z" />
    <glyph glyph-name="germandbls" unicode="&#xdf;" horiz-adv-x="550" 
d="M175 309c-31 -163 -59 -275 -88 -339c-55 -122 -138 -185 -215 -185c-69 0 -108 40 -108 88c0 35 21 59 54 59c36 0 60 -20 60 -51c0 -28 -18 -41 -18 -53c0 -13 6 -17 22 -17c64 0 78 88 107 231c37 187 63 325 98 415c54 137 137 207 245 207c101 0 168 -55 168 -141
c0 -87 -57 -143 -173 -168v-7c100 -16 151 -68 151 -155c0 -117 -85 -207 -212 -207c-71 0 -111 34 -111 80c0 35 24 63 56 63c28 0 49 -19 49 -45c0 -34 -34 -40 -34 -51c0 -9 12 -16 33 -16c16 0 31 14 42 42c22 54 40 150 40 206c0 46 -12 66 -53 72c-33 5 -44 2 -44 17
c0 11 9 14 30 14c34 0 52 1 66 42c24 70 34 140 34 160c0 45 -20 66 -62 66c-60 0 -84 -52 -109 -181z" />
    <glyph glyph-name="grave" unicode="`" 
d="M370 456h-54l-139 99c-20 15 -33 27 -33 46c0 27 19 46 44 46c19 0 34 -11 52 -32z" />
    <glyph glyph-name="greater" unicode="&#x3e;" horiz-adv-x="833" 
d="M129 583l575 -236v-97l-575 -237v107l437 178l-437 178v107z" />
    <glyph glyph-name="guillemotleft" unicode="&#xab;" horiz-adv-x="484" 
d="M170 190v9c64 37 106 72 135 95l51 41c5 4 11 11 18 11c4 0 7 -4 7 -10c0 -11 -6 -17 -18 -31l-33 -39c-16 -19 -38 -45 -68 -75l20 -36c30 -55 43 -100 43 -106c0 -3 -4 -6 -7 -6c-14 0 -30 34 -104 105zM19 190v9c64 37 106 72 135 95l51 41c5 4 11 11 18 11
c4 0 8 -4 8 -10c0 -11 -7 -17 -19 -31l-33 -39c-16 -19 -38 -45 -68 -75l20 -36c30 -55 43 -100 43 -106c0 -3 -4 -6 -7 -6c-14 0 -30 34 -104 105z" />
    <glyph glyph-name="guillemotright" unicode="&#xbb;" horiz-adv-x="484" 
d="M389 199v-9c-64 -37 -106 -73 -135 -96l-50 -40c-5 -4 -12 -11 -19 -11c-4 0 -7 3 -7 9c0 11 6 18 18 32l34 39c16 19 37 45 67 75l-19 35c-30 55 -43 100 -43 106c0 3 4 7 7 7c14 0 29 -34 103 -105zM238 199v-9c-64 -37 -106 -73 -135 -96l-50 -40
c-5 -4 -12 -11 -19 -11c-4 0 -7 3 -7 9c0 11 6 18 18 32l34 39c16 19 37 45 67 75l-19 35c-30 55 -43 100 -43 106c0 3 4 7 7 7c14 0 29 -34 103 -105z" />
    <glyph glyph-name="guilsinglleft" unicode="&#x2039;" horiz-adv-x="333" 
d="M19 190v9c64 37 106 72 135 95l51 41c5 4 11 11 18 11c4 0 8 -4 8 -10c0 -11 -7 -17 -19 -31l-33 -39c-16 -19 -38 -45 -68 -75l20 -36c30 -55 43 -100 43 -106c0 -3 -4 -6 -7 -6c-14 0 -30 34 -104 105z" />
    <glyph glyph-name="guilsinglright" unicode="&#x203a;" horiz-adv-x="333" 
d="M238 199v-9c-64 -37 -106 -73 -135 -96l-50 -40c-5 -4 -12 -11 -19 -11c-4 0 -7 3 -7 9c0 11 6 18 18 32l34 39c16 19 37 45 67 75l-19 35c-30 55 -43 100 -43 106c0 3 4 7 7 7c14 0 29 -34 103 -105z" />
    <glyph glyph-name="h" unicode="h" horiz-adv-x="547" 
d="M140 625h-71v28h27c62 0 124 3 184 10l-88 -377c55 77 107 115 170 115c59 0 93 -29 93 -75c0 -11 -1 -21 -4 -32l-56 -231c-1 -3 -1 -9 -1 -14c0 -12 4 -17 16 -17c19 0 57 34 85 107l20 -8c-33 -93 -87 -139 -165 -139c-51 0 -81 28 -81 69c0 12 3 30 9 54l45 180
c7 26 8 43 8 45c0 14 -9 22 -20 22c-34 0 -120 -86 -137 -161l-46 -201h-132z" />
    <glyph glyph-name="hungarumlaut" unicode="&#x2dd;" 
d="M248 605c13 24 25 42 52 42c19 0 39 -18 39 -41c0 -13 -7 -26 -21 -40l-110 -110h-41zM406 612c17 23 35 35 53 35c24 0 42 -20 42 -40c0 -16 -10 -30 -28 -44l-141 -107h-45z" />
    <glyph glyph-name="hyphen" unicode="-" horiz-adv-x="329" 
d="M276 257l-26 -120h-258l25 120h259z" />
    <glyph glyph-name="i" unicode="i" horiz-adv-x="294" 
d="M15 111l59 249h-69v28c69 1 140 6 210 14l-74 -322c-4 -18 -5 -29 -5 -31c0 -11 5 -16 16 -16c25 0 55 38 89 113l21 -9c-40 -100 -87 -145 -166 -145c-58 0 -88 26 -88 70c0 9 2 27 7 49zM106 562c0 38 30 70 69 70c38 0 70 -32 70 -70s-32 -69 -70 -69s-69 30 -69 69z
" />
    <glyph glyph-name="iacute" unicode="&#xed;" horiz-adv-x="294" 
d="M15 111l59 249h-69v28c69 1 140 6 210 14l-74 -322c-4 -18 -5 -29 -5 -31c0 -11 5 -16 16 -16c25 0 55 38 89 113l21 -9c-40 -100 -87 -145 -166 -145c-58 0 -88 26 -88 70c0 9 2 27 7 49zM115 456h-54l161 159c21 21 37 32 59 32c23 0 44 -22 44 -47
c0 -19 -12 -35 -36 -48z" />
    <glyph glyph-name="icircumflex" unicode="&#xee;" horiz-adv-x="294" 
d="M15 111l59 249h-69v28c69 1 140 6 210 14l-74 -322c-4 -18 -5 -29 -5 -31c0 -11 5 -16 16 -16c25 0 55 38 89 113l21 -9c-40 -100 -87 -145 -166 -145c-58 0 -88 26 -88 70c0 9 2 27 7 49zM303 456h-42l-86 91l-127 -91h-54l154 180h75z" />
    <glyph glyph-name="idieresis" unicode="&#xef;" horiz-adv-x="294" 
d="M15 111l59 249h-69v28c69 1 140 6 210 14l-74 -322c-4 -18 -5 -29 -5 -31c0 -11 5 -16 16 -16c25 0 55 38 89 113l21 -9c-40 -100 -87 -145 -166 -145c-58 0 -88 26 -88 70c0 9 2 27 7 49zM23 546c0 33 29 63 63 63c35 0 63 -29 63 -63c0 -37 -27 -63 -63 -63
c-35 0 -63 27 -63 63zM198 546c0 33 30 63 64 63c35 0 62 -29 62 -63c0 -37 -26 -63 -62 -63c-35 0 -64 27 -64 63z" />
    <glyph glyph-name="igrave" unicode="&#xec;" horiz-adv-x="294" 
d="M15 111l59 249h-69v28c69 1 140 6 210 14l-74 -322c-4 -18 -5 -29 -5 -31c0 -11 5 -16 16 -16c25 0 55 38 89 113l21 -9c-40 -100 -87 -145 -166 -145c-58 0 -88 26 -88 70c0 9 2 27 7 49zM257 456h-54l-139 99c-20 15 -33 27 -33 46c0 27 19 46 44 46
c19 0 34 -11 52 -32z" />
    <glyph glyph-name="j" unicode="j" horiz-adv-x="302" 
d="M-11 -114l109 474h-68v28c70 1 139 5 209 14l-86 -380c-37 -162 -109 -239 -236 -239c-60 0 -93 30 -93 71c0 32 23 55 58 55c30 0 52 -21 52 -54c0 -16 -7 -26 -7 -32c0 -8 5 -13 13 -13c21 0 37 25 49 76zM130 562c0 38 31 70 70 70c38 0 69 -32 69 -70
s-31 -69 -69 -69s-70 30 -70 69z" />
    <glyph glyph-name="k" unicode="k" horiz-adv-x="517" 
d="M137 625h-70v28h27c62 0 123 3 184 10l-97 -421c14 10 27 14 44 14c3 0 10 0 20 -1c61 71 73 147 157 147c42 0 71 -27 71 -63c0 -34 -21 -55 -57 -55c-32 0 -50 17 -50 49c0 11 3 18 3 22c0 3 -4 7 -8 7c-31 0 -44 -55 -91 -111c68 -10 106 -51 106 -114
c0 -38 -14 -67 -14 -86c0 -13 4 -19 16 -19c20 0 55 35 86 107l21 -9c-41 -96 -86 -137 -166 -137c-55 0 -85 33 -85 79c0 18 3 37 10 55l18 46c4 12 7 28 7 36c0 12 -5 19 -16 20c-14 -20 -28 -30 -48 -30c-10 0 -21 3 -33 8l-47 -207h-131z" />
    <glyph glyph-name="l" unicode="l" horiz-adv-x="282" 
d="M12 120l117 505h-64v28h21c60 0 121 4 183 10l-134 -577c-2 -9 -4 -19 -4 -29c0 -13 8 -20 17 -20c26 0 59 35 88 106l22 -9c-38 -95 -90 -141 -162 -141c-55 0 -90 32 -90 83c0 11 2 26 6 44z" />
    <glyph glyph-name="less" unicode="&#x3c;" horiz-adv-x="833" 
d="M704 583v-107l-436 -178l436 -178v-107l-575 237v97z" />
    <glyph glyph-name="logicalnot" unicode="&#xac;" horiz-adv-x="833" 
d="M124 422h585v-245h-97v149h-488v96z" />
    <glyph glyph-name="lslash" unicode="&#x142;" horiz-adv-x="296" 
d="M19 120l33 146l-89 -51v36l99 55l74 319h-64v28h21c60 0 121 4 183 10l-71 -306l90 52v-36l-100 -56l-53 -231c-2 -7 -4 -17 -4 -29c0 -13 8 -20 17 -20c26 0 59 35 88 106l22 -9c-38 -95 -90 -141 -162 -141c-55 0 -90 32 -90 83c0 11 2 26 6 44z" />
    <glyph glyph-name="m" unicode="m" horiz-adv-x="788" 
d="M122 0h-126l83 360h-63v28h23c56 0 114 3 175 10l-26 -113c43 76 106 117 166 117c54 0 85 -35 85 -85c0 -12 -1 -24 -3 -35c45 79 106 120 176 120c54 0 84 -26 84 -73c0 -11 -2 -25 -6 -41l-56 -230c-1 -3 -1 -7 -1 -12c0 -10 5 -14 16 -14c22 0 54 34 86 106l21 -8
c-37 -93 -88 -138 -163 -138c-50 0 -80 26 -80 70c0 11 2 29 8 53l51 209c2 9 4 15 4 21c0 11 -7 18 -16 18c-44 0 -124 -90 -143 -172l-45 -191h-126l75 321c2 8 2 16 2 25c0 10 -6 17 -16 17c-34 0 -118 -71 -148 -202z" />
    <glyph glyph-name="macron" unicode="&#xaf;" 
d="M138 508l16 76h281l-16 -76h-281z" />
    <glyph glyph-name="minus" unicode="&#x2212;" horiz-adv-x="833" 
d="M124 348h585v-99h-585v99z" />
    <glyph glyph-name="mu" unicode="&#x3bc;" horiz-adv-x="587" 
d="M87 102c-28 -211 -18 -309 -90 -309c-35 0 -56 21 -56 56c0 48 47 155 85 333l53 250h125l-48 -224c-7 -32 -11 -56 -11 -72c0 -38 21 -61 56 -61c47 0 75 35 90 107l53 250h125l-56 -260c-5 -23 -8 -40 -8 -54c0 -31 11 -43 36 -43s41 10 54 38c16 35 19 58 37 58
c10 0 16 -7 16 -19c0 -16 -8 -56 -29 -93c-26 -47 -63 -71 -115 -71c-56 0 -84 31 -90 97c-26 -68 -61 -97 -121 -97s-99 40 -106 114z" />
    <glyph glyph-name="multiply" unicode="&#xd7;" horiz-adv-x="833" 
d="M203 587l220 -220l220 220l69 -68l-220 -221l220 -220l-69 -68l-220 220l-220 -220l-68 68l220 220l-220 221z" />
    <glyph glyph-name="n" unicode="n" horiz-adv-x="547" 
d="M128 0h-132l82 361h-68v27c68 1 137 6 207 14l-30 -121c57 81 111 121 175 121c59 0 94 -30 94 -76c0 -11 -1 -21 -4 -32l-57 -231c-1 -3 -1 -8 -1 -12c0 -13 3 -19 16 -19c18 0 57 34 85 107l21 -8c-33 -93 -88 -138 -166 -138c-50 0 -81 25 -81 64c0 6 1 28 9 58
l47 190c4 18 6 31 6 38c0 13 -7 19 -20 19c-35 0 -119 -84 -137 -160z" />
    <glyph glyph-name="nine" unicode="9" horiz-adv-x="606" 
d="M383 333c30 110 38 192 38 231c0 50 -22 74 -72 74c-52 0 -86 -25 -102 -77c-20 -66 -35 -171 -35 -229c0 -44 17 -65 54 -65c35 0 78 21 117 66zM366 274c-45 -29 -89 -44 -135 -44c-104 0 -176 73 -176 176c0 140 129 260 293 260c137 0 222 -90 222 -232
c0 -110 -64 -234 -183 -326c-94 -73 -204 -114 -333 -125v33c162 22 275 119 312 258z" />
    <glyph glyph-name="ntilde" unicode="&#xf1;" horiz-adv-x="547" 
d="M128 0h-132l82 361h-68v27c68 1 137 6 207 14l-30 -121c57 81 111 121 175 121c59 0 94 -30 94 -76c0 -11 -1 -21 -4 -32l-57 -231c-1 -3 -1 -8 -1 -12c0 -13 3 -19 16 -19c18 0 57 34 85 107l21 -8c-33 -93 -88 -138 -166 -138c-50 0 -81 25 -81 64c0 6 1 28 9 58
l47 190c4 18 6 31 6 38c0 13 -7 19 -20 19c-35 0 -119 -84 -137 -160zM453 619c-19 -82 -48 -121 -99 -121c-9 0 -20 0 -31 3l-50 12c-16 4 -28 6 -34 6c-29 0 -45 -14 -58 -46h-33c20 84 46 124 98 124c10 0 24 -2 41 -6l56 -13c7 -2 14 -2 22 -2c28 0 43 12 55 43h33z" />
    <glyph glyph-name="numbersign" unicode="#" horiz-adv-x="769" 
d="M347 715h105l-72 -203h124l73 203h104l-72 -203h138l-36 -96h-136l-43 -122h143l-35 -96h-142l-72 -203h-105l72 203h-124l-73 -203h-105l72 203h-141l36 96h140l43 122h-148l36 96h146zM344 416l-44 -122h129l43 122h-128z" />
    <glyph glyph-name="o" unicode="o" horiz-adv-x="546" 
d="M8 152c0 127 128 249 282 249c114 0 187 -69 187 -168c0 -126 -127 -246 -285 -246c-113 0 -184 69 -184 165zM283 378c-58 0 -75 -27 -93 -86c-35 -111 -45 -202 -45 -226c0 -38 19 -55 60 -55c50 0 71 24 88 77c38 118 47 212 47 235c0 37 -18 55 -57 55z" />
    <glyph glyph-name="oacute" unicode="&#xf3;" horiz-adv-x="546" 
d="M8 152c0 127 128 249 282 249c114 0 187 -69 187 -168c0 -126 -127 -246 -285 -246c-113 0 -184 69 -184 165zM283 378c-58 0 -75 -27 -93 -86c-35 -111 -45 -202 -45 -226c0 -38 19 -55 60 -55c50 0 71 24 88 77c38 118 47 212 47 235c0 37 -18 55 -57 55zM259 456h-54
l161 159c21 21 37 32 59 32c23 0 44 -22 44 -47c0 -19 -12 -35 -36 -48z" />
    <glyph glyph-name="ocircumflex" unicode="&#xf4;" horiz-adv-x="546" 
d="M8 152c0 127 128 249 282 249c114 0 187 -69 187 -168c0 -126 -127 -246 -285 -246c-113 0 -184 69 -184 165zM283 378c-58 0 -75 -27 -93 -86c-35 -111 -45 -202 -45 -226c0 -38 19 -55 60 -55c50 0 71 24 88 77c38 118 47 212 47 235c0 37 -18 55 -57 55zM447 456h-42
l-86 91l-127 -91h-54l154 180h75z" />
    <glyph glyph-name="odieresis" unicode="&#xf6;" horiz-adv-x="546" 
d="M8 152c0 127 128 249 282 249c114 0 187 -69 187 -168c0 -126 -127 -246 -285 -246c-113 0 -184 69 -184 165zM283 378c-58 0 -75 -27 -93 -86c-35 -111 -45 -202 -45 -226c0 -38 19 -55 60 -55c50 0 71 24 88 77c38 118 47 212 47 235c0 37 -18 55 -57 55zM167 546
c0 33 29 63 63 63c35 0 63 -29 63 -63c0 -37 -27 -63 -63 -63c-35 0 -63 27 -63 63zM342 546c0 33 30 63 64 63c35 0 62 -29 62 -63c0 -37 -26 -63 -62 -63c-35 0 -64 27 -64 63z" />
    <glyph glyph-name="oe" unicode="&#x153;" horiz-adv-x="772" 
d="M448 195c10 -1 14 -1 16 -1c5 0 8 -1 9 -1c89 0 132 48 132 120c0 40 -18 61 -51 61c-62 0 -80 -55 -106 -179zM276 378c-58 0 -75 -27 -93 -86c-35 -111 -44 -202 -44 -226c0 -38 18 -55 59 -55c50 0 71 24 88 77c38 118 47 212 47 235c0 37 -18 55 -57 55zM345 48
c-47 -41 -99 -61 -158 -61c-110 0 -184 71 -184 163c0 130 131 252 274 252c57 0 98 -17 136 -60c38 34 91 59 147 59c85 0 140 -47 140 -108c0 -83 -66 -128 -195 -128h-66c-11 -43 -18 -75 -18 -99c0 -35 19 -51 62 -51c63 0 129 35 189 105l19 -16
c-67 -79 -134 -117 -212 -117c-56 0 -100 19 -134 61z" />
    <glyph glyph-name="ogonek" unicode="&#x2db;" 
d="M260 15c-54 -43 -81 -81 -81 -127c0 -35 16 -55 43 -55c22 0 40 11 55 34l16 -9c-27 -56 -65 -84 -114 -84s-80 30 -80 75c0 54 45 110 135 166h26z" />
    <glyph glyph-name="ograve" unicode="&#xf2;" horiz-adv-x="546" 
d="M8 152c0 127 128 249 282 249c114 0 187 -69 187 -168c0 -126 -127 -246 -285 -246c-113 0 -184 69 -184 165zM283 378c-58 0 -75 -27 -93 -86c-35 -111 -45 -202 -45 -226c0 -38 19 -55 60 -55c50 0 71 24 88 77c38 118 47 212 47 235c0 37 -18 55 -57 55zM401 456h-54
l-139 99c-20 15 -33 27 -33 46c0 27 19 46 44 46c19 0 34 -11 52 -32z" />
    <glyph glyph-name="one" unicode="1" horiz-adv-x="606" 
d="M161 612v29c97 6 196 14 297 23l-146 -632h130v-32h-396v32h117l124 533c2 7 3 14 3 19c0 19 -15 28 -47 28h-82z" />
    <glyph glyph-name="onehalf" unicode="&#xbd;" horiz-adv-x="931" 
d="M102 630v16c61 3 123 8 187 13l-92 -354h82v-18h-250v18h74l78 298c1 4 2 8 2 11c0 11 -9 16 -30 16h-51zM656 666h54l-447 -679h-53zM559 0v50c153 89 236 146 236 235c0 44 -22 68 -63 68c-43 0 -78 -23 -78 -39c0 -12 15 -5 32 -10c18 -6 29 -18 29 -34
c0 -21 -17 -38 -46 -38c-27 0 -50 23 -50 51c0 46 54 89 133 89c89 0 143 -43 143 -93c0 -63 -57 -99 -177 -161l-98 -52h178c5 0 8 1 10 1c14 0 22 5 26 16l12 30h17l-32 -113h-272z" />
    <glyph glyph-name="onequarter" unicode="&#xbc;" horiz-adv-x="931" 
d="M102 630v16c61 3 123 8 187 13l-92 -354h82v-18h-250v18h74l78 298c1 4 2 8 2 11c0 11 -9 16 -30 16h-51zM656 666h54l-447 -679h-53zM700 17l21 85h-160v28c80 85 169 164 268 242h56l-64 -250h63l11 40h17l-27 -103h-17l11 43h-63l-22 -85h55v-17h-201v17h52zM579 120
h149l48 186c-73 -58 -138 -120 -197 -186z" />
    <glyph glyph-name="onesuperior" unicode="&#xb9;" horiz-adv-x="400" 
d="M106 628v18c64 3 129 8 196 13l-96 -379h85v-19h-261v19h77l82 320c1 4 2 8 2 11c0 12 -10 17 -31 17h-54z" />
    <glyph glyph-name="ordfeminine" unicode="&#xaa;" horiz-adv-x="413" 
d="M289 430c-2 -8 -3 -15 -3 -19c0 -8 3 -13 10 -13c18 0 41 25 65 75l16 -7c-28 -65 -67 -100 -111 -100c-35 0 -56 22 -56 60c0 3 1 6 1 10c-27 -49 -61 -73 -104 -73c-59 0 -104 44 -104 110c0 92 89 180 172 180c42 0 70 -19 76 -54l13 47h83zM191 632
c-27 0 -43 -26 -60 -72c-27 -80 -35 -133 -35 -145c0 -20 12 -30 29 -30c25 0 54 21 76 65c23 47 35 97 35 126c0 37 -16 56 -45 56z" />
    <glyph glyph-name="ordmasculine" unicode="&#xba;" horiz-adv-x="410" 
d="M6 478c0 89 96 175 212 175c85 0 140 -49 140 -118c0 -88 -95 -172 -214 -172c-85 0 -138 48 -138 115zM212 637c-43 0 -56 -19 -69 -61c-27 -77 -34 -141 -34 -158c0 -26 14 -38 45 -38c37 0 53 16 66 54c28 82 35 148 35 164c0 26 -13 39 -43 39z" />
    <glyph glyph-name="oslash" unicode="&#xf8;" horiz-adv-x="546" 
d="M76 -116h-39l72 118c-67 29 -101 81 -101 150c0 60 29 122 81 170c54 50 128 79 191 79c18 0 43 -3 72 -8l58 97h40l-66 -108c63 -35 93 -82 93 -147c0 -63 -30 -126 -86 -175c-54 -47 -127 -73 -185 -73c-17 0 -38 2 -64 5zM161 23c16 -10 30 -13 48 -13
c76 0 99 88 131 302zM145 59l186 299c-13 14 -27 19 -48 19c-51 0 -71 -21 -88 -70c-22 -66 -42 -152 -50 -248z" />
    <glyph glyph-name="otilde" unicode="&#xf5;" horiz-adv-x="546" 
d="M8 152c0 127 128 249 282 249c114 0 187 -69 187 -168c0 -126 -127 -246 -285 -246c-113 0 -184 69 -184 165zM283 378c-58 0 -75 -27 -93 -86c-35 -111 -45 -202 -45 -226c0 -38 19 -55 60 -55c50 0 71 24 88 77c38 118 47 212 47 235c0 37 -18 55 -57 55zM470 619
c-19 -82 -48 -121 -99 -121c-9 0 -20 0 -31 3l-50 12c-16 4 -28 6 -34 6c-29 0 -45 -14 -58 -46h-33c20 84 46 124 98 124c10 0 24 -2 41 -6l56 -13c7 -2 14 -2 22 -2c28 0 43 12 55 43h33z" />
    <glyph glyph-name="p" unicode="p" horiz-adv-x="547" 
d="M-46 -188l127 548h-77v28c75 2 146 6 213 14l-22 -87c36 58 80 86 136 86c82 0 145 -63 145 -152c0 -50 -19 -112 -54 -163c-46 -67 -103 -99 -174 -99c-48 0 -83 21 -107 62l-54 -237h82v-27h-288v27h73zM306 370c-36 0 -70 -27 -98 -77c-31 -57 -52 -134 -52 -190
c0 -49 31 -84 70 -84c29 0 44 23 61 70c46 125 60 228 60 236c0 28 -15 45 -41 45z" />
    <glyph glyph-name="paragraph" unicode="&#xb6;" 
d="M480 722v-54h-55v-668h-74v668h-78v-668h-74v383c-111 4 -179 73 -179 169c0 100 73 170 191 170h269z" />
    <glyph glyph-name="parenleft" unicode="(" horiz-adv-x="370" 
d="M212 -233c-93 135 -139 266 -139 406c0 187 109 353 328 493l11 -15c-49 -39 -113 -101 -158 -216c-27 -68 -41 -135 -54 -200c-19 -94 -31 -170 -31 -230c0 -82 21 -159 61 -227z" />
    <glyph glyph-name="parenright" unicode=")" horiz-adv-x="370" 
d="M108 665c93 -135 139 -266 139 -406c0 -187 -109 -353 -328 -493l-12 15c74 59 123 127 158 216c27 68 42 135 55 200c19 94 30 170 30 230c0 82 -20 159 -60 227z" />
    <glyph glyph-name="percent" unicode="%" horiz-adv-x="989" 
d="M249 -31l351 618c-40 -30 -83 -42 -134 -42c-20 0 -41 3 -65 9c1 -18 1 -28 1 -32c0 -129 -101 -251 -208 -251c-83 0 -141 53 -141 132c0 63 27 124 79 180c44 47 97 72 151 72s88 -21 108 -65c25 -11 49 -18 77 -18c81 0 139 33 188 106h48l-405 -709h-50zM375 566
c-24 10 -43 23 -60 43c-33 -6 -53 -29 -77 -67c-53 -86 -74 -153 -74 -185c0 -30 23 -52 56 -52c75 0 159 116 159 215c0 12 -2 28 -4 46zM684 -5c-87 0 -139 54 -139 134c0 48 24 110 69 163c48 56 107 86 161 86c73 0 120 -46 120 -125c0 -58 -25 -129 -69 -184
c-41 -50 -86 -74 -142 -74zM658 89c0 -41 19 -61 56 -61c69 0 155 113 155 232c0 50 -21 77 -54 77s-60 -29 -92 -84c-47 -80 -65 -142 -65 -164z" />
    <glyph glyph-name="period" unicode="." horiz-adv-x="303" 
d="M30 66c0 43 35 79 79 79c43 0 78 -36 78 -79s-36 -79 -79 -79s-78 35 -78 79z" />
    <glyph glyph-name="periodcentered" unicode="&#xb7;" horiz-adv-x="303" 
d="M69 329c0 44 36 80 80 80c43 0 79 -36 79 -80c0 -42 -34 -80 -79 -80c-43 0 -80 35 -80 80z" />
    <glyph glyph-name="perthousand" unicode="&#x2030;" horiz-adv-x="1390" 
d="M249 -31l351 618c-40 -30 -83 -42 -134 -42c-20 0 -41 3 -65 9c1 -18 1 -28 1 -32c0 -129 -101 -251 -208 -251c-83 0 -141 53 -141 132c0 63 27 124 79 180c44 47 97 72 151 72s88 -21 108 -65c25 -11 49 -18 77 -18c81 0 139 33 188 106h48l-405 -709h-50zM375 566
c-24 10 -43 23 -60 43c-33 -6 -53 -29 -77 -67c-53 -86 -74 -153 -74 -185c0 -30 23 -52 56 -52c75 0 159 116 159 215c0 12 -2 28 -4 46zM684 -5c-87 0 -139 54 -139 134c0 48 24 110 69 163c48 56 107 86 161 86c73 0 120 -46 120 -125c0 -58 -25 -129 -69 -184
c-41 -50 -86 -74 -142 -74zM658 89c0 -41 19 -61 56 -61c69 0 155 113 155 232c0 50 -21 77 -54 77s-60 -29 -92 -84c-47 -80 -65 -142 -65 -164zM1123 -5c-87 0 -139 54 -139 134c0 48 24 110 69 163c48 56 107 86 161 86c73 0 120 -46 120 -125c0 -58 -25 -129 -69 -184
c-41 -50 -86 -74 -142 -74zM1099 89c0 -41 19 -61 56 -61c69 0 155 113 155 232c0 50 -21 77 -54 77s-60 -29 -92 -84c-47 -80 -65 -142 -65 -164z" />
    <glyph glyph-name="plus" unicode="+" horiz-adv-x="833" 
d="M367 596h99v-249h243v-97h-243v-250h-99v250h-243v97h243v249z" />
    <glyph glyph-name="plusminus" unicode="&#xb1;" horiz-adv-x="833" 
d="M367 597h99v-159h243v-97h-243v-159h-99v159h-243v97h243v159zM124 96h585v-97h-585v97z" />
    <glyph glyph-name="q" unicode="q" horiz-adv-x="550" 
d="M283 74c-35 -59 -78 -86 -138 -86c-78 0 -136 71 -136 158c0 59 25 122 74 176c48 53 103 80 161 80c56 0 87 -25 97 -79l15 65h130l-132 -575h65v-28h-253v28h57zM260 379c-30 0 -50 -24 -68 -74c-44 -124 -57 -238 -57 -251c0 -28 9 -39 34 -39c75 0 156 127 156 269
c0 61 -29 95 -65 95z" />
    <glyph glyph-name="question" unicode="?" horiz-adv-x="494" 
d="M156 193c0 6 -1 14 -1 23c0 91 13 151 87 200c56 37 127 58 127 134c0 58 -39 91 -105 91c-47 0 -74 -23 -74 -36c0 -11 47 -18 47 -69c0 -36 -24 -62 -65 -62c-38 0 -62 27 -62 69c0 64 61 123 165 123c105 0 178 -69 178 -170c0 -94 -67 -160 -203 -218
c-41 -18 -63 -23 -71 -85h-23zM70 66c0 43 35 79 79 79c43 0 78 -36 78 -79s-35 -79 -78 -79s-79 35 -79 79z" />
    <glyph glyph-name="questiondown" unicode="&#xbf;" horiz-adv-x="494" 
d="M336 460v-23c0 -91 -13 -151 -87 -200c-56 -37 -127 -58 -127 -134c0 -58 39 -92 105 -92c47 0 75 24 75 37c0 11 -48 17 -48 68c0 36 24 63 65 63c38 0 62 -27 62 -69c0 -64 -60 -123 -164 -123c-105 0 -179 69 -179 170c0 94 67 160 203 218c41 18 63 23 71 85h24z
M421 587c0 -43 -35 -79 -79 -79c-43 0 -78 36 -78 79s35 79 78 79s79 -35 79 -79z" />
    <glyph glyph-name="quotedbl" unicode="&#x22;" horiz-adv-x="345" 
d="M99 416h-20l-39 225c-1 7 -1 12 -1 18c0 34 20 56 50 56c31 0 50 -20 50 -54c0 -6 0 -13 -1 -20zM265 416h-20l-39 225c-1 6 -2 13 -2 18c0 35 20 56 51 56s51 -20 51 -54c0 -6 -1 -13 -2 -20z" />
    <glyph glyph-name="quotedblbase" unicode="&#x201e;" horiz-adv-x="557" 
d="M273 -180l-11 21c101 48 151 99 151 162c0 14 -2 24 -12 35c-6 -31 -30 -50 -61 -50c-40 0 -73 28 -73 75c0 51 33 82 82 82c64 0 107 -50 107 -120c0 -83 -63 -157 -183 -205zM19 -180l-11 21c101 48 151 99 151 162c0 14 -2 24 -12 35c-6 -31 -30 -50 -61 -50
c-40 0 -73 28 -73 75c0 51 33 82 82 82c64 0 108 -50 108 -120c0 -83 -64 -157 -184 -205z" />
    <glyph glyph-name="quotedblleft" unicode="&#x201c;" horiz-adv-x="557" 
d="M518 666l11 -22c-101 -48 -151 -99 -151 -162c0 -14 2 -24 12 -35c6 31 30 50 61 50c40 0 73 -28 73 -75c0 -51 -33 -82 -82 -82c-64 0 -108 50 -108 120c0 83 64 158 184 206zM264 666l11 -22c-101 -48 -151 -99 -151 -162c0 -14 2 -24 12 -35c6 31 30 50 61 50
c40 0 73 -28 73 -75c0 -51 -33 -82 -82 -82c-64 0 -107 50 -107 120c0 83 63 158 183 206z" />
    <glyph glyph-name="quotedblright" unicode="&#x201d;" horiz-adv-x="557" 
d="M360 341l-11 21c101 48 151 99 151 162c0 14 -2 24 -12 35c-6 -31 -30 -50 -61 -50c-40 0 -73 28 -73 75c0 51 33 82 82 82c64 0 108 -50 108 -120c0 -85 -66 -158 -184 -205zM106 341l-11 21c101 48 152 99 152 162c0 14 -3 24 -13 35c-6 -31 -30 -50 -61 -50
c-40 0 -73 28 -73 75c0 51 33 82 82 82c64 0 108 -50 108 -120c0 -83 -64 -157 -184 -205z" />
    <glyph glyph-name="quoteleft" unicode="&#x2018;" horiz-adv-x="303" 
d="M264 666l11 -22c-101 -48 -151 -99 -151 -162c0 -14 2 -24 12 -35c6 31 30 50 61 50c40 0 73 -28 73 -75c0 -51 -33 -82 -82 -82c-64 0 -107 50 -107 120c0 83 63 158 183 206z" />
    <glyph glyph-name="quoteright" unicode="&#x2019;" horiz-adv-x="303" 
d="M105 341l-11 21c101 48 152 99 152 162c0 14 -3 24 -13 35c-6 -31 -30 -50 -61 -50c-40 0 -73 28 -73 75c0 51 33 82 82 82c64 0 108 -50 108 -120c0 -83 -64 -157 -184 -205z" />
    <glyph glyph-name="quotesinglbase" unicode="&#x201a;" horiz-adv-x="303" 
d="M19 -180l-11 21c101 48 151 99 151 162c0 14 -2 24 -12 35c-6 -31 -30 -50 -61 -50c-40 0 -73 28 -73 75c0 51 33 82 82 82c64 0 108 -50 108 -120c0 -83 -64 -157 -184 -205z" />
    <glyph glyph-name="quotesingle" unicode="'" horiz-adv-x="178" 
d="M99 416h-20l-39 225c-1 6 -2 13 -2 18c0 35 20 56 51 56s50 -20 50 -54c0 -6 0 -13 -1 -20z" />
    <glyph glyph-name="r" unicode="r" horiz-adv-x="382" 
d="M128 0h-133l84 360h-66v28c69 1 138 6 207 14l-26 -115c52 76 86 115 129 115c29 0 55 -22 55 -60c0 -37 -29 -57 -56 -57c-39 0 -36 36 -57 36c-28 0 -78 -64 -100 -159z" />
    <glyph glyph-name="registered" unicode="&#xae;" horiz-adv-x="822" 
d="M412 690c95 0 190 -41 257 -110c63 -65 99 -156 99 -255c0 -89 -41 -184 -113 -254c-65 -63 -151 -97 -244 -97c-71 0 -138 20 -196 59c-102 68 -161 176 -161 298c0 95 37 185 104 253c66 67 158 106 254 106zM412 639c-82 0 -160 -33 -217 -91
c-58 -59 -89 -135 -89 -217c0 -83 31 -159 89 -217c59 -59 133 -89 216 -89c82 0 158 31 215 89c58 59 90 137 90 217c0 81 -33 162 -90 218c-57 57 -135 90 -214 90zM227 536h197c101 0 157 -44 157 -97c0 -58 -42 -86 -136 -102c61 -14 96 -44 107 -95
c9 -38 -2 -77 27 -77c18 0 28 19 28 57v6h25v-11c0 -57 -29 -88 -84 -88c-32 0 -55 10 -68 27c-20 28 -13 64 -19 98c-9 52 -35 75 -81 75h-9v-120c0 -31 11 -40 48 -45v-25h-192v25c39 2 52 12 52 45v255c0 33 -13 43 -52 46v26zM371 353c7 -1 14 -1 21 -1
c62 0 94 29 94 88c0 36 -29 71 -73 71c-28 0 -42 -10 -42 -32v-126z" />
    <glyph glyph-name="ring" unicode="&#x2da;" 
d="M166 573c0 70 56 125 126 125s126 -55 126 -125c0 -71 -56 -126 -126 -126s-126 55 -126 126zM226 572c0 -36 29 -66 66 -66c36 0 65 30 65 66c0 38 -29 66 -65 66c-37 0 -66 -28 -66 -66z" />
    <glyph glyph-name="s" unicode="s" horiz-adv-x="382" 
d="M130 -13c-92 0 -143 42 -143 93c0 34 21 58 55 58s55 -21 55 -50c0 -24 -13 -38 -13 -49c0 -18 18 -28 53 -28c47 0 81 21 81 53c0 29 -27 48 -72 77c-65 42 -102 76 -102 128c0 67 59 133 156 133c73 0 117 -33 117 -75c0 -28 -17 -48 -44 -48c-29 0 -51 21 -51 51
c0 12 3 22 3 28c0 14 -11 21 -34 21c-40 0 -66 -18 -66 -39c0 -29 39 -41 96 -79c54 -36 80 -75 80 -126c0 -87 -63 -148 -171 -148z" />
    <glyph glyph-name="scaron" unicode="&#x161;" horiz-adv-x="382" 
d="M130 -13c-92 0 -143 42 -143 93c0 34 21 58 55 58s55 -21 55 -50c0 -24 -13 -38 -13 -49c0 -18 18 -28 53 -28c47 0 81 21 81 53c0 29 -27 48 -72 77c-65 42 -102 76 -102 128c0 67 59 133 156 133c73 0 117 -33 117 -75c0 -28 -17 -48 -44 -48c-29 0 -51 21 -51 51
c0 12 3 22 3 28c0 14 -11 21 -34 21c-40 0 -66 -18 -66 -39c0 -29 39 -41 96 -79c54 -36 80 -75 80 -126c0 -87 -63 -148 -171 -148zM91 636h41l87 -91l127 91h54l-154 -180h-75z" />
    <glyph glyph-name="section" unicode="&#xa7;" 
d="M282 88c41 -46 61 -97 61 -135c0 -74 -66 -126 -171 -126c-95 0 -149 49 -149 108c0 37 32 68 67 68c31 0 53 -23 53 -49c0 -32 -34 -49 -34 -66c0 -18 22 -34 55 -34c49 0 80 30 80 79c0 48 -33 84 -80 143l-50 62c-41 52 -68 93 -68 142c0 76 59 127 152 127h5
c-41 49 -62 91 -62 128c0 78 64 130 165 130c95 0 149 -44 149 -99c0 -39 -35 -67 -68 -67c-32 0 -57 23 -57 49c0 30 30 42 30 58c0 13 -20 30 -51 30c-48 0 -79 -28 -79 -69c0 -40 34 -82 85 -146l50 -62c43 -53 69 -96 69 -146c0 -76 -58 -125 -152 -125zM133 317
c0 -28 18 -65 52 -111c38 -51 62 -83 108 -83c31 0 54 25 54 56c0 30 -18 66 -51 111c-40 55 -70 83 -97 83c-35 0 -66 -26 -66 -56z" />
    <glyph glyph-name="semicolon" unicode=";" horiz-adv-x="329" 
d="M31 -181l-10 22c101 48 151 98 151 161c0 14 -3 24 -13 35c-6 -31 -29 -50 -60 -50c-40 0 -74 28 -74 75c0 51 34 82 83 82c64 0 107 -50 107 -120c0 -83 -64 -157 -184 -205zM80 324c0 43 34 78 78 78c43 0 79 -35 79 -78s-36 -79 -79 -79s-78 35 -78 79z" />
    <glyph glyph-name="seven" unicode="7" horiz-adv-x="606" 
d="M117 456h-36l112 198h400v-45l-152 -184c-85 -103 -124 -196 -124 -242c0 -33 15 -65 15 -99c0 -58 -40 -96 -91 -96c-53 0 -86 31 -86 76c0 62 62 148 169 275l164 194h-300c-15 0 -27 -9 -39 -27z" />
    <glyph glyph-name="six" unicode="6" horiz-adv-x="606" 
d="M233 378c45 29 89 44 135 44c104 0 176 -73 176 -176c0 -139 -126 -259 -292 -259c-139 0 -222 88 -222 230c0 112 65 236 188 330c97 74 204 113 328 120v-32c-162 -21 -272 -112 -313 -257zM217 318c-31 -113 -40 -194 -40 -231c0 -50 20 -71 72 -71c57 0 87 22 103 75
c20 65 36 169 36 228c0 44 -18 66 -55 66c-35 0 -77 -22 -116 -67z" />
    <glyph glyph-name="slash" unicode="/" horiz-adv-x="273" 
d="M24 -93h-53l252 759h53z" />
    <glyph glyph-name="space" unicode=" " horiz-adv-x="303" 
 />
    <glyph glyph-name="sterling" unicode="&#xa3;" horiz-adv-x="606" 
d="M46 351v32h95c10 176 111 282 249 282c100 0 158 -58 158 -131c0 -47 -27 -78 -72 -78c-36 0 -63 26 -63 64c0 46 40 52 40 80c0 21 -20 36 -54 36c-64 0 -97 -43 -97 -128c0 -24 3 -50 3 -77c0 -11 -1 -27 -2 -48h119v-32h-121c-9 -96 -47 -163 -123 -216l3 -7
c27 19 52 27 83 27c79 0 143 -59 203 -59c37 0 57 17 57 44s-25 53 -68 60l7 21c59 -8 95 -47 95 -97c0 -72 -63 -135 -161 -135c-57 0 -92 21 -125 40c-47 27 -82 49 -116 49c-33 0 -42 -17 -51 -46c-8 -27 -15 -46 -43 -46c-20 0 -36 15 -36 29c0 31 27 41 59 68
c40 33 57 100 57 204c0 20 -1 41 -2 64h-94z" />
    <glyph glyph-name="t" unicode="t" horiz-adv-x="326" 
d="M16 109l60 254h-50v28h60l25 111c18 -1 33 -2 45 -2c27 0 56 3 87 8l-27 -117h59v-28h-66l-68 -293c-1 -6 -3 -11 -3 -16c0 -10 6 -16 16 -16c27 0 60 35 89 105l21 -9c-31 -91 -92 -141 -163 -141c-60 0 -92 25 -92 68c0 7 2 25 7 48z" />
    <glyph glyph-name="thorn" unicode="&#xfe;" horiz-adv-x="547" 
d="M-46 -188l187 813h-64v28c68 0 136 3 204 10l-76 -335c33 50 74 73 132 73c74 0 139 -63 139 -152c0 -50 -19 -111 -55 -163c-46 -67 -102 -99 -173 -99c-48 0 -84 21 -107 62l-54 -237h82v-27h-288v27h73zM306 370c-37 0 -70 -26 -98 -77c-32 -57 -53 -136 -53 -191
c0 -49 31 -83 74 -83c26 0 41 24 58 70c46 124 60 227 60 235c0 28 -15 46 -41 46z" />
    <glyph glyph-name="three" unicode="3" horiz-adv-x="606" 
d="M316 357v-7c122 -10 186 -65 186 -151c0 -113 -116 -211 -288 -211c-124 0 -191 54 -191 127c0 50 28 86 75 86c40 0 69 -29 69 -69c0 -67 -64 -54 -64 -80c0 -17 37 -36 82 -36c93 0 154 94 154 232c0 55 -32 85 -93 85c-24 0 -41 -7 -54 -7c-22 0 -34 5 -34 24
c0 12 9 19 26 19s34 -5 49 -5c69 0 147 79 147 186c0 61 -26 90 -83 90c-37 0 -72 -18 -72 -34c0 -18 43 -24 43 -69c0 -37 -24 -60 -63 -60c-37 0 -64 26 -64 65c0 64 73 123 187 123c123 0 203 -61 203 -139c0 -80 -75 -148 -215 -169z" />
    <glyph glyph-name="threequarters" unicode="&#xbe;" horiz-adv-x="931" 
d="M199 487v-4c77 -6 117 -36 117 -85c0 -63 -73 -118 -181 -118c-78 0 -121 31 -121 71c0 28 18 49 48 49c25 0 43 -17 43 -39c0 -38 -40 -30 -40 -45c0 -9 23 -20 52 -20c58 0 97 53 97 130c0 31 -21 47 -59 47c-15 0 -26 -3 -34 -3c-14 0 -21 2 -21 13c0 7 5 11 16 11
s21 -3 31 -3c43 0 92 44 92 104c0 34 -16 50 -52 50c-23 0 -45 -10 -45 -19c0 -10 27 -13 27 -38c0 -21 -15 -34 -40 -34c-23 0 -40 15 -40 37c0 35 46 68 118 68c77 0 128 -34 128 -77c0 -45 -48 -83 -136 -95zM656 666h54l-447 -679h-53zM700 17l21 85h-160v28
c80 85 169 164 268 242h56l-64 -250h63l11 40h17l-27 -103h-17l11 43h-63l-22 -85h55v-17h-201v17h52zM579 120h149l48 186c-73 -58 -138 -120 -197 -186z" />
    <glyph glyph-name="threesuperior" unicode="&#xb3;" horiz-adv-x="400" 
d="M209 475v-4c80 -6 122 -39 122 -91c0 -67 -76 -126 -190 -126c-82 0 -126 32 -126 76c0 30 19 52 50 52c26 0 45 -18 45 -42c0 -40 -42 -32 -42 -48c0 -10 24 -21 54 -21c61 0 102 56 102 139c0 33 -21 51 -62 51c-15 0 -27 -4 -35 -4c-15 0 -23 3 -23 14c0 7 6 11 17 11
c12 0 23 -3 33 -3c45 0 97 48 97 112c0 37 -17 54 -55 54c-24 0 -47 -11 -47 -20c0 -11 28 -15 28 -42c0 -22 -16 -36 -42 -36c-24 0 -42 16 -42 39c0 39 48 74 123 74c82 0 134 -37 134 -83c0 -48 -49 -89 -141 -102z" />
    <glyph glyph-name="tilde" unicode="&#x2dc;" 
d="M439 619c-19 -82 -48 -121 -99 -121c-9 0 -20 0 -31 3l-50 12c-16 4 -28 6 -34 6c-29 0 -45 -14 -58 -46h-33c20 84 46 124 98 124c10 0 24 -2 41 -6l56 -13c7 -2 14 -2 22 -2c28 0 43 12 55 43h33z" />
    <glyph glyph-name="trademark" unicode="&#x2122;" horiz-adv-x="822" 
d="M116 710h220l6 -94h-16c-5 51 -24 74 -64 74h-3v-205c0 -15 6 -23 17 -25l15 -2v-16h-130v16l15 2c11 2 17 10 17 25v205h-5c-39 0 -57 -23 -62 -74h-16zM370 710h103l64 -180l63 180h97v-13l-13 -2c-13 -2 -18 -10 -18 -25v-185c0 -15 5 -23 18 -25l13 -2v-16h-124v16
l15 2c12 2 18 10 18 25v178l-76 -222h-18l-81 226v-182c0 -15 6 -23 18 -25l17 -2v-16h-96v16l17 2c12 2 18 10 18 25v182c0 15 -6 23 -18 25l-17 2v16z" />
    <glyph glyph-name="two" unicode="2" horiz-adv-x="606" 
d="M16 0v89c242 160 375 261 375 420c0 78 -36 121 -100 121c-69 0 -125 -40 -125 -70c0 -21 25 -9 52 -18c28 -10 45 -32 45 -59c0 -39 -27 -69 -73 -69c-42 0 -79 41 -79 92c0 81 86 158 211 158c141 0 228 -76 228 -165c0 -114 -91 -178 -281 -289l-157 -92h284
c7 0 12 1 15 1c22 0 35 9 42 29l18 54h28l-52 -202h-431z" />
    <glyph glyph-name="twosuperior" unicode="&#xb2;" horiz-adv-x="400" 
d="M11 261v53c159 96 247 157 247 252c0 47 -24 73 -66 73c-45 0 -82 -24 -82 -42c0 -13 16 -5 34 -11s30 -19 30 -35c0 -24 -18 -42 -49 -42c-27 0 -52 25 -52 56c0 48 57 94 140 94c93 0 150 -45 150 -99c0 -68 -60 -106 -185 -173l-104 -55h197c15 0 23 6 28 18l12 32h18
l-34 -121h-284z" />
    <glyph glyph-name="u" unicode="u" horiz-adv-x="549" 
d="M19 106l59 254h-68v28c69 1 140 6 210 14l-73 -316c-5 -20 -8 -33 -8 -39c0 -14 6 -21 20 -21c35 0 119 89 137 168l45 194h132l-76 -328c-2 -7 -2 -11 -2 -12c0 -12 6 -19 16 -19c17 0 56 34 86 107l20 -8c-36 -91 -88 -138 -153 -138c-59 0 -89 23 -89 66
c0 11 3 29 8 55c-53 -84 -106 -125 -177 -125c-60 0 -92 31 -92 71c0 17 2 34 5 49z" />
    <glyph glyph-name="uacute" unicode="&#xfa;" horiz-adv-x="549" 
d="M19 106l59 254h-68v28c69 1 140 6 210 14l-73 -316c-5 -20 -8 -33 -8 -39c0 -14 6 -21 20 -21c35 0 119 89 137 168l45 194h132l-76 -328c-2 -7 -2 -11 -2 -12c0 -12 6 -19 16 -19c17 0 56 34 86 107l20 -8c-36 -91 -88 -138 -153 -138c-59 0 -89 23 -89 66
c0 11 3 29 8 55c-53 -84 -106 -125 -177 -125c-60 0 -92 31 -92 71c0 17 2 34 5 49zM246 456h-54l161 159c21 21 37 32 59 32c23 0 44 -22 44 -47c0 -19 -12 -35 -36 -48z" />
    <glyph glyph-name="ucircumflex" unicode="&#xfb;" horiz-adv-x="549" 
d="M19 106l59 254h-68v28c69 1 140 6 210 14l-73 -316c-5 -20 -8 -33 -8 -39c0 -14 6 -21 20 -21c35 0 119 89 137 168l45 194h132l-76 -328c-2 -7 -2 -11 -2 -12c0 -12 6 -19 16 -19c17 0 56 34 86 107l20 -8c-36 -91 -88 -138 -153 -138c-59 0 -89 23 -89 66
c0 11 3 29 8 55c-53 -84 -106 -125 -177 -125c-60 0 -92 31 -92 71c0 17 2 34 5 49zM434 456h-42l-86 91l-127 -91h-54l154 180h75z" />
    <glyph glyph-name="udieresis" unicode="&#xfc;" horiz-adv-x="549" 
d="M19 106l59 254h-68v28c69 1 140 6 210 14l-73 -316c-5 -20 -8 -33 -8 -39c0 -14 6 -21 20 -21c35 0 119 89 137 168l45 194h132l-76 -328c-2 -7 -2 -11 -2 -12c0 -12 6 -19 16 -19c17 0 56 34 86 107l20 -8c-36 -91 -88 -138 -153 -138c-59 0 -89 23 -89 66
c0 11 3 29 8 55c-53 -84 -106 -125 -177 -125c-60 0 -92 31 -92 71c0 17 2 34 5 49zM154 546c0 33 29 63 63 63c35 0 63 -29 63 -63c0 -37 -27 -63 -63 -63c-35 0 -63 27 -63 63zM329 546c0 33 30 63 64 63c35 0 62 -29 62 -63c0 -37 -26 -63 -62 -63c-35 0 -64 27 -64 63z
" />
    <glyph glyph-name="ugrave" unicode="&#xf9;" horiz-adv-x="549" 
d="M19 106l59 254h-68v28c69 1 140 6 210 14l-73 -316c-5 -20 -8 -33 -8 -39c0 -14 6 -21 20 -21c35 0 119 89 137 168l45 194h132l-76 -328c-2 -7 -2 -11 -2 -12c0 -12 6 -19 16 -19c17 0 56 34 86 107l20 -8c-36 -91 -88 -138 -153 -138c-59 0 -89 23 -89 66
c0 11 3 29 8 55c-53 -84 -106 -125 -177 -125c-60 0 -92 31 -92 71c0 17 2 34 5 49zM388 456h-54l-139 99c-20 15 -33 27 -33 46c0 27 19 46 44 46c19 0 34 -11 52 -32z" />
    <glyph glyph-name="underscore" unicode="_" 
d="M0 -136h500v-100h-500v100z" />
    <glyph glyph-name="v" unicode="v" horiz-adv-x="437" 
d="M38 136l43 179c4 15 6 25 6 31c0 8 -5 15 -13 15c-24 0 -49 -35 -78 -104l-22 8c37 94 76 136 147 136c55 0 90 -31 90 -76c0 -8 -2 -25 -7 -47l-43 -188c-1 -6 -3 -14 -3 -21c0 -20 18 -33 42 -33c28 0 57 21 87 62c44 62 66 137 66 163c0 21 -6 30 -20 30
c-7 0 -11 -1 -14 -1c-28 0 -54 22 -54 54c0 33 26 56 57 56c47 0 72 -30 72 -85c0 -51 -18 -119 -58 -191c-51 -92 -116 -137 -189 -137c-77 0 -118 39 -118 92c0 16 4 35 9 57z" />
    <glyph glyph-name="w" unicode="w" horiz-adv-x="676" 
d="M307 186c-56 -134 -110 -199 -194 -199c-59 0 -94 34 -94 85c0 12 3 25 7 40l55 188c6 19 10 31 10 37c0 10 -6 16 -11 16c-21 0 -47 -33 -81 -98l-22 12c43 91 88 134 150 134c54 0 88 -34 88 -72c0 -18 -4 -38 -10 -59l-60 -206c-2 -9 -3 -14 -3 -17
c0 -10 6 -17 18 -17c47 0 125 122 185 361h128c-40 -154 -56 -258 -56 -306c0 -37 10 -55 29 -55c56 0 139 126 139 235c0 25 -2 32 -17 32c-6 0 -13 -3 -20 -3c-23 0 -45 19 -45 52c0 30 21 55 53 55c44 0 65 -32 65 -98c0 -67 -23 -151 -62 -214
c-42 -69 -94 -103 -152 -103c-65 0 -106 47 -106 127c0 17 2 42 6 73z" />
    <glyph glyph-name="x" unicode="x" horiz-adv-x="489" 
d="M170 128c-58 -93 -99 -141 -143 -141c-34 0 -54 24 -54 60c0 34 23 57 54 57c28 0 44 -23 61 -23c13 0 24 12 38 31l37 50l-32 147c-4 18 -9 26 -20 26c-16 0 -41 -31 -67 -94l-22 12c38 97 94 148 149 148c40 0 68 -24 81 -71l13 -44c45 76 79 114 117 114
c36 0 58 -22 58 -54s-21 -53 -47 -53c-32 0 -48 25 -62 25c-12 0 -30 -22 -59 -64l37 -182c4 -19 6 -29 20 -29c20 0 50 34 75 102l23 -9c-30 -97 -87 -149 -159 -149c-62 0 -76 38 -98 141z" />
    <glyph glyph-name="y" unicode="y" horiz-adv-x="492" 
d="M201 -39l-100 318c-10 30 -16 44 -30 44c-21 0 -40 -26 -64 -80l-24 11c42 98 96 148 159 148c39 0 64 -24 80 -78l53 -180l59 177c17 50 32 79 75 79c27 0 46 -21 46 -51c0 -31 -20 -52 -44 -52c-14 0 -23 8 -33 8c-13 0 -22 -16 -34 -48l-82 -222
c-62 -166 -120 -252 -217 -252c-44 0 -71 29 -71 70c0 36 27 65 61 65c29 0 47 -16 52 -45c4 -21 1 -33 19 -33c22 0 61 41 95 121z" />
    <glyph glyph-name="yacute" unicode="&#xfd;" horiz-adv-x="492" 
d="M201 -39l-100 318c-10 30 -16 44 -30 44c-21 0 -40 -26 -64 -80l-24 11c42 98 96 148 159 148c39 0 64 -24 80 -78l53 -180l59 177c17 50 32 79 75 79c27 0 46 -21 46 -51c0 -31 -20 -52 -44 -52c-14 0 -23 8 -33 8c-13 0 -22 -16 -34 -48l-82 -222
c-62 -166 -120 -252 -217 -252c-44 0 -71 29 -71 70c0 36 27 65 61 65c29 0 47 -16 52 -45c4 -21 1 -33 19 -33c22 0 61 41 95 121zM224 456h-54l161 159c21 21 37 32 59 32c23 0 44 -22 44 -47c0 -19 -12 -35 -36 -48z" />
    <glyph glyph-name="ydieresis" unicode="&#xff;" horiz-adv-x="492" 
d="M201 -39l-100 318c-10 30 -16 44 -30 44c-21 0 -40 -26 -64 -80l-24 11c42 98 96 148 159 148c39 0 64 -24 80 -78l53 -180l59 177c17 50 32 79 75 79c27 0 46 -21 46 -51c0 -31 -20 -52 -44 -52c-14 0 -23 8 -33 8c-13 0 -22 -16 -34 -48l-82 -222
c-62 -166 -120 -252 -217 -252c-44 0 -71 29 -71 70c0 36 27 65 61 65c29 0 47 -16 52 -45c4 -21 1 -33 19 -33c22 0 61 41 95 121zM132 546c0 33 29 63 63 63c35 0 63 -29 63 -63c0 -37 -27 -63 -63 -63c-35 0 -63 27 -63 63zM307 546c0 33 30 63 64 63c35 0 62 -29 62 -63
c0 -37 -26 -63 -62 -63c-35 0 -64 27 -64 63z" />
    <glyph glyph-name="yen" unicode="&#xa5;" horiz-adv-x="564" 
d="M66 0v32h84l56 262h-193v29h181l-38 90h-126v29h115l-71 174h-58v30h303v-30h-82l105 -283l148 229c9 15 13 25 13 33c0 14 -13 21 -39 21h-31v30h186v-30c-59 -2 -73 -27 -100 -69l-67 -105h119v-29h-137l-59 -90h174v-29h-192l-57 -262h88v-32h-322z" />
    <glyph glyph-name="z" unicode="z" horiz-adv-x="435" 
d="M28 225l-22 12l83 166c95 -33 172 -43 214 -43c44 0 20 41 55 41c13 0 23 -10 23 -23c0 -15 -13 -34 -39 -57l-242 -210c28 6 54 10 75 10c58 0 101 -27 133 -27c22 0 34 15 34 26c0 5 -3 8 -8 8c-3 0 -9 -2 -19 -2c-25 0 -43 15 -43 40c0 27 19 45 44 45
c32 0 53 -24 53 -67c0 -80 -62 -157 -151 -157c-19 0 -42 5 -64 15l-39 17c-28 12 -47 19 -58 19c-8 0 -10 -4 -10 -11c0 -2 2 -7 2 -14c0 -17 -10 -26 -26 -26c-21 0 -31 11 -31 33c0 33 21 57 62 92l236 200c-57 -27 -110 -40 -158 -40c-24 0 -47 4 -72 11z" />
    <glyph glyph-name="zcaron" unicode="&#x17e;" horiz-adv-x="435" 
d="M28 225l-22 12l83 166c95 -33 172 -43 214 -43c44 0 20 41 55 41c13 0 23 -10 23 -23c0 -15 -13 -34 -39 -57l-242 -210c28 6 54 10 75 10c58 0 101 -27 133 -27c22 0 34 15 34 26c0 5 -3 8 -8 8c-3 0 -9 -2 -19 -2c-25 0 -43 15 -43 40c0 27 19 45 44 45
c32 0 53 -24 53 -67c0 -80 -62 -157 -151 -157c-19 0 -42 5 -64 15l-39 17c-28 12 -47 19 -58 19c-8 0 -10 -4 -10 -11c0 -2 2 -7 2 -14c0 -17 -10 -26 -26 -26c-21 0 -31 11 -31 33c0 33 21 57 62 92l236 200c-57 -27 -110 -40 -158 -40c-24 0 -47 4 -72 11zM118 636h41
l87 -91l127 91h54l-154 -180h-75z" />
    <glyph glyph-name="zero" unicode="0" horiz-adv-x="606" 
d="M34 231c0 97 28 195 81 277c67 103 155 156 255 156c120 0 197 -89 197 -240c0 -95 -28 -193 -79 -274c-66 -106 -157 -162 -254 -162c-125 0 -200 90 -200 243zM361 637c-65 0 -92 -53 -122 -173c-56 -221 -67 -354 -67 -368c0 -57 18 -81 67 -81c62 0 88 47 117 154
c11 40 24 98 39 173c21 110 34 182 34 215c0 57 -19 80 -68 80z" />
  </font>
</defs>
</svg>
